<svg width="1760" height="52" viewBox="0 0 1760 52" fill="none" xmlns="http://www.w3.org/2000/svg">
<rect x="0.5" y="0.5" width="1759" height="51" rx="7.5" fill="#FFECD7"/>
<rect x="0.5" y="0.5" width="1759" height="51" rx="7.5" stroke="#FFB15D"/>
<g clip-path="url(#clip0_631_68056)">
<path d="M25.9993 34.3337C30.6017 34.3337 34.3327 30.6027 34.3327 26.0003C34.3327 21.398 30.6017 17.667 25.9993 17.667C21.397 17.667 17.666 21.398 17.666 26.0003C17.666 30.6027 21.397 34.3337 25.9993 34.3337Z" stroke="#B54708" stroke-width="1.5" stroke-linecap="round" stroke-linejoin="round"/>
<path d="M26 29.3333V26" stroke="#B54708" stroke-width="1.5" stroke-linecap="round" stroke-linejoin="round"/>
<path d="M26 22.667H26.0083" stroke="#B54708" stroke-width="1.5" stroke-linecap="round" stroke-linejoin="round"/>
</g>
<path d="M48.3331 20.8182H50.0781L52.7379 25.4467H52.8473L55.5071 20.8182H57.2521L53.5582 27.0028V31H52.027V27.0028L48.3331 20.8182ZM60.5421 31.1541C59.8262 31.1541 59.2014 30.9901 58.6678 30.6619C58.1342 30.3338 57.7199 29.8748 57.4249 29.2848C57.1299 28.6948 56.9824 28.0054 56.9824 27.2166C56.9824 26.4245 57.1299 25.7318 57.4249 25.1385C57.7199 24.5452 58.1342 24.0845 58.6678 23.7564C59.2014 23.4283 59.8262 23.2642 60.5421 23.2642C61.258 23.2642 61.8828 23.4283 62.4164 23.7564C62.95 24.0845 63.3643 24.5452 63.6593 25.1385C63.9542 25.7318 64.1017 26.4245 64.1017 27.2166C64.1017 28.0054 63.9542 28.6948 63.6593 29.2848C63.3643 29.8748 62.95 30.3338 62.4164 30.6619C61.8828 30.9901 61.258 31.1541 60.5421 31.1541ZM60.5471 29.9062C61.0111 29.9062 61.3955 29.7836 61.7005 29.5384C62.0054 29.2931 62.2308 28.9666 62.3766 28.5589C62.5257 28.1513 62.6003 27.7022 62.6003 27.2116C62.6003 26.7244 62.5257 26.277 62.3766 25.8693C62.2308 25.4583 62.0054 25.1286 61.7005 24.88C61.3955 24.6314 61.0111 24.5071 60.5471 24.5071C60.0797 24.5071 59.6919 24.6314 59.3837 24.88C59.0788 25.1286 58.8517 25.4583 58.7026 25.8693C58.5568 26.277 58.4838 26.7244 58.4838 27.2116C58.4838 27.7022 58.5568 28.1513 58.7026 28.5589C58.8517 28.9666 59.0788 29.2931 59.3837 29.5384C59.6919 29.7836 60.0797 29.9062 60.5471 29.9062ZM70.5984 27.8331V23.3636H72.0898V31H70.6282V29.6776H70.5487C70.373 30.0852 70.0913 30.425 69.7035 30.6967C69.319 30.9652 68.8401 31.0994 68.2667 31.0994C67.7762 31.0994 67.342 30.9917 66.9641 30.7763C66.5896 30.5575 66.2946 30.2344 66.0792 29.8068C65.8671 29.3793 65.761 28.8506 65.761 28.2209V23.3636H67.2475V28.0419C67.2475 28.5623 67.3917 28.9766 67.68 29.2848C67.9684 29.593 68.3429 29.7472 68.8036 29.7472C69.082 29.7472 69.3588 29.6776 69.6339 29.5384C69.9123 29.3991 70.1426 29.1887 70.3249 28.907C70.5105 28.6252 70.6017 28.2673 70.5984 27.8331ZM74.0872 31V23.3636H75.524V24.5767H75.6035C75.7427 24.1657 75.988 23.8426 76.3393 23.6072C76.694 23.3686 77.095 23.2493 77.5424 23.2493C77.6352 23.2493 77.7446 23.2526 77.8706 23.2592C77.9998 23.2659 78.1009 23.2741 78.1738 23.2841V24.706C78.1142 24.6894 78.0081 24.6712 77.8556 24.6513C77.7032 24.6281 77.5507 24.6165 77.3983 24.6165C77.0469 24.6165 76.7337 24.6911 76.4586 24.8402C76.1868 24.986 75.9714 25.1899 75.8123 25.4517C75.6532 25.7102 75.5737 26.0052 75.5737 26.3366V31H74.0872ZM83.1653 31V23.3636H84.6021V24.5767H84.6816C84.8208 24.1657 85.0661 23.8426 85.4174 23.6072C85.7721 23.3686 86.1731 23.2493 86.6206 23.2493C86.7134 23.2493 86.8227 23.2526 86.9487 23.2592C87.0779 23.2659 87.179 23.2741 87.252 23.2841V24.706C87.1923 24.6894 87.0862 24.6712 86.9338 24.6513C86.7813 24.6281 86.6288 24.6165 86.4764 24.6165C86.1251 24.6165 85.8118 24.6911 85.5368 24.8402C85.265 24.986 85.0495 25.1899 84.8904 25.4517C84.7314 25.7102 84.6518 26.0052 84.6518 26.3366V31H83.1653ZM91.5561 31.1541C90.8037 31.1541 90.1558 30.9934 89.6122 30.6719C89.072 30.3471 88.6544 29.8913 88.3594 29.3047C88.0677 28.7147 87.9219 28.0237 87.9219 27.2315C87.9219 26.4493 88.0677 25.7599 88.3594 25.1634C88.6544 24.5668 89.0653 24.1011 89.5923 23.7663C90.1226 23.4316 90.7424 23.2642 91.4517 23.2642C91.8826 23.2642 92.3002 23.3355 92.7045 23.478C93.1089 23.6205 93.4718 23.8442 93.7933 24.1491C94.1148 24.4541 94.3684 24.8501 94.554 25.3374C94.7396 25.8213 94.8324 26.4096 94.8324 27.1023V27.6293H88.7621V26.5156H93.3757C93.3757 26.1245 93.2962 25.7782 93.1371 25.4766C92.978 25.1716 92.7543 24.9313 92.4659 24.7557C92.1809 24.58 91.8461 24.4922 91.4616 24.4922C91.044 24.4922 90.6795 24.5949 90.3679 24.8004C90.0597 25.0026 89.821 25.2678 89.652 25.5959C89.4863 25.9207 89.4034 26.2737 89.4034 26.6548V27.5249C89.4034 28.0353 89.4929 28.4695 89.6719 28.8274C89.8542 29.1854 90.1077 29.4588 90.4325 29.6477C90.7573 29.8333 91.1368 29.9261 91.571 29.9261C91.8527 29.9261 92.1096 29.8864 92.3416 29.8068C92.5736 29.724 92.7741 29.6013 92.9432 29.4389C93.1122 29.2765 93.2415 29.076 93.331 28.8374L94.7379 29.0909C94.6252 29.5052 94.4231 29.8681 94.1314 30.1797C93.843 30.4879 93.4801 30.7282 93.0426 30.9006C92.6084 31.0696 92.1129 31.1541 91.5561 31.1541ZM101.637 33.8636V29.8118H101.548C101.458 29.9742 101.329 30.1598 101.16 30.3686C100.994 30.5774 100.766 30.7597 100.474 30.9155C100.182 31.0713 99.8044 31.1491 99.3404 31.1491C98.7239 31.1491 98.1737 30.9917 97.6898 30.6768C97.2092 30.3587 96.8314 29.9062 96.5563 29.3196C96.2845 28.7296 96.1486 28.022 96.1486 27.1967C96.1486 26.3714 96.2862 25.6655 96.5613 25.0788C96.8397 24.4922 97.2208 24.0431 97.7047 23.7315C98.1886 23.42 98.7372 23.2642 99.3503 23.2642C99.8243 23.2642 100.205 23.3438 100.494 23.5028C100.785 23.6586 101.011 23.8409 101.17 24.0497C101.332 24.2585 101.458 24.4425 101.548 24.6016H101.672V23.3636H103.124V33.8636H101.637ZM99.6685 29.8814C100.096 29.8814 100.457 29.7687 100.752 29.5433C101.051 29.3146 101.276 28.9981 101.428 28.5938C101.584 28.1894 101.662 27.7187 101.662 27.1818C101.662 26.6515 101.586 26.1875 101.433 25.7898C101.281 25.392 101.057 25.0821 100.762 24.8601C100.467 24.638 100.103 24.527 99.6685 24.527C99.2211 24.527 98.8482 24.643 98.5499 24.875C98.2516 25.107 98.0262 25.4235 97.8738 25.8246C97.7246 26.2256 97.65 26.678 97.65 27.1818C97.65 27.6922 97.7263 28.1513 97.8787 28.5589C98.0312 28.9666 98.2566 29.2898 98.5549 29.5284C98.8565 29.7637 99.2277 29.8814 99.6685 29.8814ZM109.96 27.8331V23.3636H111.451V31H109.99V29.6776H109.91C109.734 30.0852 109.453 30.425 109.065 30.6967C108.68 30.9652 108.201 31.0994 107.628 31.0994C107.137 31.0994 106.703 30.9917 106.325 30.7763C105.951 30.5575 105.656 30.2344 105.441 29.8068C105.228 29.3793 105.122 28.8506 105.122 28.2209V23.3636H106.609V28.0419C106.609 28.5623 106.753 28.9766 107.041 29.2848C107.33 29.593 107.704 29.7472 108.165 29.7472C108.443 29.7472 108.72 29.6776 108.995 29.5384C109.274 29.3991 109.504 29.1887 109.686 28.907C109.872 28.6252 109.963 28.2673 109.96 27.8331ZM116.74 31.1541C115.987 31.1541 115.339 30.9934 114.796 30.6719C114.256 30.3471 113.838 29.8913 113.543 29.3047C113.251 28.7147 113.105 28.0237 113.105 27.2315C113.105 26.4493 113.251 25.7599 113.543 25.1634C113.838 24.5668 114.249 24.1011 114.776 23.7663C115.306 23.4316 115.926 23.2642 116.635 23.2642C117.066 23.2642 117.484 23.3355 117.888 23.478C118.292 23.6205 118.655 23.8442 118.977 24.1491C119.298 24.4541 119.552 24.8501 119.738 25.3374C119.923 25.8213 120.016 26.4096 120.016 27.1023V27.6293H113.946V26.5156H118.559C118.559 26.1245 118.48 25.7782 118.321 25.4766C118.162 25.1716 117.938 24.9313 117.65 24.7557C117.364 24.58 117.03 24.4922 116.645 24.4922C116.228 24.4922 115.863 24.5949 115.551 24.8004C115.243 25.0026 115.005 25.2678 114.836 25.5959C114.67 25.9207 114.587 26.2737 114.587 26.6548V27.5249C114.587 28.0353 114.676 28.4695 114.855 28.8274C115.038 29.1854 115.291 29.4588 115.616 29.6477C115.941 29.8333 116.32 29.9261 116.755 29.9261C117.036 29.9261 117.293 29.8864 117.525 29.8068C117.757 29.724 117.958 29.6013 118.127 29.4389C118.296 29.2765 118.425 29.076 118.515 28.8374L119.922 29.0909C119.809 29.5052 119.607 29.8681 119.315 30.1797C119.027 30.4879 118.664 30.7282 118.226 30.9006C117.792 31.0696 117.297 31.1541 116.74 31.1541ZM127.388 25.228L126.04 25.4666C125.984 25.2943 125.894 25.1302 125.772 24.9744C125.653 24.8187 125.49 24.6911 125.285 24.5916C125.079 24.4922 124.822 24.4425 124.514 24.4425C124.093 24.4425 123.742 24.5369 123.46 24.7259C123.178 24.9115 123.037 25.1518 123.037 25.4467C123.037 25.7019 123.132 25.9074 123.321 26.0632C123.51 26.219 123.815 26.3466 124.236 26.446L125.449 26.7244C126.151 26.8868 126.675 27.1371 127.02 27.4751C127.364 27.8132 127.537 28.2524 127.537 28.7926C127.537 29.25 127.404 29.6577 127.139 30.0156C126.877 30.3703 126.511 30.6487 126.04 30.8509C125.573 31.053 125.031 31.1541 124.415 31.1541C123.559 31.1541 122.862 30.9718 122.322 30.6072C121.781 30.2393 121.45 29.7173 121.327 29.0412L122.764 28.8224C122.854 29.197 123.037 29.4804 123.316 29.6726C123.594 29.8615 123.957 29.956 124.405 29.956C124.892 29.956 125.281 29.8549 125.573 29.6527C125.865 29.4472 126.01 29.197 126.01 28.902C126.01 28.6634 125.921 28.4628 125.742 28.3004C125.566 28.138 125.296 28.0154 124.932 27.9325L123.639 27.6491C122.926 27.4867 122.399 27.2282 122.058 26.8736C121.72 26.5189 121.551 26.0698 121.551 25.5263C121.551 25.0755 121.677 24.6811 121.929 24.343C122.181 24.005 122.529 23.7415 122.973 23.5526C123.417 23.3603 123.926 23.2642 124.499 23.2642C125.324 23.2642 125.974 23.4432 126.448 23.8011C126.922 24.1558 127.235 24.6314 127.388 25.228ZM132.736 23.3636V24.5568H128.565V23.3636H132.736ZM129.683 21.5341H131.17V28.7578C131.17 29.0462 131.213 29.2633 131.299 29.4091C131.385 29.5516 131.496 29.6494 131.632 29.7024C131.771 29.7521 131.922 29.777 132.085 29.777C132.204 29.777 132.308 29.7687 132.398 29.7521C132.487 29.7356 132.557 29.7223 132.607 29.7124L132.875 30.9403C132.789 30.9735 132.666 31.0066 132.507 31.0398C132.348 31.0762 132.149 31.0961 131.911 31.0994C131.519 31.1061 131.155 31.0365 130.817 30.8906C130.479 30.7448 130.205 30.5194 129.996 30.2145C129.788 29.9096 129.683 29.5268 129.683 29.0661V21.5341ZM139.572 26.4659V31H138.085V20.8182H139.552V24.6065H139.646C139.825 24.1955 140.099 23.8691 140.467 23.6271C140.835 23.3852 141.315 23.2642 141.908 23.2642C142.432 23.2642 142.889 23.3719 143.281 23.5874C143.675 23.8028 143.98 24.1243 144.195 24.5518C144.414 24.9761 144.523 25.5064 144.523 26.1428V31H143.037V26.3217C143.037 25.7616 142.893 25.3274 142.604 25.0192C142.316 24.7076 141.915 24.5518 141.401 24.5518C141.05 24.5518 140.735 24.6264 140.457 24.7756C140.182 24.9247 139.964 25.1435 139.805 25.4318C139.65 25.7169 139.572 26.0616 139.572 26.4659ZM148.729 31.169C148.246 31.169 147.808 31.0795 147.417 30.9006C147.026 30.7183 146.716 30.4548 146.487 30.1101C146.262 29.7654 146.149 29.3428 146.149 28.8423C146.149 28.4115 146.232 28.0568 146.398 27.7784C146.563 27.5 146.787 27.2796 147.069 27.1172C147.351 26.9548 147.665 26.8321 148.013 26.7493C148.362 26.6664 148.716 26.6035 149.077 26.5604C149.535 26.5073 149.906 26.4643 150.191 26.4311C150.476 26.3946 150.683 26.3366 150.812 26.2571C150.942 26.1776 151.006 26.0483 151.006 25.8693V25.8345C151.006 25.4003 150.884 25.0639 150.638 24.8253C150.397 24.5866 150.035 24.4673 149.555 24.4673C149.054 24.4673 148.66 24.5784 148.371 24.8004C148.086 25.0192 147.889 25.2628 147.78 25.5312L146.383 25.2131C146.549 24.7491 146.79 24.3745 147.109 24.0895C147.43 23.8011 147.8 23.5923 148.217 23.4631C148.635 23.3305 149.074 23.2642 149.535 23.2642C149.84 23.2642 150.163 23.3007 150.504 23.3736C150.849 23.4432 151.17 23.5724 151.469 23.7614C151.77 23.9503 152.017 24.2204 152.21 24.5717C152.402 24.9197 152.498 25.3722 152.498 25.929V31H151.046V29.956H150.987C150.89 30.1482 150.746 30.3371 150.554 30.5227C150.362 30.7083 150.115 30.8625 149.813 30.9851C149.512 31.1077 149.15 31.169 148.729 31.169ZM149.053 29.9759C149.464 29.9759 149.815 29.8946 150.107 29.7322C150.402 29.5698 150.625 29.3577 150.778 29.0959C150.933 28.8307 151.011 28.5473 151.011 28.2457V27.2614C150.958 27.3144 150.856 27.3641 150.703 27.4105C150.554 27.4536 150.383 27.4917 150.191 27.5249C149.999 27.5547 149.812 27.5829 149.629 27.6094C149.447 27.6326 149.295 27.6525 149.172 27.669C148.884 27.7055 148.62 27.7668 148.381 27.853C148.146 27.9392 147.957 28.0634 147.815 28.2259C147.675 28.3849 147.606 28.5971 147.606 28.8622C147.606 29.2301 147.742 29.5085 148.013 29.6974C148.285 29.883 148.632 29.9759 149.053 29.9759ZM160.2 25.228L158.853 25.4666C158.796 25.2943 158.707 25.1302 158.584 24.9744C158.465 24.8187 158.303 24.6911 158.097 24.5916C157.892 24.4922 157.635 24.4425 157.327 24.4425C156.906 24.4425 156.554 24.5369 156.273 24.7259C155.991 24.9115 155.85 25.1518 155.85 25.4467C155.85 25.7019 155.944 25.9074 156.133 26.0632C156.322 26.219 156.627 26.3466 157.048 26.446L158.261 26.7244C158.964 26.8868 159.488 27.1371 159.832 27.4751C160.177 27.8132 160.349 28.2524 160.349 28.7926C160.349 29.25 160.217 29.6577 159.952 30.0156C159.69 30.3703 159.323 30.6487 158.853 30.8509C158.385 31.053 157.844 31.1541 157.227 31.1541C156.372 31.1541 155.674 30.9718 155.134 30.6072C154.594 30.2393 154.262 29.7173 154.14 29.0412L155.577 28.8224C155.666 29.197 155.85 29.4804 156.128 29.6726C156.407 29.8615 156.77 29.956 157.217 29.956C157.704 29.956 158.094 29.8549 158.385 29.6527C158.677 29.4472 158.823 29.197 158.823 28.902C158.823 28.6634 158.733 28.4628 158.555 28.3004C158.379 28.138 158.109 28.0154 157.744 27.9325L156.452 27.6491C155.739 27.4867 155.212 27.2282 154.871 26.8736C154.532 26.5189 154.363 26.0698 154.363 25.5263C154.363 25.0755 154.489 24.6811 154.741 24.343C154.993 24.005 155.341 23.7415 155.785 23.5526C156.229 23.3603 156.738 23.2642 157.312 23.2642C158.137 23.2642 158.787 23.4432 159.26 23.8011C159.734 24.1558 160.048 24.6314 160.2 25.228ZM165.808 31V20.8182H167.295V24.6016H167.384C167.47 24.4425 167.595 24.2585 167.757 24.0497C167.919 23.8409 168.145 23.6586 168.433 23.5028C168.721 23.3438 169.103 23.2642 169.577 23.2642C170.193 23.2642 170.743 23.42 171.227 23.7315C171.711 24.0431 172.09 24.4922 172.366 25.0788C172.644 25.6655 172.783 26.3714 172.783 27.1967C172.783 28.022 172.646 28.7296 172.371 29.3196C172.095 29.9062 171.718 30.3587 171.237 30.6768C170.756 30.9917 170.208 31.1491 169.591 31.1491C169.127 31.1491 168.748 31.0713 168.453 30.9155C168.161 30.7597 167.933 30.5774 167.767 30.3686C167.601 30.1598 167.474 29.9742 167.384 29.8118H167.26V31H165.808ZM167.265 27.1818C167.265 27.7187 167.343 28.1894 167.498 28.5938C167.654 28.9981 167.88 29.3146 168.175 29.5433C168.47 29.7687 168.831 29.8814 169.258 29.8814C169.702 29.8814 170.074 29.7637 170.372 29.5284C170.67 29.2898 170.896 28.9666 171.048 28.5589C171.204 28.1513 171.282 27.6922 171.282 27.1818C171.282 26.678 171.206 26.2256 171.053 25.8246C170.904 25.4235 170.679 25.107 170.377 24.875C170.079 24.643 169.706 24.527 169.258 24.527C168.827 24.527 168.463 24.638 168.165 24.8601C167.87 25.0821 167.646 25.392 167.493 25.7898C167.341 26.1875 167.265 26.6515 167.265 27.1818ZM177.744 31.1541C176.991 31.1541 176.343 30.9934 175.8 30.6719C175.259 30.3471 174.842 29.8913 174.547 29.3047C174.255 28.7147 174.109 28.0237 174.109 27.2315C174.109 26.4493 174.255 25.7599 174.547 25.1634C174.842 24.5668 175.253 24.1011 175.78 23.7663C176.31 23.4316 176.93 23.2642 177.639 23.2642C178.07 23.2642 178.488 23.3355 178.892 23.478C179.296 23.6205 179.659 23.8442 179.981 24.1491C180.302 24.4541 180.556 24.8501 180.741 25.3374C180.927 25.8213 181.02 26.4096 181.02 27.1023V27.6293H174.95V26.5156H179.563C179.563 26.1245 179.484 25.7782 179.325 25.4766C179.165 25.1716 178.942 24.9313 178.653 24.7557C178.368 24.58 178.034 24.4922 177.649 24.4922C177.232 24.4922 176.867 24.5949 176.555 24.8004C176.247 25.0026 176.009 25.2678 175.839 25.5959C175.674 25.9207 175.591 26.2737 175.591 26.6548V27.5249C175.591 28.0353 175.68 28.4695 175.859 28.8274C176.042 29.1854 176.295 29.4588 176.62 29.6477C176.945 29.8333 177.324 29.9261 177.759 29.9261C178.04 29.9261 178.297 29.8864 178.529 29.8068C178.761 29.724 178.962 29.6013 179.131 29.4389C179.3 29.2765 179.429 29.076 179.518 28.8374L180.925 29.0909C180.813 29.5052 180.611 29.8681 180.319 30.1797C180.031 30.4879 179.668 30.7282 179.23 30.9006C178.796 31.0696 178.3 31.1541 177.744 31.1541ZM185.96 31.1541C185.208 31.1541 184.56 30.9934 184.017 30.6719C183.476 30.3471 183.059 29.8913 182.764 29.3047C182.472 28.7147 182.326 28.0237 182.326 27.2315C182.326 26.4493 182.472 25.7599 182.764 25.1634C183.059 24.5668 183.47 24.1011 183.997 23.7663C184.527 23.4316 185.147 23.2642 185.856 23.2642C186.287 23.2642 186.704 23.3355 187.109 23.478C187.513 23.6205 187.876 23.8442 188.198 24.1491C188.519 24.4541 188.773 24.8501 188.958 25.3374C189.144 25.8213 189.237 26.4096 189.237 27.1023V27.6293H183.166V26.5156H187.78C187.78 26.1245 187.7 25.7782 187.541 25.4766C187.382 25.1716 187.159 24.9313 186.87 24.7557C186.585 24.58 186.25 24.4922 185.866 24.4922C185.448 24.4922 185.084 24.5949 184.772 24.8004C184.464 25.0026 184.225 25.2678 184.056 25.5959C183.891 25.9207 183.808 26.2737 183.808 26.6548V27.5249C183.808 28.0353 183.897 28.4695 184.076 28.8274C184.258 29.1854 184.512 29.4588 184.837 29.6477C185.162 29.8333 185.541 29.9261 185.975 29.9261C186.257 29.9261 186.514 29.8864 186.746 29.8068C186.978 29.724 187.178 29.6013 187.347 29.4389C187.517 29.2765 187.646 29.076 187.735 28.8374L189.142 29.0909C189.03 29.5052 188.827 29.8681 188.536 30.1797C188.247 30.4879 187.884 30.7282 187.447 30.9006C187.013 31.0696 186.517 31.1541 185.96 31.1541ZM192.373 26.4659V31H190.886V23.3636H192.313V24.6065H192.407C192.583 24.2022 192.858 23.8774 193.233 23.6321C193.61 23.3868 194.086 23.2642 194.659 23.2642C195.18 23.2642 195.636 23.3736 196.027 23.5923C196.418 23.8078 196.721 24.1293 196.936 24.5568C197.152 24.9844 197.26 25.513 197.26 26.1428V31H195.773V26.3217C195.773 25.7682 195.629 25.3357 195.341 25.0241C195.052 24.7093 194.656 24.5518 194.152 24.5518C193.808 24.5518 193.501 24.6264 193.233 24.7756C192.967 24.9247 192.757 25.1435 192.601 25.4318C192.449 25.7169 192.373 26.0616 192.373 26.4659ZM202.958 31V23.3636H204.395V24.5767H204.475C204.614 24.1657 204.859 23.8426 205.21 23.6072C205.565 23.3686 205.966 23.2493 206.414 23.2493C206.506 23.2493 206.616 23.2526 206.742 23.2592C206.871 23.2659 206.972 23.2741 207.045 23.2841V24.706C206.985 24.6894 206.879 24.6712 206.727 24.6513C206.574 24.6281 206.422 24.6165 206.269 24.6165C205.918 24.6165 205.605 24.6911 205.33 24.8402C205.058 24.986 204.843 25.1899 204.683 25.4517C204.524 25.7102 204.445 26.0052 204.445 26.3366V31H202.958ZM211.349 31.1541C210.597 31.1541 209.949 30.9934 209.405 30.6719C208.865 30.3471 208.447 29.8913 208.152 29.3047C207.861 28.7147 207.715 28.0237 207.715 27.2315C207.715 26.4493 207.861 25.7599 208.152 25.1634C208.447 24.5668 208.858 24.1011 209.385 23.7663C209.916 23.4316 210.535 23.2642 211.245 23.2642C211.676 23.2642 212.093 23.3355 212.498 23.478C212.902 23.6205 213.265 23.8442 213.586 24.1491C213.908 24.4541 214.161 24.8501 214.347 25.3374C214.533 25.8213 214.625 26.4096 214.625 27.1023V27.6293H208.555V26.5156H213.169C213.169 26.1245 213.089 25.7782 212.93 25.4766C212.771 25.1716 212.547 24.9313 212.259 24.7557C211.974 24.58 211.639 24.4922 211.255 24.4922C210.837 24.4922 210.472 24.5949 210.161 24.8004C209.853 25.0026 209.614 25.2678 209.445 25.5959C209.279 25.9207 209.196 26.2737 209.196 26.6548V27.5249C209.196 28.0353 209.286 28.4695 209.465 28.8274C209.647 29.1854 209.901 29.4588 210.225 29.6477C210.55 29.8333 210.93 29.9261 211.364 29.9261C211.646 29.9261 211.903 29.8864 212.135 29.8068C212.367 29.724 212.567 29.6013 212.736 29.4389C212.905 29.2765 213.034 29.076 213.124 28.8374L214.531 29.0909C214.418 29.5052 214.216 29.8681 213.924 30.1797C213.636 30.4879 213.273 30.7282 212.836 30.9006C212.401 31.0696 211.906 31.1541 211.349 31.1541ZM218.497 31.169C218.013 31.169 217.576 31.0795 217.184 30.9006C216.793 30.7183 216.483 30.4548 216.255 30.1101C216.029 29.7654 215.917 29.3428 215.917 28.8423C215.917 28.4115 216 28.0568 216.165 27.7784C216.331 27.5 216.555 27.2796 216.836 27.1172C217.118 26.9548 217.433 26.8321 217.781 26.7493C218.129 26.6664 218.484 26.6035 218.845 26.5604C219.302 26.5073 219.674 26.4643 219.959 26.4311C220.244 26.3946 220.451 26.3366 220.58 26.2571C220.709 26.1776 220.774 26.0483 220.774 25.8693V25.8345C220.774 25.4003 220.651 25.0639 220.406 24.8253C220.164 24.5866 219.803 24.4673 219.322 24.4673C218.822 24.4673 218.427 24.5784 218.139 24.8004C217.854 25.0192 217.657 25.2628 217.547 25.5312L216.15 25.2131C216.316 24.7491 216.558 24.3745 216.876 24.0895C217.198 23.8011 217.567 23.5923 217.985 23.4631C218.403 23.3305 218.842 23.2642 219.302 23.2642C219.607 23.2642 219.93 23.3007 220.272 23.3736C220.617 23.4432 220.938 23.5724 221.236 23.7614C221.538 23.9503 221.785 24.2204 221.977 24.5717C222.169 24.9197 222.265 25.3722 222.265 25.929V31H220.814V29.956H220.754C220.658 30.1482 220.514 30.3371 220.322 30.5227C220.129 30.7083 219.882 30.8625 219.581 30.9851C219.279 31.1077 218.918 31.169 218.497 31.169ZM218.82 29.9759C219.231 29.9759 219.582 29.8946 219.874 29.7322C220.169 29.5698 220.393 29.3577 220.545 29.0959C220.701 28.8307 220.779 28.5473 220.779 28.2457V27.2614C220.726 27.3144 220.623 27.3641 220.471 27.4105C220.322 27.4536 220.151 27.4917 219.959 27.5249C219.766 27.5547 219.579 27.5829 219.397 27.6094C219.215 27.6326 219.062 27.6525 218.939 27.669C218.651 27.7055 218.388 27.7668 218.149 27.853C217.914 27.9392 217.725 28.0634 217.582 28.2259C217.443 28.3849 217.373 28.5971 217.373 28.8622C217.373 29.2301 217.509 29.5085 217.781 29.6974C218.053 29.883 218.399 29.9759 218.82 29.9759ZM227.462 31.1541C226.723 31.1541 226.087 30.9867 225.553 30.652C225.023 30.3139 224.615 29.8482 224.33 29.255C224.045 28.6617 223.902 27.9822 223.902 27.2166C223.902 26.4411 224.048 25.7566 224.34 25.1634C224.632 24.5668 225.042 24.1011 225.573 23.7663C226.103 23.4316 226.728 23.2642 227.447 23.2642C228.027 23.2642 228.544 23.3719 228.998 23.5874C229.452 23.7995 229.819 24.0978 230.097 24.4822C230.379 24.8667 230.546 25.3158 230.599 25.8295H229.152C229.073 25.4716 228.891 25.1634 228.605 24.9048C228.324 24.6463 227.946 24.517 227.472 24.517C227.058 24.517 226.695 24.6264 226.383 24.8452C226.075 25.0606 225.835 25.3688 225.662 25.7699C225.49 26.1676 225.404 26.6383 225.404 27.1818C225.404 27.7386 225.488 28.2192 225.657 28.6236C225.826 29.0279 226.065 29.3411 226.373 29.5632C226.685 29.7853 227.051 29.8963 227.472 29.8963C227.754 29.8963 228.009 29.8449 228.238 29.7422C228.47 29.6361 228.663 29.4853 228.819 29.2898C228.978 29.0942 229.089 28.8589 229.152 28.5838H230.599C230.546 29.0777 230.385 29.5185 230.117 29.9062C229.848 30.294 229.489 30.599 229.038 30.821C228.591 31.0431 228.065 31.1541 227.462 31.1541ZM233.675 26.4659V31H232.189V20.8182H233.655V24.6065H233.75C233.929 24.1955 234.202 23.8691 234.57 23.6271C234.938 23.3852 235.419 23.2642 236.012 23.2642C236.536 23.2642 236.993 23.3719 237.384 23.5874C237.778 23.8028 238.083 24.1243 238.299 24.5518C238.518 24.9761 238.627 25.5064 238.627 26.1428V31H237.14V26.3217C237.14 25.7616 236.996 25.3274 236.708 25.0192C236.42 24.7076 236.019 24.5518 235.505 24.5518C235.153 24.5518 234.839 24.6264 234.56 24.7756C234.285 24.9247 234.068 25.1435 233.909 25.4318C233.753 25.7169 233.675 26.0616 233.675 26.4659ZM243.902 31.1541C243.149 31.1541 242.501 30.9934 241.958 30.6719C241.418 30.3471 241 29.8913 240.705 29.3047C240.413 28.7147 240.268 28.0237 240.268 27.2315C240.268 26.4493 240.413 25.7599 240.705 25.1634C241 24.5668 241.411 24.1011 241.938 23.7663C242.468 23.4316 243.088 23.2642 243.797 23.2642C244.228 23.2642 244.646 23.3355 245.05 23.478C245.455 23.6205 245.818 23.8442 246.139 24.1491C246.461 24.4541 246.714 24.8501 246.9 25.3374C247.085 25.8213 247.178 26.4096 247.178 27.1023V27.6293H241.108V26.5156H245.721C245.721 26.1245 245.642 25.7782 245.483 25.4766C245.324 25.1716 245.1 24.9313 244.812 24.7557C244.527 24.58 244.192 24.4922 243.807 24.4922C243.39 24.4922 243.025 24.5949 242.714 24.8004C242.405 25.0026 242.167 25.2678 241.998 25.5959C241.832 25.9207 241.749 26.2737 241.749 26.6548V27.5249C241.749 28.0353 241.839 28.4695 242.018 28.8274C242.2 29.1854 242.453 29.4588 242.778 29.6477C243.103 29.8333 243.483 29.9261 243.917 29.9261C244.198 29.9261 244.455 29.8864 244.687 29.8068C244.919 29.724 245.12 29.6013 245.289 29.4389C245.458 29.2765 245.587 29.076 245.677 28.8374L247.084 29.0909C246.971 29.5052 246.769 29.8681 246.477 30.1797C246.189 30.4879 245.826 30.7282 245.388 30.9006C244.954 31.0696 244.459 31.1541 243.902 31.1541ZM251.686 31.1491C251.07 31.1491 250.519 30.9917 250.036 30.6768C249.555 30.3587 249.177 29.9062 248.902 29.3196C248.63 28.7296 248.494 28.022 248.494 27.1967C248.494 26.3714 248.632 25.6655 248.907 25.0788C249.185 24.4922 249.567 24.0431 250.05 23.7315C250.534 23.42 251.083 23.2642 251.696 23.2642C252.17 23.2642 252.551 23.3438 252.839 23.5028C253.131 23.6586 253.357 23.8409 253.516 24.0497C253.678 24.2585 253.804 24.4425 253.893 24.6016H253.983V20.8182H255.469V31H254.018V29.8118H253.893C253.804 29.9742 253.675 30.1598 253.506 30.3686C253.34 30.5774 253.111 30.7597 252.82 30.9155C252.528 31.0713 252.15 31.1491 251.686 31.1491ZM252.014 29.8814C252.442 29.8814 252.803 29.7687 253.098 29.5433C253.396 29.3146 253.622 28.9981 253.774 28.5938C253.93 28.1894 254.008 27.7187 254.008 27.1818C254.008 26.6515 253.932 26.1875 253.779 25.7898C253.627 25.392 253.403 25.0821 253.108 24.8601C252.813 24.638 252.448 24.527 252.014 24.527C251.567 24.527 251.194 24.643 250.896 24.875C250.597 25.107 250.372 25.4235 250.219 25.8246C250.07 26.2256 249.996 26.678 249.996 27.1818C249.996 27.6922 250.072 28.1513 250.224 28.5589C250.377 28.9666 250.602 29.2898 250.901 29.5284C251.202 29.7637 251.573 29.8814 252.014 29.8814ZM263.518 31.169C263.035 31.169 262.597 31.0795 262.206 30.9006C261.815 30.7183 261.505 30.4548 261.276 30.1101C261.051 29.7654 260.938 29.3428 260.938 28.8423C260.938 28.4115 261.021 28.0568 261.187 27.7784C261.353 27.5 261.576 27.2796 261.858 27.1172C262.14 26.9548 262.455 26.8321 262.803 26.7493C263.151 26.6664 263.505 26.6035 263.866 26.5604C264.324 26.5073 264.695 26.4643 264.98 26.4311C265.265 26.3946 265.472 26.3366 265.602 26.2571C265.731 26.1776 265.795 26.0483 265.795 25.8693V25.8345C265.795 25.4003 265.673 25.0639 265.428 24.8253C265.186 24.5866 264.824 24.4673 264.344 24.4673C263.843 24.4673 263.449 24.5784 263.161 24.8004C262.875 25.0192 262.678 25.2628 262.569 25.5312L261.172 25.2131C261.338 24.7491 261.58 24.3745 261.898 24.0895C262.219 23.8011 262.589 23.5923 263.006 23.4631C263.424 23.3305 263.863 23.2642 264.324 23.2642C264.629 23.2642 264.952 23.3007 265.293 23.3736C265.638 23.4432 265.96 23.5724 266.258 23.7614C266.559 23.9503 266.806 24.2204 266.999 24.5717C267.191 24.9197 267.287 25.3722 267.287 25.929V31H265.835V29.956H265.776C265.679 30.1482 265.535 30.3371 265.343 30.5227C265.151 30.7083 264.904 30.8625 264.602 30.9851C264.301 31.1077 263.939 31.169 263.518 31.169ZM263.842 29.9759C264.253 29.9759 264.604 29.8946 264.896 29.7322C265.191 29.5698 265.414 29.3577 265.567 29.0959C265.723 28.8307 265.8 28.5473 265.8 28.2457V27.2614C265.747 27.3144 265.645 27.3641 265.492 27.4105C265.343 27.4536 265.172 27.4917 264.98 27.5249C264.788 27.5547 264.601 27.5829 264.418 27.6094C264.236 27.6326 264.084 27.6525 263.961 27.669C263.673 27.7055 263.409 27.7668 263.17 27.853C262.935 27.9392 262.746 28.0634 262.604 28.2259C262.464 28.3849 262.395 28.5971 262.395 28.8622C262.395 29.2301 262.531 29.5085 262.803 29.6974C263.074 29.883 263.421 29.9759 263.842 29.9759ZM272.831 23.3636V24.5568H268.66V23.3636H272.831ZM269.779 21.5341H271.265V28.7578C271.265 29.0462 271.309 29.2633 271.395 29.4091C271.481 29.5516 271.592 29.6494 271.728 29.7024C271.867 29.7521 272.018 29.777 272.18 29.777C272.3 29.777 272.404 29.7687 272.493 29.7521C272.583 29.7356 272.653 29.7223 272.702 29.7124L272.971 30.9403C272.885 30.9735 272.762 31.0066 272.603 31.0398C272.444 31.0762 272.245 31.0961 272.006 31.0994C271.615 31.1061 271.251 31.0365 270.912 30.8906C270.574 30.7448 270.301 30.5194 270.092 30.2145C269.883 29.9096 269.779 29.5268 269.779 29.0661V21.5341ZM281.815 23.3636V24.5568H277.5V23.3636H281.815ZM278.683 31V22.4787C278.683 22.0014 278.787 21.6053 278.996 21.2905C279.205 20.9723 279.482 20.7353 279.827 20.5795C280.171 20.4205 280.546 20.3409 280.95 20.3409C281.248 20.3409 281.504 20.3658 281.716 20.4155C281.928 20.4619 282.085 20.505 282.188 20.5447L281.84 21.7479C281.77 21.728 281.681 21.7048 281.572 21.6783C281.462 21.6484 281.33 21.6335 281.174 21.6335C280.813 21.6335 280.554 21.723 280.398 21.902C280.246 22.081 280.17 22.3395 280.17 22.6776V31H278.683ZM283.349 31V23.3636H284.835V31H283.349ZM284.1 22.1854C283.841 22.1854 283.619 22.0992 283.433 21.9268C283.251 21.7512 283.16 21.5424 283.16 21.3004C283.16 21.0552 283.251 20.8464 283.433 20.674C283.619 20.4983 283.841 20.4105 284.1 20.4105C284.358 20.4105 284.579 20.4983 284.761 20.674C284.946 20.8464 285.039 21.0552 285.039 21.3004C285.039 21.5424 284.946 21.7512 284.761 21.9268C284.579 22.0992 284.358 22.1854 284.1 22.1854ZM288.322 26.4659V31H286.835V23.3636H288.262V24.6065H288.357C288.532 24.2022 288.807 23.8774 289.182 23.6321C289.56 23.3868 290.035 23.2642 290.609 23.2642C291.129 23.2642 291.585 23.3736 291.976 23.5923C292.367 23.8078 292.67 24.1293 292.886 24.5568C293.101 24.9844 293.209 25.513 293.209 26.1428V31H291.722V26.3217C291.722 25.7682 291.578 25.3357 291.29 25.0241C291.001 24.7093 290.605 24.5518 290.102 24.5518C289.757 24.5518 289.45 24.6264 289.182 24.7756C288.917 24.9247 288.706 25.1435 288.55 25.4318C288.398 25.7169 288.322 26.0616 288.322 26.4659ZM297.425 31.169C296.941 31.169 296.503 31.0795 296.112 30.9006C295.721 30.7183 295.411 30.4548 295.183 30.1101C294.957 29.7654 294.844 29.3428 294.844 28.8423C294.844 28.4115 294.927 28.0568 295.093 27.7784C295.259 27.5 295.482 27.2796 295.764 27.1172C296.046 26.9548 296.361 26.8321 296.709 26.7493C297.057 26.6664 297.411 26.6035 297.773 26.5604C298.23 26.5073 298.601 26.4643 298.886 26.4311C299.171 26.3946 299.379 26.3366 299.508 26.2571C299.637 26.1776 299.702 26.0483 299.702 25.8693V25.8345C299.702 25.4003 299.579 25.0639 299.334 24.8253C299.092 24.5866 298.731 24.4673 298.25 24.4673C297.75 24.4673 297.355 24.5784 297.067 24.8004C296.782 25.0192 296.585 25.2628 296.475 25.5312L295.078 25.2131C295.244 24.7491 295.486 24.3745 295.804 24.0895C296.125 23.8011 296.495 23.5923 296.913 23.4631C297.33 23.3305 297.769 23.2642 298.23 23.2642C298.535 23.2642 298.858 23.3007 299.2 23.3736C299.544 23.4432 299.866 23.5724 300.164 23.7614C300.466 23.9503 300.713 24.2204 300.905 24.5717C301.097 24.9197 301.193 25.3722 301.193 25.929V31H299.741V29.956H299.682C299.586 30.1482 299.442 30.3371 299.249 30.5227C299.057 30.7083 298.81 30.8625 298.509 30.9851C298.207 31.1077 297.846 31.169 297.425 31.169ZM297.748 29.9759C298.159 29.9759 298.51 29.8946 298.802 29.7322C299.097 29.5698 299.321 29.3577 299.473 29.0959C299.629 28.8307 299.707 28.5473 299.707 28.2457V27.2614C299.654 27.3144 299.551 27.3641 299.398 27.4105C299.249 27.4536 299.079 27.4917 298.886 27.5249C298.694 27.5547 298.507 27.5829 298.325 27.6094C298.142 27.6326 297.99 27.6525 297.867 27.669C297.579 27.7055 297.315 27.7668 297.077 27.853C296.841 27.9392 296.652 28.0634 296.51 28.2259C296.371 28.3849 296.301 28.5971 296.301 28.8622C296.301 29.2301 296.437 29.5085 296.709 29.6974C296.981 29.883 297.327 29.9759 297.748 29.9759ZM304.66 26.4659V31H303.173V23.3636H304.6V24.6065H304.694C304.87 24.2022 305.145 23.8774 305.52 23.6321C305.898 23.3868 306.373 23.2642 306.947 23.2642C307.467 23.2642 307.923 23.3736 308.314 23.5923C308.705 23.8078 309.008 24.1293 309.224 24.5568C309.439 24.9844 309.547 25.513 309.547 26.1428V31H308.06V26.3217C308.06 25.7682 307.916 25.3357 307.628 25.0241C307.339 24.7093 306.943 24.5518 306.439 24.5518C306.095 24.5518 305.788 24.6264 305.52 24.7756C305.255 24.9247 305.044 25.1435 304.888 25.4318C304.736 25.7169 304.66 26.0616 304.66 26.4659ZM314.757 31.1541C314.018 31.1541 313.381 30.9867 312.848 30.652C312.318 30.3139 311.91 29.8482 311.625 29.255C311.34 28.6617 311.197 27.9822 311.197 27.2166C311.197 26.4411 311.343 25.7566 311.635 25.1634C311.926 24.5668 312.337 24.1011 312.868 23.7663C313.398 23.4316 314.023 23.2642 314.742 23.2642C315.322 23.2642 315.839 23.3719 316.293 23.5874C316.747 23.7995 317.113 24.0978 317.392 24.4822C317.674 24.8667 317.841 25.3158 317.894 25.8295H316.447C316.368 25.4716 316.185 25.1634 315.9 24.9048C315.619 24.6463 315.241 24.517 314.767 24.517C314.353 24.517 313.99 24.6264 313.678 24.8452C313.37 25.0606 313.13 25.3688 312.957 25.7699C312.785 26.1676 312.699 26.6383 312.699 27.1818C312.699 27.7386 312.783 28.2192 312.952 28.6236C313.121 29.0279 313.36 29.3411 313.668 29.5632C313.98 29.7853 314.346 29.8963 314.767 29.8963C315.049 29.8963 315.304 29.8449 315.532 29.7422C315.765 29.6361 315.958 29.4853 316.114 29.2898C316.273 29.0942 316.384 28.8589 316.447 28.5838H317.894C317.841 29.0777 317.68 29.5185 317.412 29.9062C317.143 30.294 316.784 30.599 316.333 30.821C315.885 31.0431 315.36 31.1541 314.757 31.1541ZM319.484 31V23.3636H320.97V31H319.484ZM320.234 22.1854C319.976 22.1854 319.754 22.0992 319.568 21.9268C319.386 21.7512 319.295 21.5424 319.295 21.3004C319.295 21.0552 319.386 20.8464 319.568 20.674C319.754 20.4983 319.976 20.4105 320.234 20.4105C320.493 20.4105 320.713 20.4983 320.896 20.674C321.081 20.8464 321.174 21.0552 321.174 21.3004C321.174 21.5424 321.081 21.7512 320.896 21.9268C320.713 22.0992 320.493 22.1854 320.234 22.1854ZM325.192 31.169C324.708 31.169 324.271 31.0795 323.88 30.9006C323.489 30.7183 323.179 30.4548 322.95 30.1101C322.725 29.7654 322.612 29.3428 322.612 28.8423C322.612 28.4115 322.695 28.0568 322.861 27.7784C323.026 27.5 323.25 27.2796 323.532 27.1172C323.814 26.9548 324.128 26.8321 324.476 26.7493C324.824 26.6664 325.179 26.6035 325.54 26.5604C325.998 26.5073 326.369 26.4643 326.654 26.4311C326.939 26.3946 327.146 26.3366 327.275 26.2571C327.405 26.1776 327.469 26.0483 327.469 25.8693V25.8345C327.469 25.4003 327.347 25.0639 327.101 24.8253C326.859 24.5866 326.498 24.4673 326.018 24.4673C325.517 24.4673 325.123 24.5784 324.834 24.8004C324.549 25.0192 324.352 25.2628 324.243 25.5312L322.846 25.2131C323.011 24.7491 323.253 24.3745 323.572 24.0895C323.893 23.8011 324.263 23.5923 324.68 23.4631C325.098 23.3305 325.537 23.2642 325.998 23.2642C326.303 23.2642 326.626 23.3007 326.967 23.3736C327.312 23.4432 327.633 23.5724 327.932 23.7614C328.233 23.9503 328.48 24.2204 328.672 24.5717C328.865 24.9197 328.961 25.3722 328.961 25.929V31H327.509V29.956H327.449C327.353 30.1482 327.209 30.3371 327.017 30.5227C326.825 30.7083 326.578 30.8625 326.276 30.9851C325.974 31.1077 325.613 31.169 325.192 31.169ZM325.515 29.9759C325.926 29.9759 326.278 29.8946 326.569 29.7322C326.864 29.5698 327.088 29.3577 327.241 29.0959C327.396 28.8307 327.474 28.5473 327.474 28.2457V27.2614C327.421 27.3144 327.318 27.3641 327.166 27.4105C327.017 27.4536 326.846 27.4917 326.654 27.5249C326.462 27.5547 326.274 27.5829 326.092 27.6094C325.91 27.6326 325.757 27.6525 325.635 27.669C325.346 27.7055 325.083 27.7668 324.844 27.853C324.609 27.9392 324.42 28.0634 324.278 28.2259C324.138 28.3849 324.069 28.5971 324.069 28.8622C324.069 29.2301 324.205 29.5085 324.476 29.6974C324.748 29.883 325.095 29.9759 325.515 29.9759ZM332.427 20.8182V31H330.941V20.8182H332.427ZM340.354 31.169C339.871 31.169 339.433 31.0795 339.042 30.9006C338.651 30.7183 338.341 30.4548 338.112 30.1101C337.887 29.7654 337.774 29.3428 337.774 28.8423C337.774 28.4115 337.857 28.0568 338.023 27.7784C338.188 27.5 338.412 27.2796 338.694 27.1172C338.976 26.9548 339.29 26.8321 339.638 26.7493C339.987 26.6664 340.341 26.6035 340.702 26.5604C341.16 26.5073 341.531 26.4643 341.816 26.4311C342.101 26.3946 342.308 26.3366 342.438 26.2571C342.567 26.1776 342.631 26.0483 342.631 25.8693V25.8345C342.631 25.4003 342.509 25.0639 342.263 24.8253C342.022 24.5866 341.66 24.4673 341.18 24.4673C340.679 24.4673 340.285 24.5784 339.996 24.8004C339.711 25.0192 339.514 25.2628 339.405 25.5312L338.008 25.2131C338.174 24.7491 338.415 24.3745 338.734 24.0895C339.055 23.8011 339.425 23.5923 339.842 23.4631C340.26 23.3305 340.699 23.2642 341.16 23.2642C341.465 23.2642 341.788 23.3007 342.129 23.3736C342.474 23.4432 342.795 23.5724 343.094 23.7614C343.395 23.9503 343.642 24.2204 343.835 24.5717C344.027 24.9197 344.123 25.3722 344.123 25.929V31H342.671V29.956H342.612C342.515 30.1482 342.371 30.3371 342.179 30.5227C341.987 30.7083 341.74 30.8625 341.438 30.9851C341.137 31.1077 340.775 31.169 340.354 31.169ZM340.678 29.9759C341.089 29.9759 341.44 29.8946 341.732 29.7322C342.027 29.5698 342.25 29.3577 342.403 29.0959C342.558 28.8307 342.636 28.5473 342.636 28.2457V27.2614C342.583 27.3144 342.481 27.3641 342.328 27.4105C342.179 27.4536 342.008 27.4917 341.816 27.5249C341.624 27.5547 341.437 27.5829 341.254 27.6094C341.072 27.6326 340.92 27.6525 340.797 27.669C340.509 27.7055 340.245 27.7668 340.006 27.853C339.771 27.9392 339.582 28.0634 339.44 28.2259C339.3 28.3849 339.231 28.5971 339.231 28.8622C339.231 29.2301 339.367 29.5085 339.638 29.6974C339.91 29.883 340.257 29.9759 340.678 29.9759ZM350.94 27.8331V23.3636H352.432V31H350.97V29.6776H350.89C350.715 30.0852 350.433 30.425 350.045 30.6967C349.661 30.9652 349.182 31.0994 348.608 31.0994C348.118 31.0994 347.684 30.9917 347.306 30.7763C346.931 30.5575 346.636 30.2344 346.421 29.8068C346.209 29.3793 346.103 28.8506 346.103 28.2209V23.3636H347.589V28.0419C347.589 28.5623 347.733 28.9766 348.022 29.2848C348.31 29.593 348.685 29.7472 349.145 29.7472C349.424 29.7472 349.701 29.6776 349.976 29.5384C350.254 29.3991 350.484 29.1887 350.667 28.907C350.852 28.6252 350.943 28.2673 350.94 27.8331ZM357.994 23.3636V24.5568H353.822V23.3636H357.994ZM354.941 21.5341H356.428V28.7578C356.428 29.0462 356.471 29.2633 356.557 29.4091C356.643 29.5516 356.754 29.6494 356.89 29.7024C357.029 29.7521 357.18 29.777 357.342 29.777C357.462 29.777 357.566 29.7687 357.656 29.7521C357.745 29.7356 357.815 29.7223 357.864 29.7124L358.133 30.9403C358.047 30.9735 357.924 31.0066 357.765 31.0398C357.606 31.0762 357.407 31.0961 357.168 31.0994C356.777 31.1061 356.413 31.0365 356.075 30.8906C355.737 30.7448 355.463 30.5194 355.254 30.2145C355.045 29.9096 354.941 29.5268 354.941 29.0661V21.5341ZM361.289 26.4659V31H359.802V20.8182H361.269V24.6065H361.363C361.542 24.1955 361.816 23.8691 362.183 23.6271C362.551 23.3852 363.032 23.2642 363.625 23.2642C364.149 23.2642 364.606 23.3719 364.997 23.5874C365.392 23.8028 365.697 24.1243 365.912 24.5518C366.131 24.9761 366.24 25.5064 366.24 26.1428V31H364.754V26.3217C364.754 25.7616 364.61 25.3274 364.321 25.0192C364.033 24.7076 363.632 24.5518 363.118 24.5518C362.767 24.5518 362.452 24.6264 362.173 24.7756C361.898 24.9247 361.681 25.1435 361.522 25.4318C361.366 25.7169 361.289 26.0616 361.289 26.4659ZM371.441 31.1541C370.725 31.1541 370.1 30.9901 369.566 30.6619C369.033 30.3338 368.618 29.8748 368.323 29.2848C368.028 28.6948 367.881 28.0054 367.881 27.2166C367.881 26.4245 368.028 25.7318 368.323 25.1385C368.618 24.5452 369.033 24.0845 369.566 23.7564C370.1 23.4283 370.725 23.2642 371.441 23.2642C372.156 23.2642 372.781 23.4283 373.315 23.7564C373.848 24.0845 374.263 24.5452 374.558 25.1385C374.853 25.7318 375 26.4245 375 27.2166C375 28.0054 374.853 28.6948 374.558 29.2848C374.263 29.8748 373.848 30.3338 373.315 30.6619C372.781 30.9901 372.156 31.1541 371.441 31.1541ZM371.445 29.9062C371.91 29.9062 372.294 29.7836 372.599 29.5384C372.904 29.2931 373.129 28.9666 373.275 28.5589C373.424 28.1513 373.499 27.7022 373.499 27.2116C373.499 26.7244 373.424 26.277 373.275 25.8693C373.129 25.4583 372.904 25.1286 372.599 24.88C372.294 24.6314 371.91 24.5071 371.445 24.5071C370.978 24.5071 370.59 24.6314 370.282 24.88C369.977 25.1286 369.75 25.4583 369.601 25.8693C369.455 26.277 369.382 26.7244 369.382 27.2116C369.382 27.7022 369.455 28.1513 369.601 28.5589C369.75 28.9666 369.977 29.2931 370.282 29.5384C370.59 29.7836 370.978 29.9062 371.445 29.9062ZM376.659 31V23.3636H378.096V24.5767H378.176C378.315 24.1657 378.56 23.8426 378.912 23.6072C379.266 23.3686 379.667 23.2493 380.115 23.2493C380.208 23.2493 380.317 23.2526 380.443 23.2592C380.572 23.2659 380.673 23.2741 380.746 23.2841V24.706C380.686 24.6894 380.58 24.6712 380.428 24.6513C380.275 24.6281 380.123 24.6165 379.971 24.6165C379.619 24.6165 379.306 24.6911 379.031 24.8402C378.759 24.986 378.544 25.1899 378.385 25.4517C378.225 25.7102 378.146 26.0052 378.146 26.3366V31H376.659ZM382.032 31V23.3636H383.519V31H382.032ZM382.783 22.1854C382.525 22.1854 382.303 22.0992 382.117 21.9268C381.935 21.7512 381.844 21.5424 381.844 21.3004C381.844 21.0552 381.935 20.8464 382.117 20.674C382.303 20.4983 382.525 20.4105 382.783 20.4105C383.042 20.4105 383.262 20.4983 383.444 20.674C383.63 20.8464 383.723 21.0552 383.723 21.3004C383.723 21.5424 383.63 21.7512 383.444 21.9268C383.262 22.0992 383.042 22.1854 382.783 22.1854ZM389.083 23.3636V24.5568H384.912V23.3636H389.083ZM386.031 21.5341H387.517V28.7578C387.517 29.0462 387.56 29.2633 387.647 29.4091C387.733 29.5516 387.844 29.6494 387.98 29.7024C388.119 29.7521 388.27 29.777 388.432 29.777C388.551 29.777 388.656 29.7687 388.745 29.7521C388.835 29.7356 388.904 29.7223 388.954 29.7124L389.223 30.9403C389.136 30.9735 389.014 31.0066 388.855 31.0398C388.696 31.0762 388.497 31.0961 388.258 31.0994C387.867 31.1061 387.502 31.0365 387.164 30.8906C386.826 30.7448 386.553 30.5194 386.344 30.2145C386.135 29.9096 386.031 29.5268 386.031 29.0661V21.5341ZM391.667 33.8636C391.445 33.8636 391.243 33.8454 391.061 33.8089C390.879 33.7758 390.743 33.7393 390.653 33.6996L391.011 32.4815C391.283 32.5545 391.525 32.5859 391.737 32.576C391.949 32.5661 392.136 32.4865 392.299 32.3374C392.465 32.1882 392.61 31.9446 392.736 31.6065L392.92 31.0994L390.126 23.3636H391.717L393.651 29.2898H393.731L395.665 23.3636H397.26L394.113 32.0192C393.968 32.4169 393.782 32.7533 393.557 33.0284C393.331 33.3068 393.063 33.5156 392.751 33.6548C392.44 33.794 392.078 33.8636 391.667 33.8636ZM399.158 31.0945C398.887 31.0945 398.653 30.9983 398.457 30.8061C398.262 30.6106 398.164 30.3752 398.164 30.1001C398.164 29.8284 398.262 29.5964 398.457 29.4041C398.653 29.2086 398.887 29.1108 399.158 29.1108C399.43 29.1108 399.664 29.2086 399.859 29.4041C400.055 29.5964 400.153 29.8284 400.153 30.1001C400.153 30.2824 400.106 30.4498 400.013 30.6023C399.924 30.7514 399.805 30.8707 399.656 30.9602C399.506 31.0497 399.341 31.0945 399.158 31.0945Z" fill="#B54708"/>
<path d="M1739 21L1729 31M1729 21L1739 31" stroke="#B54708" stroke-width="1.67" stroke-linecap="round" stroke-linejoin="round"/>
<defs>
<clipPath id="clip0_631_68056">
<rect width="20" height="20" fill="white" transform="translate(16 16)"/>
</clipPath>
</defs>
</svg>
