<svg width="25" height="24" viewBox="0 0 25 24" fill="none" xmlns="http://www.w3.org/2000/svg">
<path d="M18.1094 12.6252C18.0871 10.0961 20.1394 8.88201 20.2322 8.82281C19.0774 7.10363 17.2801 6.86812 16.6389 6.84041C15.1102 6.68297 13.6546 7.75604 12.8797 7.75604C12.1048 7.75604 10.9066 6.86308 9.63914 6.88827C7.97059 6.91346 6.43448 7.87443 5.57545 9.39336C3.84377 12.4501 5.13356 16.9804 6.81944 19.4616C7.64505 20.6744 8.62786 22.041 9.92012 21.9906C11.1653 21.9402 11.6357 21.1719 13.1384 21.1719C14.6411 21.1719 15.0644 21.9906 16.3802 21.9667C17.7183 21.9402 18.5674 20.7273 19.3868 19.5107C20.3325 18.1026 20.7236 16.7399 20.7459 16.6681C20.7162 16.6555 18.1366 15.6492 18.1094 12.6252Z" fill="black"/>
<path d="M15.6373 5.19929C16.323 4.35418 16.786 3.17908 16.6585 2.00781C15.6706 2.04816 14.475 2.67787 13.7657 3.52297C13.1307 4.26987 12.5737 5.46634 12.7247 6.61375C13.8263 6.70066 14.9515 6.04315 15.6373 5.19929Z" fill="black"/>
</svg>
