<svg width="16" height="16" viewBox="0 0 16 16" fill="none" xmlns="http://www.w3.org/2000/svg">
<path d="M13.333 2.66663H2.66634C1.92996 2.66663 1.33301 3.26358 1.33301 3.99996V4.66663C1.33301 5.40301 1.92996 5.99996 2.66634 5.99996H13.333C14.0694 5.99996 14.6663 5.40301 14.6663 4.66663V3.99996C14.6663 3.26358 14.0694 2.66663 13.333 2.66663Z" stroke="#101928" stroke-linecap="round" stroke-linejoin="round"/>
<path d="M2.66699 6V12C2.66699 12.3536 2.80747 12.6928 3.05752 12.9428C3.30756 13.1929 3.6467 13.3333 4.00033 13.3333H12.0003C12.3539 13.3333 12.6931 13.1929 12.9431 12.9428C13.1932 12.6928 13.3337 12.3536 13.3337 12V6" stroke="#101928" stroke-linecap="round" stroke-linejoin="round"/>
<path d="M6.66699 8.66663H9.33366" stroke="#101928" stroke-linecap="round" stroke-linejoin="round"/>
</svg>
