<svg width="20" height="20" viewBox="0 0 20 20" fill="none" xmlns="http://www.w3.org/2000/svg">
<path d="M16.666 3.33301H3.33268C2.41221 3.33301 1.66602 4.0792 1.66602 4.99967V5.83301C1.66602 6.75348 2.41221 7.49967 3.33268 7.49967H16.666C17.5865 7.49967 18.3327 6.75348 18.3327 5.83301V4.99967C18.3327 4.0792 17.5865 3.33301 16.666 3.33301Z" stroke="#667185" stroke-width="1.5" stroke-linecap="round" stroke-linejoin="round"/>
<path d="M3.33398 7.5V15C3.33398 15.442 3.50958 15.8659 3.82214 16.1785C4.1347 16.4911 4.55862 16.6667 5.00065 16.6667H15.0007C15.4427 16.6667 15.8666 16.4911 16.1792 16.1785C16.4917 15.8659 16.6673 15.442 16.6673 15V7.5" stroke="#667185" stroke-width="1.5" stroke-linecap="round" stroke-linejoin="round"/>
<path d="M8.33398 10.833H11.6673" stroke="#667185" stroke-width="1.5" stroke-linecap="round" stroke-linejoin="round"/>
</svg>
