<svg width="44" height="44" viewBox="0 0 44 44" fill="none" xmlns="http://www.w3.org/2000/svg">
    <rect y="0.00195312" width="44" height="44" rx="22" fill="#17418A" />
    <path
        d="M24.0832 15.3359H19.9165L17.8332 17.8359H15.3332C14.8911 17.8359 14.4672 18.0115 14.1547 18.3241C13.8421 18.6367 13.6665 19.0606 13.6665 19.5026V27.0026C13.6665 27.4446 13.8421 27.8686 14.1547 28.1811C14.4672 28.4937 14.8911 28.6693 15.3332 28.6693H28.6665C29.1085 28.6693 29.5325 28.4937 29.845 28.1811C30.1576 27.8686 30.3332 27.4446 30.3332 27.0026V19.5026C30.3332 19.0606 30.1576 18.6367 29.845 18.3241C29.5325 18.0115 29.1085 17.8359 28.6665 17.8359H26.1665L24.0832 15.3359Z"
        stroke="white" stroke-width="1.5" stroke-linecap="round" stroke-linejoin="round" />
    <path
        d="M22 25.3359C23.3807 25.3359 24.5 24.2166 24.5 22.8359C24.5 21.4552 23.3807 20.3359 22 20.3359C20.6193 20.3359 19.5 21.4552 19.5 22.8359C19.5 24.2166 20.6193 25.3359 22 25.3359Z"
        stroke="white" stroke-width="1.5" stroke-linecap="round" stroke-linejoin="round" />
</svg>