<svg width="44" height="44" viewBox="0 0 44 44" fill="none" xmlns="http://www.w3.org/2000/svg">
<rect width="44" height="44" rx="8" fill="#FFE7C5"/>
<path d="M17.6937 20H16.4608C16.3878 19.6454 16.2602 19.3338 16.0779 19.0653C15.899 18.7969 15.6802 18.5715 15.4217 18.3892C15.1665 18.2036 14.8831 18.0644 14.5716 17.9716C14.26 17.8788 13.9352 17.8324 13.5971 17.8324C12.9806 17.8324 12.4222 17.9882 11.9217 18.2997C11.4245 18.6113 11.0285 19.0703 10.7335 19.6768C10.4418 20.2834 10.296 21.0275 10.296 21.9091C10.296 22.7907 10.4418 23.5348 10.7335 24.1413C11.0285 24.7479 11.4245 25.2069 11.9217 25.5185C12.4222 25.83 12.9806 25.9858 13.5971 25.9858C13.9352 25.9858 14.26 25.9394 14.5716 25.8466C14.8831 25.7538 15.1665 25.6162 15.4217 25.4339C15.6802 25.2483 15.899 25.0213 16.0779 24.7528C16.2602 24.4811 16.3878 24.1695 16.4608 23.8182H17.6937C17.6009 24.3385 17.4319 24.8042 17.1866 25.2152C16.9413 25.6262 16.6364 25.9759 16.2718 26.2642C15.9073 26.5492 15.4979 26.7663 15.0439 26.9155C14.5931 27.0646 14.1109 27.1392 13.5971 27.1392C12.7288 27.1392 11.9565 26.9271 11.2804 26.5028C10.6042 26.0786 10.0723 25.4754 9.68448 24.6932C9.2967 23.911 9.10281 22.983 9.10281 21.9091C9.10281 20.8352 9.2967 19.9072 9.68448 19.125C10.0723 18.3428 10.6042 17.7396 11.2804 17.3153C11.9565 16.8911 12.7288 16.679 13.5971 16.679C14.1109 16.679 14.5931 16.7536 15.0439 16.9027C15.4979 17.0518 15.9073 17.2706 16.2718 17.5589C16.6364 17.844 16.9413 18.192 17.1866 18.603C17.4319 19.0107 17.6009 19.4763 17.6937 20ZM22.8281 27H19.6861V16.8182H22.9673C23.955 16.8182 24.8002 17.022 25.5028 17.4297C26.2055 17.834 26.7441 18.4157 27.1186 19.1747C27.4931 19.9304 27.6804 20.8352 27.6804 21.8892C27.6804 22.9498 27.4915 23.8629 27.1136 24.6286C26.7358 25.3909 26.1856 25.9775 25.4631 26.3885C24.7405 26.7962 23.8622 27 22.8281 27ZM20.919 25.9062H22.7486C23.5904 25.9062 24.2881 25.7438 24.8416 25.419C25.3951 25.0942 25.8078 24.6319 26.0795 24.032C26.3513 23.4321 26.4872 22.7178 26.4872 21.8892C26.4872 21.0672 26.353 20.3596 26.0845 19.7663C25.8161 19.1697 25.415 18.7124 24.8814 18.3942C24.3478 18.0727 23.6832 17.9119 22.8878 17.9119H20.919V25.9062ZM29.7486 27V16.8182H35.8537V17.9119H30.9815V21.3523H35.3963V22.446H30.9815V27H29.7486Z" fill="#101928"/>
</svg>
