<svg width="1336" height="428" viewBox="0 0 1336 428" fill="none" xmlns="http://www.w3.org/2000/svg">
    <rect x="0.5" y="0.5" width="1335" height="427" rx="7.5" fill="white" />
    <rect x="0.5" y="0.5" width="1335" height="427" rx="7.5" stroke="#DCE2EC" />
    <path
        d="M35.108 32.2898H32.983C32.9223 31.9413 32.8106 31.6326 32.6477 31.3636C32.4848 31.0909 32.2822 30.8598 32.0398 30.6705C31.7973 30.4811 31.5208 30.339 31.2102 30.2443C30.9034 30.1458 30.572 30.0966 30.2159 30.0966C29.5833 30.0966 29.0227 30.2557 28.5341 30.5739C28.0455 30.8883 27.6629 31.3504 27.3864 31.9602C27.1098 32.5663 26.9716 33.3068 26.9716 34.1818C26.9716 35.072 27.1098 35.822 27.3864 36.4318C27.6667 37.0379 28.0492 37.4962 28.5341 37.8068C29.0227 38.1136 29.5814 38.267 30.2102 38.267C30.5587 38.267 30.8845 38.2216 31.1875 38.1307C31.4943 38.036 31.7689 37.8977 32.0114 37.7159C32.2576 37.5341 32.464 37.3106 32.6307 37.0455C32.8011 36.7803 32.9186 36.4773 32.983 36.1364L35.108 36.1477C35.0284 36.7008 34.8561 37.2197 34.5909 37.7045C34.3295 38.1894 33.9867 38.6174 33.5625 38.9886C33.1383 39.3561 32.642 39.6439 32.0739 39.8523C31.5057 40.0568 30.875 40.1591 30.1818 40.1591C29.1591 40.1591 28.2462 39.9223 27.4432 39.4489C26.6402 38.9754 26.0076 38.2917 25.5455 37.3977C25.0833 36.5038 24.8523 35.4318 24.8523 34.1818C24.8523 32.928 25.0852 31.8561 25.5511 30.9659C26.017 30.072 26.6515 29.3883 27.4545 28.9148C28.2576 28.4413 29.1667 28.2045 30.1818 28.2045C30.8295 28.2045 31.4318 28.2955 31.9886 28.4773C32.5455 28.6591 33.0417 28.9261 33.4773 29.2784C33.9129 29.6269 34.2708 30.0549 34.5511 30.5625C34.8352 31.0663 35.0208 31.642 35.108 32.2898ZM40.7543 40.1705C39.902 40.1705 39.1634 39.983 38.5384 39.608C37.9134 39.233 37.4285 38.7083 37.0838 38.0341C36.7429 37.3598 36.5724 36.572 36.5724 35.6705C36.5724 34.7689 36.7429 33.9792 37.0838 33.3011C37.4285 32.6231 37.9134 32.0966 38.5384 31.7216C39.1634 31.3466 39.902 31.1591 40.7543 31.1591C41.6065 31.1591 42.3452 31.3466 42.9702 31.7216C43.5952 32.0966 44.0781 32.6231 44.419 33.3011C44.7637 33.9792 44.9361 34.7689 44.9361 35.6705C44.9361 36.572 44.7637 37.3598 44.419 38.0341C44.0781 38.7083 43.5952 39.233 42.9702 39.608C42.3452 39.983 41.6065 40.1705 40.7543 40.1705ZM40.7656 38.5227C41.2277 38.5227 41.6141 38.3958 41.9247 38.142C42.2353 37.8845 42.4664 37.5398 42.6179 37.108C42.7732 36.6761 42.8509 36.1951 42.8509 35.6648C42.8509 35.1307 42.7732 34.6477 42.6179 34.2159C42.4664 33.7803 42.2353 33.4337 41.9247 33.1761C41.6141 32.9186 41.2277 32.7898 40.7656 32.7898C40.2921 32.7898 39.8982 32.9186 39.5838 33.1761C39.2732 33.4337 39.0402 33.7803 38.8849 34.2159C38.7334 34.6477 38.6577 35.1307 38.6577 35.6648C38.6577 36.1951 38.7334 36.6761 38.8849 37.108C39.0402 37.5398 39.2732 37.8845 39.5838 38.142C39.8982 38.3958 40.2921 38.5227 40.7656 38.5227ZM46.6818 40V31.2727H48.6477V32.7557H48.75C48.9318 32.2557 49.233 31.8655 49.6534 31.5852C50.0739 31.3011 50.5758 31.1591 51.1591 31.1591C51.75 31.1591 52.2481 31.303 52.6534 31.5909C53.0625 31.875 53.3504 32.2633 53.517 32.7557H53.608C53.8011 32.2708 54.1269 31.8845 54.5852 31.5966C55.0473 31.3049 55.5947 31.1591 56.2273 31.1591C57.0303 31.1591 57.6856 31.4129 58.1932 31.9205C58.7008 32.428 58.9545 33.1686 58.9545 34.142V40H56.892V34.4602C56.892 33.9186 56.7481 33.5227 56.4602 33.2727C56.1723 33.0189 55.8201 32.892 55.4034 32.892C54.9072 32.892 54.5189 33.0473 54.2386 33.358C53.9621 33.6648 53.8239 34.0644 53.8239 34.5568V40H51.8068V34.375C51.8068 33.9242 51.6705 33.5644 51.3977 33.2955C51.1288 33.0265 50.7765 32.892 50.3409 32.892C50.0455 32.892 49.7765 32.9678 49.5341 33.1193C49.2917 33.267 49.0985 33.4773 48.9545 33.75C48.8106 34.0189 48.7386 34.3333 48.7386 34.6932V40H46.6818ZM61.0412 40V31.2727H63.0071V32.7557H63.1094C63.2912 32.2557 63.5923 31.8655 64.0128 31.5852C64.4332 31.3011 64.9351 31.1591 65.5185 31.1591C66.1094 31.1591 66.6075 31.303 67.0128 31.5909C67.4219 31.875 67.7098 32.2633 67.8764 32.7557H67.9673C68.1605 32.2708 68.4863 31.8845 68.9446 31.5966C69.4067 31.3049 69.9541 31.1591 70.5866 31.1591C71.3897 31.1591 72.045 31.4129 72.5526 31.9205C73.0601 32.428 73.3139 33.1686 73.3139 34.142V40H71.2514V34.4602C71.2514 33.9186 71.1075 33.5227 70.8196 33.2727C70.5317 33.0189 70.1795 32.892 69.7628 32.892C69.2666 32.892 68.8783 33.0473 68.598 33.358C68.3215 33.6648 68.1832 34.0644 68.1832 34.5568V40H66.1662V34.375C66.1662 33.9242 66.0298 33.5644 65.7571 33.2955C65.4882 33.0265 65.1359 32.892 64.7003 32.892C64.4048 32.892 64.1359 32.9678 63.8935 33.1193C63.651 33.267 63.4579 33.4773 63.3139 33.75C63.17 34.0189 63.098 34.3333 63.098 34.6932V40H61.0412ZM79.2642 40.1705C78.3892 40.1705 77.6335 39.9886 76.9972 39.625C76.3646 39.2576 75.8778 38.7386 75.5369 38.0682C75.196 37.3939 75.0256 36.6004 75.0256 35.6875C75.0256 34.7898 75.196 34.0019 75.5369 33.3239C75.8816 32.642 76.3627 32.1117 76.9801 31.733C77.5975 31.3504 78.3229 31.1591 79.1562 31.1591C79.6941 31.1591 80.2017 31.2462 80.679 31.4205C81.16 31.5909 81.5843 31.8561 81.9517 32.2159C82.3229 32.5758 82.6146 33.0341 82.8267 33.5909C83.0388 34.1439 83.1449 34.803 83.1449 35.5682V36.1989H75.9915V34.8125H81.1733C81.1695 34.4186 81.0843 34.0682 80.9176 33.7614C80.7509 33.4508 80.518 33.2064 80.2188 33.0284C79.9233 32.8504 79.5786 32.7614 79.1847 32.7614C78.7642 32.7614 78.3949 32.8636 78.0767 33.0682C77.7585 33.2689 77.5104 33.5341 77.3324 33.8636C77.1581 34.1894 77.0691 34.5473 77.0653 34.9375V36.1477C77.0653 36.6553 77.1581 37.0909 77.3438 37.4545C77.5294 37.8144 77.7888 38.0909 78.1222 38.2841C78.4555 38.4735 78.8456 38.5682 79.2926 38.5682C79.5919 38.5682 79.8627 38.5265 80.1051 38.4432C80.3475 38.3561 80.5578 38.2292 80.7358 38.0625C80.9138 37.8958 81.0483 37.6894 81.1392 37.4432L83.0597 37.6591C82.9384 38.1667 82.7074 38.6098 82.3665 38.9886C82.0294 39.3636 81.5975 39.6553 81.071 39.8636C80.5445 40.0682 79.9422 40.1705 79.2642 40.1705ZM86.9418 34.8864V40H84.8849V31.2727H86.8509V32.7557H86.9531C87.1539 32.267 87.474 31.8788 87.9134 31.5909C88.3565 31.303 88.9039 31.1591 89.5554 31.1591C90.1577 31.1591 90.6823 31.2879 91.1293 31.5455C91.58 31.803 91.9285 32.1761 92.1747 32.6648C92.4247 33.1534 92.5478 33.7462 92.544 34.4432V40H90.4872V34.7614C90.4872 34.178 90.3357 33.7216 90.0327 33.392C89.7334 33.0625 89.3187 32.8977 88.7884 32.8977C88.4285 32.8977 88.1084 32.9773 87.8281 33.1364C87.5516 33.2917 87.3338 33.517 87.1747 33.8125C87.0194 34.108 86.9418 34.4659 86.9418 34.8864ZM98.9929 31.2727V32.8636H93.9759V31.2727H98.9929ZM95.2145 29.1818H97.2713V37.375C97.2713 37.6515 97.313 37.8636 97.3963 38.0114C97.4834 38.1553 97.5971 38.2538 97.7372 38.3068C97.8774 38.3598 98.0327 38.3864 98.2031 38.3864C98.3319 38.3864 98.4493 38.3769 98.5554 38.358C98.6652 38.339 98.7486 38.322 98.8054 38.3068L99.152 39.9148C99.0421 39.9527 98.8849 39.9943 98.6804 40.0398C98.4796 40.0852 98.2334 40.1117 97.9418 40.1193C97.4266 40.1345 96.9626 40.0568 96.5497 39.8864C96.1368 39.7121 95.8092 39.4432 95.5668 39.0795C95.3281 38.7159 95.2107 38.2614 95.2145 37.7159V29.1818ZM103.224 40.1761C102.671 40.1761 102.173 40.0777 101.73 39.8807C101.291 39.6799 100.942 39.3845 100.685 38.9943C100.431 38.6042 100.304 38.1231 100.304 37.5511C100.304 37.0587 100.395 36.6515 100.577 36.3295C100.759 36.0076 101.007 35.75 101.321 35.5568C101.635 35.3636 101.99 35.2178 102.384 35.1193C102.781 35.017 103.192 34.9432 103.616 34.8977C104.128 34.8447 104.543 34.7973 104.861 34.7557C105.179 34.7102 105.41 34.642 105.554 34.5511C105.702 34.4564 105.776 34.3106 105.776 34.1136V34.0795C105.776 33.6515 105.649 33.3201 105.395 33.0852C105.141 32.8504 104.776 32.733 104.298 32.733C103.795 32.733 103.395 32.8428 103.099 33.0625C102.808 33.2822 102.611 33.5417 102.509 33.8409L100.588 33.5682C100.74 33.0379 100.99 32.5947 101.338 32.2386C101.687 31.8788 102.113 31.6098 102.616 31.4318C103.12 31.25 103.677 31.1591 104.287 31.1591C104.707 31.1591 105.126 31.2083 105.543 31.3068C105.959 31.4053 106.34 31.5682 106.685 31.7955C107.029 32.0189 107.306 32.3239 107.514 32.7102C107.726 33.0966 107.832 33.5795 107.832 34.1591V40H105.855V38.8011H105.787C105.662 39.0436 105.486 39.2708 105.259 39.483C105.035 39.6913 104.753 39.8598 104.412 39.9886C104.075 40.1136 103.679 40.1761 103.224 40.1761ZM103.759 38.6648C104.171 38.6648 104.529 38.5833 104.832 38.4205C105.135 38.2538 105.368 38.0341 105.531 37.7614C105.698 37.4886 105.781 37.1913 105.781 36.8693V35.8409C105.717 35.8939 105.607 35.9432 105.452 35.9886C105.3 36.0341 105.13 36.0739 104.94 36.108C104.751 36.142 104.563 36.1723 104.378 36.1989C104.192 36.2254 104.031 36.2481 103.895 36.267C103.588 36.3087 103.313 36.3769 103.071 36.4716C102.829 36.5663 102.637 36.6989 102.497 36.8693C102.357 37.036 102.287 37.2519 102.287 37.517C102.287 37.8958 102.425 38.1818 102.702 38.375C102.978 38.5682 103.33 38.6648 103.759 38.6648ZM109.901 40V31.2727H111.957V40H109.901ZM110.935 30.0341C110.609 30.0341 110.329 29.9261 110.094 29.7102C109.859 29.4905 109.741 29.2273 109.741 28.9205C109.741 28.6098 109.859 28.3466 110.094 28.1307C110.329 27.911 110.609 27.8011 110.935 27.8011C111.264 27.8011 111.545 27.911 111.776 28.1307C112.01 28.3466 112.128 28.6098 112.128 28.9205C112.128 29.2273 112.01 29.4905 111.776 29.7102C111.545 29.9261 111.264 30.0341 110.935 30.0341ZM114.072 40V31.2727H116.067V32.7273H116.158C116.317 32.2235 116.589 31.8352 116.976 31.5625C117.366 31.286 117.811 31.1477 118.311 31.1477C118.425 31.1477 118.552 31.1534 118.692 31.1648C118.836 31.1723 118.955 31.1856 119.05 31.2045V33.0966C118.963 33.0663 118.824 33.0398 118.635 33.017C118.449 32.9905 118.269 32.9773 118.095 32.9773C117.72 32.9773 117.383 33.0587 117.084 33.2216C116.788 33.3807 116.555 33.6023 116.385 33.8864C116.214 34.1705 116.129 34.4981 116.129 34.8693V40H114.072ZM123.92 40.1705C123.045 40.1705 122.29 39.9886 121.653 39.625C121.021 39.2576 120.534 38.7386 120.193 38.0682C119.852 37.3939 119.682 36.6004 119.682 35.6875C119.682 34.7898 119.852 34.0019 120.193 33.3239C120.538 32.642 121.019 32.1117 121.636 31.733C122.254 31.3504 122.979 31.1591 123.812 31.1591C124.35 31.1591 124.858 31.2462 125.335 31.4205C125.816 31.5909 126.241 31.8561 126.608 32.2159C126.979 32.5758 127.271 33.0341 127.483 33.5909C127.695 34.1439 127.801 34.803 127.801 35.5682V36.1989H120.648V34.8125H125.83C125.826 34.4186 125.741 34.0682 125.574 33.7614C125.407 33.4508 125.174 33.2064 124.875 33.0284C124.58 32.8504 124.235 32.7614 123.841 32.7614C123.42 32.7614 123.051 32.8636 122.733 33.0682C122.415 33.2689 122.167 33.5341 121.989 33.8636C121.814 34.1894 121.725 34.5473 121.722 34.9375V36.1477C121.722 36.6553 121.814 37.0909 122 37.4545C122.186 37.8144 122.445 38.0909 122.778 38.2841C123.112 38.4735 123.502 38.5682 123.949 38.5682C124.248 38.5682 124.519 38.5265 124.761 38.4432C125.004 38.3561 125.214 38.2292 125.392 38.0625C125.57 37.8958 125.705 37.6894 125.795 37.4432L127.716 37.6591C127.595 38.1667 127.364 38.6098 127.023 38.9886C126.686 39.3636 126.254 39.6553 125.727 39.8636C125.201 40.0682 124.598 40.1705 123.92 40.1705ZM136.439 33.5795L134.564 33.7841C134.511 33.5947 134.418 33.4167 134.286 33.25C134.157 33.0833 133.982 32.9489 133.763 32.8466C133.543 32.7443 133.274 32.6932 132.956 32.6932C132.528 32.6932 132.168 32.786 131.876 32.9716C131.589 33.1572 131.446 33.3977 131.45 33.6932C131.446 33.947 131.539 34.1534 131.729 34.3125C131.922 34.4716 132.24 34.6023 132.683 34.7045L134.172 35.0227C134.998 35.2008 135.611 35.483 136.013 35.8693C136.418 36.2557 136.623 36.7614 136.626 37.3864C136.623 37.9356 136.462 38.4205 136.143 38.8409C135.829 39.2576 135.392 39.5833 134.831 39.8182C134.27 40.053 133.626 40.1705 132.899 40.1705C131.831 40.1705 130.971 39.947 130.32 39.5C129.668 39.0492 129.28 38.4223 129.155 37.6193L131.161 37.4261C131.251 37.8201 131.445 38.1174 131.74 38.3182C132.036 38.5189 132.42 38.6193 132.893 38.6193C133.382 38.6193 133.774 38.5189 134.07 38.3182C134.369 38.1174 134.518 37.8693 134.518 37.5739C134.518 37.3239 134.422 37.1174 134.229 36.9545C134.039 36.7917 133.744 36.6667 133.342 36.5795L131.854 36.267C131.017 36.0928 130.397 35.7992 129.996 35.3864C129.594 34.9697 129.395 34.4432 129.399 33.8068C129.395 33.2689 129.541 32.803 129.837 32.4091C130.136 32.0114 130.551 31.7045 131.081 31.4886C131.615 31.2689 132.231 31.1591 132.928 31.1591C133.95 31.1591 134.755 31.3769 135.342 31.8125C135.933 32.2481 136.299 32.8371 136.439 33.5795ZM146.155 40.1705C145.28 40.1705 144.524 39.9886 143.888 39.625C143.255 39.2576 142.768 38.7386 142.428 38.0682C142.087 37.3939 141.916 36.6004 141.916 35.6875C141.916 34.7898 142.087 34.0019 142.428 33.3239C142.772 32.642 143.253 32.1117 143.871 31.733C144.488 31.3504 145.214 31.1591 146.047 31.1591C146.585 31.1591 147.092 31.2462 147.57 31.4205C148.051 31.5909 148.475 31.8561 148.842 32.2159C149.214 32.5758 149.505 33.0341 149.717 33.5909C149.929 34.1439 150.036 34.803 150.036 35.5682V36.1989H142.882V34.8125H148.064C148.06 34.4186 147.975 34.0682 147.808 33.7614C147.642 33.4508 147.409 33.2064 147.109 33.0284C146.814 32.8504 146.469 32.7614 146.075 32.7614C145.655 32.7614 145.286 32.8636 144.967 33.0682C144.649 33.2689 144.401 33.5341 144.223 33.8636C144.049 34.1894 143.96 34.5473 143.956 34.9375V36.1477C143.956 36.6553 144.049 37.0909 144.234 37.4545C144.42 37.8144 144.679 38.0909 145.013 38.2841C145.346 38.4735 145.736 38.5682 146.183 38.5682C146.482 38.5682 146.753 38.5265 146.996 38.4432C147.238 38.3561 147.448 38.2292 147.626 38.0625C147.804 37.8958 147.939 37.6894 148.03 37.4432L149.95 37.6591C149.829 38.1667 149.598 38.6098 149.257 38.9886C148.92 39.3636 148.488 39.6553 147.962 39.8636C147.435 40.0682 146.833 40.1705 146.155 40.1705ZM156.134 31.2727V32.8636H151.116V31.2727H156.134ZM152.355 29.1818H154.412V37.375C154.412 37.6515 154.454 37.8636 154.537 38.0114C154.624 38.1553 154.738 38.2538 154.878 38.3068C155.018 38.3598 155.173 38.3864 155.344 38.3864C155.473 38.3864 155.59 38.3769 155.696 38.358C155.806 38.339 155.889 38.322 155.946 38.3068L156.293 39.9148C156.183 39.9527 156.026 39.9943 155.821 40.0398C155.62 40.0852 155.374 40.1117 155.082 40.1193C154.567 40.1345 154.103 40.0568 153.69 39.8864C153.277 39.7121 152.95 39.4432 152.707 39.0795C152.469 38.7159 152.351 38.2614 152.355 37.7159V29.1818ZM161.822 40V31.2727H163.817V32.7273H163.908C164.067 32.2235 164.339 31.8352 164.726 31.5625C165.116 31.286 165.561 31.1477 166.061 31.1477C166.175 31.1477 166.302 31.1534 166.442 31.1648C166.586 31.1723 166.705 31.1856 166.8 31.2045V33.0966C166.713 33.0663 166.574 33.0398 166.385 33.017C166.199 32.9905 166.019 32.9773 165.845 32.9773C165.47 32.9773 165.133 33.0587 164.834 33.2216C164.538 33.3807 164.305 33.6023 164.135 33.8864C163.964 34.1705 163.879 34.4981 163.879 34.8693V40H161.822ZM171.67 40.1705C170.795 40.1705 170.04 39.9886 169.403 39.625C168.771 39.2576 168.284 38.7386 167.943 38.0682C167.602 37.3939 167.432 36.6004 167.432 35.6875C167.432 34.7898 167.602 34.0019 167.943 33.3239C168.288 32.642 168.769 32.1117 169.386 31.733C170.004 31.3504 170.729 31.1591 171.562 31.1591C172.1 31.1591 172.608 31.2462 173.085 31.4205C173.566 31.5909 173.991 31.8561 174.358 32.2159C174.729 32.5758 175.021 33.0341 175.233 33.5909C175.445 34.1439 175.551 34.803 175.551 35.5682V36.1989H168.398V34.8125H173.58C173.576 34.4186 173.491 34.0682 173.324 33.7614C173.157 33.4508 172.924 33.2064 172.625 33.0284C172.33 32.8504 171.985 32.7614 171.591 32.7614C171.17 32.7614 170.801 32.8636 170.483 33.0682C170.165 33.2689 169.917 33.5341 169.739 33.8636C169.564 34.1894 169.475 34.5473 169.472 34.9375V36.1477C169.472 36.6553 169.564 37.0909 169.75 37.4545C169.936 37.8144 170.195 38.0909 170.528 38.2841C170.862 38.4735 171.252 38.5682 171.699 38.5682C171.998 38.5682 172.269 38.5265 172.511 38.4432C172.754 38.3561 172.964 38.2292 173.142 38.0625C173.32 37.8958 173.455 37.6894 173.545 37.4432L175.466 37.6591C175.345 38.1667 175.114 38.6098 174.773 38.9886C174.436 39.3636 174.004 39.6553 173.477 39.8636C172.951 40.0682 172.348 40.1705 171.67 40.1705ZM177.291 40V31.2727H179.257V32.7557H179.359C179.541 32.2557 179.842 31.8655 180.263 31.5852C180.683 31.3011 181.185 31.1591 181.768 31.1591C182.359 31.1591 182.857 31.303 183.263 31.5909C183.672 31.875 183.96 32.2633 184.126 32.7557H184.217C184.411 32.2708 184.736 31.8845 185.195 31.5966C185.657 31.3049 186.204 31.1591 186.837 31.1591C187.64 31.1591 188.295 31.4129 188.803 31.9205C189.31 32.428 189.564 33.1686 189.564 34.142V40H187.501V34.4602C187.501 33.9186 187.357 33.5227 187.07 33.2727C186.782 33.0189 186.429 32.892 186.013 32.892C185.517 32.892 185.128 33.0473 184.848 33.358C184.571 33.6648 184.433 34.0644 184.433 34.5568V40H182.416V34.375C182.416 33.9242 182.28 33.5644 182.007 33.2955C181.738 33.0265 181.386 32.892 180.95 32.892C180.655 32.892 180.386 32.9678 180.143 33.1193C179.901 33.267 179.708 33.4773 179.564 33.75C179.42 34.0189 179.348 34.3333 179.348 34.6932V40H177.291ZM194.162 40.1761C193.609 40.1761 193.111 40.0777 192.668 39.8807C192.228 39.6799 191.88 39.3845 191.622 38.9943C191.368 38.6042 191.241 38.1231 191.241 37.5511C191.241 37.0587 191.332 36.6515 191.514 36.3295C191.696 36.0076 191.944 35.75 192.259 35.5568C192.573 35.3636 192.927 35.2178 193.321 35.1193C193.719 35.017 194.13 34.9432 194.554 34.8977C195.065 34.8447 195.48 34.7973 195.798 34.7557C196.116 34.7102 196.348 34.642 196.491 34.5511C196.639 34.4564 196.713 34.3106 196.713 34.1136V34.0795C196.713 33.6515 196.586 33.3201 196.332 33.0852C196.079 32.8504 195.713 32.733 195.236 32.733C194.732 32.733 194.332 32.8428 194.037 33.0625C193.745 33.2822 193.548 33.5417 193.446 33.8409L191.526 33.5682C191.677 33.0379 191.927 32.5947 192.276 32.2386C192.624 31.8788 193.05 31.6098 193.554 31.4318C194.058 31.25 194.615 31.1591 195.224 31.1591C195.645 31.1591 196.063 31.2083 196.48 31.3068C196.897 31.4053 197.277 31.5682 197.622 31.7955C197.967 32.0189 198.243 32.3239 198.452 32.7102C198.664 33.0966 198.77 33.5795 198.77 34.1591V40H196.793V38.8011H196.724C196.599 39.0436 196.423 39.2708 196.196 39.483C195.973 39.6913 195.69 39.8598 195.349 39.9886C195.012 40.1136 194.616 40.1761 194.162 40.1761ZM194.696 38.6648C195.109 38.6648 195.467 38.5833 195.77 38.4205C196.073 38.2538 196.306 38.0341 196.469 37.7614C196.635 37.4886 196.719 37.1913 196.719 36.8693V35.8409C196.654 35.8939 196.545 35.9432 196.389 35.9886C196.238 36.0341 196.067 36.0739 195.878 36.108C195.688 36.142 195.501 36.1723 195.315 36.1989C195.13 36.2254 194.969 36.2481 194.832 36.267C194.526 36.3087 194.251 36.3769 194.009 36.4716C193.766 36.5663 193.575 36.6989 193.435 36.8693C193.295 37.036 193.224 37.2519 193.224 37.517C193.224 37.8958 193.363 38.1818 193.639 38.375C193.916 38.5682 194.268 38.6648 194.696 38.6648ZM200.838 40V31.2727H202.832V32.7273H202.923C203.082 32.2235 203.355 31.8352 203.741 31.5625C204.132 31.286 204.577 31.1477 205.077 31.1477C205.19 31.1477 205.317 31.1534 205.457 31.1648C205.601 31.1723 205.721 31.1856 205.815 31.2045V33.0966C205.728 33.0663 205.59 33.0398 205.401 33.017C205.215 32.9905 205.035 32.9773 204.861 32.9773C204.486 32.9773 204.149 33.0587 203.849 33.2216C203.554 33.3807 203.321 33.6023 203.151 33.8864C202.98 34.1705 202.895 34.4981 202.895 34.8693V40H200.838ZM212.646 43.2727V38.625H212.561C212.455 38.8371 212.302 39.0625 212.101 39.3011C211.9 39.536 211.635 39.7367 211.305 39.9034C210.976 40.0701 210.561 40.1534 210.061 40.1534C209.375 40.1534 208.762 39.9773 208.22 39.625C207.679 39.2727 207.25 38.7614 206.936 38.0909C206.622 37.4205 206.464 36.6061 206.464 35.6477C206.464 34.678 206.624 33.8598 206.942 33.1932C207.264 32.5227 207.697 32.017 208.243 31.6761C208.788 31.3314 209.396 31.1591 210.067 31.1591C210.578 31.1591 210.999 31.2462 211.328 31.4205C211.658 31.5909 211.919 31.7973 212.112 32.0398C212.305 32.2784 212.455 32.5038 212.561 32.7159H212.686V31.2727H214.709V43.2727H212.646ZM210.635 38.4659C211.071 38.4659 211.442 38.3485 211.749 38.1136C212.055 37.875 212.288 37.5436 212.447 37.1193C212.607 36.6951 212.686 36.2008 212.686 35.6364C212.686 35.072 212.607 34.5814 212.447 34.1648C212.292 33.7481 212.061 33.4242 211.754 33.1932C211.451 32.9621 211.078 32.8466 210.635 32.8466C210.177 32.8466 209.794 32.9659 209.487 33.2045C209.18 33.4432 208.949 33.7727 208.794 34.1932C208.639 34.6136 208.561 35.0947 208.561 35.6364C208.561 36.1818 208.639 36.6686 208.794 37.0966C208.953 37.5208 209.186 37.8561 209.493 38.1023C209.804 38.3447 210.184 38.4659 210.635 38.4659ZM222.385 36.3295V31.2727H224.442V40H222.447V38.4489H222.357C222.16 38.9375 221.836 39.3371 221.385 39.6477C220.938 39.9583 220.387 40.1136 219.732 40.1136C219.16 40.1136 218.654 39.9867 218.214 39.733C217.779 39.4754 217.438 39.1023 217.192 38.6136C216.946 38.1212 216.822 37.5265 216.822 36.8295V31.2727H218.879V36.5114C218.879 37.0644 219.031 37.5038 219.334 37.8295C219.637 38.1553 220.035 38.3182 220.527 38.3182C220.83 38.3182 221.124 38.2443 221.408 38.0966C221.692 37.9489 221.925 37.7292 222.107 37.4375C222.292 37.142 222.385 36.7727 222.385 36.3295ZM230.42 40.1705C229.545 40.1705 228.79 39.9886 228.153 39.625C227.521 39.2576 227.034 38.7386 226.693 38.0682C226.352 37.3939 226.182 36.6004 226.182 35.6875C226.182 34.7898 226.352 34.0019 226.693 33.3239C227.038 32.642 227.519 32.1117 228.136 31.733C228.754 31.3504 229.479 31.1591 230.312 31.1591C230.85 31.1591 231.358 31.2462 231.835 31.4205C232.316 31.5909 232.741 31.8561 233.108 32.2159C233.479 32.5758 233.771 33.0341 233.983 33.5909C234.195 34.1439 234.301 34.803 234.301 35.5682V36.1989H227.148V34.8125H232.33C232.326 34.4186 232.241 34.0682 232.074 33.7614C231.907 33.4508 231.674 33.2064 231.375 33.0284C231.08 32.8504 230.735 32.7614 230.341 32.7614C229.92 32.7614 229.551 32.8636 229.233 33.0682C228.915 33.2689 228.667 33.5341 228.489 33.8636C228.314 34.1894 228.225 34.5473 228.222 34.9375V36.1477C228.222 36.6553 228.314 37.0909 228.5 37.4545C228.686 37.8144 228.945 38.0909 229.278 38.2841C229.612 38.4735 230.002 38.5682 230.449 38.5682C230.748 38.5682 231.019 38.5265 231.261 38.4432C231.504 38.3561 231.714 38.2292 231.892 38.0625C232.07 37.8958 232.205 37.6894 232.295 37.4432L234.216 37.6591C234.095 38.1667 233.864 38.6098 233.523 38.9886C233.186 39.3636 232.754 39.6553 232.227 39.8636C231.701 40.0682 231.098 40.1705 230.42 40.1705ZM242.939 33.5795L241.064 33.7841C241.011 33.5947 240.918 33.4167 240.786 33.25C240.657 33.0833 240.482 32.9489 240.263 32.8466C240.043 32.7443 239.774 32.6932 239.456 32.6932C239.028 32.6932 238.668 32.786 238.376 32.9716C238.089 33.1572 237.946 33.3977 237.95 33.6932C237.946 33.947 238.039 34.1534 238.229 34.3125C238.422 34.4716 238.74 34.6023 239.183 34.7045L240.672 35.0227C241.498 35.2008 242.111 35.483 242.513 35.8693C242.918 36.2557 243.123 36.7614 243.126 37.3864C243.123 37.9356 242.962 38.4205 242.643 38.8409C242.329 39.2576 241.892 39.5833 241.331 39.8182C240.77 40.053 240.126 40.1705 239.399 40.1705C238.331 40.1705 237.471 39.947 236.82 39.5C236.168 39.0492 235.78 38.4223 235.655 37.6193L237.661 37.4261C237.751 37.8201 237.945 38.1174 238.24 38.3182C238.536 38.5189 238.92 38.6193 239.393 38.6193C239.882 38.6193 240.274 38.5189 240.57 38.3182C240.869 38.1174 241.018 37.8693 241.018 37.5739C241.018 37.3239 240.922 37.1174 240.729 36.9545C240.539 36.7917 240.244 36.6667 239.842 36.5795L238.354 36.267C237.517 36.0928 236.897 35.7992 236.496 35.3864C236.094 34.9697 235.895 34.4432 235.899 33.8068C235.895 33.2689 236.041 32.803 236.337 32.4091C236.636 32.0114 237.051 31.7045 237.581 31.4886C238.115 31.2689 238.731 31.1591 239.428 31.1591C240.45 31.1591 241.255 31.3769 241.842 31.8125C242.433 32.2481 242.799 32.8371 242.939 33.5795Z"
        fill="#101928" />
</svg>