<svg width="260" height="192" viewBox="0 0 260 192" fill="none" xmlns="http://www.w3.org/2000/svg">
<circle cx="126.617" cy="102.121" r="89.3781" fill="#E9EDF4"/>
<path d="M162.123 6.14966C175.374 9.7574 187.642 16.2499 198.035 25.1547C208.427 34.0594 216.682 45.1524 222.199 57.6263C227.716 70.1003 230.356 83.6413 229.928 97.2641" stroke="#F4F8FD" stroke-width="4" stroke-linecap="round"/>
<circle cx="25.9331" cy="25.2925" r="11.8355" fill="#DCE2EC"/>
<path d="M233.829 14.3956C233.53 13.7909 233.384 13.1221 233.404 12.4478C233.386 11.7737 233.532 11.1053 233.829 10.5C234.123 11.1064 234.269 11.774 234.255 12.4478C234.266 13.1213 234.12 13.7882 233.829 14.3956Z" fill="#00A465"/>
<path d="M230.308 15.9093C229.663 15.6907 229.079 15.3202 228.607 14.8291C228.119 14.3558 227.751 13.7725 227.535 13.1279C228.164 13.3632 228.735 13.7311 229.209 14.2066C229.683 14.6822 230.049 15.2542 230.283 15.8838L230.308 15.9093Z" fill="#00A465"/>
<path d="M228.896 19.464C228.285 19.7445 227.62 19.8897 226.948 19.8897C226.275 19.8897 225.611 19.7445 225 19.464C225.605 19.1658 226.274 19.0198 226.948 19.0387C227.622 19.0242 228.289 19.1699 228.896 19.464Z" fill="#00A465"/>
<path d="M230.41 22.9775C230.173 23.608 229.804 24.1803 229.327 24.6558C228.85 25.1312 228.277 25.4987 227.646 25.7334C227.882 25.1029 228.251 24.5306 228.728 24.0552C229.205 23.5797 229.779 23.2122 230.41 22.9775Z" fill="#00A465"/>
<path d="M233.965 24.3896C234.257 24.9993 234.4 25.67 234.381 26.346C234.399 27.0201 234.253 27.6885 233.956 28.2938C233.667 27.6857 233.521 27.0193 233.531 26.346C233.519 25.6688 233.668 24.9984 233.965 24.3896Z" fill="#00A465"/>
<path d="M237.452 22.8848C238.081 23.12 238.652 23.488 239.126 23.9635C239.6 24.439 239.966 25.011 240.2 25.6406C239.571 25.4053 239 25.0374 238.526 24.5619C238.052 24.0864 237.685 23.5144 237.452 22.8848Z" fill="#00A465"/>
<path d="M238.89 19.328C239.501 19.0475 240.165 18.9023 240.837 18.9023C241.51 18.9023 242.174 19.0475 242.785 19.328C242.18 19.6262 241.512 19.7722 240.837 19.7533C240.164 19.7637 239.497 19.6182 238.89 19.328Z" fill="#00A465"/>
<path d="M237.376 15.7999C237.597 15.1557 237.967 14.5728 238.456 14.0988C238.929 13.6076 239.512 13.2371 240.157 13.0186C239.921 13.649 239.551 14.2213 239.075 14.6968C238.598 15.1722 238.024 15.5397 237.393 15.7744L237.376 15.7999Z" fill="#00A465"/>
<path d="M17.8288 135.404C17.5334 134.795 17.3876 134.124 17.4035 133.448C17.394 132.775 17.5395 132.108 17.8288 131.5C18.1271 132.108 18.273 132.779 18.2541 133.456C18.2636 134.13 18.1181 134.796 17.8288 135.404Z" fill="#00A465"/>
<path d="M14.3154 136.91C13.6844 136.677 13.1113 136.31 12.6356 135.834C12.1599 135.358 11.7928 134.785 11.5596 134.154C12.1886 134.391 12.7599 134.759 13.2352 135.235C13.7104 135.71 14.0787 136.281 14.3154 136.91Z" fill="#00A465"/>
<path d="M12.8956 140.466C12.2892 140.76 11.6216 140.906 10.9478 140.891C10.2744 140.902 9.60775 140.756 9 140.466C9.6053 140.169 10.2737 140.023 10.9478 140.041C11.6213 140.029 12.2882 140.175 12.8956 140.466Z" fill="#00A465"/>
<path d="M14.4101 143.978C14.1735 144.607 13.8052 145.178 13.3299 145.653C12.8546 146.128 12.2834 146.497 11.6543 146.733C11.891 146.104 12.2593 145.533 12.7345 145.058C13.2098 144.583 13.7811 144.214 14.4101 143.978Z" fill="#00A465"/>
<path d="M17.9651 145.399C18.2562 146.007 18.4018 146.674 18.3904 147.347C18.4023 148.022 18.2536 148.689 17.9566 149.295C17.6654 148.688 17.5226 148.02 17.5398 147.347C17.5202 146.673 17.6662 146.004 17.9651 145.399Z" fill="#00A465"/>
<path d="M21.4775 143.885C22.1066 144.121 22.6779 144.49 23.1531 144.965C23.6284 145.44 23.9967 146.012 24.2334 146.641C23.588 146.422 23.0046 146.052 22.5322 145.56C22.0555 145.091 21.6944 144.518 21.4775 143.885Z" fill="#00A465"/>
<path d="M22.8896 140.33C23.5004 140.04 24.1698 139.894 24.846 139.905C25.5205 139.893 26.1881 140.042 26.7938 140.339C26.1841 140.631 25.5134 140.774 24.8375 140.756C24.1634 140.773 23.495 140.628 22.8896 140.33Z" fill="#00A465"/>
<path d="M21.3838 136.817C21.6171 136.186 21.9841 135.613 22.4599 135.138C22.9356 134.662 23.5086 134.295 24.1396 134.062C23.921 134.707 23.5506 135.29 23.0594 135.763C22.5902 136.239 22.0166 136.601 21.3838 136.817Z" fill="#00A465"/>
<path d="M130.293 41.9911C134.228 38.9979 139.677 38.998 143.612 41.9911L149.184 46.2289C151.48 47.9756 154.371 48.7501 157.233 48.3857L164.177 47.5013C169.081 46.8767 173.8 49.601 175.711 54.1607L178.417 60.6165C179.533 63.2774 181.649 65.3935 184.309 66.5088L190.765 69.215C195.325 71.1263 198.049 75.8449 197.425 80.7494L196.54 87.6933C196.176 90.5554 196.95 93.446 198.697 95.7424L202.935 101.314C205.928 105.249 205.928 110.698 202.935 114.633L198.697 120.204C196.95 122.5 196.176 125.391 196.54 128.253L197.425 135.197C198.049 140.102 195.325 144.82 190.765 146.732L184.309 149.438C181.649 150.553 179.533 152.669 178.417 155.33L175.711 161.786C173.8 166.345 169.081 169.07 164.177 168.445L157.233 167.561C154.371 167.196 151.48 167.971 149.184 169.718L143.612 173.955C139.677 176.949 134.228 176.949 130.293 173.955L124.722 169.718C122.426 167.971 119.535 167.196 116.673 167.561L109.729 168.445C104.824 169.07 100.106 166.345 98.1945 161.786L95.4883 155.33C94.373 152.669 92.2569 150.553 89.596 149.438L83.1402 146.732C78.5805 144.82 75.8562 140.102 76.4808 135.197L77.3651 128.253C77.7296 125.391 76.9551 122.5 75.2084 120.204L70.9706 114.633C67.9774 110.698 67.9774 105.249 70.9706 101.314L75.2084 95.7424C76.9551 93.446 77.7296 90.5554 77.3652 87.6933L76.4808 80.7494C75.8562 75.8449 78.5805 71.1263 83.1402 69.215L89.596 66.5088C92.2569 65.3935 94.373 63.2774 95.4883 60.6165L98.1945 54.1607C100.106 49.601 104.824 46.8767 109.729 47.5013L116.673 48.3857C119.535 48.7501 122.426 47.9756 124.722 46.2289L130.293 41.9911Z" fill="#DCE2EC"/>
<path d="M118.62 34.6396C121.739 32.2673 126.02 32.1931 129.212 34.417L129.518 34.6396L135.539 39.2197C138.168 41.2194 141.456 42.1406 144.734 41.8047L145.052 41.7686L152.557 40.8125C156.444 40.3175 160.189 42.394 161.841 45.916L161.994 46.2617L164.919 53.2383C166.196 56.2845 168.582 58.7271 171.589 60.0752L171.882 60.2021L178.859 63.127C182.473 64.6419 184.678 68.3124 184.348 72.1885L184.308 72.5645L183.353 80.0693C182.935 83.346 183.781 86.6544 185.711 89.3252L185.901 89.5811L190.481 95.6025C192.854 98.7214 192.928 103.003 190.704 106.194L190.481 106.5L185.901 112.521C183.902 115.15 182.98 118.439 183.315 121.717L183.353 122.034L184.308 129.539C184.803 133.426 182.727 137.171 179.205 138.823L178.859 138.977L171.882 141.901C168.836 143.178 166.394 145.565 165.046 148.571L164.919 148.864L161.994 155.842C160.479 159.456 156.809 161.66 152.933 161.33L152.557 161.29L145.052 160.335C141.775 159.918 138.467 160.763 135.796 162.693L135.539 162.884L129.518 167.464C126.398 169.836 122.117 169.91 118.926 167.686L118.62 167.464L112.599 162.884C109.969 160.884 106.681 159.962 103.403 160.298L103.087 160.335L95.582 161.29C91.6948 161.785 87.9499 159.709 86.2979 156.188L86.1445 155.842L83.2197 148.864C81.9427 145.818 79.5556 143.376 76.5488 142.028L76.2559 141.901L69.2793 138.977C65.6653 137.462 63.4599 133.791 63.79 129.915L63.8301 129.539L64.7861 122.034C65.2034 118.758 64.3576 115.449 62.4277 112.778L62.2373 112.521L57.6572 106.5C55.2849 103.381 55.2104 99.0998 57.4346 95.9082L57.6572 95.6025L62.2373 89.5811C64.237 86.9519 65.1584 83.6638 64.8223 80.3857L64.7861 80.0693L63.8301 72.5645C63.335 68.6771 65.4117 64.9323 68.9336 63.2803L69.2793 63.127L76.2559 60.2021C79.3023 58.9252 81.7447 56.5382 83.0928 53.5312L83.2197 53.2383L86.1445 46.2617C87.6595 42.6477 91.33 40.4422 95.2061 40.7725L95.582 40.8125L103.087 41.7686C106.363 42.1858 109.672 41.3401 112.343 39.4102L112.599 39.2197L118.62 34.6396Z" fill="white" stroke="white" stroke-width="4"/>
<circle cx="126.204" cy="102.194" r="41.4193" fill="#4B2946"/>
<circle cx="123.505" cy="100.52" r="38.8625" fill="white"/>
<path d="M124.4 58.5928C147.205 58.5928 165.692 77.0794 165.692 99.8838C165.692 122.688 147.205 141.176 124.4 141.176C101.596 141.176 83.1094 122.688 83.1094 99.8838C83.1096 77.0795 101.596 58.593 124.4 58.5928ZM117.731 106.911L106.702 96.5508L103.964 99.4668L101.226 102.382L114.989 115.312L117.724 117.88L120.462 115.315L146.738 90.708L141.27 84.8682L117.731 106.911Z" fill="#00A465"/>
<path d="M197 49.501H244.5" stroke="#00A465"/>
<path d="M0 163.501H47.5" stroke="#00A465"/>
<path d="M220 60.501H260" stroke="#00A465"/>
<path d="M40 176.501H80" stroke="#00A465"/>
<path d="M68.5029 41.501L57.003 42.4299" stroke="#00A465" stroke-width="2" stroke-linecap="round"/>
<path d="M75.647 34.7211L72.5029 23.001" stroke="#00A465" stroke-width="2" stroke-linecap="round"/>
<path d="M70.5024 36.502L55.7852 24.7754" stroke="#00A465" stroke-width="2" stroke-linecap="round"/>
</svg>
