<svg width="44" height="44" viewBox="0 0 44 44" fill="none" xmlns="http://www.w3.org/2000/svg">
    <rect width="44" height="44" rx="8" fill="#E2F6FF" />
    <path
        d="M18 27H30C30.5304 27 31.0391 26.7893 31.4142 26.4142C31.7893 26.0391 32 25.5304 32 25V19C32 18.4696 31.7893 17.9609 31.4142 17.5858C31.0391 17.2107 30.5304 17 30 17H26.07C25.7406 16.9983 25.4167 16.9152 25.1271 16.7582C24.8375 16.6012 24.5912 16.3751 24.41 16.1L23.59 14.9C23.4088 14.6249 23.1625 14.3988 22.8729 14.2418C22.5833 14.0848 22.2594 14.0017 21.93 14H18C17.4696 14 16.9609 14.2107 16.5858 14.5858C16.2107 14.9609 16 15.4696 16 16V25C16 26.1 16.9 27 18 27Z"
        stroke="#101928" stroke-width="1.5" stroke-linecap="round" stroke-linejoin="round" />
    <path d="M12 18V29C12 30.1 12.9 31 14 31H28" stroke="#101928" stroke-width="1.5" stroke-linecap="round"
        stroke-linejoin="round" />
</svg>