<svg width="159" height="146" viewBox="0 0 159 146" fill="none" xmlns="http://www.w3.org/2000/svg">
<path d="M75.9499 134.744C112.903 134.744 142.861 104.745 142.861 67.6111C142.861 30.4767 112.771 0.478516 75.9499 0.478516C38.9972 0.478516 9.03906 30.4767 9.03906 67.6111C9.03906 104.745 38.9972 134.744 75.9499 134.744Z" fill="#E9EDF4"/>
<g filter="url(#filter0_dd_328_25898)">
<path d="M95.3494 31.9304L115.541 104.613C116.201 107.124 114.75 109.635 112.242 110.296L41.1081 129.193C38.6006 129.854 36.0931 128.4 35.4332 125.89L10.6221 32.0626C9.96221 29.5517 11.4139 27.0408 13.9214 26.3801L65.3913 12.7686L95.3494 31.9304Z" fill="white"/>
</g>
<path d="M94.2936 77.9189L55.8891 88.0945L51.666 89.1517L38.8645 92.5876C38.3366 92.7198 37.9407 93.3805 38.2046 94.0413C38.3366 94.702 38.9965 95.0985 39.5244 94.9663L52.3258 91.5304L56.549 90.4732L94.9535 80.2976C95.4814 80.1654 95.8773 79.5047 95.6133 78.8439C95.4814 78.1832 94.8215 77.7867 94.2936 77.9189Z" fill="#D1D9E8"/>
<path d="M91.7862 68.9326L77.533 72.6329L72.65 73.9544L36.6211 83.6014C36.0932 83.7335 35.6973 84.3943 35.9612 85.055C36.0932 85.7158 36.7531 86.1122 37.281 85.9801L73.4418 76.3331L78.3249 75.0116L92.5781 71.3114C93.106 71.1792 93.5019 70.5185 93.238 69.8577C92.974 69.3291 92.3141 68.8005 91.7862 68.9326Z" fill="#D1D9E8"/>
<path d="M89.6748 59.8137L85.9796 60.7388L82.2843 61.6638L34.1138 74.4824C33.5859 74.6146 33.1899 75.2753 33.4539 75.9361C33.5859 76.5968 34.2457 76.9933 34.7736 76.8611L82.9442 64.0425L87.0354 62.9853L90.3347 62.0603C90.8626 61.9281 91.2585 61.2674 90.9946 60.6066C90.8626 60.078 90.3347 59.6815 89.6748 59.8137Z" fill="#D1D9E8"/>
<path d="M67.3715 106.595L64.732 107.256C64.2041 107.388 63.5443 106.992 63.4123 106.331C63.2803 105.67 63.5443 105.01 64.0722 104.877L66.7116 104.217C67.2395 104.085 67.8994 104.481 68.0314 105.142C68.1634 105.935 67.8994 106.463 67.3715 106.595Z" fill="#D1D9E8"/>
<path d="M59.3214 108.71L44.1444 112.674C43.6165 112.806 42.9566 112.41 42.8246 111.749C42.6927 111.088 42.9566 110.428 43.4845 110.296L58.6615 106.331C59.1894 106.199 59.8493 106.595 59.9813 107.256C60.2452 107.917 59.9813 108.578 59.3214 108.71Z" fill="#D1D9E8"/>
<path d="M87.8274 50.6963L75.8177 53.8679L72.9143 54.6608L31.8703 65.4972C31.3425 65.6293 30.9465 66.2901 31.2105 66.9509C31.3425 67.6116 32.0023 68.0081 32.5302 67.8759L73.4422 57.1717L76.3456 56.3788L88.2233 53.2072C88.8831 53.075 89.1471 52.4143 89.0151 51.6214C89.0151 51.0928 88.3553 50.5642 87.8274 50.6963Z" fill="#D1D9E8"/>
<path d="M59.4529 30.7407L25.4036 39.727C24.6118 39.9913 23.8199 39.4627 23.556 38.6698C23.292 37.8769 23.8199 37.084 24.6118 36.8196L58.6611 27.8334C59.4529 27.5691 60.2448 28.0977 60.5087 28.8906C60.7727 29.6835 60.2448 30.4764 59.4529 30.7407Z" fill="#D1D9E8"/>
<path d="M40.7124 44.4849L27.647 47.9208C26.8552 48.1851 26.0633 47.6565 25.7994 46.8636C25.5354 46.0707 26.0633 45.2778 26.8552 45.0135L39.7886 41.5775C40.5805 41.3132 41.3723 41.8418 41.6363 42.6347C41.9002 43.4277 41.3723 44.2206 40.7124 44.4849Z" fill="#D1D9E8"/>
<path d="M65.3928 12.7686L70.6718 32.8555C71.4636 35.6306 74.499 37.3486 77.2705 36.5557L95.3509 31.9304" fill="#D1D9E8"/>
<g filter="url(#filter1_dd_328_25898)">
<path d="M148.668 52.4136L136.527 126.947C136.131 129.457 133.623 131.175 131.116 130.647L58.794 117.96C56.2865 117.564 54.5708 115.053 54.9667 112.542L71.7274 16.9972C72.1234 14.4863 74.6309 12.7684 77.1384 13.297L129.664 22.5475L148.668 52.4136Z" fill="white"/>
</g>
<path d="M128.475 93.7764L89.4106 86.9046L85.1875 86.1117L72.122 83.8651C71.5941 83.733 70.9343 84.2616 70.9343 84.9223C70.8023 85.5831 71.1982 86.2438 71.7261 86.376L84.7915 88.6225L89.0147 89.4154L128.079 96.2873C128.607 96.4194 129.267 95.8908 129.267 95.2301C129.399 94.5693 129.135 93.9086 128.475 93.7764Z" fill="#D1D9E8"/>
<path d="M130.059 84.6592L115.542 82.1484L110.659 81.2233L73.8378 74.7479C73.31 74.6158 72.6501 75.1444 72.6501 75.8051C72.5181 76.4659 72.914 77.1266 73.4419 77.2588L110.263 83.7342L115.146 84.6592L129.663 87.1701C130.191 87.3022 130.851 86.7736 130.851 86.1129C130.983 85.4521 130.587 84.7914 130.059 84.6592Z" fill="#D1D9E8"/>
<path d="M131.907 75.4073L128.08 74.7465L124.253 74.0858L75.1582 65.496C74.6303 65.3638 73.9704 65.8924 73.9704 66.5532C73.8384 67.2139 74.2343 67.8747 74.7622 68.0068L123.857 76.5966L128.08 77.3895L131.379 77.9181C131.907 78.0503 132.567 77.5217 132.567 76.8609C132.831 76.2002 132.567 75.5394 131.907 75.4073Z" fill="#D1D9E8"/>
<path d="M92.0504 108.577L89.4109 108.181C88.883 108.049 88.4871 107.388 88.6191 106.727C88.7511 106.066 89.279 105.538 89.8069 105.67L92.4463 106.066C92.9742 106.198 93.3702 106.859 93.2382 107.52C93.1062 108.313 92.5783 108.577 92.0504 108.577Z" fill="#D1D9E8"/>
<path d="M83.9998 107.123L68.5589 104.48C68.031 104.348 67.6351 103.688 67.767 103.027C67.899 102.366 68.4269 101.837 68.9548 101.97L84.3958 104.613C84.9237 104.745 85.3196 105.406 85.1876 106.066C85.0556 106.859 84.5277 107.256 83.9998 107.123Z" fill="#D1D9E8"/>
<path d="M134.018 66.4213L121.744 64.3068L118.709 63.7782L76.8728 56.3778C76.3449 56.2457 75.685 56.7743 75.685 57.435C75.553 58.0958 75.9489 58.7565 76.4768 58.8887L118.313 66.2891L121.348 66.8177L133.49 68.9321C134.15 69.0643 134.677 68.5357 134.809 67.8749C134.941 67.2142 134.545 66.5534 134.018 66.4213Z" fill="#D1D9E8"/>
<path d="M116.729 36.4225L82.02 30.3436C81.2281 30.2114 80.7002 29.4185 80.8322 28.6256C80.9642 27.8327 81.756 27.3041 82.5479 27.4363L117.257 33.5152C118.049 33.6473 118.577 34.4402 118.445 35.2331C118.313 35.8939 117.521 36.5546 116.729 36.4225Z" fill="#D1D9E8"/>
<path d="M93.8984 40.9166L80.5691 38.5379C79.7772 38.4058 79.2493 37.6128 79.3813 36.8199C79.5133 36.027 80.3051 35.4984 81.097 35.6306L94.2944 38.0093C95.0862 38.1415 95.6141 38.9344 95.4821 39.7273C95.3502 40.5202 94.5583 41.0488 93.8984 40.9166Z" fill="#D1D9E8"/>
<path d="M129.531 22.5479L125.968 43.0312C125.44 45.9385 127.552 48.7137 130.455 49.2423L148.667 52.4139" fill="#D1D9E8"/>
<path d="M98.9134 119.942C115.167 119.942 128.344 106.748 128.344 90.4725C128.344 74.1969 115.167 61.0029 98.9134 61.0029C82.6595 61.0029 69.4832 74.1969 69.4832 90.4725C69.4832 106.748 82.6595 119.942 98.9134 119.942Z" fill="white"/>
<path d="M96.1417 95.2304C96.0097 94.7018 96.0097 94.1732 96.0097 93.5124C96.0097 91.2659 96.9335 89.2836 99.3091 87.5657L101.289 86.112C102.476 85.1869 103.004 84.1297 103.004 82.8082C103.004 80.9581 101.685 79.108 98.9132 79.108C96.0097 79.108 94.69 81.4867 94.69 83.7333C94.69 84.2619 94.69 84.6583 94.822 85.0548L89.543 84.9226C89.411 84.394 89.2791 83.7333 89.2791 83.0725C89.2791 78.5794 92.5784 74.3506 98.7812 74.3506C105.116 74.3506 108.547 78.4473 108.547 82.5439C108.547 85.8477 106.832 88.0943 104.456 89.8122L102.74 91.0016C101.289 92.0588 100.497 93.3803 100.497 94.9661V95.2304H96.1417ZM98.3853 97.8734C100.233 97.8734 101.685 99.3271 101.685 101.177C101.685 103.027 100.233 104.481 98.3853 104.481C96.5376 104.481 95.0859 103.027 95.0859 101.177C95.2179 99.4592 96.5376 97.8734 98.3853 97.8734Z" fill="#D1D9E8"/>
<path d="M142.966 136.229C141.824 136.229 140.681 135.771 139.768 134.742L120.69 115.639L120.005 116.097C113.836 120.672 106.639 123.074 99.3282 123.074C90.532 123.074 81.7359 119.528 75.2245 113.351C68.3704 106.831 64.6006 98.0232 64.6006 88.4146C64.6006 69.3117 80.1366 53.7549 99.2139 53.7549C112.237 53.7549 123.66 60.6182 129.829 72.2858C135.884 83.839 135.084 97.3368 127.659 108.204L127.202 108.89L146.393 128.107C148.335 130.052 147.878 131.997 147.536 133.026C146.622 134.856 144.794 136.229 142.966 136.229ZM99.2139 63.2491C85.2772 63.2491 74.0821 74.5736 74.0821 88.4146C74.0821 104.2 86.9907 113.694 99.5566 113.694C107.21 113.694 114.179 110.263 119.091 104.086C125.145 96.5361 126.174 86.3556 121.947 77.5477C117.606 68.7398 108.924 63.2491 99.2139 63.2491Z" fill="#D1D9E8"/>
<defs>
<filter id="filter0_dd_328_25898" x="0.260723" y="7.10055" width="125.642" height="136.989" filterUnits="userSpaceOnUse" color-interpolation-filters="sRGB">
<feFlood flood-opacity="0" result="BackgroundImageFix"/>
<feColorMatrix in="SourceAlpha" type="matrix" values="0 0 0 0 0 0 0 0 0 0 0 0 0 0 0 0 0 0 127 0" result="hardAlpha"/>
<feOffset dy="4.53441"/>
<feGaussianBlur stdDeviation="5.10121"/>
<feColorMatrix type="matrix" values="0 0 0 0 0.397708 0 0 0 0 0.47749 0 0 0 0 0.575 0 0 0 0.15 0"/>
<feBlend mode="normal" in2="BackgroundImageFix" result="effect1_dropShadow_328_25898"/>
<feColorMatrix in="SourceAlpha" type="matrix" values="0 0 0 0 0 0 0 0 0 0 0 0 0 0 0 0 0 0 127 0" result="hardAlpha"/>
<feOffset dy="1.1336"/>
<feGaussianBlur stdDeviation="0.566801"/>
<feComposite in2="hardAlpha" operator="out"/>
<feColorMatrix type="matrix" values="0 0 0 0 0 0 0 0 0 0 0 0 0 0 0 0 0 0 0.03 0"/>
<feBlend mode="normal" in2="effect1_dropShadow_328_25898" result="effect2_dropShadow_328_25898"/>
<feBlend mode="normal" in="SourceGraphic" in2="effect2_dropShadow_328_25898" result="shape"/>
</filter>
<filter id="filter1_dd_328_25898" x="44.7075" y="7.53317" width="114.163" height="137.946" filterUnits="userSpaceOnUse" color-interpolation-filters="sRGB">
<feFlood flood-opacity="0" result="BackgroundImageFix"/>
<feColorMatrix in="SourceAlpha" type="matrix" values="0 0 0 0 0 0 0 0 0 0 0 0 0 0 0 0 0 0 127 0" result="hardAlpha"/>
<feOffset dy="4.53441"/>
<feGaussianBlur stdDeviation="5.10121"/>
<feColorMatrix type="matrix" values="0 0 0 0 0.397708 0 0 0 0 0.47749 0 0 0 0 0.575 0 0 0 0.15 0"/>
<feBlend mode="normal" in2="BackgroundImageFix" result="effect1_dropShadow_328_25898"/>
<feColorMatrix in="SourceAlpha" type="matrix" values="0 0 0 0 0 0 0 0 0 0 0 0 0 0 0 0 0 0 127 0" result="hardAlpha"/>
<feOffset dy="1.1336"/>
<feGaussianBlur stdDeviation="0.566801"/>
<feComposite in2="hardAlpha" operator="out"/>
<feColorMatrix type="matrix" values="0 0 0 0 0 0 0 0 0 0 0 0 0 0 0 0 0 0 0.03 0"/>
<feBlend mode="normal" in2="effect1_dropShadow_328_25898" result="effect2_dropShadow_328_25898"/>
<feBlend mode="normal" in="SourceGraphic" in2="effect2_dropShadow_328_25898" result="shape"/>
</filter>
</defs>
</svg>
