<svg width="28" height="16" viewBox="0 0 28 16" fill="none" xmlns="http://www.w3.org/2000/svg">
<g clip-path="url(#clip0_66_19675)">
<path d="M29.9091 0H0V16.1614H29.9091V0Z" fill="white"/>
<path d="M29.9091 0H0V1.24318H29.9091V0Z" fill="#B22234"/>
<path d="M29.9091 2.48633H0V3.72951H29.9091V2.48633Z" fill="#B22234"/>
<path d="M29.9091 4.97266H0V6.21584H29.9091V4.97266Z" fill="#B22234"/>
<path d="M29.9091 7.45898H0V8.70217H29.9091V7.45898Z" fill="#B22234"/>
<path d="M29.9091 9.94531H0V11.1885H29.9091V9.94531Z" fill="#B22234"/>
<path d="M29.9091 12.4319H0V13.6751H29.9091V12.4319Z" fill="#B22234"/>
<path d="M28 15.0266H0V16.3333H28V15.0266Z" fill="#B22234"/>
<path d="M11.9636 0H0V8.70229H11.9636V0Z" fill="#3C3B6E"/>
<path d="M1.15071 0.955205L0.738274 1.26284L0.895809 0.765073L1.15071 0.955205Z" fill="white"/>
<path d="M0.97454 1.01393L0.562109 0.706288L1.0719 0.706288L0.97454 1.01393Z" fill="white"/>
<path d="M0.865723 0.860076L1.02326 0.362305L1.18079 0.860076H0.865723Z" fill="white"/>
<path d="M0.974679 0.70631L1.48447 0.70631L1.07204 1.01395L0.974679 0.70631Z" fill="white"/>
<path d="M1.15081 0.765019L1.30834 1.26279L0.895911 0.955151L1.15081 0.765019Z" fill="white"/>
<path d="M3.1341 0.955205L2.72167 1.26284L2.87921 0.765073L3.1341 0.955205Z" fill="white"/>
<path d="M2.95794 1.01393L2.54551 0.706288L3.0553 0.706288L2.95794 1.01393Z" fill="white"/>
<path d="M2.84912 0.860076L3.00666 0.362305L3.16419 0.860076H2.84912Z" fill="white"/>
<path d="M2.95808 0.70631L3.46787 0.70631L3.05544 1.01395L2.95808 0.70631Z" fill="white"/>
<path d="M3.13421 0.765019L3.29174 1.26279L2.87931 0.955151L3.13421 0.765019Z" fill="white"/>
<path d="M5.1175 0.955205L4.70507 1.26284L4.86261 0.765073L5.1175 0.955205Z" fill="white"/>
<path d="M4.94134 1.01393L4.52891 0.706288L5.0387 0.706288L4.94134 1.01393Z" fill="white"/>
<path d="M4.83252 0.860076L4.99005 0.362305L5.14759 0.860076H4.83252Z" fill="white"/>
<path d="M4.94148 0.70631L5.45127 0.70631L5.03884 1.01395L4.94148 0.70631Z" fill="white"/>
<path d="M5.1176 0.765019L5.27514 1.26279L4.86271 0.955151L5.1176 0.765019Z" fill="white"/>
<path d="M7.1009 0.955205L6.68847 1.26284L6.846 0.765073L7.1009 0.955205Z" fill="white"/>
<path d="M6.92474 1.01393L6.5123 0.706288L7.0221 0.706288L6.92474 1.01393Z" fill="white"/>
<path d="M6.81592 0.860076L6.97345 0.362305L7.13099 0.860076H6.81592Z" fill="white"/>
<path d="M6.92487 0.70631L7.43467 0.70631L7.02224 1.01395L6.92487 0.70631Z" fill="white"/>
<path d="M7.101 0.765019L7.25854 1.26279L6.84611 0.955151L7.101 0.765019Z" fill="white"/>
<path d="M9.0843 0.955205L8.67187 1.26284L8.8294 0.765073L9.0843 0.955205Z" fill="white"/>
<path d="M8.90838 1.01393L8.49595 0.706288L9.00574 0.706288L8.90838 1.01393Z" fill="white"/>
<path d="M8.79932 0.860076L8.95685 0.362305L9.11439 0.860076H8.79932Z" fill="white"/>
<path d="M8.90852 0.70631L9.41831 0.70631L9.00588 1.01395L8.90852 0.70631Z" fill="white"/>
<path d="M9.08465 0.765019L9.24218 1.26279L8.82975 0.955151L9.08465 0.765019Z" fill="white"/>
<path d="M11.0679 0.955205L10.6555 1.26284L10.813 0.765073L11.0679 0.955205Z" fill="white"/>
<path d="M10.8918 1.01393L10.4793 0.706288L10.9891 0.706288L10.8918 1.01393Z" fill="white"/>
<path d="M10.783 0.860076L10.9405 0.362305L11.098 0.860076H10.783Z" fill="white"/>
<path d="M10.8919 0.70631L11.4017 0.70631L10.9893 1.01395L10.8919 0.70631Z" fill="white"/>
<path d="M11.068 0.765019L11.2256 1.26279L10.8131 0.955151L11.068 0.765019Z" fill="white"/>
<path d="M2.1424 1.82801L1.72997 2.13565L1.88751 1.63788L2.1424 1.82801Z" fill="white"/>
<path d="M1.96624 1.88673L1.55381 1.57909L2.0636 1.57909L1.96624 1.88673Z" fill="white"/>
<path d="M1.85742 1.73288L2.01496 1.23511L2.17249 1.73288H1.85742Z" fill="white"/>
<path d="M1.96638 1.57911L2.47617 1.57911L2.06374 1.88675L1.96638 1.57911Z" fill="white"/>
<path d="M2.14251 1.63782L2.30004 2.13559L1.88761 1.82795L2.14251 1.63782Z" fill="white"/>
<path d="M4.1258 1.82801L3.71337 2.13565L3.87091 1.63788L4.1258 1.82801Z" fill="white"/>
<path d="M3.94964 1.88673L3.53721 1.57909L4.047 1.57909L3.94964 1.88673Z" fill="white"/>
<path d="M3.84082 1.73288L3.99836 1.23511L4.15589 1.73288H3.84082Z" fill="white"/>
<path d="M3.94953 1.57911L4.45933 1.57911L4.04689 1.88675L3.94953 1.57911Z" fill="white"/>
<path d="M4.12566 1.63782L4.2832 2.13559L3.87076 1.82795L4.12566 1.63782Z" fill="white"/>
<path d="M6.10896 1.82801L5.69653 2.13565L5.85406 1.63788L6.10896 1.82801Z" fill="white"/>
<path d="M5.93304 1.88673L5.5206 1.57909L6.0304 1.57909L5.93304 1.88673Z" fill="white"/>
<path d="M5.82397 1.73288L5.98151 1.23511L6.13904 1.73288H5.82397Z" fill="white"/>
<path d="M5.93293 1.57911L6.44272 1.57911L6.03029 1.88675L5.93293 1.57911Z" fill="white"/>
<path d="M6.10906 1.63782L6.26659 2.13559L5.85416 1.82795L6.10906 1.63782Z" fill="white"/>
<path d="M8.0926 1.82801L7.68017 2.13565L7.8377 1.63788L8.0926 1.82801Z" fill="white"/>
<path d="M7.91643 1.88673L7.504 1.57909L8.0138 1.57909L7.91643 1.88673Z" fill="white"/>
<path d="M7.80762 1.73288L7.96515 1.23511L8.12269 1.73288H7.80762Z" fill="white"/>
<path d="M7.91657 1.57911L8.42637 1.57911L8.01394 1.88675L7.91657 1.57911Z" fill="white"/>
<path d="M8.0927 1.63782L8.25024 2.13559L7.83781 1.82795L8.0927 1.63782Z" fill="white"/>
<path d="M10.0762 1.82801L9.66381 2.13565L9.82135 1.63788L10.0762 1.82801Z" fill="white"/>
<path d="M9.90008 1.88673L9.48765 1.57909L9.99744 1.57909L9.90008 1.88673Z" fill="white"/>
<path d="M9.79126 1.73288L9.94879 1.23511L10.1063 1.73288H9.79126Z" fill="white"/>
<path d="M9.90022 1.57911L10.41 1.57911L9.99758 1.88675L9.90022 1.57911Z" fill="white"/>
<path d="M10.0763 1.63782L10.2339 2.13559L9.82145 1.82795L10.0763 1.63782Z" fill="white"/>
<path d="M1.15071 2.70057L0.738274 3.00821L0.895809 2.51043L1.15071 2.70057Z" fill="white"/>
<path d="M0.97454 2.75929L0.562109 2.45165L1.0719 2.45165L0.97454 2.75929Z" fill="white"/>
<path d="M0.865723 2.60544L1.02326 2.10767L1.18079 2.60544H0.865723Z" fill="white"/>
<path d="M0.974679 2.45167L1.48447 2.45167L1.07204 2.75931L0.974679 2.45167Z" fill="white"/>
<path d="M1.15081 2.51062L1.30834 3.0084L0.895911 2.70076L1.15081 2.51062Z" fill="white"/>
<path d="M3.1341 2.70057L2.72167 3.00821L2.87921 2.51043L3.1341 2.70057Z" fill="white"/>
<path d="M2.95794 2.75929L2.54551 2.45165L3.0553 2.45165L2.95794 2.75929Z" fill="white"/>
<path d="M2.84912 2.60544L3.00666 2.10767L3.16419 2.60544H2.84912Z" fill="white"/>
<path d="M2.95808 2.45167L3.46787 2.45167L3.05544 2.75931L2.95808 2.45167Z" fill="white"/>
<path d="M3.13421 2.51062L3.29174 3.0084L2.87931 2.70076L3.13421 2.51062Z" fill="white"/>
<path d="M5.1175 2.70057L4.70507 3.00821L4.86261 2.51043L5.1175 2.70057Z" fill="white"/>
<path d="M4.94134 2.75929L4.52891 2.45165L5.0387 2.45165L4.94134 2.75929Z" fill="white"/>
<path d="M4.83252 2.60544L4.99005 2.10767L5.14759 2.60544H4.83252Z" fill="white"/>
<path d="M4.94148 2.45167L5.45127 2.45167L5.03884 2.75931L4.94148 2.45167Z" fill="white"/>
<path d="M5.1176 2.51062L5.27514 3.0084L4.86271 2.70076L5.1176 2.51062Z" fill="white"/>
<path d="M7.1009 2.70057L6.68847 3.00821L6.846 2.51043L7.1009 2.70057Z" fill="white"/>
<path d="M6.92474 2.75929L6.5123 2.45165L7.0221 2.45165L6.92474 2.75929Z" fill="white"/>
<path d="M6.81592 2.60544L6.97345 2.10767L7.13099 2.60544H6.81592Z" fill="white"/>
<path d="M6.92487 2.45167L7.43467 2.45167L7.02224 2.75931L6.92487 2.45167Z" fill="white"/>
<path d="M7.101 2.51062L7.25854 3.0084L6.84611 2.70076L7.101 2.51062Z" fill="white"/>
<path d="M9.0843 2.70057L8.67187 3.00821L8.8294 2.51043L9.0843 2.70057Z" fill="white"/>
<path d="M8.90838 2.75929L8.49595 2.45165L9.00574 2.45165L8.90838 2.75929Z" fill="white"/>
<path d="M8.79932 2.60544L8.95685 2.10767L9.11439 2.60544H8.79932Z" fill="white"/>
<path d="M8.90852 2.45167L9.41831 2.45167L9.00588 2.75931L8.90852 2.45167Z" fill="white"/>
<path d="M9.08465 2.51062L9.24218 3.0084L8.82975 2.70076L9.08465 2.51062Z" fill="white"/>
<path d="M11.0679 2.70057L10.6555 3.00821L10.813 2.51043L11.0679 2.70057Z" fill="white"/>
<path d="M10.8918 2.75929L10.4793 2.45165L10.9891 2.45165L10.8918 2.75929Z" fill="white"/>
<path d="M10.783 2.60544L10.9405 2.10767L11.098 2.60544H10.783Z" fill="white"/>
<path d="M10.8919 2.45167L11.4017 2.45167L10.9893 2.75931L10.8919 2.45167Z" fill="white"/>
<path d="M11.068 2.51062L11.2256 3.0084L10.8131 2.70076L11.068 2.51062Z" fill="white"/>
<path d="M2.1424 3.57337L1.72997 3.88101L1.88751 3.38324L2.1424 3.57337Z" fill="white"/>
<path d="M1.96624 3.63209L1.55381 3.32445L2.0636 3.32445L1.96624 3.63209Z" fill="white"/>
<path d="M1.85742 3.47824L2.01496 2.98047L2.17249 3.47824H1.85742Z" fill="white"/>
<path d="M1.96638 3.32447L2.47617 3.32447L2.06374 3.63211L1.96638 3.32447Z" fill="white"/>
<path d="M2.14251 3.38318L2.30004 3.88095L1.88761 3.57331L2.14251 3.38318Z" fill="white"/>
<path d="M4.1258 3.57337L3.71337 3.88101L3.87091 3.38324L4.1258 3.57337Z" fill="white"/>
<path d="M3.94964 3.63209L3.53721 3.32445L4.047 3.32445L3.94964 3.63209Z" fill="white"/>
<path d="M3.84082 3.47824L3.99836 2.98047L4.15589 3.47824H3.84082Z" fill="white"/>
<path d="M3.94953 3.32447L4.45933 3.32447L4.04689 3.63211L3.94953 3.32447Z" fill="white"/>
<path d="M4.12566 3.38318L4.2832 3.88095L3.87076 3.57331L4.12566 3.38318Z" fill="white"/>
<path d="M6.10896 3.57337L5.69653 3.88101L5.85406 3.38324L6.10896 3.57337Z" fill="white"/>
<path d="M5.93304 3.63209L5.5206 3.32445L6.0304 3.32445L5.93304 3.63209Z" fill="white"/>
<path d="M5.82397 3.47824L5.98151 2.98047L6.13904 3.47824H5.82397Z" fill="white"/>
<path d="M5.93293 3.32447L6.44272 3.32447L6.03029 3.63211L5.93293 3.32447Z" fill="white"/>
<path d="M6.10906 3.38318L6.26659 3.88095L5.85416 3.57331L6.10906 3.38318Z" fill="white"/>
<path d="M8.0926 3.57337L7.68017 3.88101L7.8377 3.38324L8.0926 3.57337Z" fill="white"/>
<path d="M7.91643 3.63209L7.504 3.32445L8.0138 3.32445L7.91643 3.63209Z" fill="white"/>
<path d="M7.80762 3.47824L7.96515 2.98047L8.12269 3.47824H7.80762Z" fill="white"/>
<path d="M7.91657 3.32447L8.42637 3.32447L8.01394 3.63211L7.91657 3.32447Z" fill="white"/>
<path d="M8.0927 3.38318L8.25024 3.88095L7.83781 3.57331L8.0927 3.38318Z" fill="white"/>
<path d="M10.0762 3.57337L9.66381 3.88101L9.82135 3.38324L10.0762 3.57337Z" fill="white"/>
<path d="M9.90008 3.63209L9.48765 3.32445L9.99744 3.32445L9.90008 3.63209Z" fill="white"/>
<path d="M9.79126 3.47824L9.94879 2.98047L10.1063 3.47824H9.79126Z" fill="white"/>
<path d="M9.90022 3.32447L10.41 3.32447L9.99758 3.63211L9.90022 3.32447Z" fill="white"/>
<path d="M10.0763 3.38318L10.2339 3.88095L9.82145 3.57331L10.0763 3.38318Z" fill="white"/>
<path d="M1.15071 4.44593L0.738274 4.75357L0.895809 4.2558L1.15071 4.44593Z" fill="white"/>
<path d="M0.97454 4.50465L0.562109 4.19701L1.0719 4.19701L0.97454 4.50465Z" fill="white"/>
<path d="M0.865723 4.35104L1.02326 3.85327L1.18079 4.35104H0.865723Z" fill="white"/>
<path d="M0.974679 4.19728L1.48447 4.19728L1.07204 4.50492L0.974679 4.19728Z" fill="white"/>
<path d="M1.15081 4.25599L1.30834 4.75376L0.895911 4.44612L1.15081 4.25599Z" fill="white"/>
<path d="M3.1341 4.44593L2.72167 4.75357L2.87921 4.2558L3.1341 4.44593Z" fill="white"/>
<path d="M2.95794 4.50465L2.54551 4.19701L3.0553 4.19701L2.95794 4.50465Z" fill="white"/>
<path d="M2.84912 4.35104L3.00666 3.85327L3.16419 4.35104H2.84912Z" fill="white"/>
<path d="M2.95808 4.19728L3.46787 4.19728L3.05544 4.50492L2.95808 4.19728Z" fill="white"/>
<path d="M3.13421 4.25599L3.29174 4.75376L2.87931 4.44612L3.13421 4.25599Z" fill="white"/>
<path d="M5.1175 4.44593L4.70507 4.75357L4.86261 4.2558L5.1175 4.44593Z" fill="white"/>
<path d="M4.94134 4.50465L4.52891 4.19701L5.0387 4.19701L4.94134 4.50465Z" fill="white"/>
<path d="M4.83252 4.35104L4.99005 3.85327L5.14759 4.35104H4.83252Z" fill="white"/>
<path d="M4.94148 4.19728L5.45127 4.19728L5.03884 4.50492L4.94148 4.19728Z" fill="white"/>
<path d="M5.1176 4.25599L5.27514 4.75376L4.86271 4.44612L5.1176 4.25599Z" fill="white"/>
<path d="M7.1009 4.44593L6.68847 4.75357L6.846 4.2558L7.1009 4.44593Z" fill="white"/>
<path d="M6.92474 4.50465L6.5123 4.19701L7.0221 4.19701L6.92474 4.50465Z" fill="white"/>
<path d="M6.81592 4.35104L6.97345 3.85327L7.13099 4.35104H6.81592Z" fill="white"/>
<path d="M6.92487 4.19728L7.43467 4.19728L7.02224 4.50492L6.92487 4.19728Z" fill="white"/>
<path d="M7.101 4.25599L7.25854 4.75376L6.84611 4.44612L7.101 4.25599Z" fill="white"/>
<path d="M9.0843 4.44593L8.67187 4.75357L8.8294 4.2558L9.0843 4.44593Z" fill="white"/>
<path d="M8.90838 4.50465L8.49595 4.19701L9.00574 4.19701L8.90838 4.50465Z" fill="white"/>
<path d="M8.79932 4.35104L8.95685 3.85327L9.11439 4.35104H8.79932Z" fill="white"/>
<path d="M8.90852 4.19728L9.41831 4.19728L9.00588 4.50492L8.90852 4.19728Z" fill="white"/>
<path d="M9.08465 4.25599L9.24218 4.75376L8.82975 4.44612L9.08465 4.25599Z" fill="white"/>
<path d="M11.0679 4.44593L10.6555 4.75357L10.813 4.2558L11.0679 4.44593Z" fill="white"/>
<path d="M10.8918 4.50465L10.4793 4.19701L10.9891 4.19701L10.8918 4.50465Z" fill="white"/>
<path d="M10.783 4.35104L10.9405 3.85327L11.098 4.35104H10.783Z" fill="white"/>
<path d="M10.8919 4.19728L11.4017 4.19728L10.9893 4.50492L10.8919 4.19728Z" fill="white"/>
<path d="M11.068 4.25599L11.2256 4.75376L10.8131 4.44612L11.068 4.25599Z" fill="white"/>
<path d="M2.1424 5.31873L1.72997 5.62637L1.88751 5.1286L2.1424 5.31873Z" fill="white"/>
<path d="M1.96624 5.3777L1.55381 5.07006L2.0636 5.07006L1.96624 5.3777Z" fill="white"/>
<path d="M1.85742 5.22385L2.01496 4.72607L2.17249 5.22385H1.85742Z" fill="white"/>
<path d="M1.96638 5.06984L2.47617 5.06984L2.06374 5.37747L1.96638 5.06984Z" fill="white"/>
<path d="M2.14251 5.12854L2.30004 5.62632L1.88761 5.31868L2.14251 5.12854Z" fill="white"/>
<path d="M4.1258 5.31873L3.71337 5.62637L3.87091 5.1286L4.1258 5.31873Z" fill="white"/>
<path d="M3.94964 5.3777L3.53721 5.07006L4.047 5.07006L3.94964 5.3777Z" fill="white"/>
<path d="M3.84082 5.22385L3.99836 4.72607L4.15589 5.22385H3.84082Z" fill="white"/>
<path d="M3.94953 5.06984L4.45933 5.06984L4.04689 5.37747L3.94953 5.06984Z" fill="white"/>
<path d="M4.12566 5.12854L4.2832 5.62632L3.87076 5.31868L4.12566 5.12854Z" fill="white"/>
<path d="M6.10896 5.31873L5.69653 5.62637L5.85406 5.1286L6.10896 5.31873Z" fill="white"/>
<path d="M5.93304 5.3777L5.5206 5.07006L6.0304 5.07006L5.93304 5.3777Z" fill="white"/>
<path d="M5.82397 5.22385L5.98151 4.72607L6.13904 5.22385H5.82397Z" fill="white"/>
<path d="M5.93293 5.06984L6.44272 5.06984L6.03029 5.37747L5.93293 5.06984Z" fill="white"/>
<path d="M6.10906 5.12854L6.26659 5.62632L5.85416 5.31868L6.10906 5.12854Z" fill="white"/>
<path d="M8.0926 5.31873L7.68017 5.62637L7.8377 5.1286L8.0926 5.31873Z" fill="white"/>
<path d="M7.91643 5.3777L7.504 5.07006L8.0138 5.07006L7.91643 5.3777Z" fill="white"/>
<path d="M7.80762 5.22385L7.96515 4.72607L8.12269 5.22385H7.80762Z" fill="white"/>
<path d="M7.91657 5.06984L8.42637 5.06984L8.01394 5.37747L7.91657 5.06984Z" fill="white"/>
<path d="M8.0927 5.12854L8.25024 5.62632L7.83781 5.31868L8.0927 5.12854Z" fill="white"/>
<path d="M10.0762 5.31873L9.66381 5.62637L9.82135 5.1286L10.0762 5.31873Z" fill="white"/>
<path d="M9.90008 5.3777L9.48765 5.07006L9.99744 5.07006L9.90008 5.3777Z" fill="white"/>
<path d="M9.79126 5.22385L9.94879 4.72607L10.1063 5.22385H9.79126Z" fill="white"/>
<path d="M9.90022 5.06984L10.41 5.06984L9.99758 5.37747L9.90022 5.06984Z" fill="white"/>
<path d="M10.0763 5.12854L10.2339 5.62632L9.82145 5.31868L10.0763 5.12854Z" fill="white"/>
<path d="M1.15071 6.19153L0.738274 6.49917L0.895809 6.0014L1.15071 6.19153Z" fill="white"/>
<path d="M0.97454 6.25026L0.562109 5.94262L1.0719 5.94262L0.97454 6.25026Z" fill="white"/>
<path d="M0.865723 6.0964L1.02326 5.59863L1.18079 6.0964H0.865723Z" fill="white"/>
<path d="M0.974679 5.94264L1.48447 5.94264L1.07204 6.25028L0.974679 5.94264Z" fill="white"/>
<path d="M1.15081 6.00135L1.30834 6.49912L0.895911 6.19148L1.15081 6.00135Z" fill="white"/>
<path d="M3.1341 6.19153L2.72167 6.49917L2.87921 6.0014L3.1341 6.19153Z" fill="white"/>
<path d="M2.95794 6.25026L2.54551 5.94262L3.0553 5.94262L2.95794 6.25026Z" fill="white"/>
<path d="M2.84912 6.0964L3.00666 5.59863L3.16419 6.0964H2.84912Z" fill="white"/>
<path d="M2.95808 5.94264L3.46787 5.94264L3.05544 6.25028L2.95808 5.94264Z" fill="white"/>
<path d="M3.13421 6.00135L3.29174 6.49912L2.87931 6.19148L3.13421 6.00135Z" fill="white"/>
<path d="M5.1175 6.19153L4.70507 6.49917L4.86261 6.0014L5.1175 6.19153Z" fill="white"/>
<path d="M4.94134 6.25026L4.52891 5.94262L5.0387 5.94262L4.94134 6.25026Z" fill="white"/>
<path d="M4.83252 6.0964L4.99005 5.59863L5.14759 6.0964H4.83252Z" fill="white"/>
<path d="M4.94148 5.94264L5.45127 5.94264L5.03884 6.25028L4.94148 5.94264Z" fill="white"/>
<path d="M5.1176 6.00135L5.27514 6.49912L4.86271 6.19148L5.1176 6.00135Z" fill="white"/>
<path d="M7.1009 6.19153L6.68847 6.49917L6.846 6.0014L7.1009 6.19153Z" fill="white"/>
<path d="M6.92474 6.25026L6.5123 5.94262L7.0221 5.94262L6.92474 6.25026Z" fill="white"/>
<path d="M6.81592 6.0964L6.97345 5.59863L7.13099 6.0964H6.81592Z" fill="white"/>
<path d="M6.92487 5.94264L7.43467 5.94264L7.02224 6.25028L6.92487 5.94264Z" fill="white"/>
<path d="M7.101 6.00135L7.25854 6.49912L6.84611 6.19148L7.101 6.00135Z" fill="white"/>
<path d="M9.0843 6.19153L8.67187 6.49917L8.8294 6.0014L9.0843 6.19153Z" fill="white"/>
<path d="M8.90838 6.25026L8.49595 5.94262L9.00574 5.94262L8.90838 6.25026Z" fill="white"/>
<path d="M8.79932 6.0964L8.95685 5.59863L9.11439 6.0964H8.79932Z" fill="white"/>
<path d="M8.90852 5.94264L9.41831 5.94264L9.00588 6.25028L8.90852 5.94264Z" fill="white"/>
<path d="M9.08465 6.00135L9.24218 6.49912L8.82975 6.19148L9.08465 6.00135Z" fill="white"/>
<path d="M11.0677 6.19153L10.6553 6.49917L10.8128 6.0014L11.0677 6.19153Z" fill="white"/>
<path d="M10.8918 6.25026L10.4793 5.94262L10.9891 5.94262L10.8918 6.25026Z" fill="white"/>
<path d="M10.7827 6.0964L10.9402 5.59863L11.0978 6.0964H10.7827Z" fill="white"/>
<path d="M10.8919 5.94264L11.4017 5.94264L10.9893 6.25028L10.8919 5.94264Z" fill="white"/>
<path d="M11.068 6.00135L11.2256 6.49912L10.8131 6.19148L11.068 6.00135Z" fill="white"/>
<path d="M2.1424 7.06434L1.72997 7.37198L1.88751 6.8742L2.1424 7.06434Z" fill="white"/>
<path d="M1.96624 7.12306L1.55381 6.81542L2.0636 6.81542L1.96624 7.12306Z" fill="white"/>
<path d="M1.85742 6.96921L2.01496 6.47144L2.17249 6.96921H1.85742Z" fill="white"/>
<path d="M1.96638 6.81544L2.47617 6.81544L2.06374 7.12308L1.96638 6.81544Z" fill="white"/>
<path d="M2.14251 6.87415L2.30004 7.37192L1.88761 7.06428L2.14251 6.87415Z" fill="white"/>
<path d="M4.1258 7.06434L3.71337 7.37198L3.87091 6.8742L4.1258 7.06434Z" fill="white"/>
<path d="M3.94964 7.12306L3.53721 6.81542L4.047 6.81542L3.94964 7.12306Z" fill="white"/>
<path d="M3.84082 6.96921L3.99836 6.47144L4.15589 6.96921H3.84082Z" fill="white"/>
<path d="M3.94953 6.81544L4.45933 6.81544L4.04689 7.12308L3.94953 6.81544Z" fill="white"/>
<path d="M4.12566 6.87415L4.2832 7.37192L3.87076 7.06428L4.12566 6.87415Z" fill="white"/>
<path d="M6.10896 7.06434L5.69653 7.37198L5.85406 6.8742L6.10896 7.06434Z" fill="white"/>
<path d="M5.93304 7.12306L5.5206 6.81542L6.0304 6.81542L5.93304 7.12306Z" fill="white"/>
<path d="M5.82397 6.96921L5.98151 6.47144L6.13904 6.96921H5.82397Z" fill="white"/>
<path d="M5.93293 6.81544L6.44272 6.81544L6.03029 7.12308L5.93293 6.81544Z" fill="white"/>
<path d="M6.10906 6.87415L6.26659 7.37192L5.85416 7.06428L6.10906 6.87415Z" fill="white"/>
<path d="M8.0926 7.06434L7.68017 7.37198L7.8377 6.8742L8.0926 7.06434Z" fill="white"/>
<path d="M7.91643 7.12306L7.504 6.81542L8.0138 6.81542L7.91643 7.12306Z" fill="white"/>
<path d="M7.80762 6.96921L7.96515 6.47144L8.12269 6.96921H7.80762Z" fill="white"/>
<path d="M7.91657 6.81544L8.42637 6.81544L8.01394 7.12308L7.91657 6.81544Z" fill="white"/>
<path d="M8.0927 6.87415L8.25024 7.37192L7.83781 7.06428L8.0927 6.87415Z" fill="white"/>
<path d="M10.0762 7.06434L9.66381 7.37198L9.82135 6.8742L10.0762 7.06434Z" fill="white"/>
<path d="M9.90008 7.12306L9.48765 6.81542L9.99744 6.81542L9.90008 7.12306Z" fill="white"/>
<path d="M9.79126 6.96921L9.94879 6.47144L10.1063 6.96921H9.79126Z" fill="white"/>
<path d="M9.90022 6.81544L10.41 6.81544L9.99758 7.12308L9.90022 6.81544Z" fill="white"/>
<path d="M10.0763 6.87415L10.2339 7.37192L9.82145 7.06428L10.0763 6.87415Z" fill="white"/>
<path d="M1.15071 7.93689L0.738274 8.24453L0.895809 7.74676L1.15071 7.93689Z" fill="white"/>
<path d="M0.97454 7.99562L0.562109 7.68798L1.0719 7.68798L0.97454 7.99562Z" fill="white"/>
<path d="M0.865723 7.84177L1.02326 7.34399L1.18079 7.84177H0.865723Z" fill="white"/>
<path d="M0.974679 7.688L1.48447 7.688L1.07204 7.99564L0.974679 7.688Z" fill="white"/>
<path d="M1.15081 7.74695L1.30834 8.24472L0.895911 7.93708L1.15081 7.74695Z" fill="white"/>
<path d="M3.1341 7.93689L2.72167 8.24453L2.87921 7.74676L3.1341 7.93689Z" fill="white"/>
<path d="M2.95794 7.99562L2.54551 7.68798L3.0553 7.68798L2.95794 7.99562Z" fill="white"/>
<path d="M2.84912 7.84177L3.00666 7.34399L3.16419 7.84177H2.84912Z" fill="white"/>
<path d="M2.95808 7.688L3.46787 7.688L3.05544 7.99564L2.95808 7.688Z" fill="white"/>
<path d="M3.13421 7.74695L3.29174 8.24472L2.87931 7.93708L3.13421 7.74695Z" fill="white"/>
<path d="M5.1175 7.93689L4.70507 8.24453L4.86261 7.74676L5.1175 7.93689Z" fill="white"/>
<path d="M4.94134 7.99562L4.52891 7.68798L5.0387 7.68798L4.94134 7.99562Z" fill="white"/>
<path d="M4.83252 7.84177L4.99005 7.34399L5.14759 7.84177H4.83252Z" fill="white"/>
<path d="M4.94148 7.688L5.45127 7.688L5.03884 7.99564L4.94148 7.688Z" fill="white"/>
<path d="M5.1176 7.74695L5.27514 8.24472L4.86271 7.93708L5.1176 7.74695Z" fill="white"/>
<path d="M7.1009 7.93689L6.68847 8.24453L6.846 7.74676L7.1009 7.93689Z" fill="white"/>
<path d="M6.92474 7.99562L6.5123 7.68798L7.0221 7.68798L6.92474 7.99562Z" fill="white"/>
<path d="M6.81592 7.84177L6.97345 7.34399L7.13099 7.84177H6.81592Z" fill="white"/>
<path d="M6.92487 7.688L7.43467 7.688L7.02224 7.99564L6.92487 7.688Z" fill="white"/>
<path d="M7.101 7.74695L7.25854 8.24472L6.84611 7.93708L7.101 7.74695Z" fill="white"/>
<path d="M9.0843 7.93689L8.67187 8.24453L8.8294 7.74676L9.0843 7.93689Z" fill="white"/>
<path d="M8.90838 7.99562L8.49595 7.68798L9.00574 7.68798L8.90838 7.99562Z" fill="white"/>
<path d="M8.79932 7.84177L8.95685 7.34399L9.11439 7.84177H8.79932Z" fill="white"/>
<path d="M8.90852 7.688L9.41831 7.688L9.00588 7.99564L8.90852 7.688Z" fill="white"/>
<path d="M9.08465 7.74695L9.24218 8.24472L8.82975 7.93708L9.08465 7.74695Z" fill="white"/>
<path d="M11.0679 7.93689L10.6555 8.24453L10.813 7.74676L11.0679 7.93689Z" fill="white"/>
<path d="M10.8918 7.99562L10.4793 7.68798L10.9891 7.68798L10.8918 7.99562Z" fill="white"/>
<path d="M10.783 7.84177L10.9405 7.34399L11.098 7.84177H10.783Z" fill="white"/>
<path d="M10.8919 7.688L11.4017 7.688L10.9893 7.99564L10.8919 7.688Z" fill="white"/>
<path d="M11.068 7.74695L11.2256 8.24472L10.8131 7.93708L11.068 7.74695Z" fill="white"/>
</g>
<defs>
<clipPath id="clip0_66_19675">
<rect width="28" height="16.3333" fill="white"/>
</clipPath>
</defs>
</svg>
