<svg width="44" height="44" viewBox="0 0 44 44" fill="none" xmlns="http://www.w3.org/2000/svg">
<rect width="44" height="44" rx="8" fill="#D9DAF0"/>
<path d="M25.5 12H18.6C18.2 12 17.8 12.2 17.5 12.5C17.2 12.8 17 13.2 17 13.6V26.4C17 26.8 17.2 27.2 17.5 27.5C17.8 27.8 18.2 28 18.6 28H28.4C28.8 28 29.2 27.8 29.5 27.5C29.8 27.2 30 26.8 30 26.4V16.5L25.5 12Z" stroke="#101928" stroke-width="1.5" stroke-linecap="round" stroke-linejoin="round"/>
<path d="M13 17.5996V30.3996C13 30.7996 13.2 31.1996 13.5 31.4996C13.8 31.7996 14.2 31.9996 14.6 31.9996H24.4" stroke="#101928" stroke-width="1.5" stroke-linecap="round" stroke-linejoin="round"/>
<path d="M25 12V17H30" stroke="#101928" stroke-width="1.5" stroke-linecap="round" stroke-linejoin="round"/>
</svg>
