<svg width="20" height="20" viewBox="0 0 20 20" fill="none" xmlns="http://www.w3.org/2000/svg">
    <path d="M16.666 5.83301H9.16602" stroke="#667185" stroke-width="1.5" stroke-linecap="round"
        stroke-linejoin="round" />
    <path d="M11.666 14.167H4.16602" stroke="#667185" stroke-width="1.5" stroke-linecap="round"
        stroke-linejoin="round" />
    <path
        d="M14.166 16.667C15.5467 16.667 16.666 15.5477 16.666 14.167C16.666 12.7863 15.5467 11.667 14.166 11.667C12.7853 11.667 11.666 12.7863 11.666 14.167C11.666 15.5477 12.7853 16.667 14.166 16.667Z"
        stroke="#667185" stroke-width="1.5" stroke-linecap="round" stroke-linejoin="round" />
    <path
        d="M5.83398 8.33301C7.2147 8.33301 8.33398 7.21372 8.33398 5.83301C8.33398 4.4523 7.2147 3.33301 5.83398 3.33301C4.45327 3.33301 3.33398 4.4523 3.33398 5.83301C3.33398 7.21372 4.45327 8.33301 5.83398 8.33301Z"
        stroke="#667185" stroke-width="1.5" stroke-linecap="round" stroke-linejoin="round" />
</svg>