<svg width="20" height="20" viewBox="0 0 20 20" fill="none" xmlns="http://www.w3.org/2000/svg">
<g clip-path="url(#clip0_20_1848)">
<path d="M19.2512 10.2292C19.2512 9.54946 19.1978 8.86601 19.0838 8.19727H9.94177V12.0481H15.177C14.9598 13.29 14.2617 14.3887 13.2396 15.0868V17.5855H16.363C18.1971 15.8438 19.2512 13.2717 19.2512 10.2292Z" fill="#4285F4"/>
<path d="M9.94181 19.9998C12.5559 19.9998 14.7604 19.1143 16.3666 17.5857L13.2432 15.0871C12.3742 15.697 11.2524 16.0424 9.94537 16.0424C7.41679 16.0424 5.27283 14.2824 4.50357 11.916H1.28052V14.4918C2.92588 17.8686 6.27714 19.9998 9.94181 19.9998Z" fill="#20BC3B"/>
<path d="M4.49978 11.9163C4.09378 10.6743 4.09378 9.32947 4.49978 8.08751V5.51172H1.28029C-0.0944062 8.33737 -0.0944062 11.6664 1.28029 14.4921L4.49978 11.9163Z" fill="#FBBC04"/>
<path d="M9.94181 3.95707C11.3236 3.93503 12.6592 4.47149 13.6599 5.45625L16.4271 2.6012C14.6749 0.90361 12.3493 -0.0296982 9.94181 -0.000302674C6.27714 -0.000302674 2.92588 2.13087 1.28052 5.51136L4.50001 8.08715C5.26571 5.71713 7.41323 3.95707 9.94181 3.95707Z" fill="#FF0000"/>
</g>
<defs>
<clipPath id="clip0_20_1848">
<rect width="19" height="20" fill="white" transform="translate(0.25061 -0.000244141)"/>
</clipPath>
</defs>
</svg>
