<svg width="44" height="44" viewBox="0 0 44 44" fill="none" xmlns="http://www.w3.org/2000/svg">
<rect width="44" height="44" rx="8" fill="#D9F7D6"/>
<path d="M30 17H14C12.8954 17 12 17.8954 12 19V29C12 30.1046 12.8954 31 14 31H30C31.1046 31 32 30.1046 32 29V19C32 17.8954 31.1046 17 30 17Z" stroke="#101928" stroke-width="1.5" stroke-linecap="round" stroke-linejoin="round"/>
<path d="M26 31V15C26 14.4696 25.7893 13.9609 25.4142 13.5858C25.0391 13.2107 24.5304 13 24 13H20C19.4696 13 18.9609 13.2107 18.5858 13.5858C18.2107 13.9609 18 14.4696 18 15V31" stroke="#101928" stroke-width="1.5" stroke-linecap="round" stroke-linejoin="round"/>
</svg>
