<svg width="179" height="40" viewBox="0 0 179 40" fill="none" xmlns="http://www.w3.org/2000/svg">
    <path d="M23.0633 40.9994H10.1602L23.0633 21.6445H35.9667L23.0633 40.9994Z" fill="#B87414" />
    <path d="M17.9033 1H30.8065L17.9033 21.6452H5L17.9033 1Z" fill="#17418A" />
    <path
        d="M53.5874 30V12.5455H65.3487V15.5881H57.2777V19.7472H64.7436V22.7898H57.2777V26.9574H65.3828V30H53.5874ZM71.2486 16.9091L73.652 21.4858L76.1151 16.9091H79.8395L76.0469 23.4545L79.9418 30H76.2344L73.652 25.4744L71.1122 30H67.3622L71.2486 23.4545L67.4986 16.9091H71.2486ZM87.4418 30.2557C86.1179 30.2557 84.973 29.9744 84.0071 29.4119C83.0469 28.8437 82.3054 28.054 81.7827 27.0426C81.2599 26.0256 80.9986 24.8466 80.9986 23.5057C80.9986 22.1534 81.2599 20.9716 81.7827 19.9602C82.3054 18.9432 83.0469 18.1534 84.0071 17.5909C84.973 17.0227 86.1179 16.7386 87.4418 16.7386C88.7656 16.7386 89.9077 17.0227 90.8679 17.5909C91.8338 18.1534 92.5781 18.9432 93.1009 19.9602C93.6236 20.9716 93.8849 22.1534 93.8849 23.5057C93.8849 24.8466 93.6236 26.0256 93.1009 27.0426C92.5781 28.054 91.8338 28.8437 90.8679 29.4119C89.9077 29.9744 88.7656 30.2557 87.4418 30.2557ZM87.4588 27.4432C88.0611 27.4432 88.5639 27.2727 88.9673 26.9318C89.3707 26.5852 89.6747 26.1136 89.8793 25.517C90.0895 24.9205 90.1946 24.2415 90.1946 23.4801C90.1946 22.7188 90.0895 22.0398 89.8793 21.4432C89.6747 20.8466 89.3707 20.375 88.9673 20.0284C88.5639 19.6818 88.0611 19.5085 87.4588 19.5085C86.8509 19.5085 86.3395 19.6818 85.9247 20.0284C85.5156 20.375 85.206 20.8466 84.9957 21.4432C84.7912 22.0398 84.6889 22.7188 84.6889 23.4801C84.6889 24.2415 84.7912 24.9205 84.9957 25.517C85.206 26.1136 85.5156 26.5852 85.9247 26.9318C86.3395 27.2727 86.8509 27.4432 87.4588 27.4432ZM94.6882 15.5881V12.5455H109.023V15.5881H103.68V30H100.032V15.5881H94.6882ZM109.957 30V16.9091H113.477V19.1932H113.613C113.852 18.3807 114.252 17.767 114.815 17.3523C115.377 16.9318 116.025 16.7216 116.758 16.7216C116.94 16.7216 117.136 16.733 117.346 16.7557C117.556 16.7784 117.741 16.8097 117.9 16.8494V20.071C117.729 20.0199 117.494 19.9744 117.192 19.9347C116.891 19.8949 116.616 19.875 116.366 19.875C115.832 19.875 115.354 19.9915 114.934 20.2244C114.519 20.4517 114.19 20.7699 113.945 21.179C113.707 21.5881 113.587 22.0597 113.587 22.5938V30H109.957ZM123.135 30.2472C122.3 30.2472 121.555 30.1023 120.902 29.8125C120.249 29.517 119.732 29.0824 119.351 28.5085C118.976 27.929 118.788 27.2074 118.788 26.3438C118.788 25.6165 118.922 25.0057 119.189 24.5114C119.456 24.017 119.82 23.6193 120.28 23.3182C120.74 23.017 121.263 22.7898 121.848 22.6364C122.439 22.483 123.058 22.375 123.706 22.3125C124.467 22.233 125.081 22.1591 125.547 22.0909C126.013 22.017 126.351 21.9091 126.561 21.767C126.771 21.625 126.876 21.4148 126.876 21.1364V21.0852C126.876 20.5455 126.706 20.1278 126.365 19.8324C126.03 19.5369 125.553 19.3892 124.933 19.3892C124.28 19.3892 123.76 19.5341 123.374 19.8239C122.987 20.108 122.732 20.4659 122.607 20.8977L119.249 20.625C119.419 19.8295 119.754 19.142 120.254 18.5625C120.754 17.9773 121.399 17.5284 122.189 17.2159C122.984 16.8977 123.905 16.7386 124.95 16.7386C125.678 16.7386 126.374 16.8239 127.038 16.9943C127.709 17.1648 128.303 17.429 128.82 17.7869C129.342 18.1449 129.754 18.6051 130.055 19.1676C130.357 19.7244 130.507 20.392 130.507 21.1705V30H127.064V28.1847H126.962C126.751 28.5938 126.47 28.9545 126.118 29.267C125.766 29.5739 125.342 29.8153 124.848 29.9915C124.354 30.1619 123.783 30.2472 123.135 30.2472ZM124.175 27.7415C124.709 27.7415 125.18 27.6364 125.589 27.4261C125.999 27.2102 126.32 26.9205 126.553 26.5568C126.786 26.1932 126.902 25.7812 126.902 25.321V23.9318C126.788 24.0057 126.632 24.0739 126.433 24.1364C126.24 24.1932 126.021 24.2472 125.777 24.2983C125.533 24.3437 125.288 24.3864 125.044 24.4261C124.8 24.4602 124.578 24.4915 124.379 24.5199C123.953 24.5824 123.581 24.6818 123.263 24.8182C122.945 24.9545 122.697 25.1392 122.521 25.3722C122.345 25.5994 122.257 25.8835 122.257 26.2244C122.257 26.7188 122.436 27.0966 122.794 27.358C123.158 27.6136 123.618 27.7415 124.175 27.7415ZM139.239 30.2557C137.898 30.2557 136.744 29.9716 135.778 29.4034C134.818 28.8295 134.08 28.0341 133.562 27.017C133.051 26 132.795 24.8295 132.795 23.5057C132.795 22.1648 133.054 20.9886 133.571 19.9773C134.094 18.9602 134.835 18.1676 135.795 17.5994C136.756 17.0256 137.898 16.7386 139.222 16.7386C140.364 16.7386 141.364 16.946 142.222 17.3608C143.08 17.7756 143.759 18.358 144.259 19.108C144.759 19.858 145.034 20.7386 145.085 21.75H141.659C141.563 21.0966 141.307 20.571 140.892 20.1733C140.483 19.7699 139.946 19.5682 139.281 19.5682C138.719 19.5682 138.227 19.7216 137.807 20.0284C137.392 20.3295 137.068 20.7699 136.835 21.3494C136.602 21.929 136.486 22.6307 136.486 23.4545C136.486 24.2898 136.599 25 136.827 25.5852C137.06 26.1705 137.386 26.6165 137.807 26.9233C138.227 27.2301 138.719 27.3835 139.281 27.3835C139.696 27.3835 140.068 27.2983 140.398 27.1278C140.733 26.9574 141.009 26.7102 141.224 26.3864C141.446 26.0568 141.591 25.6619 141.659 25.2017H145.085C145.028 26.2017 144.756 27.0824 144.267 27.8438C143.784 28.5994 143.116 29.1903 142.264 29.6165C141.412 30.0426 140.403 30.2557 139.239 30.2557ZM150.7 26.233L150.708 21.8778H151.237L155.43 16.9091H159.597L153.964 23.4886H153.103L150.7 26.233ZM147.41 30V12.5455H151.04V30H147.41ZM155.592 30L151.739 24.2983L154.16 21.733L159.844 30H155.592Z"
        fill="#17418A" />
</svg>