<svg width="571" height="24" viewBox="0 0 571 24" fill="none" xmlns="http://www.w3.org/2000/svg">
<path d="M4.41477 17H1.11861V6.81818H4.51918C5.51681 6.81818 6.37358 7.02202 7.08949 7.42969C7.8054 7.83404 8.35393 8.41572 8.73509 9.17472C9.11956 9.9304 9.31179 10.8369 9.31179 11.8942C9.31179 12.9548 9.1179 13.8662 8.73011 14.6286C8.34564 15.3909 7.78883 15.9775 7.05966 16.3885C6.33049 16.7962 5.44886 17 4.41477 17ZM2.65483 15.6577H4.33026C5.10582 15.6577 5.75047 15.5118 6.2642 15.2202C6.77794 14.9252 7.16241 14.4993 7.41761 13.9425C7.67282 13.3823 7.80043 12.6996 7.80043 11.8942C7.80043 11.0954 7.67282 10.4176 7.41761 9.8608C7.16572 9.30398 6.78954 8.88139 6.28906 8.59304C5.78859 8.30469 5.16714 8.16051 4.42472 8.16051H2.65483V15.6577ZM13.3251 17.169C12.8412 17.169 12.4037 17.0795 12.0126 16.9006C11.6215 16.7183 11.3116 16.4548 11.0829 16.1101C10.8575 15.7654 10.7449 15.3428 10.7449 14.8423C10.7449 14.4115 10.8277 14.0568 10.9934 13.7784C11.1592 13.5 11.3829 13.2796 11.6646 13.1172C11.9463 12.9548 12.2612 12.8321 12.6092 12.7493C12.9572 12.6664 13.3118 12.6035 13.6731 12.5604C14.1305 12.5073 14.5017 12.4643 14.7868 12.4311C15.0718 12.3946 15.2789 12.3366 15.4082 12.2571C15.5375 12.1776 15.6021 12.0483 15.6021 11.8693V11.8345C15.6021 11.4003 15.4795 11.0639 15.2342 10.8253C14.9922 10.5866 14.631 10.4673 14.1504 10.4673C13.6499 10.4673 13.2555 10.5784 12.9672 10.8004C12.6821 11.0192 12.4849 11.2628 12.3755 11.5312L10.9785 11.2131C11.1442 10.7491 11.3862 10.3745 11.7044 10.0895C12.0259 9.80114 12.3954 9.59233 12.813 9.46307C13.2306 9.33049 13.6698 9.2642 14.1305 9.2642C14.4354 9.2642 14.7586 9.30066 15.1 9.37358C15.4447 9.44318 15.7662 9.57244 16.0645 9.76136C16.3661 9.95028 16.613 10.2204 16.8052 10.5717C16.9975 10.9197 17.0936 11.3722 17.0936 11.929V17H15.6419V15.956H15.5822C15.4861 16.1482 15.3419 16.3371 15.1497 16.5227C14.9574 16.7083 14.7105 16.8625 14.4089 16.9851C14.1073 17.1077 13.746 17.169 13.3251 17.169ZM13.6483 15.9759C14.0592 15.9759 14.4106 15.8946 14.7022 15.7322C14.9972 15.5698 15.2209 15.3577 15.3734 15.0959C15.5292 14.8307 15.6071 14.5473 15.6071 14.2457V13.2614C15.554 13.3144 15.4513 13.3641 15.2988 13.4105C15.1497 13.4536 14.979 13.4917 14.7868 13.5249C14.5945 13.5547 14.4073 13.5829 14.225 13.6094C14.0427 13.6326 13.8902 13.6525 13.7676 13.669C13.4792 13.7055 13.2157 13.7668 12.9771 13.853C12.7418 13.9392 12.5529 14.0634 12.4103 14.2259C12.2711 14.3849 12.2015 14.5971 12.2015 14.8622C12.2015 15.2301 12.3374 15.5085 12.6092 15.6974C12.881 15.883 13.2273 15.9759 13.6483 15.9759ZM24.7958 11.228L23.4485 11.4666C23.3922 11.2943 23.3027 11.1302 23.18 10.9744C23.0607 10.8187 22.8983 10.6911 22.6928 10.5916C22.4873 10.4922 22.2305 10.4425 21.9222 10.4425C21.5013 10.4425 21.15 10.5369 20.8683 10.7259C20.5865 10.9115 20.4457 11.1518 20.4457 11.4467C20.4457 11.7019 20.5401 11.9074 20.729 12.0632C20.918 12.219 21.2229 12.3466 21.6438 12.446L22.8569 12.7244C23.5595 12.8868 24.0832 13.1371 24.4279 13.4751C24.7726 13.8132 24.945 14.2524 24.945 14.7926C24.945 15.25 24.8124 15.6577 24.5472 16.0156C24.2854 16.3703 23.9192 16.6487 23.4485 16.8509C22.9812 17.053 22.4393 17.1541 21.8228 17.1541C20.9677 17.1541 20.27 16.9718 19.7298 16.6072C19.1895 16.2393 18.8581 15.7173 18.7354 15.0412L20.1722 14.8224C20.2617 15.197 20.4457 15.4804 20.7241 15.6726C21.0025 15.8615 21.3654 15.956 21.8129 15.956C22.3001 15.956 22.6895 15.8549 22.9812 15.6527C23.2728 15.4472 23.4187 15.197 23.4187 14.902C23.4187 14.6634 23.3292 14.4628 23.1502 14.3004C22.9746 14.138 22.7044 14.0154 22.3398 13.9325L21.0472 13.6491C20.3346 13.4867 19.8076 13.2282 19.4663 12.8736C19.1282 12.5189 18.9592 12.0698 18.9592 11.5263C18.9592 11.0755 19.0851 10.6811 19.337 10.343C19.5889 10.005 19.9369 9.74148 20.381 9.55256C20.8252 9.36032 21.3339 9.2642 21.9073 9.2642C22.7326 9.2642 23.3822 9.44318 23.8562 9.80114C24.3301 10.1558 24.6433 10.6314 24.7958 11.228ZM28.0659 12.4659V17H26.5794V6.81818H28.046V10.6065H28.1404C28.3194 10.1955 28.5929 9.86908 28.9608 9.62713C29.3287 9.38518 29.8092 9.2642 30.4025 9.2642C30.9262 9.2642 31.3836 9.37192 31.7747 9.58736C32.1691 9.80279 32.474 10.1243 32.6895 10.5518C32.9082 10.9761 33.0176 11.5064 33.0176 12.1428V17H31.5311V12.3217C31.5311 11.7616 31.3869 11.3274 31.0985 11.0192C30.8102 10.7076 30.4092 10.5518 29.8954 10.5518C29.5441 10.5518 29.2292 10.6264 28.9508 10.7756C28.6757 10.9247 28.4586 11.1435 28.2995 11.4318C28.1438 11.7169 28.0659 12.0616 28.0659 12.4659ZM35.1206 17V6.81818H36.6071V10.6016H36.6966C36.7827 10.4425 36.907 10.2585 37.0694 10.0497C37.2318 9.84091 37.4572 9.65862 37.7456 9.50284C38.0339 9.34375 38.4151 9.2642 38.889 9.2642C39.5055 9.2642 40.0557 9.41998 40.5396 9.73153C41.0235 10.0431 41.403 10.4922 41.6781 11.0788C41.9565 11.6655 42.0957 12.3714 42.0957 13.1967C42.0957 14.022 41.9582 14.7296 41.6831 15.3196C41.408 15.9062 41.0301 16.3587 40.5495 16.6768C40.069 16.9917 39.5204 17.1491 38.9039 17.1491C38.4399 17.1491 38.0604 17.0713 37.7654 16.9155C37.4738 16.7597 37.2451 16.5774 37.0794 16.3686C36.9136 16.1598 36.786 15.9742 36.6966 15.8118H36.5723V17H35.1206ZM36.5772 13.1818C36.5772 13.7187 36.6551 14.1894 36.8109 14.5938C36.9667 14.9981 37.1921 15.3146 37.487 15.5433C37.782 15.7687 38.1433 15.8814 38.5708 15.8814C39.015 15.8814 39.3862 15.7637 39.6845 15.5284C39.9828 15.2898 40.2082 14.9666 40.3606 14.5589C40.5164 14.1513 40.5943 13.6922 40.5943 13.1818C40.5943 12.678 40.5181 12.2256 40.3656 11.8246C40.2164 11.4235 39.9911 11.107 39.6895 10.875C39.3912 10.643 39.0183 10.527 38.5708 10.527C38.14 10.527 37.7754 10.638 37.4771 10.8601C37.1821 11.0821 36.9584 11.392 36.8059 11.7898C36.6535 12.1875 36.5772 12.6515 36.5772 13.1818ZM46.9815 17.1541C46.2656 17.1541 45.6409 16.9901 45.1072 16.6619C44.5736 16.3338 44.1593 15.8748 43.8643 15.2848C43.5694 14.6948 43.4219 14.0054 43.4219 13.2166C43.4219 12.4245 43.5694 11.7318 43.8643 11.1385C44.1593 10.5452 44.5736 10.0845 45.1072 9.75639C45.6409 9.42827 46.2656 9.2642 46.9815 9.2642C47.6974 9.2642 48.3222 9.42827 48.8558 9.75639C49.3894 10.0845 49.8037 10.5452 50.0987 11.1385C50.3937 11.7318 50.5412 12.4245 50.5412 13.2166C50.5412 14.0054 50.3937 14.6948 50.0987 15.2848C49.8037 15.8748 49.3894 16.3338 48.8558 16.6619C48.3222 16.9901 47.6974 17.1541 46.9815 17.1541ZM46.9865 15.9062C47.4505 15.9062 47.835 15.7836 48.1399 15.5384C48.4448 15.2931 48.6702 14.9666 48.8161 14.5589C48.9652 14.1513 49.0398 13.7022 49.0398 13.2116C49.0398 12.7244 48.9652 12.277 48.8161 11.8693C48.6702 11.4583 48.4448 11.1286 48.1399 10.88C47.835 10.6314 47.4505 10.5071 46.9865 10.5071C46.5192 10.5071 46.1314 10.6314 45.8232 10.88C45.5182 11.1286 45.2912 11.4583 45.142 11.8693C44.9962 12.277 44.9233 12.7244 44.9233 13.2116C44.9233 13.7022 44.9962 14.1513 45.142 14.5589C45.2912 14.9666 45.5182 15.2931 45.8232 15.5384C46.1314 15.7836 46.5192 15.9062 46.9865 15.9062ZM54.4228 17.169C53.9389 17.169 53.5014 17.0795 53.1103 16.9006C52.7192 16.7183 52.4093 16.4548 52.1806 16.1101C51.9552 15.7654 51.8425 15.3428 51.8425 14.8423C51.8425 14.4115 51.9254 14.0568 52.0911 13.7784C52.2568 13.5 52.4805 13.2796 52.7623 13.1172C53.044 12.9548 53.3588 12.8321 53.7069 12.7493C54.0549 12.6664 54.4095 12.6035 54.7708 12.5604C55.2282 12.5073 55.5994 12.4643 55.8844 12.4311C56.1694 12.3946 56.3766 12.3366 56.5059 12.2571C56.6351 12.1776 56.6998 12.0483 56.6998 11.8693V11.8345C56.6998 11.4003 56.5771 11.0639 56.3319 10.8253C56.0899 10.5866 55.7286 10.4673 55.248 10.4673C54.7476 10.4673 54.3532 10.5784 54.0648 10.8004C53.7798 11.0192 53.5826 11.2628 53.4732 11.5312L52.0762 11.2131C52.2419 10.7491 52.4838 10.3745 52.802 10.0895C53.1235 9.80114 53.4931 9.59233 53.9107 9.46307C54.3283 9.33049 54.7675 9.2642 55.2282 9.2642C55.5331 9.2642 55.8562 9.30066 56.1976 9.37358C56.5423 9.44318 56.8638 9.57244 57.1621 9.76136C57.4637 9.95028 57.7106 10.2204 57.9029 10.5717C58.0951 10.9197 58.1912 11.3722 58.1912 11.929V17H56.7395V15.956H56.6799C56.5837 16.1482 56.4396 16.3371 56.2473 16.5227C56.0551 16.7083 55.8082 16.8625 55.5066 16.9851C55.205 17.1077 54.8437 17.169 54.4228 17.169ZM54.7459 15.9759C55.1569 15.9759 55.5082 15.8946 55.7999 15.7322C56.0949 15.5698 56.3186 15.3577 56.4711 15.0959C56.6268 14.8307 56.7047 14.5473 56.7047 14.2457V13.2614C56.6517 13.3144 56.5489 13.3641 56.3965 13.4105C56.2473 13.4536 56.0766 13.4917 55.8844 13.5249C55.6922 13.5547 55.5049 13.5829 55.3226 13.6094C55.1403 13.6326 54.9879 13.6525 54.8652 13.669C54.5769 13.7055 54.3134 13.7668 54.0748 13.853C53.8394 13.9392 53.6505 14.0634 53.508 14.2259C53.3688 14.3849 53.2992 14.5971 53.2992 14.8622C53.2992 15.2301 53.4351 15.5085 53.7069 15.6974C53.9786 15.883 54.325 15.9759 54.7459 15.9759ZM60.1712 17V9.36364H61.608V10.5767H61.6875C61.8267 10.1657 62.072 9.84257 62.4233 9.60724C62.7779 9.36861 63.179 9.24929 63.6264 9.24929C63.7192 9.24929 63.8286 9.2526 63.9545 9.25923C64.0838 9.26586 64.1849 9.27415 64.2578 9.28409V10.706C64.1982 10.6894 64.0921 10.6712 63.9396 10.6513C63.7872 10.6281 63.6347 10.6165 63.4822 10.6165C63.1309 10.6165 62.8177 10.6911 62.5426 10.8402C62.2708 10.986 62.0554 11.1899 61.8963 11.4517C61.7372 11.7102 61.6577 12.0052 61.6577 12.3366V17H60.1712ZM68.1294 17.1491C67.513 17.1491 66.9628 16.9917 66.4789 16.6768C65.9983 16.3587 65.6204 15.9062 65.3453 15.3196C65.0736 14.7296 64.9377 14.022 64.9377 13.1967C64.9377 12.3714 65.0752 11.6655 65.3503 11.0788C65.6287 10.4922 66.0099 10.0431 66.4938 9.73153C66.9777 9.41998 67.5262 9.2642 68.1394 9.2642C68.6133 9.2642 68.9945 9.34375 69.2828 9.50284C69.5745 9.65862 69.7999 9.84091 69.959 10.0497C70.1214 10.2585 70.2473 10.4425 70.3368 10.6016H70.4263V6.81818H71.9128V17H70.4611V15.8118H70.3368C70.2473 15.9742 70.1181 16.1598 69.949 16.3686C69.7833 16.5774 69.5546 16.7597 69.263 16.9155C68.9713 17.0713 68.5935 17.1491 68.1294 17.1491ZM68.4576 15.8814C68.8851 15.8814 69.2464 15.7687 69.5414 15.5433C69.8397 15.3146 70.065 14.9981 70.2175 14.5938C70.3733 14.1894 70.4512 13.7187 70.4512 13.1818C70.4512 12.6515 70.3749 12.1875 70.2225 11.7898C70.07 11.392 69.8463 11.0821 69.5513 10.8601C69.2563 10.638 68.8917 10.527 68.4576 10.527C68.0101 10.527 67.6373 10.643 67.339 10.875C67.0407 11.107 66.8153 11.4235 66.6628 11.8246C66.5137 12.2256 66.4391 12.678 66.4391 13.1818C66.4391 13.6922 66.5153 14.1513 66.6678 14.5589C66.8203 14.9666 67.0456 15.2898 67.3439 15.5284C67.6455 15.7637 68.0167 15.8814 68.4576 15.8814Z" fill="#17418A"/>
<path d="M87 5L93 12L87 19" stroke="#919DB3" stroke-width="1.5" stroke-linecap="round" stroke-linejoin="round"/>
<path d="M107.119 17V6.81818H110.748C111.54 6.81818 112.196 6.96236 112.717 7.25071C113.237 7.53906 113.626 7.93347 113.885 8.43395C114.143 8.93111 114.273 9.49124 114.273 10.1143C114.273 10.7408 114.142 11.3042 113.88 11.8047C113.621 12.3018 113.23 12.6963 112.707 12.9879C112.186 13.2763 111.532 13.4205 110.743 13.4205H108.247V12.1179H110.604C111.104 12.1179 111.51 12.0317 111.822 11.8594C112.133 11.6837 112.362 11.4451 112.508 11.1435C112.654 10.8419 112.727 10.4988 112.727 10.1143C112.727 9.72988 112.654 9.38849 112.508 9.0902C112.362 8.7919 112.132 8.55824 111.817 8.3892C111.505 8.22017 111.094 8.13565 110.584 8.13565H108.655V17H107.119ZM115.954 17V9.36364H117.391V10.5767H117.471C117.61 10.1657 117.855 9.84257 118.206 9.60724C118.561 9.36861 118.962 9.24929 119.41 9.24929C119.502 9.24929 119.612 9.2526 119.738 9.25923C119.867 9.26586 119.968 9.27415 120.041 9.28409V10.706C119.981 10.6894 119.875 10.6712 119.723 10.6513C119.57 10.6281 119.418 10.6165 119.265 10.6165C118.914 10.6165 118.601 10.6911 118.326 10.8402C118.054 10.986 117.839 11.1899 117.68 11.4517C117.52 11.7102 117.441 12.0052 117.441 12.3366V17H115.954ZM124.271 17.1541C123.555 17.1541 122.93 16.9901 122.396 16.6619C121.863 16.3338 121.448 15.8748 121.153 15.2848C120.858 14.6948 120.711 14.0054 120.711 13.2166C120.711 12.4245 120.858 11.7318 121.153 11.1385C121.448 10.5452 121.863 10.0845 122.396 9.75639C122.93 9.42827 123.555 9.2642 124.271 9.2642C124.987 9.2642 125.611 9.42827 126.145 9.75639C126.679 10.0845 127.093 10.5452 127.388 11.1385C127.683 11.7318 127.83 12.4245 127.83 13.2166C127.83 14.0054 127.683 14.6948 127.388 15.2848C127.093 15.8748 126.679 16.3338 126.145 16.6619C125.611 16.9901 124.987 17.1541 124.271 17.1541ZM124.276 15.9062C124.74 15.9062 125.124 15.7836 125.429 15.5384C125.734 15.2931 125.959 14.9666 126.105 14.5589C126.254 14.1513 126.329 13.7022 126.329 13.2116C126.329 12.7244 126.254 12.277 126.105 11.8693C125.959 11.4583 125.734 11.1286 125.429 10.88C125.124 10.6314 124.74 10.5071 124.276 10.5071C123.808 10.5071 123.42 10.6314 123.112 10.88C122.807 11.1286 122.58 11.4583 122.431 11.8693C122.285 12.277 122.212 12.7244 122.212 13.2116C122.212 13.7022 122.285 14.1513 122.431 14.5589C122.58 14.9666 122.807 15.2931 123.112 15.5384C123.42 15.7836 123.808 15.9062 124.276 15.9062ZM129.49 9.36364H130.976V17.4972C130.976 18.0076 130.883 18.4384 130.698 18.7898C130.515 19.1411 130.244 19.4079 129.882 19.5902C129.524 19.7725 129.082 19.8636 128.555 19.8636C128.502 19.8636 128.452 19.8636 128.406 19.8636C128.356 19.8636 128.305 19.862 128.252 19.8587V18.581C128.298 18.581 128.339 18.581 128.376 18.581C128.409 18.581 128.447 18.581 128.49 18.581C128.842 18.581 129.095 18.4865 129.251 18.2976C129.41 18.112 129.49 17.8419 129.49 17.4872V9.36364ZM130.225 8.18537C129.967 8.18537 129.745 8.09919 129.559 7.92685C129.377 7.75118 129.286 7.54238 129.286 7.30043C129.286 7.05516 129.377 6.84635 129.559 6.67401C129.745 6.49834 129.967 6.41051 130.225 6.41051C130.484 6.41051 130.704 6.49834 130.887 6.67401C131.072 6.84635 131.165 7.05516 131.165 7.30043C131.165 7.54238 131.072 7.75118 130.887 7.92685C130.704 8.09919 130.484 8.18537 130.225 8.18537ZM136.267 17.1541C135.515 17.1541 134.867 16.9934 134.323 16.6719C133.783 16.3471 133.365 15.8913 133.07 15.3047C132.779 14.7147 132.633 14.0237 132.633 13.2315C132.633 12.4493 132.779 11.7599 133.07 11.1634C133.365 10.5668 133.776 10.1011 134.303 9.76633C134.834 9.43158 135.453 9.2642 136.163 9.2642C136.594 9.2642 137.011 9.33546 137.415 9.47798C137.82 9.6205 138.183 9.84422 138.504 10.1491C138.826 10.4541 139.079 10.8501 139.265 11.3374C139.451 11.8213 139.543 12.4096 139.543 13.1023V13.6293H133.473V12.5156H138.087C138.087 12.1245 138.007 11.7782 137.848 11.4766C137.689 11.1716 137.465 10.9313 137.177 10.7557C136.892 10.58 136.557 10.4922 136.173 10.4922C135.755 10.4922 135.39 10.5949 135.079 10.8004C134.771 11.0026 134.532 11.2678 134.363 11.5959C134.197 11.9207 134.114 12.2737 134.114 12.6548V13.5249C134.114 14.0353 134.204 14.4695 134.383 14.8274C134.565 15.1854 134.819 15.4588 135.143 15.6477C135.468 15.8333 135.848 15.9261 136.282 15.9261C136.564 15.9261 136.821 15.8864 137.053 15.8068C137.285 15.724 137.485 15.6013 137.654 15.4389C137.823 15.2765 137.952 15.076 138.042 14.8374L139.449 15.0909C139.336 15.5052 139.134 15.8681 138.842 16.1797C138.554 16.4879 138.191 16.7282 137.754 16.9006C137.319 17.0696 136.824 17.1541 136.267 17.1541ZM144.409 17.1541C143.67 17.1541 143.034 16.9867 142.5 16.652C141.97 16.3139 141.562 15.8482 141.277 15.255C140.992 14.6617 140.85 13.9822 140.85 13.2166C140.85 12.4411 140.995 11.7566 141.287 11.1634C141.579 10.5668 141.99 10.1011 142.52 9.76633C143.05 9.43158 143.675 9.2642 144.394 9.2642C144.974 9.2642 145.491 9.37192 145.945 9.58736C146.4 9.79948 146.766 10.0978 147.044 10.4822C147.326 10.8667 147.493 11.3158 147.546 11.8295H146.1C146.02 11.4716 145.838 11.1634 145.553 10.9048C145.271 10.6463 144.893 10.517 144.419 10.517C144.005 10.517 143.642 10.6264 143.33 10.8452C143.022 11.0606 142.782 11.3688 142.61 11.7699C142.437 12.1676 142.351 12.6383 142.351 13.1818C142.351 13.7386 142.436 14.2192 142.605 14.6236C142.774 15.0279 143.012 15.3411 143.32 15.5632C143.632 15.7853 143.998 15.8963 144.419 15.8963C144.701 15.8963 144.956 15.8449 145.185 15.7422C145.417 15.6361 145.611 15.4853 145.767 15.2898C145.926 15.0942 146.037 14.8589 146.1 14.5838H147.546C147.493 15.0777 147.333 15.5185 147.064 15.9062C146.796 16.294 146.436 16.599 145.985 16.821C145.538 17.0431 145.012 17.1541 144.409 17.1541ZM152.701 9.36364V10.5568H148.529V9.36364H152.701ZM149.648 7.53409H151.135V14.7578C151.135 15.0462 151.178 15.2633 151.264 15.4091C151.35 15.5516 151.461 15.6494 151.597 15.7024C151.736 15.7521 151.887 15.777 152.049 15.777C152.169 15.777 152.273 15.7687 152.363 15.7521C152.452 15.7356 152.522 15.7223 152.571 15.7124L152.84 16.9403C152.754 16.9735 152.631 17.0066 152.472 17.0398C152.313 17.0762 152.114 17.0961 151.875 17.0994C151.484 17.1061 151.12 17.0365 150.782 16.8906C150.444 16.7448 150.17 16.5194 149.961 16.2145C149.752 15.9096 149.648 15.5268 149.648 15.0661V7.53409ZM161.466 17H158.169V6.81818H161.57C162.568 6.81818 163.424 7.02202 164.14 7.42969C164.856 7.83404 165.405 8.41572 165.786 9.17472C166.17 9.9304 166.363 10.8369 166.363 11.8942C166.363 12.9548 166.169 13.8662 165.781 14.6286C165.396 15.3909 164.84 15.9775 164.11 16.3885C163.381 16.7962 162.5 17 161.466 17ZM159.706 15.6577H161.381C162.157 15.6577 162.801 15.5118 163.315 15.2202C163.829 14.9252 164.213 14.4993 164.468 13.9425C164.724 13.3823 164.851 12.6996 164.851 11.8942C164.851 11.0954 164.724 10.4176 164.468 9.8608C164.217 9.30398 163.84 8.88139 163.34 8.59304C162.839 8.30469 162.218 8.16051 161.475 8.16051H159.706V15.6577ZM171.445 17.1541C170.692 17.1541 170.044 16.9934 169.501 16.6719C168.961 16.3471 168.543 15.8913 168.248 15.3047C167.956 14.7147 167.811 14.0237 167.811 13.2315C167.811 12.4493 167.956 11.7599 168.248 11.1634C168.543 10.5668 168.954 10.1011 169.481 9.76633C170.011 9.43158 170.631 9.2642 171.34 9.2642C171.771 9.2642 172.189 9.33546 172.593 9.47798C172.998 9.6205 173.36 9.84422 173.682 10.1491C174.003 10.4541 174.257 10.8501 174.443 11.3374C174.628 11.8213 174.721 12.4096 174.721 13.1023V13.6293H168.651V12.5156H173.264C173.264 12.1245 173.185 11.7782 173.026 11.4766C172.867 11.1716 172.643 10.9313 172.355 10.7557C172.07 10.58 171.735 10.4922 171.35 10.4922C170.933 10.4922 170.568 10.5949 170.257 10.8004C169.948 11.0026 169.71 11.2678 169.541 11.5959C169.375 11.9207 169.292 12.2737 169.292 12.6548V13.5249C169.292 14.0353 169.382 14.4695 169.561 14.8274C169.743 15.1854 169.996 15.4588 170.321 15.6477C170.646 15.8333 171.026 15.9261 171.46 15.9261C171.741 15.9261 171.998 15.8864 172.23 15.8068C172.462 15.724 172.663 15.6013 172.832 15.4389C173.001 15.2765 173.13 15.076 173.22 14.8374L174.627 15.0909C174.514 15.5052 174.312 15.8681 174.02 16.1797C173.732 16.4879 173.369 16.7282 172.931 16.9006C172.497 17.0696 172.002 17.1541 171.445 17.1541ZM179.935 9.36364V10.5568H175.764V9.36364H179.935ZM176.882 7.53409H178.369V14.7578C178.369 15.0462 178.412 15.2633 178.498 15.4091C178.584 15.5516 178.695 15.6494 178.831 15.7024C178.971 15.7521 179.121 15.777 179.284 15.777C179.403 15.777 179.507 15.7687 179.597 15.7521C179.686 15.7356 179.756 15.7223 179.806 15.7124L180.074 16.9403C179.988 16.9735 179.865 17.0066 179.706 17.0398C179.547 17.0762 179.348 17.0961 179.11 17.0994C178.719 17.1061 178.354 17.0365 178.016 16.8906C177.678 16.7448 177.404 16.5194 177.196 16.2145C176.987 15.9096 176.882 15.5268 176.882 15.0661V7.53409ZM183.802 17.169C183.318 17.169 182.88 17.0795 182.489 16.9006C182.098 16.7183 181.788 16.4548 181.559 16.1101C181.334 15.7654 181.221 15.3428 181.221 14.8423C181.221 14.4115 181.304 14.0568 181.47 13.7784C181.636 13.5 181.859 13.2796 182.141 13.1172C182.423 12.9548 182.738 12.8321 183.086 12.7493C183.434 12.6664 183.788 12.6035 184.15 12.5604C184.607 12.5073 184.978 12.4643 185.263 12.4311C185.548 12.3946 185.756 12.3366 185.885 12.2571C186.014 12.1776 186.079 12.0483 186.079 11.8693V11.8345C186.079 11.4003 185.956 11.0639 185.711 10.8253C185.469 10.5866 185.108 10.4673 184.627 10.4673C184.126 10.4673 183.732 10.5784 183.444 10.8004C183.159 11.0192 182.961 11.2628 182.852 11.5312L181.455 11.2131C181.621 10.7491 181.863 10.3745 182.181 10.0895C182.502 9.80114 182.872 9.59233 183.29 9.46307C183.707 9.33049 184.146 9.2642 184.607 9.2642C184.912 9.2642 185.235 9.30066 185.577 9.37358C185.921 9.44318 186.243 9.57244 186.541 9.76136C186.843 9.95028 187.09 10.2204 187.282 10.5717C187.474 10.9197 187.57 11.3722 187.57 11.929V17H186.118V15.956H186.059C185.963 16.1482 185.818 16.3371 185.626 16.5227C185.434 16.7083 185.187 16.8625 184.885 16.9851C184.584 17.1077 184.223 17.169 183.802 17.169ZM184.125 15.9759C184.536 15.9759 184.887 15.8946 185.179 15.7322C185.474 15.5698 185.698 15.3577 185.85 15.0959C186.006 14.8307 186.084 14.5473 186.084 14.2457V13.2614C186.031 13.3144 185.928 13.3641 185.775 13.4105C185.626 13.4536 185.456 13.4917 185.263 13.5249C185.071 13.5547 184.884 13.5829 184.702 13.6094C184.519 13.6326 184.367 13.6525 184.244 13.669C183.956 13.7055 183.692 13.7668 183.454 13.853C183.218 13.9392 183.029 14.0634 182.887 14.2259C182.748 14.3849 182.678 14.5971 182.678 14.8622C182.678 15.2301 182.814 15.5085 183.086 15.6974C183.358 15.883 183.704 15.9759 184.125 15.9759ZM189.55 17V9.36364H191.037V17H189.55ZM190.301 8.18537C190.042 8.18537 189.82 8.09919 189.635 7.92685C189.452 7.75118 189.361 7.54238 189.361 7.30043C189.361 7.05516 189.452 6.84635 189.635 6.67401C189.82 6.49834 190.042 6.41051 190.301 6.41051C190.559 6.41051 190.78 6.49834 190.962 6.67401C191.148 6.84635 191.24 7.05516 191.24 7.30043C191.24 7.54238 191.148 7.75118 190.962 7.92685C190.78 8.09919 190.559 8.18537 190.301 8.18537ZM194.523 6.81818V17H193.036V6.81818H194.523ZM202.245 11.228L200.898 11.4666C200.841 11.2943 200.752 11.1302 200.629 10.9744C200.51 10.8187 200.348 10.6911 200.142 10.5916C199.937 10.4922 199.68 10.4425 199.371 10.4425C198.951 10.4425 198.599 10.5369 198.317 10.7259C198.036 10.9115 197.895 11.1518 197.895 11.4467C197.895 11.7019 197.989 11.9074 198.178 12.0632C198.367 12.219 198.672 12.3466 199.093 12.446L200.306 12.7244C201.009 12.8868 201.532 13.1371 201.877 13.4751C202.222 13.8132 202.394 14.2524 202.394 14.7926C202.394 15.25 202.262 15.6577 201.996 16.0156C201.735 16.3703 201.368 16.6487 200.898 16.8509C200.43 17.053 199.888 17.1541 199.272 17.1541C198.417 17.1541 197.719 16.9718 197.179 16.6072C196.639 16.2393 196.307 15.7173 196.185 15.0412L197.621 14.8224C197.711 15.197 197.895 15.4804 198.173 15.6726C198.452 15.8615 198.815 15.956 199.262 15.956C199.749 15.956 200.139 15.8549 200.43 15.6527C200.722 15.4472 200.868 15.197 200.868 14.902C200.868 14.6634 200.778 14.4628 200.599 14.3004C200.424 14.138 200.154 14.0154 199.789 13.9325L198.496 13.6491C197.784 13.4867 197.257 13.2282 196.915 12.8736C196.577 12.5189 196.408 12.0698 196.408 11.5263C196.408 11.0755 196.534 10.6811 196.786 10.343C197.038 10.005 197.386 9.74148 197.83 9.55256C198.274 9.36032 198.783 9.2642 199.357 9.2642C200.182 9.2642 200.831 9.44318 201.305 9.80114C201.779 10.1558 202.093 10.6314 202.245 11.228Z" fill="#17418A"/>
<path d="M217 5L223 12L217 19" stroke="#919DB3" stroke-width="1.5" stroke-linecap="round" stroke-linejoin="round"/>
<path d="M237.233 17V6.81818H240.673C241.469 6.81818 242.122 6.95407 242.632 7.22585C243.143 7.49432 243.52 7.86387 243.766 8.33452C244.011 8.80516 244.134 9.34044 244.134 9.94034C244.134 10.5402 244.011 11.0722 243.766 11.5362C243.52 12.0002 243.144 12.3648 242.637 12.63C242.13 12.8918 241.482 13.0227 240.693 13.0227H237.909V11.9091H240.653C241.197 11.9091 241.634 11.8295 241.966 11.6705C242.301 11.5114 242.543 11.286 242.692 10.9943C242.844 10.6993 242.92 10.348 242.92 9.94034C242.92 9.53267 242.844 9.17637 242.692 8.87145C242.539 8.56652 242.296 8.3312 241.961 8.16548C241.626 7.99645 241.184 7.91193 240.634 7.91193H238.466V17H237.233ZM242.026 12.4261L244.531 17H243.099L240.634 12.4261H242.026ZM249.149 17.1591C248.413 17.1591 247.778 16.9967 247.244 16.6719C246.714 16.3438 246.305 15.8864 246.017 15.2997C245.731 14.7098 245.589 14.0237 245.589 13.2415C245.589 12.4593 245.731 11.7699 246.017 11.1733C246.305 10.5734 246.706 10.1061 247.22 9.77131C247.737 9.43324 248.34 9.2642 249.029 9.2642C249.427 9.2642 249.82 9.33049 250.208 9.46307C250.595 9.59564 250.948 9.81108 251.267 10.1094C251.585 10.4044 251.838 10.7955 252.027 11.2827C252.216 11.7699 252.311 12.3698 252.311 13.0824V13.5795H246.424V12.5653H251.117C251.117 12.1345 251.031 11.75 250.859 11.4119C250.69 11.0739 250.448 10.8071 250.133 10.6115C249.821 10.416 249.454 10.3182 249.029 10.3182C248.562 10.3182 248.158 10.4342 247.816 10.6662C247.478 10.8949 247.218 11.1932 247.036 11.5611C246.853 11.929 246.762 12.3234 246.762 12.7443V13.4205C246.762 13.9972 246.862 14.486 247.061 14.8871C247.263 15.2848 247.543 15.5881 247.901 15.7969C248.259 16.0024 248.675 16.1051 249.149 16.1051C249.457 16.1051 249.735 16.062 249.984 15.9759C250.236 15.8864 250.453 15.7538 250.635 15.5781C250.817 15.3991 250.958 15.1771 251.058 14.9119L252.191 15.2301C252.072 15.6146 251.871 15.9527 251.59 16.2443C251.308 16.5327 250.96 16.758 250.546 16.9205C250.131 17.0795 249.666 17.1591 249.149 17.1591ZM259.306 19.8636V15.8267H259.206C259.12 15.9659 258.997 16.1416 258.838 16.3537C258.679 16.5625 258.452 16.7498 258.157 16.9155C257.862 17.0779 257.469 17.1591 256.979 17.1591C256.343 17.1591 255.781 16.9983 255.294 16.6768C254.806 16.352 254.425 15.8946 254.15 15.3047C253.875 14.7114 253.737 14.0104 253.737 13.2017C253.737 12.3996 253.875 11.7036 254.15 11.1136C254.425 10.5237 254.808 10.0679 255.298 9.74645C255.789 9.42495 256.356 9.2642 256.999 9.2642C257.496 9.2642 257.889 9.34706 258.177 9.51278C258.469 9.67519 258.691 9.8608 258.843 10.0696C258.999 10.2751 259.12 10.4441 259.206 10.5767H259.345V9.36364H260.479V19.8636H259.306ZM257.138 16.1051C257.609 16.1051 258.006 15.9825 258.331 15.7372C258.656 15.4886 258.903 15.1456 259.072 14.7081C259.241 14.2673 259.325 13.7585 259.325 13.1818C259.325 12.6117 259.243 12.1129 259.077 11.6854C258.911 11.2545 258.666 10.9197 258.341 10.6811C258.016 10.4392 257.615 10.3182 257.138 10.3182C256.641 10.3182 256.227 10.4458 255.895 10.701C255.567 10.9529 255.32 11.2959 255.154 11.7301C254.992 12.161 254.911 12.6449 254.911 13.1818C254.911 13.7254 254.994 14.2192 255.159 14.6634C255.328 15.1042 255.577 15.4555 255.905 15.7173C256.236 15.9759 256.647 16.1051 257.138 16.1051ZM267.439 13.8778V9.36364H268.612V17H267.439V15.7074H267.36C267.181 16.0952 266.902 16.425 266.524 16.6967C266.146 16.9652 265.669 17.0994 265.093 17.0994C264.615 17.0994 264.191 16.995 263.82 16.7862C263.449 16.5741 263.157 16.2559 262.945 15.8317C262.733 15.4041 262.627 14.8655 262.627 14.2159V9.36364H263.8V14.1364C263.8 14.6932 263.956 15.1373 264.267 15.4688C264.582 15.8002 264.983 15.9659 265.47 15.9659C265.762 15.9659 266.059 15.8913 266.36 15.7422C266.665 15.593 266.92 15.3643 267.126 15.0561C267.335 14.7479 267.439 14.3551 267.439 13.8778ZM273.963 17.1591C273.227 17.1591 272.593 16.9967 272.059 16.6719C271.529 16.3438 271.119 15.8864 270.831 15.2997C270.546 14.7098 270.403 14.0237 270.403 13.2415C270.403 12.4593 270.546 11.7699 270.831 11.1733C271.119 10.5734 271.52 10.1061 272.034 9.77131C272.551 9.43324 273.154 9.2642 273.844 9.2642C274.241 9.2642 274.634 9.33049 275.022 9.46307C275.41 9.59564 275.763 9.81108 276.081 10.1094C276.399 10.4044 276.653 10.7955 276.842 11.2827C277.031 11.7699 277.125 12.3698 277.125 13.0824V13.5795H271.239V12.5653H275.932C275.932 12.1345 275.846 11.75 275.673 11.4119C275.504 11.0739 275.262 10.8071 274.947 10.6115C274.636 10.416 274.268 10.3182 273.844 10.3182C273.376 10.3182 272.972 10.4342 272.631 10.6662C272.293 10.8949 272.032 11.1932 271.85 11.5611C271.668 11.929 271.577 12.3234 271.577 12.7443V13.4205C271.577 13.9972 271.676 14.486 271.875 14.8871C272.077 15.2848 272.357 15.5881 272.715 15.7969C273.073 16.0024 273.489 16.1051 273.963 16.1051C274.271 16.1051 274.55 16.062 274.798 15.9759C275.05 15.8864 275.267 15.7538 275.45 15.5781C275.632 15.3991 275.773 15.1771 275.872 14.9119L277.006 15.2301C276.886 15.6146 276.686 15.9527 276.404 16.2443C276.122 16.5327 275.774 16.758 275.36 16.9205C274.946 17.0795 274.48 17.1591 273.963 17.1591ZM284.319 11.0739L283.265 11.3722C283.199 11.1965 283.101 11.0258 282.972 10.8601C282.846 10.6911 282.673 10.5518 282.455 10.4425C282.236 10.3331 281.956 10.2784 281.614 10.2784C281.147 10.2784 280.758 10.3861 280.446 10.6016C280.138 10.8137 279.984 11.0838 279.984 11.4119C279.984 11.7036 280.09 11.9339 280.302 12.103C280.514 12.272 280.845 12.4129 281.296 12.5256L282.43 12.804C283.112 12.9697 283.621 13.2232 283.956 13.5646C284.291 13.9027 284.458 14.3385 284.458 14.8722C284.458 15.3097 284.332 15.7008 284.08 16.0455C283.832 16.3902 283.484 16.6619 283.036 16.8608C282.589 17.0597 282.068 17.1591 281.475 17.1591C280.696 17.1591 280.052 16.9901 279.541 16.652C279.031 16.3139 278.708 15.8201 278.572 15.1705L279.685 14.892C279.791 15.303 279.992 15.6113 280.287 15.8168C280.585 16.0223 280.975 16.125 281.455 16.125C282.002 16.125 282.436 16.009 282.758 15.777C283.083 15.5417 283.245 15.2599 283.245 14.9318C283.245 14.6667 283.152 14.4446 282.967 14.2656C282.781 14.0833 282.496 13.9474 282.112 13.858L280.839 13.5597C280.139 13.3939 279.626 13.1371 279.298 12.7891C278.973 12.4377 278.81 11.9986 278.81 11.4716C278.81 11.0407 278.931 10.6596 279.173 10.3281C279.419 9.99669 279.752 9.73651 280.173 9.54758C280.597 9.35866 281.077 9.2642 281.614 9.2642C282.37 9.2642 282.963 9.42992 283.394 9.76136C283.828 10.0928 284.137 10.5303 284.319 11.0739ZM289.545 9.36364V10.358H285.588V9.36364H289.545ZM286.741 7.53409H287.915V14.8125C287.915 15.1439 287.963 15.3925 288.059 15.5582C288.158 15.7206 288.284 15.83 288.437 15.8864C288.592 15.9394 288.756 15.9659 288.929 15.9659C289.058 15.9659 289.164 15.9593 289.247 15.946C289.33 15.9295 289.396 15.9162 289.446 15.9062L289.684 16.9602C289.605 16.9901 289.494 17.0199 289.351 17.0497C289.209 17.0829 289.028 17.0994 288.809 17.0994C288.478 17.0994 288.153 17.0282 287.835 16.8857C287.52 16.7431 287.258 16.526 287.05 16.2344C286.844 15.9427 286.741 15.5748 286.741 15.1307V7.53409ZM298.549 17H295.407V6.81818H298.688C299.676 6.81818 300.521 7.02202 301.224 7.42969C301.926 7.83404 302.465 8.41572 302.839 9.17472C303.214 9.9304 303.401 10.8352 303.401 11.8892C303.401 12.9498 303.212 13.8629 302.834 14.6286C302.456 15.3909 301.906 15.9775 301.184 16.3885C300.461 16.7962 299.583 17 298.549 17ZM296.64 15.9062H298.469C299.311 15.9062 300.009 15.7438 300.562 15.419C301.116 15.0942 301.528 14.6319 301.8 14.032C302.072 13.4321 302.208 12.7178 302.208 11.8892C302.208 11.0672 302.074 10.3596 301.805 9.76633C301.537 9.16974 301.136 8.71236 300.602 8.39418C300.068 8.07268 299.404 7.91193 298.608 7.91193H296.64V15.9062ZM308.512 17.1591C307.776 17.1591 307.141 16.9967 306.608 16.6719C306.077 16.3438 305.668 15.8864 305.38 15.2997C305.095 14.7098 304.952 14.0237 304.952 13.2415C304.952 12.4593 305.095 11.7699 305.38 11.1733C305.668 10.5734 306.069 10.1061 306.583 9.77131C307.1 9.43324 307.703 9.2642 308.393 9.2642C308.79 9.2642 309.183 9.33049 309.571 9.46307C309.959 9.59564 310.312 9.81108 310.63 10.1094C310.948 10.4044 311.202 10.7955 311.39 11.2827C311.579 11.7699 311.674 12.3698 311.674 13.0824V13.5795H305.787V12.5653H310.481C310.481 12.1345 310.394 11.75 310.222 11.4119C310.053 11.0739 309.811 10.8071 309.496 10.6115C309.185 10.416 308.817 10.3182 308.393 10.3182C307.925 10.3182 307.521 10.4342 307.18 10.6662C306.841 10.8949 306.581 11.1932 306.399 11.5611C306.217 11.929 306.126 12.3234 306.126 12.7443V13.4205C306.126 13.9972 306.225 14.486 306.424 14.8871C306.626 15.2848 306.906 15.5881 307.264 15.7969C307.622 16.0024 308.038 16.1051 308.512 16.1051C308.82 16.1051 309.099 16.062 309.347 15.9759C309.599 15.8864 309.816 15.7538 309.998 15.5781C310.181 15.3991 310.322 15.1771 310.421 14.9119L311.555 15.2301C311.435 15.6146 311.235 15.9527 310.953 16.2443C310.671 16.5327 310.323 16.758 309.909 16.9205C309.495 17.0795 309.029 17.1591 308.512 17.1591ZM316.78 9.36364V10.358H312.822V9.36364H316.78ZM313.976 7.53409H315.149V14.8125C315.149 15.1439 315.197 15.3925 315.293 15.5582C315.393 15.7206 315.519 15.83 315.671 15.8864C315.827 15.9394 315.991 15.9659 316.163 15.9659C316.292 15.9659 316.398 15.9593 316.481 15.946C316.564 15.9295 316.631 15.9162 316.68 15.9062L316.919 16.9602C316.839 16.9901 316.728 17.0199 316.586 17.0497C316.443 17.0829 316.263 17.0994 316.044 17.0994C315.712 17.0994 315.388 17.0282 315.069 16.8857C314.755 16.7431 314.493 16.526 314.284 16.2344C314.078 15.9427 313.976 15.5748 313.976 15.1307V7.53409ZM320.792 17.179C320.308 17.179 319.869 17.0878 319.474 16.9055C319.08 16.7199 318.767 16.4531 318.535 16.1051C318.303 15.7538 318.187 15.3295 318.187 14.8324C318.187 14.3949 318.273 14.0402 318.445 13.7685C318.617 13.4934 318.848 13.2779 319.136 13.1222C319.425 12.9664 319.743 12.8504 320.091 12.7741C320.442 12.6946 320.795 12.6316 321.15 12.5852C321.614 12.5256 321.99 12.4808 322.278 12.451C322.57 12.4179 322.782 12.3632 322.915 12.2869C323.05 12.2107 323.118 12.0781 323.118 11.8892V11.8494C323.118 11.3589 322.984 10.9777 322.716 10.706C322.451 10.4342 322.048 10.2983 321.508 10.2983C320.948 10.2983 320.508 10.4209 320.19 10.6662C319.872 10.9115 319.648 11.1733 319.519 11.4517L318.405 11.054C318.604 10.59 318.869 10.2287 319.201 9.97017C319.536 9.70833 319.9 9.52604 320.295 9.4233C320.692 9.31723 321.083 9.2642 321.468 9.2642C321.713 9.2642 321.995 9.29403 322.313 9.35369C322.635 9.41004 322.944 9.5277 323.243 9.70668C323.544 9.88565 323.795 10.1558 323.993 10.517C324.192 10.8783 324.292 11.3622 324.292 11.9688V17H323.118V15.9659H323.059C322.979 16.1316 322.847 16.3089 322.661 16.4979C322.475 16.6868 322.229 16.8475 321.92 16.9801C321.612 17.1127 321.236 17.179 320.792 17.179ZM320.971 16.125C321.435 16.125 321.826 16.0339 322.144 15.8516C322.465 15.6693 322.707 15.4339 322.87 15.1456C323.036 14.8572 323.118 14.554 323.118 14.2358V13.1619C323.069 13.2216 322.959 13.2763 322.79 13.326C322.625 13.3724 322.432 13.4138 322.214 13.4503C321.998 13.4834 321.788 13.5133 321.582 13.5398C321.38 13.563 321.216 13.5829 321.09 13.5994C320.785 13.6392 320.5 13.7038 320.235 13.7933C319.973 13.8795 319.761 14.0104 319.599 14.1861C319.439 14.3584 319.36 14.5937 319.36 14.892C319.36 15.2997 319.511 15.608 319.812 15.8168C320.117 16.0223 320.503 16.125 320.971 16.125ZM326.433 17V9.36364H327.607V17H326.433ZM327.03 8.09091C326.801 8.09091 326.604 8.01302 326.438 7.85724C326.276 7.70147 326.195 7.5142 326.195 7.29545C326.195 7.0767 326.276 6.88944 326.438 6.73366C326.604 6.57789 326.801 6.5 327.03 6.5C327.259 6.5 327.454 6.57789 327.616 6.73366C327.782 6.88944 327.865 7.0767 327.865 7.29545C327.865 7.5142 327.782 7.70147 327.616 7.85724C327.454 8.01302 327.259 8.09091 327.03 8.09091ZM330.929 6.81818V17H329.756V6.81818H330.929ZM338.487 11.0739L337.433 11.3722C337.367 11.1965 337.269 11.0258 337.14 10.8601C337.014 10.6911 336.841 10.5518 336.623 10.4425C336.404 10.3331 336.124 10.2784 335.782 10.2784C335.315 10.2784 334.926 10.3861 334.614 10.6016C334.306 10.8137 334.152 11.0838 334.152 11.4119C334.152 11.7036 334.258 11.9339 334.47 12.103C334.682 12.272 335.013 12.4129 335.464 12.5256L336.598 12.804C337.28 12.9697 337.789 13.2232 338.124 13.5646C338.459 13.9027 338.626 14.3385 338.626 14.8722C338.626 15.3097 338.5 15.7008 338.248 16.0455C338 16.3902 337.652 16.6619 337.204 16.8608C336.757 17.0597 336.236 17.1591 335.643 17.1591C334.864 17.1591 334.22 16.9901 333.709 16.652C333.199 16.3139 332.876 15.8201 332.74 15.1705L333.853 14.892C333.959 15.303 334.16 15.6113 334.455 15.8168C334.753 16.0223 335.143 16.125 335.623 16.125C336.17 16.125 336.604 16.009 336.926 15.777C337.251 15.5417 337.413 15.2599 337.413 14.9318C337.413 14.6667 337.32 14.4446 337.135 14.2656C336.949 14.0833 336.664 13.9474 336.279 13.858L335.007 13.5597C334.307 13.3939 333.794 13.1371 333.466 12.7891C333.141 12.4377 332.978 11.9986 332.978 11.4716C332.978 11.0407 333.099 10.6596 333.341 10.3281C333.587 9.99669 333.92 9.73651 334.341 9.54758C334.765 9.35866 335.245 9.2642 335.782 9.2642C336.538 9.2642 337.131 9.42992 337.562 9.76136C337.996 10.0928 338.305 10.5303 338.487 11.0739Z" fill="#667185"/>
</svg>
