<svg width="618" height="24" viewBox="0 0 618 24" fill="none" xmlns="http://www.w3.org/2000/svg">
    <path
        d="M0.616477 8.14062V6.81818H8.49645V8.14062H5.3196V17H3.78835V8.14062H0.616477ZM11.3017 17.169C10.8178 17.169 10.3803 17.0795 9.98917 16.9006C9.59807 16.7183 9.28817 16.4548 9.05948 16.1101C8.8341 15.7654 8.72141 15.3428 8.72141 14.8423C8.72141 14.4115 8.80427 14.0568 8.96999 13.7784C9.13571 13.5 9.35943 13.2796 9.64116 13.1172C9.92288 12.9548 10.2377 12.8321 10.5858 12.7493C10.9338 12.6664 11.2884 12.6035 11.6497 12.5604C12.1071 12.5073 12.4783 12.4643 12.7633 12.4311C13.0484 12.3946 13.2555 12.3366 13.3848 12.2571C13.514 12.1776 13.5787 12.0483 13.5787 11.8693V11.8345C13.5787 11.4003 13.456 11.0639 13.2108 10.8253C12.9688 10.5866 12.6075 10.4673 12.127 10.4673C11.6265 10.4673 11.2321 10.5784 10.9437 10.8004C10.6587 11.0192 10.4615 11.2628 10.3521 11.5312L8.95508 11.2131C9.1208 10.7491 9.36275 10.3745 9.68093 10.0895C10.0024 9.80114 10.372 9.59233 10.7896 9.46307C11.2072 9.33049 11.6464 9.2642 12.1071 9.2642C12.412 9.2642 12.7351 9.30066 13.0765 9.37358C13.4212 9.44318 13.7427 9.57244 14.041 9.76136C14.3426 9.95028 14.5895 10.2204 14.7818 10.5717C14.974 10.9197 15.0701 11.3722 15.0701 11.929V17H13.6184V15.956H13.5588C13.4627 16.1482 13.3185 16.3371 13.1262 16.5227C12.934 16.7083 12.6871 16.8625 12.3855 16.9851C12.0839 17.1077 11.7226 17.169 11.3017 17.169ZM11.6248 15.9759C12.0358 15.9759 12.3871 15.8946 12.6788 15.7322C12.9738 15.5698 13.1975 15.3577 13.35 15.0959C13.5057 14.8307 13.5836 14.5473 13.5836 14.2457V13.2614C13.5306 13.3144 13.4279 13.3641 13.2754 13.4105C13.1262 13.4536 12.9556 13.4917 12.7633 13.5249C12.5711 13.5547 12.3838 13.5829 12.2015 13.6094C12.0192 13.6326 11.8668 13.6525 11.7441 13.669C11.4558 13.7055 11.1923 13.7668 10.9537 13.853C10.7183 13.9392 10.5294 14.0634 10.3869 14.2259C10.2477 14.3849 10.1781 14.5971 10.1781 14.8622C10.1781 15.2301 10.314 15.5085 10.5858 15.6974C10.8575 15.883 11.2039 15.9759 11.6248 15.9759ZM17.1694 17V6.81818H18.6559V10.6016H18.7454C18.8316 10.4425 18.9558 10.2585 19.1183 10.0497C19.2807 9.84091 19.506 9.65862 19.7944 9.50284C20.0827 9.34375 20.4639 9.2642 20.9379 9.2642C21.5543 9.2642 22.1045 9.41998 22.5884 9.73153C23.0723 10.0431 23.4518 10.4922 23.7269 11.0788C24.0053 11.6655 24.1445 12.3714 24.1445 13.1967C24.1445 14.022 24.007 14.7296 23.7319 15.3196C23.4568 15.9062 23.079 16.3587 22.5984 16.6768C22.1178 16.9917 21.5692 17.1491 20.9528 17.1491C20.4888 17.1491 20.1093 17.0713 19.8143 16.9155C19.5226 16.7597 19.2939 16.5774 19.1282 16.3686C18.9625 16.1598 18.8349 15.9742 18.7454 15.8118H18.6211V17H17.1694ZM18.6261 13.1818C18.6261 13.7187 18.704 14.1894 18.8597 14.5938C19.0155 14.9981 19.2409 15.3146 19.5359 15.5433C19.8308 15.7687 20.1921 15.8814 20.6197 15.8814C21.0638 15.8814 21.435 15.7637 21.7333 15.5284C22.0316 15.2898 22.257 14.9666 22.4094 14.5589C22.5652 14.1513 22.6431 13.6922 22.6431 13.1818C22.6431 12.678 22.5669 12.2256 22.4144 11.8246C22.2653 11.4235 22.0399 11.107 21.7383 10.875C21.44 10.643 21.0671 10.527 20.6197 10.527C20.1888 10.527 19.8242 10.638 19.5259 10.8601C19.2309 11.0821 19.0072 11.392 18.8548 11.7898C18.7023 12.1875 18.6261 12.6515 18.6261 13.1818ZM27.3002 6.81818V17H25.8137V6.81818H27.3002ZM32.5913 17.1541C31.8389 17.1541 31.1909 16.9934 30.6474 16.6719C30.1071 16.3471 29.6895 15.8913 29.3945 15.3047C29.1029 14.7147 28.957 14.0237 28.957 13.2315C28.957 12.4493 29.1029 11.7599 29.3945 11.1634C29.6895 10.5668 30.1005 10.1011 30.6275 9.76633C31.1578 9.43158 31.7776 9.2642 32.4869 9.2642C32.9177 9.2642 33.3353 9.33546 33.7397 9.47798C34.1441 9.6205 34.507 9.84422 34.8285 10.1491C35.15 10.4541 35.4035 10.8501 35.5891 11.3374C35.7747 11.8213 35.8675 12.4096 35.8675 13.1023V13.6293H29.7972V12.5156H34.4109C34.4109 12.1245 34.3313 11.7782 34.1722 11.4766C34.0131 11.1716 33.7894 10.9313 33.5011 10.7557C33.216 10.58 32.8813 10.4922 32.4968 10.4922C32.0792 10.4922 31.7146 10.5949 31.4031 10.8004C31.0948 11.0026 30.8562 11.2678 30.6871 11.5959C30.5214 11.9207 30.4386 12.2737 30.4386 12.6548V13.5249C30.4386 14.0353 30.5281 14.4695 30.707 14.8274C30.8893 15.1854 31.1429 15.4588 31.4677 15.6477C31.7925 15.8333 32.172 15.9261 32.6062 15.9261C32.8879 15.9261 33.1448 15.8864 33.3768 15.8068C33.6088 15.724 33.8093 15.6013 33.9783 15.4389C34.1474 15.2765 34.2766 15.076 34.3661 14.8374L35.7731 15.0909C35.6604 15.5052 35.4582 15.8681 35.1665 16.1797C34.8782 16.4879 34.5153 16.7282 34.0778 16.9006C33.6436 17.0696 33.1481 17.1541 32.5913 17.1541ZM39.7392 17.169C39.2553 17.169 38.8178 17.0795 38.4267 16.9006C38.0356 16.7183 37.7257 16.4548 37.497 16.1101C37.2716 15.7654 37.1589 15.3428 37.1589 14.8423C37.1589 14.4115 37.2418 14.0568 37.4075 13.7784C37.5732 13.5 37.7969 13.2796 38.0787 13.1172C38.3604 12.9548 38.6752 12.8321 39.0233 12.7493C39.3713 12.6664 39.7259 12.6035 40.0872 12.5604C40.5446 12.5073 40.9158 12.4643 41.2008 12.4311C41.4859 12.3946 41.693 12.3366 41.8223 12.2571C41.9515 12.1776 42.0162 12.0483 42.0162 11.8693V11.8345C42.0162 11.4003 41.8935 11.0639 41.6483 10.8253C41.4063 10.5866 41.045 10.4673 40.5645 10.4673C40.064 10.4673 39.6696 10.5784 39.3812 10.8004C39.0962 11.0192 38.899 11.2628 38.7896 11.5312L37.3926 11.2131C37.5583 10.7491 37.8002 10.3745 38.1184 10.0895C38.4399 9.80114 38.8095 9.59233 39.2271 9.46307C39.6447 9.33049 40.0839 9.2642 40.5446 9.2642C40.8495 9.2642 41.1726 9.30066 41.514 9.37358C41.8587 9.44318 42.1802 9.57244 42.4785 9.76136C42.7801 9.95028 43.027 10.2204 43.2193 10.5717C43.4115 10.9197 43.5076 11.3722 43.5076 11.929V17H42.0559V15.956H41.9963C41.9002 16.1482 41.756 16.3371 41.5637 16.5227C41.3715 16.7083 41.1246 16.8625 40.823 16.9851C40.5214 17.1077 40.1601 17.169 39.7392 17.169ZM40.0623 15.9759C40.4733 15.9759 40.8246 15.8946 41.1163 15.7322C41.4113 15.5698 41.635 15.3577 41.7875 15.0959C41.9432 14.8307 42.0211 14.5473 42.0211 14.2457V13.2614C41.9681 13.3144 41.8654 13.3641 41.7129 13.4105C41.5637 13.4536 41.3931 13.4917 41.2008 13.5249C41.0086 13.5547 40.8213 13.5829 40.639 13.6094C40.4567 13.6326 40.3043 13.6525 40.1816 13.669C39.8933 13.7055 39.6298 13.7668 39.3912 13.853C39.1558 13.9392 38.9669 14.0634 38.8244 14.2259C38.6852 14.3849 38.6156 14.5971 38.6156 14.8622C38.6156 15.2301 38.7515 15.5085 39.0233 15.6974C39.295 15.883 39.6414 15.9759 40.0623 15.9759ZM50.3249 13.8331V9.36364H51.8164V17H50.3548V15.6776H50.2752C50.0996 16.0852 49.8178 16.425 49.43 16.6967C49.0456 16.9652 48.5666 17.0994 47.9933 17.0994C47.5027 17.0994 47.0685 16.9917 46.6907 16.7763C46.3162 16.5575 46.0212 16.2344 45.8058 15.8068C45.5936 15.3793 45.4876 14.8506 45.4876 14.2209V9.36364H46.9741V14.0419C46.9741 14.5623 47.1183 14.9766 47.4066 15.2848C47.695 15.593 48.0695 15.7472 48.5302 15.7472C48.8086 15.7472 49.0853 15.6776 49.3604 15.5384C49.6388 15.3991 49.8692 15.1887 50.0515 14.907C50.2371 14.6252 50.3282 14.2673 50.3249 13.8331ZM60.3775 17.1491C59.761 17.1491 59.2108 16.9917 58.7269 16.6768C58.2463 16.3587 57.8685 15.9062 57.5934 15.3196C57.3216 14.7296 57.1857 14.022 57.1857 13.1967C57.1857 12.3714 57.3233 11.6655 57.5984 11.0788C57.8768 10.4922 58.2579 10.0431 58.7418 9.73153C59.2257 9.41998 59.7743 9.2642 60.3874 9.2642C60.8614 9.2642 61.2425 9.34375 61.5309 9.50284C61.8226 9.65862 62.0479 9.84091 62.207 10.0497C62.3694 10.2585 62.4954 10.4425 62.5849 10.6016H62.6744V6.81818H64.1609V17H62.7092V15.8118H62.5849C62.4954 15.9742 62.3661 16.1598 62.1971 16.3686C62.0314 16.5774 61.8027 16.7597 61.511 16.9155C61.2193 17.0713 60.8415 17.1491 60.3775 17.1491ZM60.7056 15.8814C61.1332 15.8814 61.4944 15.7687 61.7894 15.5433C62.0877 15.3146 62.3131 14.9981 62.4656 14.5938C62.6213 14.1894 62.6992 13.7187 62.6992 13.1818C62.6992 12.6515 62.623 12.1875 62.4705 11.7898C62.3181 11.392 62.0943 11.0821 61.7994 10.8601C61.5044 10.638 61.1398 10.527 60.7056 10.527C60.2582 10.527 59.8853 10.643 59.587 10.875C59.2887 11.107 59.0633 11.4235 58.9109 11.8246C58.7617 12.2256 58.6871 12.678 58.6871 13.1818C58.6871 13.6922 58.7634 14.1513 58.9158 14.5589C59.0683 14.9666 59.2937 15.2898 59.592 15.5284C59.8936 15.7637 60.2648 15.8814 60.7056 15.8814ZM69.5737 17.1541C68.8213 17.1541 68.1734 16.9934 67.6298 16.6719C67.0895 16.3471 66.6719 15.8913 66.377 15.3047C66.0853 14.7147 65.9395 14.0237 65.9395 13.2315C65.9395 12.4493 66.0853 11.7599 66.377 11.1634C66.6719 10.5668 67.0829 10.1011 67.6099 9.76633C68.1402 9.43158 68.76 9.2642 69.4693 9.2642C69.9002 9.2642 70.3178 9.33546 70.7221 9.47798C71.1265 9.6205 71.4894 9.84422 71.8109 10.1491C72.1324 10.4541 72.3859 10.8501 72.5716 11.3374C72.7572 11.8213 72.85 12.4096 72.85 13.1023V13.6293H66.7797V12.5156H71.3933C71.3933 12.1245 71.3137 11.7782 71.1547 11.4766C70.9956 11.1716 70.7718 10.9313 70.4835 10.7557C70.1984 10.58 69.8637 10.4922 69.4792 10.4922C69.0616 10.4922 68.697 10.5949 68.3855 10.8004C68.0772 11.0026 67.8386 11.2678 67.6696 11.5959C67.5038 11.9207 67.421 12.2737 67.421 12.6548V13.5249C67.421 14.0353 67.5105 14.4695 67.6895 14.8274C67.8717 15.1854 68.1253 15.4588 68.4501 15.6477C68.7749 15.8333 69.1544 15.9261 69.5886 15.9261C69.8703 15.9261 70.1272 15.8864 70.3592 15.8068C70.5912 15.724 70.7917 15.6013 70.9608 15.4389C71.1298 15.2765 71.2591 15.076 71.3485 14.8374L72.7555 15.0909C72.6428 15.5052 72.4406 15.8681 72.149 16.1797C71.8606 16.4879 71.4977 16.7282 71.0602 16.9006C70.626 17.0696 70.1305 17.1541 69.5737 17.1541ZM78.3237 17V6.81818H79.8102V10.6016H79.8997C79.9859 10.4425 80.1101 10.2585 80.2725 10.0497C80.435 9.84091 80.6603 9.65862 80.9487 9.50284C81.237 9.34375 81.6182 9.2642 82.0922 9.2642C82.7086 9.2642 83.2588 9.41998 83.7427 9.73153C84.2266 10.0431 84.6061 10.4922 84.8812 11.0788C85.1596 11.6655 85.2988 12.3714 85.2988 13.1967C85.2988 14.022 85.1613 14.7296 84.8862 15.3196C84.6111 15.9062 84.2333 16.3587 83.7527 16.6768C83.2721 16.9917 82.7235 17.1491 82.1071 17.1491C81.6431 17.1491 81.2636 17.0713 80.9686 16.9155C80.6769 16.7597 80.4482 16.5774 80.2825 16.3686C80.1168 16.1598 79.9892 15.9742 79.8997 15.8118H79.7754V17H78.3237ZM79.7804 13.1818C79.7804 13.7187 79.8583 14.1894 80.014 14.5938C80.1698 14.9981 80.3952 15.3146 80.6902 15.5433C80.9851 15.7687 81.3464 15.8814 81.774 15.8814C82.2181 15.8814 82.5893 15.7637 82.8876 15.5284C83.1859 15.2898 83.4113 14.9666 83.5637 14.5589C83.7195 14.1513 83.7974 13.6922 83.7974 13.1818C83.7974 12.678 83.7212 12.2256 83.5687 11.8246C83.4196 11.4235 83.1942 11.107 82.8926 10.875C82.5943 10.643 82.2214 10.527 81.774 10.527C81.3431 10.527 80.9785 10.638 80.6802 10.8601C80.3852 11.0821 80.1615 11.392 80.0091 11.7898C79.8566 12.1875 79.7804 12.6515 79.7804 13.1818ZM90.1847 17.1541C89.4688 17.1541 88.844 16.9901 88.3104 16.6619C87.7768 16.3338 87.3625 15.8748 87.0675 15.2848C86.7725 14.6948 86.625 14.0054 86.625 13.2166C86.625 12.4245 86.7725 11.7318 87.0675 11.1385C87.3625 10.5452 87.7768 10.0845 88.3104 9.75639C88.844 9.42827 89.4688 9.2642 90.1847 9.2642C90.9006 9.2642 91.5253 9.42827 92.0589 9.75639C92.5926 10.0845 93.0069 10.5452 93.3018 11.1385C93.5968 11.7318 93.7443 12.4245 93.7443 13.2166C93.7443 14.0054 93.5968 14.6948 93.3018 15.2848C93.0069 15.8748 92.5926 16.3338 92.0589 16.6619C91.5253 16.9901 90.9006 17.1541 90.1847 17.1541ZM90.1896 15.9062C90.6536 15.9062 91.0381 15.7836 91.343 15.5384C91.648 15.2931 91.8733 14.9666 92.0192 14.5589C92.1683 14.1513 92.2429 13.7022 92.2429 13.2116C92.2429 12.7244 92.1683 12.277 92.0192 11.8693C91.8733 11.4583 91.648 11.1286 91.343 10.88C91.0381 10.6314 90.6536 10.5071 90.1896 10.5071C89.7223 10.5071 89.3345 10.6314 89.0263 10.88C88.7214 11.1286 88.4943 11.4583 88.3452 11.8693C88.1993 12.277 88.1264 12.7244 88.1264 13.2116C88.1264 13.7022 88.1993 14.1513 88.3452 14.5589C88.4943 14.9666 88.7214 15.2931 89.0263 15.5384C89.3345 15.7836 89.7223 15.9062 90.1896 15.9062ZM95.4036 17V9.36364H96.8404V10.5767H96.9199C97.0591 10.1657 97.3044 9.84257 97.6557 9.60724C98.0104 9.36861 98.4114 9.24929 98.8588 9.24929C98.9516 9.24929 99.061 9.2526 99.187 9.25923C99.3162 9.26586 99.4173 9.27415 99.4902 9.28409V10.706C99.4306 10.6894 99.3245 10.6712 99.1721 10.6513C99.0196 10.6281 98.8671 10.6165 98.7147 10.6165C98.3633 10.6165 98.0501 10.6911 97.775 10.8402C97.5033 10.986 97.2878 11.1899 97.1287 11.4517C96.9696 11.7102 96.8901 12.0052 96.8901 12.3366V17H95.4036ZM103.362 17.1491C102.745 17.1491 102.195 16.9917 101.711 16.6768C101.231 16.3587 100.853 15.9062 100.578 15.3196C100.306 14.7296 100.17 14.022 100.17 13.1967C100.17 12.3714 100.308 11.6655 100.583 11.0788C100.861 10.4922 101.242 10.0431 101.726 9.73153C102.21 9.41998 102.759 9.2642 103.372 9.2642C103.846 9.2642 104.227 9.34375 104.515 9.50284C104.807 9.65862 105.032 9.84091 105.191 10.0497C105.354 10.2585 105.48 10.4425 105.569 10.6016H105.659V6.81818H107.145V17H105.694V15.8118H105.569C105.48 15.9742 105.35 16.1598 105.181 16.3686C105.016 16.5774 104.787 16.7597 104.495 16.9155C104.204 17.0713 103.826 17.1491 103.362 17.1491ZM103.69 15.8814C104.118 15.8814 104.479 15.7687 104.774 15.5433C105.072 15.3146 105.297 14.9981 105.45 14.5938C105.606 14.1894 105.684 13.7187 105.684 13.1818C105.684 12.6515 105.607 12.1875 105.455 11.7898C105.302 11.392 105.079 11.0821 104.784 10.8601C104.489 10.638 104.124 10.527 103.69 10.527C103.243 10.527 102.87 10.643 102.571 10.875C102.273 11.107 102.048 11.4235 101.895 11.8246C101.746 12.2256 101.672 12.678 101.672 13.1818C101.672 13.6922 101.748 14.1513 101.9 14.5589C102.053 14.9666 102.278 15.2898 102.576 15.5284C102.878 15.7637 103.249 15.8814 103.69 15.8814Z"
        fill="#17418A" />
    <path d="M122 5L128 12L122 19" stroke="#919DB3" stroke-width="1.5" stroke-linecap="round" stroke-linejoin="round" />
    <path
        d="M145.415 17H142.119V6.81818H145.519C146.517 6.81818 147.374 7.02202 148.089 7.42969C148.805 7.83404 149.354 8.41572 149.735 9.17472C150.12 9.9304 150.312 10.8369 150.312 11.8942C150.312 12.9548 150.118 13.8662 149.73 14.6286C149.346 15.3909 148.789 15.9775 148.06 16.3885C147.33 16.7962 146.449 17 145.415 17ZM143.655 15.6577H145.33C146.106 15.6577 146.75 15.5118 147.264 15.2202C147.778 14.9252 148.162 14.4993 148.418 13.9425C148.673 13.3823 148.8 12.6996 148.8 11.8942C148.8 11.0954 148.673 10.4176 148.418 9.8608C148.166 9.30398 147.79 8.88139 147.289 8.59304C146.789 8.30469 146.167 8.16051 145.425 8.16051H143.655V15.6577ZM155.394 17.1541C154.642 17.1541 153.994 16.9934 153.45 16.6719C152.91 16.3471 152.492 15.8913 152.197 15.3047C151.906 14.7147 151.76 14.0237 151.76 13.2315C151.76 12.4493 151.906 11.7599 152.197 11.1634C152.492 10.5668 152.903 10.1011 153.43 9.76633C153.961 9.43158 154.58 9.2642 155.29 9.2642C155.72 9.2642 156.138 9.33546 156.542 9.47798C156.947 9.6205 157.31 9.84422 157.631 10.1491C157.953 10.4541 158.206 10.8501 158.392 11.3374C158.577 11.8213 158.67 12.4096 158.67 13.1023V13.6293H152.6V12.5156H157.214C157.214 12.1245 157.134 11.7782 156.975 11.4766C156.816 11.1716 156.592 10.9313 156.304 10.7557C156.019 10.58 155.684 10.4922 155.3 10.4922C154.882 10.4922 154.517 10.5949 154.206 10.8004C153.898 11.0026 153.659 11.2678 153.49 11.5959C153.324 11.9207 153.241 12.2737 153.241 12.6548V13.5249C153.241 14.0353 153.331 14.4695 153.51 14.8274C153.692 15.1854 153.946 15.4588 154.27 15.6477C154.595 15.8333 154.975 15.9261 155.409 15.9261C155.691 15.9261 155.948 15.8864 156.18 15.8068C156.412 15.724 156.612 15.6013 156.781 15.4389C156.95 15.2765 157.079 15.076 157.169 14.8374L158.576 15.0909C158.463 15.5052 158.261 15.8681 157.969 16.1797C157.681 16.4879 157.318 16.7282 156.881 16.9006C156.446 17.0696 155.951 17.1541 155.394 17.1541ZM154.618 8.34446L155.782 6.05256H157.348L155.807 8.34446H154.618ZM163.884 9.36364V10.5568H159.713V9.36364H163.884ZM160.832 7.53409H162.318V14.7578C162.318 15.0462 162.361 15.2633 162.447 15.4091C162.534 15.5516 162.645 15.6494 162.781 15.7024C162.92 15.7521 163.071 15.777 163.233 15.777C163.352 15.777 163.457 15.7687 163.546 15.7521C163.636 15.7356 163.705 15.7223 163.755 15.7124L164.023 16.9403C163.937 16.9735 163.815 17.0066 163.656 17.0398C163.496 17.0762 163.298 17.0961 163.059 17.0994C162.668 17.1061 162.303 17.0365 161.965 16.8906C161.627 16.7448 161.354 16.5194 161.145 16.2145C160.936 15.9096 160.832 15.5268 160.832 15.0661V7.53409ZM167.751 17.169C167.267 17.169 166.829 17.0795 166.438 16.9006C166.047 16.7183 165.737 16.4548 165.509 16.1101C165.283 15.7654 165.171 15.3428 165.171 14.8423C165.171 14.4115 165.253 14.0568 165.419 13.7784C165.585 13.5 165.809 13.2796 166.09 13.1172C166.372 12.9548 166.687 12.8321 167.035 12.7493C167.383 12.6664 167.738 12.6035 168.099 12.5604C168.556 12.5073 168.927 12.4643 169.213 12.4311C169.498 12.3946 169.705 12.3366 169.834 12.2571C169.963 12.1776 170.028 12.0483 170.028 11.8693V11.8345C170.028 11.4003 169.905 11.0639 169.66 10.8253C169.418 10.5866 169.057 10.4673 168.576 10.4673C168.076 10.4673 167.681 10.5784 167.393 10.8004C167.108 11.0192 166.911 11.2628 166.801 11.5312L165.404 11.2131C165.57 10.7491 165.812 10.3745 166.13 10.0895C166.452 9.80114 166.821 9.59233 167.239 9.46307C167.656 9.33049 168.096 9.2642 168.556 9.2642C168.861 9.2642 169.184 9.30066 169.526 9.37358C169.87 9.44318 170.192 9.57244 170.49 9.76136C170.792 9.95028 171.039 10.2204 171.231 10.5717C171.423 10.9197 171.519 11.3722 171.519 11.929V17H170.068V15.956H170.008C169.912 16.1482 169.768 16.3371 169.575 16.5227C169.383 16.7083 169.136 16.8625 168.835 16.9851C168.533 17.1077 168.172 17.169 167.751 17.169ZM168.074 15.9759C168.485 15.9759 168.836 15.8946 169.128 15.7322C169.423 15.5698 169.647 15.3577 169.799 15.0959C169.955 14.8307 170.033 14.5473 170.033 14.2457V13.2614C169.98 13.3144 169.877 13.3641 169.725 13.4105C169.575 13.4536 169.405 13.4917 169.213 13.5249C169.02 13.5547 168.833 13.5829 168.651 13.6094C168.468 13.6326 168.316 13.6525 168.193 13.669C167.905 13.7055 167.642 13.7668 167.403 13.853C167.168 13.9392 166.979 14.0634 166.836 14.2259C166.697 14.3849 166.627 14.5971 166.627 14.8622C166.627 15.2301 166.763 15.5085 167.035 15.6974C167.307 15.883 167.653 15.9759 168.074 15.9759ZM173.499 17V9.36364H174.986V17H173.499ZM174.25 8.18537C173.991 8.18537 173.769 8.09919 173.584 7.92685C173.402 7.75118 173.31 7.54238 173.31 7.30043C173.31 7.05516 173.402 6.84635 173.584 6.67401C173.769 6.49834 173.991 6.41051 174.25 6.41051C174.509 6.41051 174.729 6.49834 174.911 6.67401C175.097 6.84635 175.19 7.05516 175.19 7.30043C175.19 7.54238 175.097 7.75118 174.911 7.92685C174.729 8.09919 174.509 8.18537 174.25 8.18537ZM178.472 6.81818V17H176.986V6.81818H178.472ZM186.194 11.228L184.847 11.4666C184.791 11.2943 184.701 11.1302 184.578 10.9744C184.459 10.8187 184.297 10.6911 184.091 10.5916C183.886 10.4922 183.629 10.4425 183.321 10.4425C182.9 10.4425 182.548 10.5369 182.267 10.7259C181.985 10.9115 181.844 11.1518 181.844 11.4467C181.844 11.7019 181.939 11.9074 182.127 12.0632C182.316 12.219 182.621 12.3466 183.042 12.446L184.255 12.7244C184.958 12.8868 185.482 13.1371 185.826 13.4751C186.171 13.8132 186.343 14.2524 186.343 14.7926C186.343 15.25 186.211 15.6577 185.946 16.0156C185.684 16.3703 185.318 16.6487 184.847 16.8509C184.38 17.053 183.838 17.1541 183.221 17.1541C182.366 17.1541 181.668 16.9718 181.128 16.6072C180.588 16.2393 180.257 15.7173 180.134 15.0412L181.571 14.8224C181.66 15.197 181.844 15.4804 182.123 15.6726C182.401 15.8615 182.764 15.956 183.211 15.956C183.699 15.956 184.088 15.8549 184.38 15.6527C184.671 15.4472 184.817 15.197 184.817 14.902C184.817 14.6634 184.728 14.4628 184.549 14.3004C184.373 14.138 184.103 14.0154 183.738 13.9325L182.446 13.6491C181.733 13.4867 181.206 13.2282 180.865 12.8736C180.527 12.5189 180.358 12.0698 180.358 11.5263C180.358 11.0755 180.484 10.6811 180.735 10.343C180.987 10.005 181.335 9.74148 181.779 9.55256C182.224 9.36032 182.732 9.2642 183.306 9.2642C184.131 9.2642 184.781 9.44318 185.255 9.80114C185.729 10.1558 186.042 10.6314 186.194 11.228ZM194.542 17.1491C193.925 17.1491 193.375 16.9917 192.891 16.6768C192.41 16.3587 192.033 15.9062 191.757 15.3196C191.486 14.7296 191.35 14.022 191.35 13.1967C191.35 12.3714 191.487 11.6655 191.762 11.0788C192.041 10.4922 192.422 10.0431 192.906 9.73153C193.39 9.41998 193.938 9.2642 194.551 9.2642C195.025 9.2642 195.407 9.34375 195.695 9.50284C195.987 9.65862 196.212 9.84091 196.371 10.0497C196.533 10.2585 196.659 10.4425 196.749 10.6016H196.838V6.81818H198.325V17H196.873V15.8118H196.749C196.659 15.9742 196.53 16.1598 196.361 16.3686C196.195 16.5774 195.967 16.7597 195.675 16.9155C195.383 17.0713 195.006 17.1491 194.542 17.1491ZM194.87 15.8814C195.297 15.8814 195.658 15.7687 195.953 15.5433C196.252 15.3146 196.477 14.9981 196.63 14.5938C196.785 14.1894 196.863 13.7187 196.863 13.1818C196.863 12.6515 196.787 12.1875 196.635 11.7898C196.482 11.392 196.258 11.0821 195.963 10.8601C195.668 10.638 195.304 10.527 194.87 10.527C194.422 10.527 194.049 10.643 193.751 10.875C193.453 11.107 193.227 11.4235 193.075 11.8246C192.926 12.2256 192.851 12.678 192.851 13.1818C192.851 13.6922 192.927 14.1513 193.08 14.5589C193.232 14.9666 193.458 15.2898 193.756 15.5284C194.058 15.7637 194.429 15.8814 194.87 15.8814ZM205.284 13.8331V9.36364H206.775V17H205.314V15.6776H205.234C205.059 16.0852 204.777 16.425 204.389 16.6967C204.005 16.9652 203.526 17.0994 202.952 17.0994C202.462 17.0994 202.028 16.9917 201.65 16.7763C201.275 16.5575 200.98 16.2344 200.765 15.8068C200.553 15.3793 200.447 14.8506 200.447 14.2209V9.36364H201.933V14.0419C201.933 14.5623 202.077 14.9766 202.366 15.2848C202.654 15.593 203.028 15.7472 203.489 15.7472C203.768 15.7472 204.044 15.6776 204.319 15.5384C204.598 15.3991 204.828 15.1887 205.01 14.907C205.196 14.6252 205.287 14.2673 205.284 13.8331ZM212.478 19.8636V9.36364H213.93V10.6016H214.054C214.14 10.4425 214.264 10.2585 214.427 10.0497C214.589 9.84091 214.814 9.65862 215.103 9.50284C215.391 9.34375 215.772 9.2642 216.246 9.2642C216.863 9.2642 217.413 9.41998 217.897 9.73153C218.381 10.0431 218.76 10.4922 219.035 11.0788C219.314 11.6655 219.453 12.3714 219.453 13.1967C219.453 14.022 219.315 14.7296 219.04 15.3196C218.765 15.9062 218.387 16.3587 217.907 16.6768C217.426 16.9917 216.878 17.1491 216.261 17.1491C215.797 17.1491 215.418 17.0713 215.123 16.9155C214.831 16.7597 214.602 16.5774 214.437 16.3686C214.271 16.1598 214.143 15.9742 214.054 15.8118H213.964V19.8636H212.478ZM213.934 13.1818C213.934 13.7187 214.012 14.1894 214.168 14.5938C214.324 14.9981 214.549 15.3146 214.844 15.5433C215.139 15.7687 215.501 15.8814 215.928 15.8814C216.372 15.8814 216.743 15.7637 217.042 15.5284C217.34 15.2898 217.565 14.9666 217.718 14.5589C217.874 14.1513 217.952 13.6922 217.952 13.1818C217.952 12.678 217.875 12.2256 217.723 11.8246C217.574 11.4235 217.348 11.107 217.047 10.875C216.748 10.643 216.376 10.527 215.928 10.527C215.497 10.527 215.133 10.638 214.834 10.8601C214.539 11.0821 214.316 11.392 214.163 11.7898C214.011 12.1875 213.934 12.6515 213.934 13.1818ZM221.118 17V9.36364H222.555V10.5767H222.635C222.774 10.1657 223.019 9.84257 223.371 9.60724C223.725 9.36861 224.126 9.24929 224.574 9.24929C224.666 9.24929 224.776 9.2526 224.902 9.25923C225.031 9.26586 225.132 9.27415 225.205 9.28409V10.706C225.145 10.6894 225.039 10.6712 224.887 10.6513C224.734 10.6281 224.582 10.6165 224.43 10.6165C224.078 10.6165 223.765 10.6911 223.49 10.8402C223.218 10.986 223.003 11.1899 222.844 11.4517C222.684 11.7102 222.605 12.0052 222.605 12.3366V17H221.118ZM229.435 17.1541C228.719 17.1541 228.094 16.9901 227.56 16.6619C227.027 16.3338 226.612 15.8748 226.317 15.2848C226.022 14.6948 225.875 14.0054 225.875 13.2166C225.875 12.4245 226.022 11.7318 226.317 11.1385C226.612 10.5452 227.027 10.0845 227.56 9.75639C228.094 9.42827 228.719 9.2642 229.435 9.2642C230.151 9.2642 230.775 9.42827 231.309 9.75639C231.843 10.0845 232.257 10.5452 232.552 11.1385C232.847 11.7318 232.994 12.4245 232.994 13.2166C232.994 14.0054 232.847 14.6948 232.552 15.2848C232.257 15.8748 231.843 16.3338 231.309 16.6619C230.775 16.9901 230.151 17.1541 229.435 17.1541ZM229.44 15.9062C229.904 15.9062 230.288 15.7836 230.593 15.5384C230.898 15.2931 231.123 14.9666 231.269 14.5589C231.418 14.1513 231.493 13.7022 231.493 13.2116C231.493 12.7244 231.418 12.277 231.269 11.8693C231.123 11.4583 230.898 11.1286 230.593 10.88C230.288 10.6314 229.904 10.5071 229.44 10.5071C228.972 10.5071 228.585 10.6314 228.276 10.88C227.971 11.1286 227.744 11.4583 227.595 11.8693C227.449 12.277 227.376 12.7244 227.376 13.2116C227.376 13.7022 227.449 14.1513 227.595 14.5589C227.744 14.9666 227.971 15.2931 228.276 15.5384C228.585 15.7836 228.972 15.9062 229.44 15.9062ZM234.654 9.36364H236.14V17.4972C236.14 18.0076 236.047 18.4384 235.862 18.7898C235.679 19.1411 235.408 19.4079 235.046 19.5902C234.688 19.7725 234.246 19.8636 233.719 19.8636C233.666 19.8636 233.616 19.8636 233.57 19.8636C233.52 19.8636 233.469 19.862 233.416 19.8587V18.581C233.462 18.581 233.503 18.581 233.54 18.581C233.573 18.581 233.611 18.581 233.654 18.581C234.006 18.581 234.259 18.4865 234.415 18.2976C234.574 18.112 234.654 17.8419 234.654 17.4872V9.36364ZM235.389 8.18537C235.131 8.18537 234.909 8.09919 234.723 7.92685C234.541 7.75118 234.45 7.54238 234.45 7.30043C234.45 7.05516 234.541 6.84635 234.723 6.67401C234.909 6.49834 235.131 6.41051 235.389 6.41051C235.648 6.41051 235.868 6.49834 236.051 6.67401C236.236 6.84635 236.329 7.05516 236.329 7.30043C236.329 7.54238 236.236 7.75118 236.051 7.92685C235.868 8.09919 235.648 8.18537 235.389 8.18537ZM241.431 17.1541C240.679 17.1541 240.031 16.9934 239.487 16.6719C238.947 16.3471 238.529 15.8913 238.234 15.3047C237.943 14.7147 237.797 14.0237 237.797 13.2315C237.797 12.4493 237.943 11.7599 238.234 11.1634C238.529 10.5668 238.94 10.1011 239.467 9.76633C239.998 9.43158 240.617 9.2642 241.327 9.2642C241.758 9.2642 242.175 9.33546 242.58 9.47798C242.984 9.6205 243.347 9.84422 243.668 10.1491C243.99 10.4541 244.243 10.8501 244.429 11.3374C244.615 11.8213 244.707 12.4096 244.707 13.1023V13.6293H238.637V12.5156H243.251C243.251 12.1245 243.171 11.7782 243.012 11.4766C242.853 11.1716 242.629 10.9313 242.341 10.7557C242.056 10.58 241.721 10.4922 241.337 10.4922C240.919 10.4922 240.554 10.5949 240.243 10.8004C239.935 11.0026 239.696 11.2678 239.527 11.5959C239.361 11.9207 239.278 12.2737 239.278 12.6548V13.5249C239.278 14.0353 239.368 14.4695 239.547 14.8274C239.729 15.1854 239.983 15.4588 240.308 15.6477C240.632 15.8333 241.012 15.9261 241.446 15.9261C241.728 15.9261 241.985 15.8864 242.217 15.8068C242.449 15.724 242.649 15.6013 242.818 15.4389C242.987 15.2765 243.116 15.076 243.206 14.8374L244.613 15.0909C244.5 15.5052 244.298 15.8681 244.006 16.1797C243.718 16.4879 243.355 16.7282 242.918 16.9006C242.483 17.0696 241.988 17.1541 241.431 17.1541ZM249.921 9.36364V10.5568H245.75V9.36364H249.921ZM246.869 7.53409H248.355V14.7578C248.355 15.0462 248.398 15.2633 248.485 15.4091C248.571 15.5516 248.682 15.6494 248.818 15.7024C248.957 15.7521 249.108 15.777 249.27 15.777C249.389 15.777 249.494 15.7687 249.583 15.7521C249.673 15.7356 249.742 15.7223 249.792 15.7124L250.061 16.9403C249.974 16.9735 249.852 17.0066 249.693 17.0398C249.534 17.0762 249.335 17.0961 249.096 17.0994C248.705 17.1061 248.34 17.0365 248.002 16.8906C247.664 16.7448 247.391 16.5194 247.182 16.2145C246.973 15.9096 246.869 15.5268 246.869 15.0661V7.53409Z"
        fill="#17418A" />
    <path d="M264 5L270 12L264 19" stroke="#919DB3" stroke-width="1.5" stroke-linecap="round" stroke-linejoin="round" />
    <path
        d="M287.375 17H284.233V6.81818H287.514C288.502 6.81818 289.347 7.02202 290.05 7.42969C290.752 7.83404 291.291 8.41572 291.665 9.17472C292.04 9.9304 292.227 10.8352 292.227 11.8892C292.227 12.9498 292.038 13.8629 291.661 14.6286C291.283 15.3909 290.732 15.9775 290.01 16.3885C289.287 16.7962 288.409 17 287.375 17ZM285.466 15.9062H287.295C288.137 15.9062 288.835 15.7438 289.388 15.419C289.942 15.0942 290.355 14.6319 290.626 14.032C290.898 13.4321 291.034 12.7178 291.034 11.8892C291.034 11.0672 290.9 10.3596 290.631 9.76633C290.363 9.16974 289.962 8.71236 289.428 8.39418C288.895 8.07268 288.23 7.91193 287.435 7.91193H285.466V15.9062ZM297.338 17.1591C296.602 17.1591 295.968 16.9967 295.434 16.6719C294.904 16.3438 294.494 15.8864 294.206 15.2997C293.921 14.7098 293.778 14.0237 293.778 13.2415C293.778 12.4593 293.921 11.7699 294.206 11.1733C294.494 10.5734 294.895 10.1061 295.409 9.77131C295.926 9.43324 296.529 9.2642 297.219 9.2642C297.616 9.2642 298.009 9.33049 298.397 9.46307C298.785 9.59564 299.138 9.81108 299.456 10.1094C299.774 10.4044 300.028 10.7955 300.217 11.2827C300.406 11.7699 300.5 12.3698 300.5 13.0824V13.5795H294.614V12.5653H299.307C299.307 12.1345 299.221 11.75 299.048 11.4119C298.879 11.0739 298.637 10.8071 298.322 10.6115C298.011 10.416 297.643 10.3182 297.219 10.3182C296.751 10.3182 296.347 10.4342 296.006 10.6662C295.668 10.8949 295.407 11.1932 295.225 11.5611C295.043 11.929 294.952 12.3234 294.952 12.7443V13.4205C294.952 13.9972 295.051 14.486 295.25 14.8871C295.452 15.2848 295.732 15.5881 296.09 15.7969C296.448 16.0024 296.864 16.1051 297.338 16.1051C297.646 16.1051 297.925 16.062 298.173 15.9759C298.425 15.8864 298.642 15.7538 298.825 15.5781C299.007 15.3991 299.148 15.1771 299.247 14.9119L300.381 15.2301C300.261 15.6146 300.061 15.9527 299.779 16.2443C299.497 16.5327 299.149 16.758 298.735 16.9205C298.321 17.0795 297.855 17.1591 297.338 17.1591ZM296.622 8.32955L297.835 6.02273H299.207L297.656 8.32955H296.622ZM305.606 9.36364V10.358H301.648V9.36364H305.606ZM302.802 7.53409H303.975V14.8125C303.975 15.1439 304.023 15.3925 304.119 15.5582C304.219 15.7206 304.345 15.83 304.497 15.8864C304.653 15.9394 304.817 15.9659 304.989 15.9659C305.119 15.9659 305.225 15.9593 305.308 15.946C305.39 15.9295 305.457 15.9162 305.506 15.9062L305.745 16.9602C305.665 16.9901 305.554 17.0199 305.412 17.0497C305.269 17.0829 305.089 17.0994 304.87 17.0994C304.539 17.0994 304.214 17.0282 303.896 16.8857C303.581 16.7431 303.319 16.526 303.11 16.2344C302.905 15.9427 302.802 15.5748 302.802 15.1307V7.53409ZM309.618 17.179C309.134 17.179 308.695 17.0878 308.3 16.9055C307.906 16.7199 307.593 16.4531 307.361 16.1051C307.129 15.7538 307.013 15.3295 307.013 14.8324C307.013 14.3949 307.099 14.0402 307.271 13.7685C307.444 13.4934 307.674 13.2779 307.962 13.1222C308.251 12.9664 308.569 12.8504 308.917 12.7741C309.268 12.6946 309.621 12.6316 309.976 12.5852C310.44 12.5256 310.816 12.4808 311.104 12.451C311.396 12.4179 311.608 12.3632 311.741 12.2869C311.877 12.2107 311.945 12.0781 311.945 11.8892V11.8494C311.945 11.3589 311.81 10.9777 311.542 10.706C311.277 10.4342 310.874 10.2983 310.334 10.2983C309.774 10.2983 309.335 10.4209 309.016 10.6662C308.698 10.9115 308.474 11.1733 308.345 11.4517L307.232 11.054C307.43 10.59 307.696 10.2287 308.027 9.97017C308.362 9.70833 308.726 9.52604 309.121 9.4233C309.518 9.31723 309.91 9.2642 310.294 9.2642C310.539 9.2642 310.821 9.29403 311.139 9.35369C311.461 9.41004 311.771 9.5277 312.069 9.70668C312.371 9.88565 312.621 10.1558 312.82 10.517C313.018 10.8783 313.118 11.3622 313.118 11.9688V17H311.945V15.9659H311.885C311.805 16.1316 311.673 16.3089 311.487 16.4979C311.302 16.6868 311.055 16.8475 310.746 16.9801C310.438 17.1127 310.062 17.179 309.618 17.179ZM309.797 16.125C310.261 16.125 310.652 16.0339 310.97 15.8516C311.292 15.6693 311.534 15.4339 311.696 15.1456C311.862 14.8572 311.945 14.554 311.945 14.2358V13.1619C311.895 13.2216 311.786 13.2763 311.616 13.326C311.451 13.3724 311.259 13.4138 311.04 13.4503C310.824 13.4834 310.614 13.5133 310.408 13.5398C310.206 13.563 310.042 13.5829 309.916 13.5994C309.611 13.6392 309.326 13.7038 309.061 13.7933C308.799 13.8795 308.587 14.0104 308.425 14.1861C308.266 14.3584 308.186 14.5937 308.186 14.892C308.186 15.2997 308.337 15.608 308.638 15.8168C308.943 16.0223 309.33 16.125 309.797 16.125ZM315.259 17V9.36364H316.433V17H315.259ZM315.856 8.09091C315.627 8.09091 315.43 8.01302 315.264 7.85724C315.102 7.70147 315.021 7.5142 315.021 7.29545C315.021 7.0767 315.102 6.88944 315.264 6.73366C315.43 6.57789 315.627 6.5 315.856 6.5C316.085 6.5 316.28 6.57789 316.443 6.73366C316.608 6.88944 316.691 7.0767 316.691 7.29545C316.691 7.5142 316.608 7.70147 316.443 7.85724C316.28 8.01302 316.085 8.09091 315.856 8.09091ZM319.755 6.81818V17H318.582V6.81818H319.755ZM327.313 11.0739L326.259 11.3722C326.193 11.1965 326.095 11.0258 325.966 10.8601C325.84 10.6911 325.667 10.5518 325.449 10.4425C325.23 10.3331 324.95 10.2784 324.608 10.2784C324.141 10.2784 323.752 10.3861 323.44 10.6016C323.132 10.8137 322.978 11.0838 322.978 11.4119C322.978 11.7036 323.084 11.9339 323.296 12.103C323.508 12.272 323.84 12.4129 324.29 12.5256L325.424 12.804C326.107 12.9697 326.615 13.2232 326.95 13.5646C327.285 13.9027 327.452 14.3385 327.452 14.8722C327.452 15.3097 327.326 15.7008 327.074 16.0455C326.826 16.3902 326.478 16.6619 326.03 16.8608C325.583 17.0597 325.063 17.1591 324.469 17.1591C323.69 17.1591 323.046 16.9901 322.535 16.652C322.025 16.3139 321.702 15.8201 321.566 15.1705L322.68 14.892C322.786 15.303 322.986 15.6113 323.281 15.8168C323.579 16.0223 323.969 16.125 324.449 16.125C324.996 16.125 325.43 16.009 325.752 15.777C326.077 15.5417 326.239 15.2599 326.239 14.9318C326.239 14.6667 326.146 14.4446 325.961 14.2656C325.775 14.0833 325.49 13.9474 325.106 13.858L323.833 13.5597C323.134 13.3939 322.62 13.1371 322.292 12.7891C321.967 12.4377 321.805 11.9986 321.805 11.4716C321.805 11.0407 321.925 10.6596 322.167 10.3281C322.413 9.99669 322.746 9.73651 323.167 9.54758C323.591 9.35866 324.072 9.2642 324.608 9.2642C325.364 9.2642 325.957 9.42992 326.388 9.76136C326.823 10.0928 327.131 10.5303 327.313 11.0739ZM336.039 17.1591C335.403 17.1591 334.841 16.9983 334.354 16.6768C333.867 16.352 333.486 15.8946 333.211 15.3047C332.935 14.7114 332.798 14.0104 332.798 13.2017C332.798 12.3996 332.935 11.7036 333.211 11.1136C333.486 10.5237 333.868 10.0679 334.359 9.74645C334.85 9.42495 335.416 9.2642 336.059 9.2642C336.556 9.2642 336.949 9.34706 337.238 9.51278C337.529 9.67519 337.751 9.8608 337.904 10.0696C338.06 10.2751 338.181 10.4441 338.267 10.5767H338.366V6.81818H339.539V17H338.406V15.8267H338.267C338.181 15.9659 338.058 16.1416 337.899 16.3537C337.74 16.5625 337.513 16.7498 337.218 16.9155C336.923 17.0779 336.53 17.1591 336.039 17.1591ZM336.199 16.1051C336.669 16.1051 337.067 15.9825 337.392 15.7372C337.717 15.4886 337.963 15.1456 338.132 14.7081C338.301 14.2673 338.386 13.7585 338.386 13.1818C338.386 12.6117 338.303 12.1129 338.137 11.6854C337.972 11.2545 337.726 10.9197 337.402 10.6811C337.077 10.4392 336.676 10.3182 336.199 10.3182C335.701 10.3182 335.287 10.4458 334.956 10.701C334.627 10.9529 334.381 11.2959 334.215 11.7301C334.052 12.161 333.971 12.6449 333.971 13.1818C333.971 13.7254 334.054 14.2192 334.22 14.6634C334.389 15.1042 334.637 15.4555 334.966 15.7173C335.297 15.9759 335.708 16.1051 336.199 16.1051ZM345.053 17.1591C344.317 17.1591 343.682 16.9967 343.149 16.6719C342.618 16.3438 342.209 15.8864 341.921 15.2997C341.636 14.7098 341.493 14.0237 341.493 13.2415C341.493 12.4593 341.636 11.7699 341.921 11.1733C342.209 10.5734 342.61 10.1061 343.124 9.77131C343.641 9.43324 344.244 9.2642 344.934 9.2642C345.331 9.2642 345.724 9.33049 346.112 9.46307C346.5 9.59564 346.853 9.81108 347.171 10.1094C347.489 10.4044 347.743 10.7955 347.931 11.2827C348.12 11.7699 348.215 12.3698 348.215 13.0824V13.5795H342.328V12.5653H347.022C347.022 12.1345 346.935 11.75 346.763 11.4119C346.594 11.0739 346.352 10.8071 346.037 10.6115C345.726 10.416 345.358 10.3182 344.934 10.3182C344.466 10.3182 344.062 10.4342 343.721 10.6662C343.382 10.8949 343.122 11.1932 342.94 11.5611C342.758 11.929 342.667 12.3234 342.667 12.7443V13.4205C342.667 13.9972 342.766 14.486 342.965 14.8871C343.167 15.2848 343.447 15.5881 343.805 15.7969C344.163 16.0024 344.579 16.1051 345.053 16.1051C345.361 16.1051 345.64 16.062 345.888 15.9759C346.14 15.8864 346.357 15.7538 346.539 15.5781C346.722 15.3991 346.863 15.1771 346.962 14.9119L348.096 15.2301C347.976 15.6146 347.776 15.9527 347.494 16.2443C347.212 16.5327 346.864 16.758 346.45 16.9205C346.036 17.0795 345.57 17.1591 345.053 17.1591ZM355.11 6.81818V17H353.937V6.81818H355.11ZM359.507 17.179C359.023 17.179 358.584 17.0878 358.189 16.9055C357.795 16.7199 357.481 16.4531 357.249 16.1051C357.017 15.7538 356.901 15.3295 356.901 14.8324C356.901 14.3949 356.988 14.0402 357.16 13.7685C357.332 13.4934 357.563 13.2779 357.851 13.1222C358.139 12.9664 358.458 12.8504 358.806 12.7741C359.157 12.6946 359.51 12.6316 359.865 12.5852C360.329 12.5256 360.705 12.4808 360.993 12.451C361.285 12.4179 361.497 12.3632 361.629 12.2869C361.765 12.2107 361.833 12.0781 361.833 11.8892V11.8494C361.833 11.3589 361.699 10.9777 361.431 10.706C361.165 10.4342 360.763 10.2983 360.222 10.2983C359.662 10.2983 359.223 10.4209 358.905 10.6662C358.587 10.9115 358.363 11.1733 358.234 11.4517L357.12 11.054C357.319 10.59 357.584 10.2287 357.916 9.97017C358.25 9.70833 358.615 9.52604 359.009 9.4233C359.407 9.31723 359.798 9.2642 360.183 9.2642C360.428 9.2642 360.71 9.29403 361.028 9.35369C361.349 9.41004 361.659 9.5277 361.958 9.70668C362.259 9.88565 362.509 10.1558 362.708 10.517C362.907 10.8783 363.007 11.3622 363.007 11.9688V17H361.833V15.9659H361.774C361.694 16.1316 361.561 16.3089 361.376 16.4979C361.19 16.6868 360.943 16.8475 360.635 16.9801C360.327 17.1127 359.951 17.179 359.507 17.179ZM359.686 16.125C360.15 16.125 360.541 16.0339 360.859 15.8516C361.18 15.6693 361.422 15.4339 361.585 15.1456C361.75 14.8572 361.833 14.554 361.833 14.2358V13.1619C361.784 13.2216 361.674 13.2763 361.505 13.326C361.339 13.3724 361.147 13.4138 360.928 13.4503C360.713 13.4834 360.503 13.5133 360.297 13.5398C360.095 13.563 359.931 13.5829 359.805 13.5994C359.5 13.6392 359.215 13.7038 358.95 13.7933C358.688 13.8795 358.476 14.0104 358.313 14.1861C358.154 14.3584 358.075 14.5937 358.075 14.892C358.075 15.2997 358.226 15.608 358.527 15.8168C358.832 16.0223 359.218 16.125 359.686 16.125ZM371.969 17.1591C371.333 17.1591 370.771 16.9983 370.284 16.6768C369.797 16.352 369.415 15.8946 369.14 15.3047C368.865 14.7114 368.728 14.0104 368.728 13.2017C368.728 12.3996 368.865 11.7036 369.14 11.1136C369.415 10.5237 369.798 10.0679 370.289 9.74645C370.779 9.42495 371.346 9.2642 371.989 9.2642C372.486 9.2642 372.879 9.34706 373.167 9.51278C373.459 9.67519 373.681 9.8608 373.833 10.0696C373.989 10.2751 374.11 10.4441 374.196 10.5767H374.296V6.81818H375.469V17H374.336V15.8267H374.196C374.11 15.9659 373.988 16.1416 373.828 16.3537C373.669 16.5625 373.442 16.7498 373.147 16.9155C372.852 17.0779 372.46 17.1591 371.969 17.1591ZM372.128 16.1051C372.599 16.1051 372.997 15.9825 373.321 15.7372C373.646 15.4886 373.893 15.1456 374.062 14.7081C374.231 14.2673 374.316 13.7585 374.316 13.1818C374.316 12.6117 374.233 12.1129 374.067 11.6854C373.901 11.2545 373.656 10.9197 373.331 10.6811C373.007 10.4392 372.605 10.3182 372.128 10.3182C371.631 10.3182 371.217 10.4458 370.885 10.701C370.557 10.9529 370.31 11.2959 370.145 11.7301C369.982 12.161 369.901 12.6449 369.901 13.1818C369.901 13.7254 369.984 14.2192 370.15 14.6634C370.319 15.1042 370.567 15.4555 370.895 15.7173C371.227 15.9759 371.638 16.1051 372.128 16.1051ZM380.983 17.1591C380.247 17.1591 379.612 16.9967 379.078 16.6719C378.548 16.3438 378.139 15.8864 377.85 15.2997C377.565 14.7098 377.423 14.0237 377.423 13.2415C377.423 12.4593 377.565 11.7699 377.85 11.1733C378.139 10.5734 378.54 10.1061 379.054 9.77131C379.571 9.43324 380.174 9.2642 380.863 9.2642C381.261 9.2642 381.654 9.33049 382.042 9.46307C382.429 9.59564 382.782 9.81108 383.1 10.1094C383.419 10.4044 383.672 10.7955 383.861 11.2827C384.05 11.7699 384.145 12.3698 384.145 13.0824V13.5795H378.258V12.5653H382.951C382.951 12.1345 382.865 11.75 382.693 11.4119C382.524 11.0739 382.282 10.8071 381.967 10.6115C381.655 10.416 381.288 10.3182 380.863 10.3182C380.396 10.3182 379.992 10.4342 379.65 10.6662C379.312 10.8949 379.052 11.1932 378.87 11.5611C378.687 11.929 378.596 12.3234 378.596 12.7443V13.4205C378.596 13.9972 378.696 14.486 378.895 14.8871C379.097 15.2848 379.377 15.5881 379.735 15.7969C380.093 16.0024 380.509 16.1051 380.983 16.1051C381.291 16.1051 381.569 16.062 381.818 15.9759C382.07 15.8864 382.287 15.7538 382.469 15.5781C382.651 15.3991 382.792 15.1771 382.892 14.9119L384.025 15.2301C383.906 15.6146 383.705 15.9527 383.424 16.2443C383.142 16.5327 382.794 16.758 382.38 16.9205C381.965 17.0795 381.5 17.1591 380.983 17.1591ZM385.929 17V9.36364H387.063V10.5568H387.162C387.321 10.1491 387.578 9.83262 387.933 9.60724C388.288 9.37855 388.713 9.2642 389.211 9.2642C389.714 9.2642 390.134 9.37855 390.468 9.60724C390.806 9.83262 391.07 10.1491 391.259 10.5568H391.338C391.534 10.1624 391.827 9.84919 392.218 9.61719C392.609 9.38187 393.078 9.2642 393.625 9.2642C394.308 9.2642 394.867 9.47798 395.301 9.90554C395.735 10.3298 395.952 10.991 395.952 11.8892V17H394.779V11.8892C394.779 11.3258 394.625 10.9231 394.316 10.6811C394.008 10.4392 393.645 10.3182 393.228 10.3182C392.691 10.3182 392.275 10.4806 391.98 10.8054C391.685 11.1269 391.537 11.5346 391.537 12.0284V17H390.344V11.7699C390.344 11.3357 390.203 10.986 389.922 10.7209C389.64 10.4524 389.277 10.3182 388.833 10.3182C388.528 10.3182 388.243 10.3994 387.978 10.5618C387.716 10.7242 387.504 10.9496 387.341 11.2379C387.182 11.523 387.103 11.8527 387.103 12.2273V17H385.929ZM400.344 17.179C399.861 17.179 399.421 17.0878 399.027 16.9055C398.633 16.7199 398.319 16.4531 398.087 16.1051C397.855 15.7538 397.739 15.3295 397.739 14.8324C397.739 14.3949 397.826 14.0402 397.998 13.7685C398.17 13.4934 398.401 13.2779 398.689 13.1222C398.977 12.9664 399.295 12.8504 399.643 12.7741C399.995 12.6946 400.348 12.6316 400.702 12.5852C401.166 12.5256 401.543 12.4808 401.831 12.451C402.123 12.4179 402.335 12.3632 402.467 12.2869C402.603 12.2107 402.671 12.0781 402.671 11.8892V11.8494C402.671 11.3589 402.537 10.9777 402.268 10.706C402.003 10.4342 401.601 10.2983 401.06 10.2983C400.5 10.2983 400.061 10.4209 399.743 10.6662C399.425 10.9115 399.201 11.1733 399.072 11.4517L397.958 11.054C398.157 10.59 398.422 10.2287 398.754 9.97017C399.088 9.70833 399.453 9.52604 399.847 9.4233C400.245 9.31723 400.636 9.2642 401.021 9.2642C401.266 9.2642 401.548 9.29403 401.866 9.35369C402.187 9.41004 402.497 9.5277 402.795 9.70668C403.097 9.88565 403.347 10.1558 403.546 10.517C403.745 10.8783 403.844 11.3622 403.844 11.9688V17H402.671V15.9659H402.612C402.532 16.1316 402.399 16.3089 402.214 16.4979C402.028 16.6868 401.781 16.8475 401.473 16.9801C401.165 17.1127 400.789 17.179 400.344 17.179ZM400.523 16.125C400.987 16.125 401.379 16.0339 401.697 15.8516C402.018 15.6693 402.26 15.4339 402.423 15.1456C402.588 14.8572 402.671 14.554 402.671 14.2358V13.1619C402.621 13.2216 402.512 13.2763 402.343 13.326C402.177 13.3724 401.985 13.4138 401.766 13.4503C401.551 13.4834 401.34 13.5133 401.135 13.5398C400.933 13.563 400.769 13.5829 400.643 13.5994C400.338 13.6392 400.053 13.7038 399.788 13.7933C399.526 13.8795 399.314 14.0104 399.151 14.1861C398.992 14.3584 398.913 14.5937 398.913 14.892C398.913 15.2997 399.063 15.608 399.365 15.8168C399.67 16.0223 400.056 16.125 400.523 16.125ZM407.159 12.4062V17H405.986V9.36364H407.119V10.5568H407.219C407.398 10.169 407.67 9.85748 408.034 9.62216C408.399 9.38352 408.869 9.2642 409.446 9.2642C409.963 9.2642 410.416 9.37027 410.803 9.58239C411.191 9.79119 411.493 10.1094 411.708 10.5369C411.924 10.9612 412.031 11.4981 412.031 12.1477V17H410.858V12.2273C410.858 11.6274 410.702 11.16 410.391 10.8253C410.079 10.4872 409.652 10.3182 409.108 10.3182C408.734 10.3182 408.399 10.3994 408.104 10.5618C407.812 10.7242 407.582 10.9612 407.413 11.2727C407.244 11.5843 407.159 11.9621 407.159 12.4062ZM417.059 17.1591C416.423 17.1591 415.861 16.9983 415.374 16.6768C414.886 16.352 414.505 15.8946 414.23 15.3047C413.955 14.7114 413.817 14.0104 413.817 13.2017C413.817 12.3996 413.955 11.7036 414.23 11.1136C414.505 10.5237 414.888 10.0679 415.379 9.74645C415.869 9.42495 416.436 9.2642 417.079 9.2642C417.576 9.2642 417.969 9.34706 418.257 9.51278C418.549 9.67519 418.771 9.8608 418.923 10.0696C419.079 10.2751 419.2 10.4441 419.286 10.5767H419.386V6.81818H420.559V17H419.425V15.8267H419.286C419.2 15.9659 419.077 16.1416 418.918 16.3537C418.759 16.5625 418.532 16.7498 418.237 16.9155C417.942 17.0779 417.549 17.1591 417.059 17.1591ZM417.218 16.1051C417.689 16.1051 418.086 15.9825 418.411 15.7372C418.736 15.4886 418.983 15.1456 419.152 14.7081C419.321 14.2673 419.406 13.7585 419.406 13.1818C419.406 12.6117 419.323 12.1129 419.157 11.6854C418.991 11.2545 418.746 10.9197 418.421 10.6811C418.096 10.4392 417.695 10.3182 417.218 10.3182C416.721 10.3182 416.307 10.4458 415.975 10.701C415.647 10.9529 415.4 11.2959 415.234 11.7301C415.072 12.161 414.991 12.6449 414.991 13.1818C414.991 13.7254 415.074 14.2192 415.239 14.6634C415.408 15.1042 415.657 15.4555 415.985 15.7173C416.317 15.9759 416.728 16.1051 417.218 16.1051ZM426.072 17.1591C425.337 17.1591 424.702 16.9967 424.168 16.6719C423.638 16.3438 423.229 15.8864 422.94 15.2997C422.655 14.7098 422.513 14.0237 422.513 13.2415C422.513 12.4593 422.655 11.7699 422.94 11.1733C423.229 10.5734 423.63 10.1061 424.143 9.77131C424.661 9.43324 425.264 9.2642 425.953 9.2642C426.351 9.2642 426.744 9.33049 427.131 9.46307C427.519 9.59564 427.872 9.81108 428.19 10.1094C428.509 10.4044 428.762 10.7955 428.951 11.2827C429.14 11.7699 429.234 12.3698 429.234 13.0824V13.5795H423.348V12.5653H428.041C428.041 12.1345 427.955 11.75 427.783 11.4119C427.614 11.0739 427.372 10.8071 427.057 10.6115C426.745 10.416 426.377 10.3182 425.953 10.3182C425.486 10.3182 425.081 10.4342 424.74 10.6662C424.402 10.8949 424.142 11.1932 423.96 11.5611C423.777 11.929 423.686 12.3234 423.686 12.7443V13.4205C423.686 13.9972 423.786 14.486 423.984 14.8871C424.187 15.2848 424.467 15.5881 424.825 15.7969C425.183 16.0024 425.598 16.1051 426.072 16.1051C426.381 16.1051 426.659 16.062 426.908 15.9759C427.16 15.8864 427.377 15.7538 427.559 15.5781C427.741 15.3991 427.882 15.1771 427.982 14.9119L429.115 15.2301C428.996 15.6146 428.795 15.9527 428.513 16.2443C428.232 16.5327 427.884 16.758 427.469 16.9205C427.055 17.0795 426.589 17.1591 426.072 17.1591Z"
        fill="#667185" />
</svg>