<svg width="16" height="16" viewBox="0 0 16 16" fill="none" xmlns="http://www.w3.org/2000/svg">
<path d="M4 0C3.45 0 3 0.45 3 1V15C3 15.55 3.45 16 4 16H14C14.55 16 15 15.55 15 15V4L11 0H4Z" fill="#E2E5E7"/>
<path d="M12 4H15L11 0V3C11 3.55 11.45 4 12 4Z" fill="#B0B7BD"/>
<path d="M15 7L12 4H15V7Z" fill="#CAD1D8"/>
<path d="M13 13C13 13.275 12.775 13.5 12.5 13.5H1.5C1.225 13.5 1 13.275 1 13V8C1 7.725 1.225 7.5 1.5 7.5H12.5C12.775 7.5 13 7.725 13 8V13Z" fill="#F15642"/>
<path d="M3.17969 9.47327C3.17969 9.34127 3.28369 9.19727 3.45119 9.19727H4.37469C4.89469 9.19727 5.36269 9.54527 5.36269 10.2123C5.36269 10.8443 4.89469 11.1963 4.37469 11.1963H3.70719V11.7243C3.70719 11.9003 3.59519 11.9998 3.45119 11.9998C3.31919 11.9998 3.17969 11.9003 3.17969 11.7243V9.47327ZM3.70719 9.70077V10.6968H4.37469C4.64269 10.6968 4.85469 10.4603 4.85469 10.2123C4.85469 9.93277 4.64269 9.70077 4.37469 9.70077H3.70719Z" fill="white"/>
<path d="M6.14514 11.9999C6.01314 11.9999 5.86914 11.9279 5.86914 11.7524V9.4814C5.86914 9.3379 6.01314 9.2334 6.14514 9.2334H7.06064C8.88764 9.2334 8.84764 11.9999 7.09664 11.9999H6.14514ZM6.39714 9.7214V11.5124H7.06064C8.14014 11.5124 8.18814 9.7214 7.06064 9.7214H6.39714Z" fill="white"/>
<path d="M9.49566 9.7539V10.3894H10.5152C10.6592 10.3894 10.8032 10.5334 10.8032 10.6729C10.8032 10.8049 10.6592 10.9129 10.5152 10.9129H9.49566V11.7524C9.49566 11.8924 9.39616 11.9999 9.25616 11.9999C9.08016 11.9999 8.97266 11.8924 8.97266 11.7524V9.4814C8.97266 9.3379 9.08066 9.2334 9.25616 9.2334H10.6597C10.8357 9.2334 10.9397 9.3379 10.9397 9.4814C10.9397 9.6094 10.8357 9.7534 10.6597 9.7534H9.49566V9.7539Z" fill="white"/>
<path d="M12.5 13.5H3V14H12.5C12.775 14 13 13.775 13 13.5V13C13 13.275 12.775 13.5 12.5 13.5Z" fill="#CAD1D8"/>
</svg>
