<svg width="1760" height="220" viewBox="0 0 1760 220" fill="none" xmlns="http://www.w3.org/2000/svg">
<path d="M8 0.5H1752C1756.14 0.5 1759.5 3.85786 1759.5 8V212C1759.5 216.142 1756.14 219.5 1752 219.5H8C3.85787 219.5 0.5 216.142 0.5 212V8C0.500003 3.98724 3.65139 0.710536 7.61426 0.509766L8 0.5Z" fill="white"/>
<path d="M8 0.5H1752C1756.14 0.5 1759.5 3.85786 1759.5 8V212C1759.5 216.142 1756.14 219.5 1752 219.5H8C3.85787 219.5 0.5 216.142 0.5 212V8C0.500003 3.98724 3.65139 0.710536 7.61426 0.509766L8 0.5Z" stroke="#DCE2EC"/>
<path d="M26.642 40H24.392L28.4886 28.3636H31.0909L35.1932 40H32.9432L29.8352 30.75H29.7443L26.642 40ZM26.7159 35.4375H32.8523V37.1307H26.7159V35.4375ZM39.608 40.1534C38.9223 40.1534 38.3087 39.9773 37.767 39.625C37.2254 39.2727 36.7973 38.7614 36.483 38.0909C36.1686 37.4205 36.0114 36.6061 36.0114 35.6477C36.0114 34.678 36.1705 33.8598 36.4886 33.1932C36.8106 32.5227 37.2443 32.017 37.7898 31.6761C38.3352 31.3314 38.9432 31.1591 39.6136 31.1591C40.125 31.1591 40.5455 31.2462 40.875 31.4205C41.2045 31.5909 41.4659 31.7973 41.6591 32.0398C41.8523 32.2784 42.0019 32.5038 42.108 32.7159H42.1932V28.3636H44.2557V40H42.233V38.625H42.108C42.0019 38.8371 41.8485 39.0625 41.6477 39.3011C41.447 39.536 41.1818 39.7367 40.8523 39.9034C40.5227 40.0701 40.108 40.1534 39.608 40.1534ZM40.1818 38.4659C40.6174 38.4659 40.9886 38.3485 41.2955 38.1136C41.6023 37.875 41.8352 37.5436 41.9943 37.1193C42.1534 36.6951 42.233 36.2008 42.233 35.6364C42.233 35.072 42.1534 34.5814 41.9943 34.1648C41.839 33.7481 41.608 33.4242 41.3011 33.1932C40.9981 32.9621 40.625 32.8466 40.1818 32.8466C39.7235 32.8466 39.3409 32.9659 39.0341 33.2045C38.7273 33.4432 38.4962 33.7727 38.3409 34.1932C38.1856 34.6136 38.108 35.0947 38.108 35.6364C38.108 36.1818 38.1856 36.6686 38.3409 37.0966C38.5 37.5208 38.733 37.8561 39.0398 38.1023C39.3504 38.3447 39.7311 38.4659 40.1818 38.4659ZM49.6861 40.1534C49.0005 40.1534 48.3868 39.9773 47.8452 39.625C47.3035 39.2727 46.8755 38.7614 46.5611 38.0909C46.2467 37.4205 46.0895 36.6061 46.0895 35.6477C46.0895 34.678 46.2486 33.8598 46.5668 33.1932C46.8887 32.5227 47.3224 32.017 47.8679 31.6761C48.4134 31.3314 49.0213 31.1591 49.6918 31.1591C50.2031 31.1591 50.6236 31.2462 50.9531 31.4205C51.2827 31.5909 51.544 31.7973 51.7372 32.0398C51.9304 32.2784 52.08 32.5038 52.1861 32.7159H52.2713V28.3636H54.3338V40H52.3111V38.625H52.1861C52.08 38.8371 51.9266 39.0625 51.7259 39.3011C51.5251 39.536 51.2599 39.7367 50.9304 39.9034C50.6009 40.0701 50.1861 40.1534 49.6861 40.1534ZM50.2599 38.4659C50.6955 38.4659 51.0668 38.3485 51.3736 38.1136C51.6804 37.875 51.9134 37.5436 52.0724 37.1193C52.2315 36.6951 52.3111 36.2008 52.3111 35.6364C52.3111 35.072 52.2315 34.5814 52.0724 34.1648C51.9171 33.7481 51.6861 33.4242 51.3793 33.1932C51.0762 32.9621 50.7031 32.8466 50.2599 32.8466C49.8016 32.8466 49.419 32.9659 49.1122 33.2045C48.8054 33.4432 48.5743 33.7727 48.419 34.1932C48.2637 34.6136 48.1861 35.0947 48.1861 35.6364C48.1861 36.1818 48.2637 36.6686 48.419 37.0966C48.5781 37.5208 48.8111 37.8561 49.1179 38.1023C49.4285 38.3447 49.8092 38.4659 50.2599 38.4659ZM56.5256 40V31.2727H58.5199V32.7273H58.6108C58.7699 32.2235 59.0426 31.8352 59.429 31.5625C59.8191 31.286 60.2642 31.1477 60.7642 31.1477C60.8778 31.1477 61.0047 31.1534 61.1449 31.1648C61.2888 31.1723 61.4081 31.1856 61.5028 31.2045V33.0966C61.4157 33.0663 61.2775 33.0398 61.0881 33.017C60.9025 32.9905 60.7225 32.9773 60.5483 32.9773C60.1733 32.9773 59.8362 33.0587 59.5369 33.2216C59.2415 33.3807 59.0085 33.6023 58.8381 33.8864C58.6676 34.1705 58.5824 34.4981 58.5824 34.8693V40H56.5256ZM66.3736 40.1705C65.4986 40.1705 64.7429 39.9886 64.1065 39.625C63.474 39.2576 62.9872 38.7386 62.6463 38.0682C62.3054 37.3939 62.1349 36.6004 62.1349 35.6875C62.1349 34.7898 62.3054 34.0019 62.6463 33.3239C62.991 32.642 63.4721 32.1117 64.0895 31.733C64.7069 31.3504 65.4323 31.1591 66.2656 31.1591C66.8035 31.1591 67.3111 31.2462 67.7884 31.4205C68.2694 31.5909 68.6937 31.8561 69.0611 32.2159C69.4323 32.5758 69.724 33.0341 69.9361 33.5909C70.1482 34.1439 70.2543 34.803 70.2543 35.5682V36.1989H63.1009V34.8125H68.2827C68.2789 34.4186 68.1937 34.0682 68.027 33.7614C67.8603 33.4508 67.6274 33.2064 67.3281 33.0284C67.0327 32.8504 66.688 32.7614 66.294 32.7614C65.8736 32.7614 65.5043 32.8636 65.1861 33.0682C64.8679 33.2689 64.6198 33.5341 64.4418 33.8636C64.2675 34.1894 64.1785 34.5473 64.1747 34.9375V36.1477C64.1747 36.6553 64.2675 37.0909 64.4531 37.4545C64.6387 37.8144 64.8982 38.0909 65.2315 38.2841C65.5649 38.4735 65.955 38.5682 66.402 38.5682C66.7012 38.5682 66.9721 38.5265 67.2145 38.4432C67.4569 38.3561 67.6671 38.2292 67.8452 38.0625C68.0232 37.8958 68.1577 37.6894 68.2486 37.4432L70.169 37.6591C70.0478 38.1667 69.8168 38.6098 69.4759 38.9886C69.1387 39.3636 68.7069 39.6553 68.1804 39.8636C67.6539 40.0682 67.0516 40.1705 66.3736 40.1705ZM78.892 33.5795L77.017 33.7841C76.964 33.5947 76.8712 33.4167 76.7386 33.25C76.6098 33.0833 76.4356 32.9489 76.2159 32.8466C75.9962 32.7443 75.7273 32.6932 75.4091 32.6932C74.9811 32.6932 74.6212 32.786 74.3295 32.9716C74.0417 33.1572 73.8996 33.3977 73.9034 33.6932C73.8996 33.947 73.9924 34.1534 74.1818 34.3125C74.375 34.4716 74.6932 34.6023 75.1364 34.7045L76.625 35.0227C77.4508 35.2008 78.0644 35.483 78.4659 35.8693C78.8712 36.2557 79.0758 36.7614 79.0795 37.3864C79.0758 37.9356 78.9148 38.4205 78.5966 38.8409C78.2822 39.2576 77.8447 39.5833 77.2841 39.8182C76.7235 40.053 76.0795 40.1705 75.3523 40.1705C74.2841 40.1705 73.4242 39.947 72.7727 39.5C72.1212 39.0492 71.733 38.4223 71.608 37.6193L73.6136 37.4261C73.7045 37.8201 73.8977 38.1174 74.1932 38.3182C74.4886 38.5189 74.8731 38.6193 75.3466 38.6193C75.8352 38.6193 76.2273 38.5189 76.5227 38.3182C76.822 38.1174 76.9716 37.8693 76.9716 37.5739C76.9716 37.3239 76.875 37.1174 76.6818 36.9545C76.4924 36.7917 76.197 36.6667 75.7955 36.5795L74.3068 36.267C73.4697 36.0928 72.8504 35.7992 72.4489 35.3864C72.0473 34.9697 71.8485 34.4432 71.8523 33.8068C71.8485 33.2689 71.9943 32.803 72.2898 32.4091C72.589 32.0114 73.0038 31.7045 73.5341 31.4886C74.0682 31.2689 74.6837 31.1591 75.3807 31.1591C76.4034 31.1591 77.2083 31.3769 77.7955 31.8125C78.3864 32.2481 78.7519 32.8371 78.892 33.5795ZM87.6733 33.5795L85.7983 33.7841C85.7453 33.5947 85.6525 33.4167 85.5199 33.25C85.3911 33.0833 85.2169 32.9489 84.9972 32.8466C84.7775 32.7443 84.5085 32.6932 84.1903 32.6932C83.7623 32.6932 83.4025 32.786 83.1108 32.9716C82.8229 33.1572 82.6809 33.3977 82.6847 33.6932C82.6809 33.947 82.7737 34.1534 82.9631 34.3125C83.1563 34.4716 83.4744 34.6023 83.9176 34.7045L85.4062 35.0227C86.232 35.2008 86.8456 35.483 87.2472 35.8693C87.6525 36.2557 87.857 36.7614 87.8608 37.3864C87.857 37.9356 87.696 38.4205 87.3778 38.8409C87.0634 39.2576 86.6259 39.5833 86.0653 39.8182C85.5047 40.053 84.8608 40.1705 84.1335 40.1705C83.0653 40.1705 82.2055 39.947 81.554 39.5C80.9025 39.0492 80.5142 38.4223 80.3892 37.6193L82.3949 37.4261C82.4858 37.8201 82.679 38.1174 82.9744 38.3182C83.2699 38.5189 83.6544 38.6193 84.1278 38.6193C84.6165 38.6193 85.0085 38.5189 85.304 38.3182C85.6032 38.1174 85.7528 37.8693 85.7528 37.5739C85.7528 37.3239 85.6563 37.1174 85.4631 36.9545C85.2737 36.7917 84.9782 36.6667 84.5767 36.5795L83.0881 36.267C82.2509 36.0928 81.6316 35.7992 81.2301 35.3864C80.8286 34.9697 80.6297 34.4432 80.6335 33.8068C80.6297 33.2689 80.7756 32.803 81.071 32.4091C81.3703 32.0114 81.785 31.7045 82.3153 31.4886C82.8494 31.2689 83.465 31.1591 84.1619 31.1591C85.1847 31.1591 85.9896 31.3769 86.5767 31.8125C87.1676 32.2481 87.5331 32.8371 87.6733 33.5795Z" fill="#101928"/>
<rect x="23.5" y="67.5" width="1713" height="129" rx="8.5" stroke="#DCE2EC"/>
<path d="M24 76C24 71.5817 27.5817 68 32 68H1728C1732.42 68 1736 71.5817 1736 76V112H24V76Z" fill="#F4F8FD"/>
<rect x="48" y="82" width="16" height="16" rx="2" fill="white"/>
<rect x="48" y="82" width="16" height="16" rx="2" stroke="#DCE2EC" stroke-width="1.5"/>
<path d="M306.918 87.5653C306.873 87.1619 306.685 86.8494 306.355 86.6278C306.026 86.4034 305.611 86.2912 305.111 86.2912C304.753 86.2912 304.444 86.348 304.182 86.4616C303.921 86.5724 303.718 86.7259 303.573 86.9219C303.431 87.1151 303.36 87.3352 303.36 87.5824C303.36 87.7898 303.408 87.9687 303.505 88.1193C303.604 88.2699 303.733 88.3963 303.892 88.4986C304.054 88.598 304.228 88.6818 304.412 88.75C304.597 88.8153 304.775 88.8693 304.945 88.9119L305.797 89.1335C306.076 89.2017 306.361 89.294 306.654 89.4105C306.946 89.527 307.218 89.6804 307.468 89.8707C307.718 90.0611 307.919 90.2969 308.073 90.5781C308.229 90.8594 308.307 91.196 308.307 91.5881C308.307 92.0824 308.179 92.5213 307.924 92.9048C307.671 93.2884 307.303 93.5909 306.82 93.8125C306.34 94.0341 305.759 94.1449 305.077 94.1449C304.424 94.1449 303.858 94.0412 303.381 93.8338C302.904 93.6264 302.53 93.3324 302.26 92.9517C301.99 92.5682 301.841 92.1136 301.813 91.5881H303.134C303.159 91.9034 303.262 92.1662 303.441 92.3764C303.623 92.5838 303.854 92.7386 304.135 92.8409C304.419 92.9403 304.73 92.9901 305.069 92.9901C305.441 92.9901 305.772 92.9318 306.061 92.8153C306.354 92.696 306.584 92.5312 306.752 92.321C306.919 92.108 307.003 91.8594 307.003 91.5753C307.003 91.3168 306.929 91.1051 306.782 90.9403C306.637 90.7756 306.439 90.6392 306.189 90.5312C305.942 90.4233 305.662 90.3281 305.35 90.2457L304.319 89.9645C303.62 89.7741 303.066 89.4943 302.657 89.125C302.25 88.7557 302.047 88.267 302.047 87.6591C302.047 87.1562 302.184 86.7173 302.456 86.3423C302.729 85.9673 303.098 85.6761 303.564 85.4688C304.03 85.2585 304.556 85.1534 305.141 85.1534C305.732 85.1534 306.253 85.2571 306.705 85.4645C307.159 85.6719 307.517 85.9574 307.779 86.321C308.04 86.6818 308.176 87.0966 308.188 87.5653H306.918ZM309.778 94V87.4545H311.01V88.4943H311.078C311.197 88.142 311.408 87.8651 311.709 87.6634C312.013 87.4588 312.357 87.3565 312.74 87.3565C312.82 87.3565 312.913 87.3594 313.021 87.3651C313.132 87.3707 313.219 87.3778 313.281 87.3864V88.6051C313.23 88.5909 313.139 88.5753 313.009 88.5582C312.878 88.5384 312.747 88.5284 312.616 88.5284C312.315 88.5284 312.047 88.5923 311.811 88.7202C311.578 88.8452 311.393 89.0199 311.257 89.2443C311.121 89.4659 311.053 89.7187 311.053 90.0028V94H309.778ZM324.706 85.2727V94H323.496L319.06 87.5994H318.979V94H317.662V85.2727H318.881L323.321 91.6818H323.402V85.2727H324.706ZM329.282 94.1321C328.668 94.1321 328.132 93.9915 327.675 93.7102C327.218 93.429 326.863 93.0355 326.61 92.5298C326.357 92.0241 326.23 91.4332 326.23 90.7571C326.23 90.0781 326.357 89.4844 326.61 88.9759C326.863 88.4673 327.218 88.0724 327.675 87.7912C328.132 87.5099 328.668 87.3693 329.282 87.3693C329.895 87.3693 330.431 87.5099 330.888 87.7912C331.346 88.0724 331.701 88.4673 331.953 88.9759C332.206 89.4844 332.333 90.0781 332.333 90.7571C332.333 91.4332 332.206 92.0241 331.953 92.5298C331.701 93.0355 331.346 93.429 330.888 93.7102C330.431 93.9915 329.895 94.1321 329.282 94.1321ZM329.286 93.0625C329.684 93.0625 330.013 92.9574 330.275 92.7472C330.536 92.5369 330.729 92.2571 330.854 91.9077C330.982 91.5582 331.046 91.1733 331.046 90.7528C331.046 90.3352 330.982 89.9517 330.854 89.6023C330.729 89.25 330.536 88.9673 330.275 88.7543C330.013 88.5412 329.684 88.4347 329.286 88.4347C328.885 88.4347 328.553 88.5412 328.289 88.7543C328.027 88.9673 327.833 89.25 327.705 89.6023C327.58 89.9517 327.517 90.3352 327.517 90.7528C327.517 91.1733 327.58 91.5582 327.705 91.9077C327.833 92.2571 328.027 92.5369 328.289 92.7472C328.553 92.9574 328.885 93.0625 329.286 93.0625Z" fill="#919DB3"/>
<path d="M586.608 88.1108H585.278C585.227 87.8267 585.132 87.5767 584.993 87.3608C584.854 87.1449 584.683 86.9616 584.481 86.8111C584.28 86.6605 584.054 86.5469 583.804 86.4702C583.557 86.3935 583.294 86.3551 583.015 86.3551C582.513 86.3551 582.062 86.4815 581.665 86.7344C581.27 86.9872 580.957 87.358 580.727 87.8466C580.5 88.3352 580.386 88.9318 580.386 89.6364C580.386 90.3466 580.5 90.946 580.727 91.4347C580.957 91.9233 581.271 92.2926 581.669 92.5426C582.067 92.7926 582.514 92.9176 583.011 92.9176C583.287 92.9176 583.548 92.8807 583.795 92.8068C584.045 92.7301 584.271 92.6179 584.473 92.4702C584.675 92.3224 584.845 92.142 584.984 91.929C585.126 91.7131 585.224 91.4659 585.278 91.1875L586.608 91.1918C586.537 91.6207 586.399 92.0156 586.194 92.3764C585.993 92.7344 585.733 93.044 585.415 93.3054C585.099 93.5639 584.738 93.7642 584.332 93.9062C583.926 94.0483 583.483 94.1193 583.003 94.1193C582.247 94.1193 581.574 93.9403 580.983 93.5824C580.392 93.2216 579.926 92.706 579.585 92.0355C579.247 91.3651 579.078 90.5653 579.078 89.6364C579.078 88.7045 579.248 87.9048 579.589 87.2372C579.93 86.5668 580.396 86.0526 580.987 85.6946C581.578 85.3338 582.25 85.1534 583.003 85.1534C583.466 85.1534 583.898 85.2202 584.298 85.3537C584.702 85.4844 585.064 85.6776 585.385 85.9332C585.706 86.1861 585.971 86.4957 586.182 86.8622C586.392 87.2259 586.534 87.642 586.608 88.1108ZM590.838 94.1321C590.225 94.1321 589.689 93.9915 589.232 93.7102C588.774 93.429 588.419 93.0355 588.166 92.5298C587.914 92.0241 587.787 91.4332 587.787 90.7571C587.787 90.0781 587.914 89.4844 588.166 88.9759C588.419 88.4673 588.774 88.0724 589.232 87.7912C589.689 87.5099 590.225 87.3693 590.838 87.3693C591.452 87.3693 591.987 87.5099 592.445 87.7912C592.902 88.0724 593.257 88.4673 593.51 88.9759C593.763 89.4844 593.889 90.0781 593.889 90.7571C593.889 91.4332 593.763 92.0241 593.51 92.5298C593.257 93.0355 592.902 93.429 592.445 93.7102C591.987 93.9915 591.452 94.1321 590.838 94.1321ZM590.843 93.0625C591.24 93.0625 591.57 92.9574 591.831 92.7472C592.093 92.5369 592.286 92.2571 592.411 91.9077C592.539 91.5582 592.602 91.1733 592.602 90.7528C592.602 90.3352 592.539 89.9517 592.411 89.6023C592.286 89.25 592.093 88.9673 591.831 88.7543C591.57 88.5412 591.24 88.4347 590.843 88.4347C590.442 88.4347 590.11 88.5412 589.845 88.7543C589.584 88.9673 589.389 89.25 589.262 89.6023C589.137 89.9517 589.074 90.3352 589.074 90.7528C589.074 91.1733 589.137 91.5582 589.262 91.9077C589.389 92.2571 589.584 92.5369 589.845 92.7472C590.11 92.9574 590.442 93.0625 590.843 93.0625ZM599.458 91.2855V87.4545H600.736V94H599.483V92.8665H599.415C599.265 93.2159 599.023 93.5071 598.691 93.7401C598.361 93.9702 597.951 94.0852 597.459 94.0852C597.039 94.0852 596.667 93.9929 596.343 93.8082C596.022 93.6207 595.769 93.3438 595.584 92.9773C595.403 92.6108 595.312 92.1577 595.312 91.6179V87.4545H596.586V91.4645C596.586 91.9105 596.709 92.2656 596.956 92.5298C597.204 92.794 597.525 92.9261 597.92 92.9261C598.158 92.9261 598.395 92.8665 598.631 92.7472C598.87 92.6278 599.067 92.4474 599.224 92.206C599.383 91.9645 599.461 91.6577 599.458 91.2855ZM603.722 90.1136V94H602.448V87.4545H603.671V88.5199H603.752C603.903 88.1733 604.139 87.8949 604.46 87.6847C604.784 87.4744 605.191 87.3693 605.683 87.3693C606.129 87.3693 606.519 87.4631 606.855 87.6506C607.19 87.8352 607.45 88.1108 607.634 88.4773C607.819 88.8437 607.911 89.2969 607.911 89.8366V94H606.637V89.9901C606.637 89.5156 606.514 89.1449 606.267 88.8778C606.019 88.608 605.68 88.473 605.248 88.473C604.953 88.473 604.69 88.5369 604.46 88.6648C604.232 88.7926 604.052 88.9801 603.919 89.2273C603.788 89.4716 603.722 89.767 603.722 90.1136ZM612.676 87.4545V88.4773H609.1V87.4545H612.676ZM610.059 85.8864H611.333V92.0781C611.333 92.3253 611.37 92.5114 611.444 92.6364C611.518 92.7585 611.613 92.8423 611.73 92.8878C611.849 92.9304 611.978 92.9517 612.117 92.9517C612.22 92.9517 612.309 92.9446 612.386 92.9304C612.463 92.9162 612.522 92.9048 612.565 92.8963L612.795 93.9489C612.721 93.9773 612.616 94.0057 612.48 94.0341C612.343 94.0653 612.173 94.0824 611.968 94.0852C611.633 94.0909 611.32 94.0312 611.031 93.9062C610.741 93.7812 610.507 93.5881 610.328 93.3267C610.149 93.0653 610.059 92.7372 610.059 92.3423V85.8864ZM614.085 94V87.4545H615.317V88.4943H615.385C615.504 88.142 615.714 87.8651 616.015 87.6634C616.319 87.4588 616.663 87.3565 617.047 87.3565C617.126 87.3565 617.22 87.3594 617.328 87.3651C617.439 87.3707 617.525 87.3778 617.588 87.3864V88.6051C617.537 88.5909 617.446 88.5753 617.315 88.5582C617.184 88.5384 617.054 88.5284 616.923 88.5284C616.622 88.5284 616.354 88.5923 616.118 88.7202C615.885 88.8452 615.7 89.0199 615.564 89.2443C615.427 89.4659 615.359 89.7187 615.359 90.0028V94H614.085ZM619.695 96.4545C619.505 96.4545 619.331 96.4389 619.175 96.4077C619.019 96.3793 618.903 96.348 618.826 96.3139L619.133 95.2699C619.366 95.3324 619.573 95.3594 619.755 95.3509C619.937 95.3423 620.097 95.2741 620.236 95.1463C620.378 95.0185 620.503 94.8097 620.611 94.5199L620.769 94.0852L618.374 87.4545H619.738L621.395 92.5341H621.464L623.121 87.4545H624.489L621.792 94.8736C621.667 95.2145 621.508 95.5028 621.314 95.7386C621.121 95.9773 620.891 96.1563 620.624 96.2756C620.357 96.3949 620.047 96.4545 619.695 96.4545Z" fill="#919DB3"/>
<path d="M904.558 94V85.2727H907.669C908.348 85.2727 908.911 85.3963 909.357 85.6435C909.803 85.8906 910.137 86.2287 910.358 86.6577C910.58 87.0838 910.691 87.5639 910.691 88.098C910.691 88.6349 910.578 89.1179 910.354 89.5469C910.132 89.973 909.797 90.3111 909.348 90.5611C908.902 90.8082 908.341 90.9318 907.665 90.9318H905.526V89.8153H907.546C907.975 89.8153 908.323 89.7415 908.59 89.5938C908.857 89.4432 909.053 89.2386 909.178 88.9801C909.303 88.7216 909.365 88.4276 909.365 88.098C909.365 87.7685 909.303 87.4759 909.178 87.2202C909.053 86.9645 908.855 86.7642 908.585 86.6193C908.318 86.4744 907.966 86.402 907.529 86.402H905.875V94H904.558ZM912.132 94V87.4545H913.363V88.4943H913.432C913.551 88.142 913.761 87.8651 914.062 87.6634C914.366 87.4588 914.71 87.3565 915.094 87.3565C915.173 87.3565 915.267 87.3594 915.375 87.3651C915.486 87.3707 915.572 87.3778 915.635 87.3864V88.6051C915.584 88.5909 915.493 88.5753 915.362 88.5582C915.231 88.5384 915.101 88.5284 914.97 88.5284C914.669 88.5284 914.4 88.5923 914.165 88.7202C913.932 88.8452 913.747 89.0199 913.611 89.2443C913.474 89.4659 913.406 89.7187 913.406 90.0028V94H912.132ZM919.26 94.1321C918.646 94.1321 918.111 93.9915 917.654 93.7102C917.196 93.429 916.841 93.0355 916.588 92.5298C916.335 92.0241 916.209 91.4332 916.209 90.7571C916.209 90.0781 916.335 89.4844 916.588 88.9759C916.841 88.4673 917.196 88.0724 917.654 87.7912C918.111 87.5099 918.646 87.3693 919.26 87.3693C919.874 87.3693 920.409 87.5099 920.867 87.7912C921.324 88.0724 921.679 88.4673 921.932 88.9759C922.185 89.4844 922.311 90.0781 922.311 90.7571C922.311 91.4332 922.185 92.0241 921.932 92.5298C921.679 93.0355 921.324 93.429 920.867 93.7102C920.409 93.9915 919.874 94.1321 919.26 94.1321ZM919.264 93.0625C919.662 93.0625 919.992 92.9574 920.253 92.7472C920.514 92.5369 920.708 92.2571 920.833 91.9077C920.96 91.5582 921.024 91.1733 921.024 90.7528C921.024 90.3352 920.96 89.9517 920.833 89.6023C920.708 89.25 920.514 88.9673 920.253 88.7543C919.992 88.5412 919.662 88.4347 919.264 88.4347C918.864 88.4347 918.531 88.5412 918.267 88.7543C918.006 88.9673 917.811 89.25 917.683 89.6023C917.558 89.9517 917.496 90.3352 917.496 90.7528C917.496 91.1733 917.558 91.5582 917.683 91.9077C917.811 92.2571 918.006 92.5369 918.267 92.7472C918.531 92.9574 918.864 93.0625 919.264 93.0625ZM929.11 87.4545L926.737 94H925.373L922.995 87.4545H924.363L926.021 92.4915H926.089L927.742 87.4545H929.11ZM930.308 94V87.4545H931.582V94H930.308ZM930.951 86.4446C930.73 86.4446 930.539 86.3707 930.38 86.223C930.224 86.0724 930.146 85.8935 930.146 85.6861C930.146 85.4759 930.224 85.2969 930.38 85.1491C930.539 84.9986 930.73 84.9233 930.951 84.9233C931.173 84.9233 931.362 84.9986 931.518 85.1491C931.677 85.2969 931.757 85.4759 931.757 85.6861C931.757 85.8935 931.677 86.0724 931.518 86.223C931.362 86.3707 931.173 86.4446 930.951 86.4446ZM935.746 94.1278C935.218 94.1278 934.746 93.9929 934.331 93.723C933.92 93.4503 933.596 93.0625 933.36 92.5597C933.127 92.054 933.01 91.4474 933.01 90.7401C933.01 90.0327 933.128 89.4276 933.364 88.9247C933.603 88.4219 933.93 88.0369 934.344 87.7699C934.759 87.5028 935.229 87.3693 935.755 87.3693C936.161 87.3693 936.488 87.4375 936.735 87.5739C936.985 87.7074 937.178 87.8636 937.314 88.0426C937.454 88.2216 937.562 88.3793 937.638 88.5156H937.715V85.2727H938.989V94H937.745V92.9815H937.638C937.562 93.1207 937.451 93.2798 937.306 93.4588C937.164 93.6378 936.968 93.794 936.718 93.9276C936.468 94.0611 936.144 94.1278 935.746 94.1278ZM936.028 93.0412C936.394 93.0412 936.704 92.9446 936.956 92.7514C937.212 92.5554 937.405 92.2841 937.536 91.9375C937.67 91.5909 937.736 91.1875 937.736 90.7273C937.736 90.2727 937.671 89.875 937.54 89.5341C937.41 89.1932 937.218 88.9276 936.965 88.7372C936.712 88.5469 936.4 88.4517 936.028 88.4517C935.644 88.4517 935.324 88.5511 935.069 88.75C934.813 88.9489 934.62 89.2202 934.489 89.5639C934.361 89.9077 934.297 90.2955 934.297 90.7273C934.297 91.1648 934.363 91.5582 934.493 91.9077C934.624 92.2571 934.817 92.5341 935.073 92.7386C935.331 92.9403 935.65 93.0412 936.028 93.0412ZM943.629 94.1321C942.984 94.1321 942.428 93.9943 941.963 93.7188C941.499 93.4403 941.142 93.0497 940.889 92.5469C940.639 92.0412 940.514 91.4489 940.514 90.7699C940.514 90.0994 940.639 89.5085 940.889 88.9972C941.142 88.4858 941.494 88.0866 941.945 87.7997C942.4 87.5128 942.931 87.3693 943.539 87.3693C943.909 87.3693 944.267 87.4304 944.613 87.5526C944.96 87.6747 945.271 87.8665 945.546 88.1278C945.822 88.3892 946.039 88.7287 946.198 89.1463C946.357 89.5611 946.437 90.0653 946.437 90.6591V91.1108H941.234V90.1562H945.188C945.188 89.821 945.12 89.5241 944.984 89.2656C944.847 89.0043 944.656 88.7983 944.409 88.6477C944.164 88.4972 943.877 88.4219 943.548 88.4219C943.19 88.4219 942.877 88.5099 942.61 88.6861C942.346 88.8594 942.142 89.0866 941.997 89.3679C941.855 89.6463 941.784 89.9489 941.784 90.2756V91.0213C941.784 91.4588 941.86 91.831 942.014 92.1378C942.17 92.4446 942.387 92.679 942.666 92.8409C942.944 93 943.269 93.0795 943.642 93.0795C943.883 93.0795 944.103 93.0455 944.302 92.9773C944.501 92.9062 944.673 92.8011 944.818 92.6619C944.963 92.5227 945.073 92.3509 945.15 92.1463L946.356 92.3636C946.259 92.7187 946.086 93.0298 945.836 93.2969C945.589 93.5611 945.278 93.767 944.903 93.9148C944.531 94.0597 944.106 94.1321 943.629 94.1321ZM949.125 90.1136V94H947.851V87.4545H949.074V88.5199H949.155C949.305 88.1733 949.541 87.8949 949.862 87.6847C950.186 87.4744 950.594 87.3693 951.085 87.3693C951.531 87.3693 951.922 87.4631 952.257 87.6506C952.592 87.8352 952.852 88.1108 953.037 88.4773C953.221 88.8437 953.314 89.2969 953.314 89.8366V94H952.04V89.9901C952.04 89.5156 951.916 89.1449 951.669 88.8778C951.422 88.608 951.082 88.473 950.65 88.473C950.355 88.473 950.092 88.5369 949.862 88.6648C949.635 88.7926 949.454 88.9801 949.321 89.2273C949.19 89.4716 949.125 89.767 949.125 90.1136ZM957.78 94.1321C957.146 94.1321 956.601 93.9886 956.143 93.7017C955.689 93.4119 955.339 93.0128 955.095 92.5043C954.851 91.9957 954.729 91.4134 954.729 90.7571C954.729 90.0923 954.854 89.5057 955.104 88.9972C955.354 88.4858 955.706 88.0866 956.16 87.7997C956.615 87.5128 957.15 87.3693 957.767 87.3693C958.264 87.3693 958.707 87.4616 959.096 87.6463C959.486 87.8281 959.8 88.0838 960.038 88.4134C960.28 88.7429 960.423 89.1278 960.469 89.5682H959.229C959.16 89.2614 959.004 88.9972 958.76 88.7756C958.518 88.554 958.194 88.4432 957.788 88.4432C957.433 88.4432 957.122 88.5369 956.855 88.7244C956.591 88.9091 956.385 89.1733 956.237 89.517C956.089 89.858 956.015 90.2614 956.015 90.7273C956.015 91.2045 956.088 91.6165 956.233 91.9631C956.378 92.3097 956.582 92.5781 956.846 92.7685C957.113 92.9588 957.427 93.054 957.788 93.054C958.03 93.054 958.248 93.0099 958.444 92.9219C958.643 92.831 958.809 92.7017 958.943 92.5341C959.079 92.3665 959.175 92.1648 959.229 91.929H960.469C960.423 92.3523 960.285 92.7301 960.055 93.0625C959.825 93.3949 959.517 93.6562 959.131 93.8466C958.747 94.0369 958.297 94.1321 957.78 94.1321ZM964.652 94.1321C964.007 94.1321 963.452 93.9943 962.986 93.7188C962.523 93.4403 962.165 93.0497 961.912 92.5469C961.662 92.0412 961.537 91.4489 961.537 90.7699C961.537 90.0994 961.662 89.5085 961.912 88.9972C962.165 88.4858 962.517 88.0866 962.969 87.7997C963.423 87.5128 963.955 87.3693 964.563 87.3693C964.932 87.3693 965.29 87.4304 965.637 87.5526C965.983 87.6747 966.294 87.8665 966.57 88.1278C966.845 88.3892 967.063 88.7287 967.222 89.1463C967.381 89.5611 967.46 90.0653 967.46 90.6591V91.1108H962.257V90.1562H966.212C966.212 89.821 966.144 89.5241 966.007 89.2656C965.871 89.0043 965.679 88.7983 965.432 88.6477C965.188 88.4972 964.901 88.4219 964.571 88.4219C964.213 88.4219 963.901 88.5099 963.634 88.6861C963.369 88.8594 963.165 89.0866 963.02 89.3679C962.878 89.6463 962.807 89.9489 962.807 90.2756V91.0213C962.807 91.4588 962.884 91.831 963.037 92.1378C963.193 92.4446 963.411 92.679 963.689 92.8409C963.968 93 964.293 93.0795 964.665 93.0795C964.906 93.0795 965.127 93.0455 965.325 92.9773C965.524 92.9062 965.696 92.8011 965.841 92.6619C965.986 92.5227 966.097 92.3509 966.173 92.1463L967.379 92.3636C967.283 92.7187 967.11 93.0298 966.86 93.2969C966.612 93.5611 966.301 93.767 965.926 93.9148C965.554 94.0597 965.129 94.1321 964.652 94.1321Z" fill="#919DB3"/>
<path d="M1239.01 88.1108H1237.68C1237.63 87.8267 1237.53 87.5767 1237.39 87.3608C1237.25 87.1449 1237.08 86.9616 1236.88 86.8111C1236.68 86.6605 1236.45 86.5469 1236.2 86.4702C1235.96 86.3935 1235.69 86.3551 1235.42 86.3551C1234.91 86.3551 1234.46 86.4815 1234.06 86.7344C1233.67 86.9872 1233.36 87.358 1233.13 87.8466C1232.9 88.3352 1232.79 88.9318 1232.79 89.6364C1232.79 90.3466 1232.9 90.946 1233.13 91.4347C1233.36 91.9233 1233.67 92.2926 1234.07 92.5426C1234.47 92.7926 1234.91 92.9176 1235.41 92.9176C1235.69 92.9176 1235.95 92.8807 1236.2 92.8068C1236.45 92.7301 1236.67 92.6179 1236.87 92.4702C1237.07 92.3224 1237.25 92.142 1237.38 91.929C1237.53 91.7131 1237.62 91.4659 1237.68 91.1875L1239.01 91.1918C1238.94 91.6207 1238.8 92.0156 1238.59 92.3764C1238.39 92.7344 1238.13 93.044 1237.81 93.3054C1237.5 93.5639 1237.14 93.7642 1236.73 93.9062C1236.33 94.0483 1235.88 94.1193 1235.4 94.1193C1234.65 94.1193 1233.97 93.9403 1233.38 93.5824C1232.79 93.2216 1232.33 92.706 1231.99 92.0355C1231.65 91.3651 1231.48 90.5653 1231.48 89.6364C1231.48 88.7045 1231.65 87.9048 1231.99 87.2372C1232.33 86.5668 1232.8 86.0526 1233.39 85.6946C1233.98 85.3338 1234.65 85.1534 1235.4 85.1534C1235.87 85.1534 1236.3 85.2202 1236.7 85.3537C1237.1 85.4844 1237.46 85.6776 1237.79 85.9332C1238.11 86.1861 1238.37 86.4957 1238.58 86.8622C1238.79 87.2259 1238.93 87.642 1239.01 88.1108ZM1240.48 94V87.4545H1241.76V94H1240.48ZM1241.12 86.4446C1240.9 86.4446 1240.71 86.3707 1240.55 86.223C1240.4 86.0724 1240.32 85.8935 1240.32 85.6861C1240.32 85.4759 1240.4 85.2969 1240.55 85.1491C1240.71 84.9986 1240.9 84.9233 1241.12 84.9233C1241.35 84.9233 1241.54 84.9986 1241.69 85.1491C1241.85 85.2969 1241.93 85.4759 1241.93 85.6861C1241.93 85.8935 1241.85 86.0724 1241.69 86.223C1241.54 86.3707 1241.35 86.4446 1241.12 86.4446ZM1246.53 87.4545V88.4773H1242.95V87.4545H1246.53ZM1243.91 85.8864H1245.18V92.0781C1245.18 92.3253 1245.22 92.5114 1245.29 92.6364C1245.37 92.7585 1245.46 92.8423 1245.58 92.8878C1245.7 92.9304 1245.83 92.9517 1245.97 92.9517C1246.07 92.9517 1246.16 92.9446 1246.24 92.9304C1246.31 92.9162 1246.37 92.9048 1246.41 92.8963L1246.64 93.9489C1246.57 93.9773 1246.47 94.0057 1246.33 94.0341C1246.19 94.0653 1246.02 94.0824 1245.82 94.0852C1245.48 94.0909 1245.17 94.0312 1244.88 93.9062C1244.59 93.7812 1244.36 93.5881 1244.18 93.3267C1244 93.0653 1243.91 92.7372 1243.91 92.3423V85.8864ZM1248.74 96.4545C1248.55 96.4545 1248.38 96.4389 1248.22 96.4077C1248.06 96.3793 1247.95 96.348 1247.87 96.3139L1248.18 95.2699C1248.41 95.3324 1248.62 95.3594 1248.8 95.3509C1248.98 95.3423 1249.14 95.2741 1249.28 95.1463C1249.42 95.0185 1249.55 94.8097 1249.66 94.5199L1249.81 94.0852L1247.42 87.4545H1248.78L1250.44 92.5341H1250.51L1252.17 87.4545H1253.53L1250.84 94.8736C1250.71 95.2145 1250.55 95.5028 1250.36 95.7386C1250.17 95.9773 1249.94 96.1563 1249.67 96.2756C1249.4 96.3949 1249.09 96.4545 1248.74 96.4545Z" fill="#919DB3"/>
<path d="M1588.96 85.2727H1590.56L1593.34 92.0568H1593.44L1596.22 85.2727H1597.81V94H1596.56V87.6847H1596.48L1593.91 93.9872H1592.87L1590.29 87.6804H1590.21V94H1588.96V85.2727ZM1603.77 91.2855V87.4545H1605.05V94H1603.8V92.8665H1603.73C1603.58 93.2159 1603.34 93.5071 1603.01 93.7401C1602.68 93.9702 1602.27 94.0852 1601.77 94.0852C1601.35 94.0852 1600.98 93.9929 1600.66 93.8082C1600.34 93.6207 1600.08 93.3438 1599.9 92.9773C1599.72 92.6108 1599.63 92.1577 1599.63 91.6179V87.4545H1600.9V91.4645C1600.9 91.9105 1601.02 92.2656 1601.27 92.5298C1601.52 92.794 1601.84 92.9261 1602.23 92.9261C1602.47 92.9261 1602.71 92.8665 1602.95 92.7472C1603.18 92.6278 1603.38 92.4474 1603.54 92.206C1603.7 91.9645 1603.78 91.6577 1603.77 91.2855ZM1608.04 90.1136V94H1606.76V87.4545H1607.99V88.5199H1608.07C1608.22 88.1733 1608.45 87.8949 1608.77 87.6847C1609.1 87.4744 1609.51 87.3693 1610 87.3693C1610.44 87.3693 1610.83 87.4631 1611.17 87.6506C1611.5 87.8352 1611.76 88.1108 1611.95 88.4773C1612.13 88.8437 1612.23 89.2969 1612.23 89.8366V94H1610.95V89.9901C1610.95 89.5156 1610.83 89.1449 1610.58 88.8778C1610.33 88.608 1609.99 88.473 1609.56 88.473C1609.27 88.473 1609 88.5369 1608.77 88.6648C1608.55 88.7926 1608.37 88.9801 1608.23 89.2273C1608.1 89.4716 1608.04 89.767 1608.04 90.1136ZM1613.93 94V87.4545H1615.21V94H1613.93ZM1614.58 86.4446C1614.36 86.4446 1614.17 86.3707 1614.01 86.223C1613.85 86.0724 1613.77 85.8935 1613.77 85.6861C1613.77 85.4759 1613.85 85.2969 1614.01 85.1491C1614.17 84.9986 1614.36 84.9233 1614.58 84.9233C1614.8 84.9233 1614.99 84.9986 1615.14 85.1491C1615.3 85.2969 1615.38 85.4759 1615.38 85.6861C1615.38 85.8935 1615.3 86.0724 1615.14 86.223C1614.99 86.3707 1614.8 86.4446 1614.58 86.4446ZM1619.68 94.1321C1619.05 94.1321 1618.5 93.9886 1618.04 93.7017C1617.59 93.4119 1617.24 93.0128 1617 92.5043C1616.75 91.9957 1616.63 91.4134 1616.63 90.7571C1616.63 90.0923 1616.75 89.5057 1617 88.9972C1617.25 88.4858 1617.61 88.0866 1618.06 87.7997C1618.52 87.5128 1619.05 87.3693 1619.67 87.3693C1620.16 87.3693 1620.61 87.4616 1621 87.6463C1621.39 87.8281 1621.7 88.0838 1621.94 88.4134C1622.18 88.7429 1622.32 89.1278 1622.37 89.5682H1621.13C1621.06 89.2614 1620.9 88.9972 1620.66 88.7756C1620.42 88.554 1620.09 88.4432 1619.69 88.4432C1619.33 88.4432 1619.02 88.5369 1618.76 88.7244C1618.49 88.9091 1618.29 89.1733 1618.14 89.517C1617.99 89.858 1617.92 90.2614 1617.92 90.7273C1617.92 91.2045 1617.99 91.6165 1618.13 91.9631C1618.28 92.3097 1618.48 92.5781 1618.75 92.7685C1619.01 92.9588 1619.33 93.054 1619.69 93.054C1619.93 93.054 1620.15 93.0099 1620.34 92.9219C1620.54 92.831 1620.71 92.7017 1620.84 92.5341C1620.98 92.3665 1621.07 92.1648 1621.13 91.929H1622.37C1622.32 92.3523 1622.19 92.7301 1621.96 93.0625C1621.73 93.3949 1621.42 93.6562 1621.03 93.8466C1620.65 94.0369 1620.2 94.1321 1619.68 94.1321ZM1623.73 94V87.4545H1625.01V94H1623.73ZM1624.38 86.4446C1624.15 86.4446 1623.96 86.3707 1623.8 86.223C1623.65 86.0724 1623.57 85.8935 1623.57 85.6861C1623.57 85.4759 1623.65 85.2969 1623.8 85.1491C1623.96 84.9986 1624.15 84.9233 1624.38 84.9233C1624.6 84.9233 1624.79 84.9986 1624.94 85.1491C1625.1 85.2969 1625.18 85.4759 1625.18 85.6861C1625.18 85.8935 1625.1 86.0724 1624.94 86.223C1624.79 86.3707 1624.6 86.4446 1624.38 86.4446ZM1626.72 96.4545V87.4545H1627.96V88.5156H1628.07C1628.14 88.3793 1628.25 88.2216 1628.39 88.0426C1628.53 87.8636 1628.72 87.7074 1628.97 87.5739C1629.22 87.4375 1629.54 87.3693 1629.95 87.3693C1630.48 87.3693 1630.95 87.5028 1631.36 87.7699C1631.78 88.0369 1632.1 88.4219 1632.34 88.9247C1632.58 89.4276 1632.7 90.0327 1632.7 90.7401C1632.7 91.4474 1632.58 92.054 1632.34 92.5597C1632.11 93.0625 1631.79 93.4503 1631.37 93.723C1630.96 93.9929 1630.49 94.1278 1629.96 94.1278C1629.56 94.1278 1629.24 94.0611 1628.99 93.9276C1628.74 93.794 1628.54 93.6378 1628.4 93.4588C1628.26 93.2798 1628.15 93.1207 1628.07 92.9815H1627.99V96.4545H1626.72ZM1627.97 90.7273C1627.97 91.1875 1628.04 91.5909 1628.17 91.9375C1628.3 92.2841 1628.5 92.5554 1628.75 92.7514C1629 92.9446 1629.31 93.0412 1629.68 93.0412C1630.06 93.0412 1630.38 92.9403 1630.63 92.7386C1630.89 92.5341 1631.08 92.2571 1631.21 91.9077C1631.34 91.5582 1631.41 91.1648 1631.41 90.7273C1631.41 90.2955 1631.35 89.9077 1631.22 89.5639C1631.09 89.2202 1630.89 88.9489 1630.64 88.75C1630.38 88.5511 1630.06 88.4517 1629.68 88.4517C1629.31 88.4517 1629 88.5469 1628.74 88.7372C1628.49 88.9276 1628.3 89.1932 1628.16 89.5341C1628.03 89.875 1627.97 90.2727 1627.97 90.7273ZM1636.03 94.1449C1635.62 94.1449 1635.24 94.0682 1634.91 93.9148C1634.57 93.7585 1634.31 93.5327 1634.11 93.2372C1633.92 92.9418 1633.82 92.5795 1633.82 92.1506C1633.82 91.7812 1633.89 91.4773 1634.03 91.2386C1634.17 91 1634.37 90.8111 1634.61 90.6719C1634.85 90.5327 1635.12 90.4276 1635.42 90.3565C1635.72 90.2855 1636.02 90.2315 1636.33 90.1946C1636.72 90.1491 1637.04 90.1122 1637.28 90.0838C1637.53 90.0526 1637.71 90.0028 1637.82 89.9347C1637.93 89.8665 1637.98 89.7557 1637.98 89.6023V89.5724C1637.98 89.2003 1637.88 88.9119 1637.67 88.7074C1637.46 88.5028 1637.15 88.4006 1636.74 88.4006C1636.31 88.4006 1635.97 88.4957 1635.72 88.6861C1635.48 88.8736 1635.31 89.0824 1635.22 89.3125L1634.02 89.0398C1634.16 88.642 1634.37 88.321 1634.64 88.0767C1634.92 87.8295 1635.23 87.6506 1635.59 87.5398C1635.95 87.4261 1636.33 87.3693 1636.72 87.3693C1636.98 87.3693 1637.26 87.4006 1637.55 87.4631C1637.85 87.5227 1638.12 87.6335 1638.38 87.7955C1638.64 87.9574 1638.85 88.1889 1639.01 88.4901C1639.18 88.7884 1639.26 89.1761 1639.26 89.6534V94H1638.02V93.1051H1637.97C1637.88 93.2699 1637.76 93.4318 1637.59 93.5909C1637.43 93.75 1637.22 93.8821 1636.96 93.9872C1636.7 94.0923 1636.39 94.1449 1636.03 94.1449ZM1636.31 93.1222C1636.66 93.1222 1636.96 93.0526 1637.21 92.9134C1637.46 92.7741 1637.66 92.5923 1637.79 92.3679C1637.92 92.1406 1637.99 91.8977 1637.99 91.6392V90.7955C1637.94 90.8409 1637.85 90.8835 1637.72 90.9233C1637.59 90.9602 1637.45 90.9929 1637.28 91.0213C1637.12 91.0469 1636.96 91.071 1636.8 91.0938C1636.65 91.1136 1636.52 91.1307 1636.41 91.1449C1636.16 91.1761 1635.94 91.2287 1635.73 91.3026C1635.53 91.3764 1635.37 91.483 1635.25 91.6222C1635.13 91.7585 1635.07 91.9403 1635.07 92.1676C1635.07 92.483 1635.18 92.7216 1635.42 92.8835C1635.65 93.0426 1635.95 93.1222 1636.31 93.1222ZM1642.23 85.2727V94H1640.96V85.2727H1642.23ZM1643.95 94V87.4545H1645.22V94H1643.95ZM1644.59 86.4446C1644.37 86.4446 1644.18 86.3707 1644.02 86.223C1643.86 86.0724 1643.78 85.8935 1643.78 85.6861C1643.78 85.4759 1643.86 85.2969 1644.02 85.1491C1644.18 84.9986 1644.37 84.9233 1644.59 84.9233C1644.81 84.9233 1645 84.9986 1645.16 85.1491C1645.32 85.2969 1645.4 85.4759 1645.4 85.6861C1645.4 85.8935 1645.32 86.0724 1645.16 86.223C1645 86.3707 1644.81 86.4446 1644.59 86.4446ZM1649.99 87.4545V88.4773H1646.41V87.4545H1649.99ZM1647.37 85.8864H1648.65V92.0781C1648.65 92.3253 1648.68 92.5114 1648.76 92.6364C1648.83 92.7585 1648.93 92.8423 1649.04 92.8878C1649.16 92.9304 1649.29 92.9517 1649.43 92.9517C1649.53 92.9517 1649.62 92.9446 1649.7 92.9304C1649.78 92.9162 1649.84 92.9048 1649.88 92.8963L1650.11 93.9489C1650.04 93.9773 1649.93 94.0057 1649.79 94.0341C1649.66 94.0653 1649.49 94.0824 1649.28 94.0852C1648.95 94.0909 1648.63 94.0312 1648.35 93.9062C1648.06 93.7812 1647.82 93.5881 1647.64 93.3267C1647.46 93.0653 1647.37 92.7372 1647.37 92.3423V85.8864ZM1652.2 96.4545C1652.01 96.4545 1651.84 96.4389 1651.69 96.4077C1651.53 96.3793 1651.41 96.348 1651.34 96.3139L1651.64 95.2699C1651.88 95.3324 1652.08 95.3594 1652.26 95.3509C1652.45 95.3423 1652.61 95.2741 1652.75 95.1463C1652.89 95.0185 1653.01 94.8097 1653.12 94.5199L1653.28 94.0852L1650.88 87.4545H1652.25L1653.91 92.5341H1653.97L1655.63 87.4545H1657L1654.3 94.8736C1654.18 95.2145 1654.02 95.5028 1653.82 95.7386C1653.63 95.9773 1653.4 96.1563 1653.13 96.2756C1652.87 96.3949 1652.56 96.4545 1652.2 96.4545Z" fill="#919DB3"/>
<mask id="path-11-inside-1_630_62752" fill="white">
<path d="M24 112H1736V154H24V112Z"/>
</mask>
<path d="M1736 154V153H24V154V155H1736V154Z" fill="#DCE2EC" mask="url(#path-11-inside-1_630_62752)"/>
<rect x="48" y="125" width="16" height="16" rx="2" fill="white"/>
<rect x="48" y="125" width="16" height="16" rx="2" stroke="#DCE2EC" stroke-width="1.5"/>
<path d="M305.35 128.273V137H304.029V129.594H303.978L301.89 130.957V129.696L304.067 128.273H305.35Z" fill="#101928"/>
<path d="M582.184 137H579.359V128.273H582.274C583.129 128.273 583.863 128.447 584.477 128.797C585.091 129.143 585.561 129.642 585.888 130.293C586.217 130.94 586.382 131.717 586.382 132.624C586.382 133.533 586.216 134.314 585.883 134.967C585.554 135.621 585.077 136.124 584.452 136.476C583.827 136.825 583.071 137 582.184 137ZM580.676 135.849H582.112C582.777 135.849 583.329 135.724 583.77 135.474C584.21 135.222 584.54 134.857 584.758 134.379C584.977 133.899 585.086 133.314 585.086 132.624C585.086 131.939 584.977 131.358 584.758 130.881C584.542 130.403 584.22 130.041 583.791 129.794C583.362 129.547 582.829 129.423 582.193 129.423H580.676V135.849ZM588.019 137V128.273H591.13C591.806 128.273 592.367 128.389 592.813 128.622C593.262 128.855 593.597 129.178 593.819 129.589C594.041 129.999 594.151 130.472 594.151 131.009C594.151 131.543 594.039 132.013 593.815 132.419C593.593 132.822 593.258 133.136 592.809 133.361C592.363 133.585 591.802 133.697 591.126 133.697H588.769V132.564H591.007C591.433 132.564 591.779 132.503 592.046 132.381C592.316 132.259 592.514 132.081 592.639 131.848C592.764 131.615 592.826 131.335 592.826 131.009C592.826 130.679 592.762 130.393 592.634 130.152C592.509 129.911 592.312 129.726 592.042 129.598C591.775 129.467 591.424 129.402 590.99 129.402H589.336V137H588.019ZM592.328 133.062L594.484 137H592.984L590.87 133.062H592.328ZM603.002 131.111H601.673C601.622 130.827 601.526 130.577 601.387 130.361C601.248 130.145 601.078 129.962 600.876 129.811C600.674 129.661 600.448 129.547 600.198 129.47C599.951 129.393 599.688 129.355 599.41 129.355C598.907 129.355 598.457 129.482 598.059 129.734C597.664 129.987 597.352 130.358 597.122 130.847C596.894 131.335 596.781 131.932 596.781 132.636C596.781 133.347 596.894 133.946 597.122 134.435C597.352 134.923 597.666 135.293 598.063 135.543C598.461 135.793 598.909 135.918 599.406 135.918C599.681 135.918 599.943 135.881 600.19 135.807C600.44 135.73 600.666 135.618 600.867 135.47C601.069 135.322 601.24 135.142 601.379 134.929C601.521 134.713 601.619 134.466 601.673 134.188L603.002 134.192C602.931 134.621 602.794 135.016 602.589 135.376C602.387 135.734 602.127 136.044 601.809 136.305C601.494 136.564 601.133 136.764 600.727 136.906C600.32 137.048 599.877 137.119 599.397 137.119C598.642 137.119 597.968 136.94 597.377 136.582C596.786 136.222 596.32 135.706 595.98 135.036C595.642 134.365 595.472 133.565 595.472 132.636C595.472 131.705 595.643 130.905 595.984 130.237C596.325 129.567 596.791 129.053 597.382 128.695C597.972 128.334 598.644 128.153 599.397 128.153C599.86 128.153 600.292 128.22 600.693 128.354C601.096 128.484 601.458 128.678 601.779 128.933C602.1 129.186 602.366 129.496 602.576 129.862C602.786 130.226 602.928 130.642 603.002 131.111Z" fill="#101928"/>
<path d="M904.558 137V128.273H910.03V129.406H905.875V132.065H909.744V133.195H905.875V135.866H910.081V137H904.558ZM912.961 128.273V137H911.687V128.273H912.961ZM917.125 137.128C916.597 137.128 916.125 136.993 915.71 136.723C915.298 136.45 914.975 136.062 914.739 135.56C914.506 135.054 914.389 134.447 914.389 133.74C914.389 133.033 914.507 132.428 914.743 131.925C914.982 131.422 915.308 131.037 915.723 130.77C916.138 130.503 916.608 130.369 917.134 130.369C917.54 130.369 917.867 130.438 918.114 130.574C918.364 130.707 918.557 130.864 918.693 131.043C918.833 131.222 918.941 131.379 919.017 131.516H919.094V128.273H920.368V137H919.124V135.982H919.017C918.941 136.121 918.83 136.28 918.685 136.459C918.543 136.638 918.347 136.794 918.097 136.928C917.847 137.061 917.523 137.128 917.125 137.128ZM917.406 136.041C917.773 136.041 918.083 135.945 918.335 135.751C918.591 135.555 918.784 135.284 918.915 134.938C919.048 134.591 919.115 134.187 919.115 133.727C919.115 133.273 919.05 132.875 918.919 132.534C918.789 132.193 918.597 131.928 918.344 131.737C918.091 131.547 917.779 131.452 917.406 131.452C917.023 131.452 916.703 131.551 916.448 131.75C916.192 131.949 915.999 132.22 915.868 132.564C915.74 132.908 915.676 133.295 915.676 133.727C915.676 134.165 915.742 134.558 915.872 134.908C916.003 135.257 916.196 135.534 916.452 135.739C916.71 135.94 917.029 136.041 917.406 136.041ZM924.091 137.145C923.677 137.145 923.302 137.068 922.966 136.915C922.631 136.759 922.366 136.533 922.17 136.237C921.976 135.942 921.88 135.58 921.88 135.151C921.88 134.781 921.951 134.477 922.093 134.239C922.235 134 922.427 133.811 922.668 133.672C922.91 133.533 923.18 133.428 923.478 133.357C923.776 133.286 924.08 133.232 924.39 133.195C924.782 133.149 925.1 133.112 925.344 133.084C925.589 133.053 925.766 133.003 925.877 132.935C925.988 132.866 926.043 132.756 926.043 132.602V132.572C926.043 132.2 925.938 131.912 925.728 131.707C925.52 131.503 925.211 131.401 924.799 131.401C924.37 131.401 924.032 131.496 923.785 131.686C923.54 131.874 923.371 132.082 923.278 132.312L922.08 132.04C922.222 131.642 922.43 131.321 922.702 131.077C922.978 130.83 923.295 130.651 923.653 130.54C924.01 130.426 924.387 130.369 924.782 130.369C925.043 130.369 925.32 130.401 925.613 130.463C925.908 130.523 926.184 130.634 926.439 130.795C926.698 130.957 926.91 131.189 927.074 131.49C927.239 131.788 927.322 132.176 927.322 132.653V137H926.077V136.105H926.026C925.944 136.27 925.82 136.432 925.655 136.591C925.491 136.75 925.279 136.882 925.02 136.987C924.762 137.092 924.452 137.145 924.091 137.145ZM924.368 136.122C924.721 136.122 925.022 136.053 925.272 135.913C925.525 135.774 925.716 135.592 925.847 135.368C925.981 135.141 926.047 134.898 926.047 134.639V133.795C926.002 133.841 925.914 133.884 925.783 133.923C925.655 133.96 925.509 133.993 925.344 134.021C925.18 134.047 925.019 134.071 924.863 134.094C924.706 134.114 924.576 134.131 924.471 134.145C924.224 134.176 923.998 134.229 923.793 134.303C923.591 134.376 923.43 134.483 923.307 134.622C923.188 134.759 923.128 134.94 923.128 135.168C923.128 135.483 923.245 135.722 923.478 135.884C923.711 136.043 924.008 136.122 924.368 136.122ZM929.019 137V130.455H930.25V131.494H930.318C930.438 131.142 930.648 130.865 930.949 130.663C931.253 130.459 931.597 130.357 931.98 130.357C932.06 130.357 932.154 130.359 932.262 130.365C932.372 130.371 932.459 130.378 932.521 130.386V131.605C932.47 131.591 932.379 131.575 932.249 131.558C932.118 131.538 931.987 131.528 931.857 131.528C931.556 131.528 931.287 131.592 931.051 131.72C930.818 131.845 930.634 132.02 930.497 132.244C930.361 132.466 930.293 132.719 930.293 133.003V137H929.019ZM935.47 137.145C935.056 137.145 934.681 137.068 934.345 136.915C934.01 136.759 933.744 136.533 933.548 136.237C933.355 135.942 933.259 135.58 933.259 135.151C933.259 134.781 933.33 134.477 933.472 134.239C933.614 134 933.806 133.811 934.047 133.672C934.289 133.533 934.558 133.428 934.857 133.357C935.155 133.286 935.459 133.232 935.769 133.195C936.161 133.149 936.479 133.112 936.723 133.084C936.968 133.053 937.145 133.003 937.256 132.935C937.367 132.866 937.422 132.756 937.422 132.602V132.572C937.422 132.2 937.317 131.912 937.107 131.707C936.899 131.503 936.59 131.401 936.178 131.401C935.749 131.401 935.411 131.496 935.164 131.686C934.919 131.874 934.75 132.082 934.656 132.312L933.459 132.04C933.601 131.642 933.808 131.321 934.081 131.077C934.357 130.83 934.673 130.651 935.031 130.54C935.389 130.426 935.766 130.369 936.161 130.369C936.422 130.369 936.699 130.401 936.992 130.463C937.287 130.523 937.563 130.634 937.818 130.795C938.077 130.957 938.289 131.189 938.453 131.49C938.618 131.788 938.7 132.176 938.7 132.653V137H937.456V136.105H937.405C937.323 136.27 937.199 136.432 937.034 136.591C936.869 136.75 936.658 136.882 936.399 136.987C936.141 137.092 935.831 137.145 935.47 137.145ZM935.747 136.122C936.1 136.122 936.401 136.053 936.651 135.913C936.904 135.774 937.095 135.592 937.226 135.368C937.36 135.141 937.426 134.898 937.426 134.639V133.795C937.381 133.841 937.293 133.884 937.162 133.923C937.034 133.96 936.888 133.993 936.723 134.021C936.558 134.047 936.398 134.071 936.242 134.094C936.085 134.114 935.955 134.131 935.85 134.145C935.602 134.176 935.377 134.229 935.172 134.303C934.97 134.376 934.808 134.483 934.686 134.622C934.567 134.759 934.507 134.94 934.507 135.168C934.507 135.483 934.624 135.722 934.857 135.884C935.09 136.043 935.387 136.122 935.747 136.122Z" fill="#101928"/>
<path d="M1232.52 128.273L1234.95 135.381H1235.05L1237.48 128.273H1238.9L1235.76 137H1234.24L1231.1 128.273H1232.52ZM1242.22 137.132C1241.58 137.132 1241.02 136.994 1240.56 136.719C1240.1 136.44 1239.74 136.05 1239.48 135.547C1239.23 135.041 1239.11 134.449 1239.11 133.77C1239.11 133.099 1239.23 132.509 1239.48 131.997C1239.74 131.486 1240.09 131.087 1240.54 130.8C1241 130.513 1241.53 130.369 1242.13 130.369C1242.5 130.369 1242.86 130.43 1243.21 130.553C1243.56 130.675 1243.87 130.866 1244.14 131.128C1244.42 131.389 1244.63 131.729 1244.79 132.146C1244.95 132.561 1245.03 133.065 1245.03 133.659V134.111H1239.83V133.156H1243.78C1243.78 132.821 1243.72 132.524 1243.58 132.266C1243.44 132.004 1243.25 131.798 1243 131.648C1242.76 131.497 1242.47 131.422 1242.14 131.422C1241.79 131.422 1241.47 131.51 1241.21 131.686C1240.94 131.859 1240.74 132.087 1240.59 132.368C1240.45 132.646 1240.38 132.949 1240.38 133.276V134.021C1240.38 134.459 1240.46 134.831 1240.61 135.138C1240.77 135.445 1240.98 135.679 1241.26 135.841C1241.54 136 1241.87 136.08 1242.24 136.08C1242.48 136.08 1242.7 136.045 1242.9 135.977C1243.1 135.906 1243.27 135.801 1243.41 135.662C1243.56 135.523 1243.67 135.351 1243.75 135.146L1244.95 135.364C1244.86 135.719 1244.68 136.03 1244.43 136.297C1244.18 136.561 1243.87 136.767 1243.5 136.915C1243.13 137.06 1242.7 137.132 1242.22 137.132ZM1247.72 128.273V137H1246.45V128.273H1247.72ZM1249.43 137V130.455H1250.66V131.52H1250.74C1250.88 131.159 1251.1 130.878 1251.41 130.676C1251.72 130.472 1252.09 130.369 1252.52 130.369C1252.96 130.369 1253.32 130.472 1253.62 130.676C1253.92 130.881 1254.14 131.162 1254.28 131.52H1254.35C1254.5 131.17 1254.75 130.892 1255.09 130.685C1255.43 130.474 1255.84 130.369 1256.31 130.369C1256.91 130.369 1257.39 130.555 1257.77 130.928C1258.14 131.3 1258.33 131.861 1258.33 132.611V137H1257.06V132.73C1257.06 132.287 1256.94 131.966 1256.7 131.767C1256.45 131.568 1256.17 131.469 1255.83 131.469C1255.42 131.469 1255.09 131.597 1254.86 131.852C1254.63 132.105 1254.52 132.43 1254.52 132.828V137H1253.25V132.649C1253.25 132.294 1253.14 132.009 1252.92 131.793C1252.69 131.577 1252.41 131.469 1252.05 131.469C1251.81 131.469 1251.59 131.533 1251.38 131.661C1251.18 131.786 1251.02 131.96 1250.89 132.185C1250.77 132.409 1250.71 132.669 1250.71 132.964V137H1249.43ZM1262.8 137.132C1262.18 137.132 1261.65 136.991 1261.19 136.71C1260.73 136.429 1260.38 136.036 1260.13 135.53C1259.87 135.024 1259.75 134.433 1259.75 133.757C1259.75 133.078 1259.87 132.484 1260.13 131.976C1260.38 131.467 1260.73 131.072 1261.19 130.791C1261.65 130.51 1262.18 130.369 1262.8 130.369C1263.41 130.369 1263.95 130.51 1264.4 130.791C1264.86 131.072 1265.22 131.467 1265.47 131.976C1265.72 132.484 1265.85 133.078 1265.85 133.757C1265.85 134.433 1265.72 135.024 1265.47 135.53C1265.22 136.036 1264.86 136.429 1264.4 136.71C1263.95 136.991 1263.41 137.132 1262.8 137.132ZM1262.8 136.062C1263.2 136.062 1263.53 135.957 1263.79 135.747C1264.05 135.537 1264.24 135.257 1264.37 134.908C1264.5 134.558 1264.56 134.173 1264.56 133.753C1264.56 133.335 1264.5 132.952 1264.37 132.602C1264.24 132.25 1264.05 131.967 1263.79 131.754C1263.53 131.541 1263.2 131.435 1262.8 131.435C1262.4 131.435 1262.07 131.541 1261.8 131.754C1261.54 131.967 1261.35 132.25 1261.22 132.602C1261.1 132.952 1261.03 133.335 1261.03 133.753C1261.03 134.173 1261.1 134.558 1261.22 134.908C1261.35 135.257 1261.54 135.537 1261.8 135.747C1262.07 135.957 1262.4 136.062 1262.8 136.062ZM1268.54 133.114V137H1267.27V130.455H1268.49V131.52H1268.57C1268.73 131.173 1268.96 130.895 1269.28 130.685C1269.61 130.474 1270.01 130.369 1270.5 130.369C1270.95 130.369 1271.34 130.463 1271.68 130.651C1272.01 130.835 1272.27 131.111 1272.46 131.477C1272.64 131.844 1272.73 132.297 1272.73 132.837V137H1271.46V132.99C1271.46 132.516 1271.34 132.145 1271.09 131.878C1270.84 131.608 1270.5 131.473 1270.07 131.473C1269.77 131.473 1269.51 131.537 1269.28 131.665C1269.05 131.793 1268.87 131.98 1268.74 132.227C1268.61 132.472 1268.54 132.767 1268.54 133.114ZM1277.5 130.455V131.477H1273.92V130.455H1277.5ZM1274.88 128.886H1276.16V135.078C1276.16 135.325 1276.19 135.511 1276.27 135.636C1276.34 135.759 1276.44 135.842 1276.55 135.888C1276.67 135.93 1276.8 135.952 1276.94 135.952C1277.04 135.952 1277.13 135.945 1277.21 135.93C1277.28 135.916 1277.34 135.905 1277.39 135.896L1277.62 136.949C1277.54 136.977 1277.44 137.006 1277.3 137.034C1277.17 137.065 1277 137.082 1276.79 137.085C1276.46 137.091 1276.14 137.031 1275.85 136.906C1275.56 136.781 1275.33 136.588 1275.15 136.327C1274.97 136.065 1274.88 135.737 1274.88 135.342V128.886Z" fill="#101928"/>
<path d="M1590.67 136L1588.25 127.273H1589.63L1591.33 134.031H1591.41L1593.18 127.273H1594.55L1596.32 134.036H1596.4L1598.1 127.273H1599.49L1597.06 136H1595.74L1593.9 129.463H1593.83L1592 136H1590.67ZM1602.76 136.132C1602.12 136.132 1601.56 135.994 1601.1 135.719C1600.63 135.44 1600.28 135.05 1600.02 134.547C1599.77 134.041 1599.65 133.449 1599.65 132.77C1599.65 132.099 1599.77 131.509 1600.02 130.997C1600.28 130.486 1600.63 130.087 1601.08 129.8C1601.53 129.513 1602.07 129.369 1602.67 129.369C1603.04 129.369 1603.4 129.43 1603.75 129.553C1604.09 129.675 1604.41 129.866 1604.68 130.128C1604.96 130.389 1605.17 130.729 1605.33 131.146C1605.49 131.561 1605.57 132.065 1605.57 132.659V133.111H1600.37V132.156H1604.32C1604.32 131.821 1604.25 131.524 1604.12 131.266C1603.98 131.004 1603.79 130.798 1603.54 130.648C1603.3 130.497 1603.01 130.422 1602.68 130.422C1602.32 130.422 1602.01 130.51 1601.75 130.686C1601.48 130.859 1601.28 131.087 1601.13 131.368C1600.99 131.646 1600.92 131.949 1600.92 132.276V133.021C1600.92 133.459 1601 133.831 1601.15 134.138C1601.3 134.445 1601.52 134.679 1601.8 134.841C1602.08 135 1602.4 135.08 1602.78 135.08C1603.02 135.08 1603.24 135.045 1603.44 134.977C1603.64 134.906 1603.81 134.801 1603.95 134.662C1604.1 134.523 1604.21 134.351 1604.28 134.146L1605.49 134.364C1605.39 134.719 1605.22 135.03 1604.97 135.297C1604.72 135.561 1604.41 135.767 1604.04 135.915C1603.67 136.06 1603.24 136.132 1602.76 136.132ZM1611.89 131.053L1610.74 131.257C1610.69 131.109 1610.61 130.969 1610.51 130.835C1610.4 130.702 1610.26 130.592 1610.09 130.507C1609.91 130.422 1609.69 130.379 1609.43 130.379C1609.07 130.379 1608.77 130.46 1608.52 130.622C1608.28 130.781 1608.16 130.987 1608.16 131.24C1608.16 131.459 1608.24 131.635 1608.4 131.768C1608.57 131.902 1608.83 132.011 1609.19 132.097L1610.23 132.335C1610.83 132.474 1611.28 132.689 1611.57 132.979C1611.87 133.268 1612.02 133.645 1612.02 134.108C1612.02 134.5 1611.9 134.849 1611.68 135.156C1611.45 135.46 1611.14 135.699 1610.74 135.872C1610.33 136.045 1609.87 136.132 1609.34 136.132C1608.61 136.132 1608.01 135.976 1607.55 135.663C1607.08 135.348 1606.8 134.901 1606.7 134.321L1607.93 134.134C1608 134.455 1608.16 134.697 1608.4 134.862C1608.64 135.024 1608.95 135.105 1609.33 135.105C1609.75 135.105 1610.08 135.018 1610.33 134.845C1610.58 134.669 1610.71 134.455 1610.71 134.202C1610.71 133.997 1610.63 133.825 1610.48 133.686C1610.33 133.547 1610.1 133.442 1609.79 133.371L1608.68 133.128C1608.07 132.989 1607.61 132.767 1607.32 132.463C1607.03 132.159 1606.89 131.774 1606.89 131.308C1606.89 130.922 1607 130.584 1607.21 130.294C1607.43 130.004 1607.73 129.778 1608.11 129.616C1608.49 129.452 1608.92 129.369 1609.41 129.369C1610.12 129.369 1610.68 129.523 1611.08 129.83C1611.49 130.134 1611.76 130.541 1611.89 131.053ZM1616.47 129.455V130.477H1612.9V129.455H1616.47ZM1613.86 127.886H1615.13V134.078C1615.13 134.325 1615.17 134.511 1615.24 134.636C1615.32 134.759 1615.41 134.842 1615.53 134.888C1615.65 134.93 1615.78 134.952 1615.92 134.952C1616.02 134.952 1616.11 134.945 1616.18 134.93C1616.26 134.916 1616.32 134.905 1616.36 134.896L1616.59 135.949C1616.52 135.977 1616.41 136.006 1616.28 136.034C1616.14 136.065 1615.97 136.082 1615.77 136.085C1615.43 136.091 1615.12 136.031 1614.83 135.906C1614.54 135.781 1614.31 135.588 1614.13 135.327C1613.95 135.065 1613.86 134.737 1613.86 134.342V127.886ZM1621.9 136H1620.5L1623.64 127.273H1625.16L1628.3 136H1626.91L1624.44 128.858H1624.37L1621.9 136ZM1622.13 132.582H1626.67V133.69H1622.13V132.582ZM1629.46 136V129.455H1630.69V130.494H1630.76C1630.88 130.142 1631.09 129.865 1631.39 129.663C1631.7 129.459 1632.04 129.357 1632.42 129.357C1632.5 129.357 1632.6 129.359 1632.7 129.365C1632.82 129.371 1632.9 129.378 1632.96 129.386V130.605C1632.91 130.591 1632.82 130.575 1632.69 130.558C1632.56 130.538 1632.43 130.528 1632.3 130.528C1632 130.528 1631.73 130.592 1631.49 130.72C1631.26 130.845 1631.08 131.02 1630.94 131.244C1630.8 131.466 1630.74 131.719 1630.74 132.003V136H1629.46ZM1634.07 136V129.455H1635.34V136H1634.07ZM1634.71 128.445C1634.49 128.445 1634.3 128.371 1634.14 128.223C1633.98 128.072 1633.91 127.893 1633.91 127.686C1633.91 127.476 1633.98 127.297 1634.14 127.149C1634.3 126.999 1634.49 126.923 1634.71 126.923C1634.93 126.923 1635.12 126.999 1635.28 127.149C1635.44 127.297 1635.52 127.476 1635.52 127.686C1635.52 127.893 1635.44 128.072 1635.28 128.223C1635.12 128.371 1634.93 128.445 1634.71 128.445ZM1638.33 132.114V136H1637.06V129.455H1638.28V130.52H1638.36C1638.51 130.173 1638.75 129.895 1639.07 129.685C1639.39 129.474 1639.8 129.369 1640.29 129.369C1640.74 129.369 1641.13 129.463 1641.46 129.651C1641.8 129.835 1642.06 130.111 1642.24 130.477C1642.43 130.844 1642.52 131.297 1642.52 131.837V136H1641.24V131.99C1641.24 131.516 1641.12 131.145 1640.87 130.878C1640.63 130.608 1640.29 130.473 1639.86 130.473C1639.56 130.473 1639.3 130.537 1639.07 130.665C1638.84 130.793 1638.66 130.98 1638.53 131.227C1638.4 131.472 1638.33 131.767 1638.33 132.114ZM1646.68 136.128C1646.15 136.128 1645.68 135.993 1645.26 135.723C1644.85 135.45 1644.53 135.062 1644.29 134.56C1644.06 134.054 1643.94 133.447 1643.94 132.74C1643.94 132.033 1644.06 131.428 1644.3 130.925C1644.53 130.422 1644.86 130.037 1645.28 129.77C1645.69 129.503 1646.16 129.369 1646.69 129.369C1647.09 129.369 1647.42 129.438 1647.67 129.574C1647.92 129.707 1648.11 129.864 1648.25 130.043C1648.39 130.222 1648.49 130.379 1648.57 130.516H1648.65V127.273H1649.92V136H1648.68V134.982H1648.57C1648.49 135.121 1648.38 135.28 1648.24 135.459C1648.1 135.638 1647.9 135.794 1647.65 135.928C1647.4 136.061 1647.08 136.128 1646.68 136.128ZM1646.96 135.041C1647.33 135.041 1647.64 134.945 1647.89 134.751C1648.14 134.555 1648.34 134.284 1648.47 133.938C1648.6 133.591 1648.67 133.187 1648.67 132.727C1648.67 132.273 1648.6 131.875 1648.47 131.534C1648.34 131.193 1648.15 130.928 1647.9 130.737C1647.64 130.547 1647.33 130.452 1646.96 130.452C1646.58 130.452 1646.26 130.551 1646 130.75C1645.74 130.949 1645.55 131.22 1645.42 131.564C1645.29 131.908 1645.23 132.295 1645.23 132.727C1645.23 133.165 1645.29 133.558 1645.43 133.908C1645.56 134.257 1645.75 134.534 1646 134.739C1646.26 134.94 1646.58 135.041 1646.96 135.041ZM1653.64 136.145C1653.23 136.145 1652.85 136.068 1652.52 135.915C1652.18 135.759 1651.92 135.533 1651.72 135.237C1651.53 134.942 1651.43 134.58 1651.43 134.151C1651.43 133.781 1651.5 133.477 1651.65 133.239C1651.79 133 1651.98 132.811 1652.22 132.672C1652.46 132.533 1652.73 132.428 1653.03 132.357C1653.33 132.286 1653.63 132.232 1653.94 132.195C1654.33 132.149 1654.65 132.112 1654.9 132.084C1655.14 132.053 1655.32 132.003 1655.43 131.935C1655.54 131.866 1655.6 131.756 1655.6 131.602V131.572C1655.6 131.2 1655.49 130.912 1655.28 130.707C1655.07 130.503 1654.76 130.401 1654.35 130.401C1653.92 130.401 1653.58 130.496 1653.34 130.686C1653.09 130.874 1652.92 131.082 1652.83 131.312L1651.63 131.04C1651.77 130.642 1651.98 130.321 1652.25 130.077C1652.53 129.83 1652.85 129.651 1653.21 129.54C1653.56 129.426 1653.94 129.369 1654.33 129.369C1654.6 129.369 1654.87 129.401 1655.17 129.463C1655.46 129.523 1655.74 129.634 1655.99 129.795C1656.25 129.957 1656.46 130.189 1656.63 130.49C1656.79 130.788 1656.87 131.176 1656.87 131.653V136H1655.63V135.105H1655.58C1655.5 135.27 1655.37 135.432 1655.21 135.591C1655.04 135.75 1654.83 135.882 1654.57 135.987C1654.31 136.092 1654 136.145 1653.64 136.145ZM1653.92 135.122C1654.27 135.122 1654.57 135.053 1654.82 134.913C1655.08 134.774 1655.27 134.592 1655.4 134.368C1655.53 134.141 1655.6 133.898 1655.6 133.639V132.795C1655.55 132.841 1655.47 132.884 1655.34 132.923C1655.21 132.96 1655.06 132.993 1654.9 133.021C1654.73 133.047 1654.57 133.071 1654.42 133.094C1654.26 133.114 1654.13 133.131 1654.02 133.145C1653.78 133.176 1653.55 133.229 1653.35 133.303C1653.14 133.376 1652.98 133.483 1652.86 133.622C1652.74 133.759 1652.68 133.94 1652.68 134.168C1652.68 134.483 1652.8 134.722 1653.03 134.884C1653.26 135.043 1653.56 135.122 1653.92 135.122ZM1659.85 127.273V136H1658.57V127.273H1659.85ZM1664.38 136.132C1663.74 136.132 1663.18 135.994 1662.71 135.719C1662.25 135.44 1661.89 135.05 1661.64 134.547C1661.39 134.041 1661.27 133.449 1661.27 132.77C1661.27 132.099 1661.39 131.509 1661.64 130.997C1661.89 130.486 1662.25 130.087 1662.7 129.8C1663.15 129.513 1663.68 129.369 1664.29 129.369C1664.66 129.369 1665.02 129.43 1665.37 129.553C1665.71 129.675 1666.02 129.866 1666.3 130.128C1666.57 130.389 1666.79 130.729 1666.95 131.146C1667.11 131.561 1667.19 132.065 1667.19 132.659V133.111H1661.99V132.156H1665.94C1665.94 131.821 1665.87 131.524 1665.74 131.266C1665.6 131.004 1665.41 130.798 1665.16 130.648C1664.92 130.497 1664.63 130.422 1664.3 130.422C1663.94 130.422 1663.63 130.51 1663.36 130.686C1663.1 130.859 1662.89 131.087 1662.75 131.368C1662.61 131.646 1662.54 131.949 1662.54 132.276V133.021C1662.54 133.459 1662.61 133.831 1662.77 134.138C1662.92 134.445 1663.14 134.679 1663.42 134.841C1663.7 135 1664.02 135.08 1664.39 135.08C1664.63 135.08 1664.86 135.045 1665.05 134.977C1665.25 134.906 1665.42 134.801 1665.57 134.662C1665.71 134.523 1665.83 134.351 1665.9 134.146L1667.11 134.364C1667.01 134.719 1666.84 135.03 1666.59 135.297C1666.34 135.561 1666.03 135.767 1665.65 135.915C1665.28 136.06 1664.86 136.132 1664.38 136.132Z" fill="#101928"/>
<rect x="48" y="167" width="16" height="16" rx="2" fill="white"/>
<rect x="48" y="167" width="16" height="16" rx="2" stroke="#DCE2EC" stroke-width="1.5"/>
<path d="M302.039 179V178.045L304.992 174.986C305.307 174.653 305.567 174.362 305.772 174.112C305.979 173.859 306.134 173.619 306.236 173.392C306.338 173.165 306.39 172.923 306.39 172.668C306.39 172.378 306.321 172.128 306.185 171.918C306.049 171.705 305.863 171.541 305.627 171.428C305.391 171.311 305.125 171.253 304.83 171.253C304.517 171.253 304.245 171.317 304.012 171.445C303.779 171.572 303.6 171.753 303.475 171.986C303.35 172.219 303.287 172.491 303.287 172.804H302.03C302.03 172.273 302.152 171.808 302.397 171.411C302.641 171.013 302.976 170.705 303.402 170.486C303.828 170.264 304.313 170.153 304.855 170.153C305.404 170.153 305.887 170.263 306.304 170.482C306.725 170.697 307.053 170.993 307.289 171.368C307.525 171.74 307.642 172.161 307.642 172.629C307.642 172.953 307.581 173.27 307.459 173.58C307.34 173.889 307.131 174.234 306.833 174.615C306.534 174.993 306.12 175.452 305.588 175.991L303.854 177.807V177.871H307.783V179H302.039Z" fill="#101928"/>
<path d="M582.184 179H579.359V170.273H582.274C583.129 170.273 583.863 170.447 584.477 170.797C585.091 171.143 585.561 171.642 585.888 172.293C586.217 172.94 586.382 173.717 586.382 174.624C586.382 175.533 586.216 176.314 585.883 176.967C585.554 177.621 585.077 178.124 584.452 178.476C583.827 178.825 583.071 179 582.184 179ZM580.676 177.849H582.112C582.777 177.849 583.329 177.724 583.77 177.474C584.21 177.222 584.54 176.857 584.758 176.379C584.977 175.899 585.086 175.314 585.086 174.624C585.086 173.939 584.977 173.358 584.758 172.881C584.542 172.403 584.22 172.041 583.791 171.794C583.362 171.547 582.829 171.423 582.193 171.423H580.676V177.849ZM588.019 179V170.273H591.13C591.806 170.273 592.367 170.389 592.813 170.622C593.262 170.855 593.597 171.178 593.819 171.589C594.041 171.999 594.151 172.472 594.151 173.009C594.151 173.543 594.039 174.013 593.815 174.419C593.593 174.822 593.258 175.136 592.809 175.361C592.363 175.585 591.802 175.697 591.126 175.697H588.769V174.564H591.007C591.433 174.564 591.779 174.503 592.046 174.381C592.316 174.259 592.514 174.081 592.639 173.848C592.764 173.615 592.826 173.335 592.826 173.009C592.826 172.679 592.762 172.393 592.634 172.152C592.509 171.911 592.312 171.726 592.042 171.598C591.775 171.467 591.424 171.402 590.99 171.402H589.336V179H588.019ZM592.328 175.062L594.484 179H592.984L590.87 175.062H592.328ZM603.002 173.111H601.673C601.622 172.827 601.526 172.577 601.387 172.361C601.248 172.145 601.078 171.962 600.876 171.811C600.674 171.661 600.448 171.547 600.198 171.47C599.951 171.393 599.688 171.355 599.41 171.355C598.907 171.355 598.457 171.482 598.059 171.734C597.664 171.987 597.352 172.358 597.122 172.847C596.894 173.335 596.781 173.932 596.781 174.636C596.781 175.347 596.894 175.946 597.122 176.435C597.352 176.923 597.666 177.293 598.063 177.543C598.461 177.793 598.909 177.918 599.406 177.918C599.681 177.918 599.943 177.881 600.19 177.807C600.44 177.73 600.666 177.618 600.867 177.47C601.069 177.322 601.24 177.142 601.379 176.929C601.521 176.713 601.619 176.466 601.673 176.188L603.002 176.192C602.931 176.621 602.794 177.016 602.589 177.376C602.387 177.734 602.127 178.044 601.809 178.305C601.494 178.564 601.133 178.764 600.727 178.906C600.32 179.048 599.877 179.119 599.397 179.119C598.642 179.119 597.968 178.94 597.377 178.582C596.786 178.222 596.32 177.706 595.98 177.036C595.642 176.365 595.472 175.565 595.472 174.636C595.472 173.705 595.643 172.905 595.984 172.237C596.325 171.567 596.791 171.053 597.382 170.695C597.972 170.334 598.644 170.153 599.397 170.153C599.86 170.153 600.292 170.22 600.693 170.354C601.096 170.484 601.458 170.678 601.779 170.933C602.1 171.186 602.366 171.496 602.576 171.862C602.786 172.226 602.928 172.642 603.002 173.111Z" fill="#101928"/>
<path d="M904.558 179V170.273H910.03V171.406H905.875V174.065H909.744V175.195H905.875V177.866H910.081V179H904.558ZM912.961 170.273V179H911.687V170.273H912.961ZM917.125 179.128C916.597 179.128 916.125 178.993 915.71 178.723C915.298 178.45 914.975 178.062 914.739 177.56C914.506 177.054 914.389 176.447 914.389 175.74C914.389 175.033 914.507 174.428 914.743 173.925C914.982 173.422 915.308 173.037 915.723 172.77C916.138 172.503 916.608 172.369 917.134 172.369C917.54 172.369 917.867 172.438 918.114 172.574C918.364 172.707 918.557 172.864 918.693 173.043C918.833 173.222 918.941 173.379 919.017 173.516H919.094V170.273H920.368V179H919.124V177.982H919.017C918.941 178.121 918.83 178.28 918.685 178.459C918.543 178.638 918.347 178.794 918.097 178.928C917.847 179.061 917.523 179.128 917.125 179.128ZM917.406 178.041C917.773 178.041 918.083 177.945 918.335 177.751C918.591 177.555 918.784 177.284 918.915 176.938C919.048 176.591 919.115 176.187 919.115 175.727C919.115 175.273 919.05 174.875 918.919 174.534C918.789 174.193 918.597 173.928 918.344 173.737C918.091 173.547 917.779 173.452 917.406 173.452C917.023 173.452 916.703 173.551 916.448 173.75C916.192 173.949 915.999 174.22 915.868 174.564C915.74 174.908 915.676 175.295 915.676 175.727C915.676 176.165 915.742 176.558 915.872 176.908C916.003 177.257 916.196 177.534 916.452 177.739C916.71 177.94 917.029 178.041 917.406 178.041ZM924.091 179.145C923.677 179.145 923.302 179.068 922.966 178.915C922.631 178.759 922.366 178.533 922.17 178.237C921.976 177.942 921.88 177.58 921.88 177.151C921.88 176.781 921.951 176.477 922.093 176.239C922.235 176 922.427 175.811 922.668 175.672C922.91 175.533 923.18 175.428 923.478 175.357C923.776 175.286 924.08 175.232 924.39 175.195C924.782 175.149 925.1 175.112 925.344 175.084C925.589 175.053 925.766 175.003 925.877 174.935C925.988 174.866 926.043 174.756 926.043 174.602V174.572C926.043 174.2 925.938 173.912 925.728 173.707C925.52 173.503 925.211 173.401 924.799 173.401C924.37 173.401 924.032 173.496 923.785 173.686C923.54 173.874 923.371 174.082 923.278 174.312L922.08 174.04C922.222 173.642 922.43 173.321 922.702 173.077C922.978 172.83 923.295 172.651 923.653 172.54C924.01 172.426 924.387 172.369 924.782 172.369C925.043 172.369 925.32 172.401 925.613 172.463C925.908 172.523 926.184 172.634 926.439 172.795C926.698 172.957 926.91 173.189 927.074 173.49C927.239 173.788 927.322 174.176 927.322 174.653V179H926.077V178.105H926.026C925.944 178.27 925.82 178.432 925.655 178.591C925.491 178.75 925.279 178.882 925.02 178.987C924.762 179.092 924.452 179.145 924.091 179.145ZM924.368 178.122C924.721 178.122 925.022 178.053 925.272 177.913C925.525 177.774 925.716 177.592 925.847 177.368C925.981 177.141 926.047 176.898 926.047 176.639V175.795C926.002 175.841 925.914 175.884 925.783 175.923C925.655 175.96 925.509 175.993 925.344 176.021C925.18 176.047 925.019 176.071 924.863 176.094C924.706 176.114 924.576 176.131 924.471 176.145C924.224 176.176 923.998 176.229 923.793 176.303C923.591 176.376 923.43 176.483 923.307 176.622C923.188 176.759 923.128 176.94 923.128 177.168C923.128 177.483 923.245 177.722 923.478 177.884C923.711 178.043 924.008 178.122 924.368 178.122ZM929.019 179V172.455H930.25V173.494H930.318C930.438 173.142 930.648 172.865 930.949 172.663C931.253 172.459 931.597 172.357 931.98 172.357C932.06 172.357 932.154 172.359 932.262 172.365C932.372 172.371 932.459 172.378 932.521 172.386V173.605C932.47 173.591 932.379 173.575 932.249 173.558C932.118 173.538 931.987 173.528 931.857 173.528C931.556 173.528 931.287 173.592 931.051 173.72C930.818 173.845 930.634 174.02 930.497 174.244C930.361 174.466 930.293 174.719 930.293 175.003V179H929.019ZM935.47 179.145C935.056 179.145 934.681 179.068 934.345 178.915C934.01 178.759 933.744 178.533 933.548 178.237C933.355 177.942 933.259 177.58 933.259 177.151C933.259 176.781 933.33 176.477 933.472 176.239C933.614 176 933.806 175.811 934.047 175.672C934.289 175.533 934.558 175.428 934.857 175.357C935.155 175.286 935.459 175.232 935.769 175.195C936.161 175.149 936.479 175.112 936.723 175.084C936.968 175.053 937.145 175.003 937.256 174.935C937.367 174.866 937.422 174.756 937.422 174.602V174.572C937.422 174.2 937.317 173.912 937.107 173.707C936.899 173.503 936.59 173.401 936.178 173.401C935.749 173.401 935.411 173.496 935.164 173.686C934.919 173.874 934.75 174.082 934.656 174.312L933.459 174.04C933.601 173.642 933.808 173.321 934.081 173.077C934.357 172.83 934.673 172.651 935.031 172.54C935.389 172.426 935.766 172.369 936.161 172.369C936.422 172.369 936.699 172.401 936.992 172.463C937.287 172.523 937.563 172.634 937.818 172.795C938.077 172.957 938.289 173.189 938.453 173.49C938.618 173.788 938.7 174.176 938.7 174.653V179H937.456V178.105H937.405C937.323 178.27 937.199 178.432 937.034 178.591C936.869 178.75 936.658 178.882 936.399 178.987C936.141 179.092 935.831 179.145 935.47 179.145ZM935.747 178.122C936.1 178.122 936.401 178.053 936.651 177.913C936.904 177.774 937.095 177.592 937.226 177.368C937.36 177.141 937.426 176.898 937.426 176.639V175.795C937.381 175.841 937.293 175.884 937.162 175.923C937.034 175.96 936.888 175.993 936.723 176.021C936.558 176.047 936.398 176.071 936.242 176.094C936.085 176.114 935.955 176.131 935.85 176.145C935.602 176.176 935.377 176.229 935.172 176.303C934.97 176.376 934.808 176.483 934.686 176.622C934.567 176.759 934.507 176.94 934.507 177.168C934.507 177.483 934.624 177.722 934.857 177.884C935.09 178.043 935.387 178.122 935.747 178.122Z" fill="#101928"/>
<path d="M1232.52 170.273L1234.95 177.381H1235.05L1237.48 170.273H1238.9L1235.76 179H1234.24L1231.1 170.273H1232.52ZM1242.22 179.132C1241.58 179.132 1241.02 178.994 1240.56 178.719C1240.1 178.44 1239.74 178.05 1239.48 177.547C1239.23 177.041 1239.11 176.449 1239.11 175.77C1239.11 175.099 1239.23 174.509 1239.48 173.997C1239.74 173.486 1240.09 173.087 1240.54 172.8C1241 172.513 1241.53 172.369 1242.13 172.369C1242.5 172.369 1242.86 172.43 1243.21 172.553C1243.56 172.675 1243.87 172.866 1244.14 173.128C1244.42 173.389 1244.63 173.729 1244.79 174.146C1244.95 174.561 1245.03 175.065 1245.03 175.659V176.111H1239.83V175.156H1243.78C1243.78 174.821 1243.72 174.524 1243.58 174.266C1243.44 174.004 1243.25 173.798 1243 173.648C1242.76 173.497 1242.47 173.422 1242.14 173.422C1241.79 173.422 1241.47 173.51 1241.21 173.686C1240.94 173.859 1240.74 174.087 1240.59 174.368C1240.45 174.646 1240.38 174.949 1240.38 175.276V176.021C1240.38 176.459 1240.46 176.831 1240.61 177.138C1240.77 177.445 1240.98 177.679 1241.26 177.841C1241.54 178 1241.87 178.08 1242.24 178.08C1242.48 178.08 1242.7 178.045 1242.9 177.977C1243.1 177.906 1243.27 177.801 1243.41 177.662C1243.56 177.523 1243.67 177.351 1243.75 177.146L1244.95 177.364C1244.86 177.719 1244.68 178.03 1244.43 178.297C1244.18 178.561 1243.87 178.767 1243.5 178.915C1243.13 179.06 1242.7 179.132 1242.22 179.132ZM1247.72 170.273V179H1246.45V170.273H1247.72ZM1249.43 179V172.455H1250.66V173.52H1250.74C1250.88 173.159 1251.1 172.878 1251.41 172.676C1251.72 172.472 1252.09 172.369 1252.52 172.369C1252.96 172.369 1253.32 172.472 1253.62 172.676C1253.92 172.881 1254.14 173.162 1254.28 173.52H1254.35C1254.5 173.17 1254.75 172.892 1255.09 172.685C1255.43 172.474 1255.84 172.369 1256.31 172.369C1256.91 172.369 1257.39 172.555 1257.77 172.928C1258.14 173.3 1258.33 173.861 1258.33 174.611V179H1257.06V174.73C1257.06 174.287 1256.94 173.966 1256.7 173.767C1256.45 173.568 1256.17 173.469 1255.83 173.469C1255.42 173.469 1255.09 173.597 1254.86 173.852C1254.63 174.105 1254.52 174.43 1254.52 174.828V179H1253.25V174.649C1253.25 174.294 1253.14 174.009 1252.92 173.793C1252.69 173.577 1252.41 173.469 1252.05 173.469C1251.81 173.469 1251.59 173.533 1251.38 173.661C1251.18 173.786 1251.02 173.96 1250.89 174.185C1250.77 174.409 1250.71 174.669 1250.71 174.964V179H1249.43ZM1262.8 179.132C1262.18 179.132 1261.65 178.991 1261.19 178.71C1260.73 178.429 1260.38 178.036 1260.13 177.53C1259.87 177.024 1259.75 176.433 1259.75 175.757C1259.75 175.078 1259.87 174.484 1260.13 173.976C1260.38 173.467 1260.73 173.072 1261.19 172.791C1261.65 172.51 1262.18 172.369 1262.8 172.369C1263.41 172.369 1263.95 172.51 1264.4 172.791C1264.86 173.072 1265.22 173.467 1265.47 173.976C1265.72 174.484 1265.85 175.078 1265.85 175.757C1265.85 176.433 1265.72 177.024 1265.47 177.53C1265.22 178.036 1264.86 178.429 1264.4 178.71C1263.95 178.991 1263.41 179.132 1262.8 179.132ZM1262.8 178.062C1263.2 178.062 1263.53 177.957 1263.79 177.747C1264.05 177.537 1264.24 177.257 1264.37 176.908C1264.5 176.558 1264.56 176.173 1264.56 175.753C1264.56 175.335 1264.5 174.952 1264.37 174.602C1264.24 174.25 1264.05 173.967 1263.79 173.754C1263.53 173.541 1263.2 173.435 1262.8 173.435C1262.4 173.435 1262.07 173.541 1261.8 173.754C1261.54 173.967 1261.35 174.25 1261.22 174.602C1261.1 174.952 1261.03 175.335 1261.03 175.753C1261.03 176.173 1261.1 176.558 1261.22 176.908C1261.35 177.257 1261.54 177.537 1261.8 177.747C1262.07 177.957 1262.4 178.062 1262.8 178.062ZM1268.54 175.114V179H1267.27V172.455H1268.49V173.52H1268.57C1268.73 173.173 1268.96 172.895 1269.28 172.685C1269.61 172.474 1270.01 172.369 1270.5 172.369C1270.95 172.369 1271.34 172.463 1271.68 172.651C1272.01 172.835 1272.27 173.111 1272.46 173.477C1272.64 173.844 1272.73 174.297 1272.73 174.837V179H1271.46V174.99C1271.46 174.516 1271.34 174.145 1271.09 173.878C1270.84 173.608 1270.5 173.473 1270.07 173.473C1269.77 173.473 1269.51 173.537 1269.28 173.665C1269.05 173.793 1268.87 173.98 1268.74 174.227C1268.61 174.472 1268.54 174.767 1268.54 175.114ZM1277.5 172.455V173.477H1273.92V172.455H1277.5ZM1274.88 170.886H1276.16V177.078C1276.16 177.325 1276.19 177.511 1276.27 177.636C1276.34 177.759 1276.44 177.842 1276.55 177.888C1276.67 177.93 1276.8 177.952 1276.94 177.952C1277.04 177.952 1277.13 177.945 1277.21 177.93C1277.28 177.916 1277.34 177.905 1277.39 177.896L1277.62 178.949C1277.54 178.977 1277.44 179.006 1277.3 179.034C1277.17 179.065 1277 179.082 1276.79 179.085C1276.46 179.091 1276.14 179.031 1275.85 178.906C1275.56 178.781 1275.33 178.588 1275.15 178.327C1274.97 178.065 1274.88 177.737 1274.88 177.342V170.886ZM1285.38 170.273V179H1284.06V171.594H1284L1281.92 172.957V171.696L1284.09 170.273H1285.38ZM1287.74 179V178.045L1290.69 174.986C1291.01 174.653 1291.27 174.362 1291.47 174.112C1291.68 173.859 1291.83 173.619 1291.94 173.392C1292.04 173.165 1292.09 172.923 1292.09 172.668C1292.09 172.378 1292.02 172.128 1291.88 171.918C1291.75 171.705 1291.56 171.541 1291.33 171.428C1291.09 171.311 1290.82 171.253 1290.53 171.253C1290.22 171.253 1289.94 171.317 1289.71 171.445C1289.48 171.572 1289.3 171.753 1289.17 171.986C1289.05 172.219 1288.99 172.491 1288.99 172.804H1287.73C1287.73 172.273 1287.85 171.808 1288.1 171.411C1288.34 171.013 1288.68 170.705 1289.1 170.486C1289.53 170.264 1290.01 170.153 1290.55 170.153C1291.1 170.153 1291.59 170.263 1292 170.482C1292.42 170.697 1292.75 170.993 1292.99 171.368C1293.22 171.74 1293.34 172.161 1293.34 172.629C1293.34 172.953 1293.28 173.27 1293.16 173.58C1293.04 173.889 1292.83 174.234 1292.53 174.615C1292.23 174.993 1291.82 175.452 1291.29 175.991L1289.55 177.807V177.871H1293.48V179H1287.74Z" fill="#101928"/>
<path d="M1588.96 178V169.273H1594.43V170.406H1590.28V173.065H1594.14V174.195H1590.28V176.866H1594.48V178H1588.96ZM1597.99 178.145C1597.58 178.145 1597.2 178.068 1596.87 177.915C1596.53 177.759 1596.27 177.533 1596.07 177.237C1595.88 176.942 1595.78 176.58 1595.78 176.151C1595.78 175.781 1595.85 175.477 1595.99 175.239C1596.14 175 1596.33 174.811 1596.57 174.672C1596.81 174.533 1597.08 174.428 1597.38 174.357C1597.68 174.286 1597.98 174.232 1598.29 174.195C1598.68 174.149 1599 174.112 1599.24 174.084C1599.49 174.053 1599.67 174.003 1599.78 173.935C1599.89 173.866 1599.94 173.756 1599.94 173.602V173.572C1599.94 173.2 1599.84 172.912 1599.63 172.707C1599.42 172.503 1599.11 172.401 1598.7 172.401C1598.27 172.401 1597.93 172.496 1597.69 172.686C1597.44 172.874 1597.27 173.082 1597.18 173.312L1595.98 173.04C1596.12 172.642 1596.33 172.321 1596.6 172.077C1596.88 171.83 1597.19 171.651 1597.55 171.54C1597.91 171.426 1598.29 171.369 1598.68 171.369C1598.94 171.369 1599.22 171.401 1599.51 171.463C1599.81 171.523 1600.08 171.634 1600.34 171.795C1600.6 171.957 1600.81 172.189 1600.97 172.49C1601.14 172.788 1601.22 173.176 1601.22 173.653V178H1599.98V177.105H1599.93C1599.84 177.27 1599.72 177.432 1599.56 177.591C1599.39 177.75 1599.18 177.882 1598.92 177.987C1598.66 178.092 1598.35 178.145 1597.99 178.145ZM1598.27 177.122C1598.62 177.122 1598.92 177.053 1599.17 176.913C1599.43 176.774 1599.62 176.592 1599.75 176.368C1599.88 176.141 1599.95 175.898 1599.95 175.639V174.795C1599.9 174.841 1599.81 174.884 1599.68 174.923C1599.56 174.96 1599.41 174.993 1599.24 175.021C1599.08 175.047 1598.92 175.071 1598.76 175.094C1598.61 175.114 1598.48 175.131 1598.37 175.145C1598.12 175.176 1597.9 175.229 1597.69 175.303C1597.49 175.376 1597.33 175.483 1597.21 175.622C1597.09 175.759 1597.03 175.94 1597.03 176.168C1597.03 176.483 1597.15 176.722 1597.38 176.884C1597.61 177.043 1597.91 177.122 1598.27 177.122ZM1607.82 173.053L1606.67 173.257C1606.62 173.109 1606.54 172.969 1606.44 172.835C1606.34 172.702 1606.2 172.592 1606.02 172.507C1605.85 172.422 1605.63 172.379 1605.36 172.379C1605 172.379 1604.7 172.46 1604.46 172.622C1604.22 172.781 1604.1 172.987 1604.1 173.24C1604.1 173.459 1604.18 173.635 1604.34 173.768C1604.5 173.902 1604.76 174.011 1605.12 174.097L1606.16 174.335C1606.76 174.474 1607.21 174.689 1607.51 174.979C1607.8 175.268 1607.95 175.645 1607.95 176.108C1607.95 176.5 1607.84 176.849 1607.61 177.156C1607.39 177.46 1607.07 177.699 1606.67 177.872C1606.27 178.045 1605.8 178.132 1605.28 178.132C1604.54 178.132 1603.94 177.976 1603.48 177.663C1603.02 177.348 1602.73 176.901 1602.63 176.321L1603.86 176.134C1603.94 176.455 1604.1 176.697 1604.33 176.862C1604.57 177.024 1604.88 177.105 1605.27 177.105C1605.68 177.105 1606.02 177.018 1606.27 176.845C1606.52 176.669 1606.64 176.455 1606.64 176.202C1606.64 175.997 1606.57 175.825 1606.41 175.686C1606.26 175.547 1606.03 175.442 1605.72 175.371L1604.61 175.128C1604 174.989 1603.55 174.767 1603.26 174.463C1602.97 174.159 1602.82 173.774 1602.82 173.308C1602.82 172.922 1602.93 172.584 1603.14 172.294C1603.36 172.004 1603.66 171.778 1604.04 171.616C1604.42 171.452 1604.86 171.369 1605.35 171.369C1606.06 171.369 1606.61 171.523 1607.02 171.83C1607.42 172.134 1607.69 172.541 1607.82 173.053ZM1612.41 171.455V172.477H1608.83V171.455H1612.41ZM1609.79 169.886H1611.07V176.078C1611.07 176.325 1611.1 176.511 1611.18 176.636C1611.25 176.759 1611.35 176.842 1611.46 176.888C1611.58 176.93 1611.71 176.952 1611.85 176.952C1611.95 176.952 1612.04 176.945 1612.12 176.93C1612.19 176.916 1612.25 176.905 1612.3 176.896L1612.53 177.949C1612.45 177.977 1612.35 178.006 1612.21 178.034C1612.08 178.065 1611.91 178.082 1611.7 178.085C1611.37 178.091 1611.05 178.031 1610.76 177.906C1610.47 177.781 1610.24 177.588 1610.06 177.327C1609.88 177.065 1609.79 176.737 1609.79 176.342V169.886ZM1617.83 178H1616.44L1619.58 169.273H1621.1L1624.24 178H1622.84L1620.37 170.858H1620.3L1617.83 178ZM1618.07 174.582H1622.6V175.69H1618.07V174.582ZM1625.4 178V171.455H1626.63V172.494H1626.7C1626.81 172.142 1627.02 171.865 1627.33 171.663C1627.63 171.459 1627.97 171.357 1628.36 171.357C1628.44 171.357 1628.53 171.359 1628.64 171.365C1628.75 171.371 1628.84 171.378 1628.9 171.386V172.605C1628.85 172.591 1628.76 172.575 1628.63 172.558C1628.5 172.538 1628.36 172.528 1628.23 172.528C1627.93 172.528 1627.66 172.592 1627.43 172.72C1627.2 172.845 1627.01 173.02 1626.87 173.244C1626.74 173.466 1626.67 173.719 1626.67 174.003V178H1625.4ZM1630 178V171.455H1631.28V178H1630ZM1630.64 170.445C1630.42 170.445 1630.23 170.371 1630.07 170.223C1629.92 170.072 1629.84 169.893 1629.84 169.686C1629.84 169.476 1629.92 169.297 1630.07 169.149C1630.23 168.999 1630.42 168.923 1630.64 168.923C1630.87 168.923 1631.06 168.999 1631.21 169.149C1631.37 169.297 1631.45 169.476 1631.45 169.686C1631.45 169.893 1631.37 170.072 1631.21 170.223C1631.06 170.371 1630.87 170.445 1630.64 170.445ZM1634.26 174.114V178H1632.99V171.455H1634.21V172.52H1634.29C1634.44 172.173 1634.68 171.895 1635 171.685C1635.32 171.474 1635.73 171.369 1636.22 171.369C1636.67 171.369 1637.06 171.463 1637.4 171.651C1637.73 171.835 1637.99 172.111 1638.18 172.477C1638.36 172.844 1638.45 173.297 1638.45 173.837V178H1637.18V173.99C1637.18 173.516 1637.05 173.145 1636.81 172.878C1636.56 172.608 1636.22 172.473 1635.79 172.473C1635.49 172.473 1635.23 172.537 1635 172.665C1634.77 172.793 1634.59 172.98 1634.46 173.227C1634.33 173.472 1634.26 173.767 1634.26 174.114ZM1642.61 178.128C1642.08 178.128 1641.61 177.993 1641.2 177.723C1640.78 177.45 1640.46 177.062 1640.23 176.56C1639.99 176.054 1639.88 175.447 1639.88 174.74C1639.88 174.033 1639.99 173.428 1640.23 172.925C1640.47 172.422 1640.79 172.037 1641.21 171.77C1641.62 171.503 1642.09 171.369 1642.62 171.369C1643.03 171.369 1643.35 171.438 1643.6 171.574C1643.85 171.707 1644.04 171.864 1644.18 172.043C1644.32 172.222 1644.43 172.379 1644.5 172.516H1644.58V169.273H1645.85V178H1644.61V176.982H1644.5C1644.43 177.121 1644.32 177.28 1644.17 177.459C1644.03 177.638 1643.83 177.794 1643.58 177.928C1643.33 178.061 1643.01 178.128 1642.61 178.128ZM1642.89 177.041C1643.26 177.041 1643.57 176.945 1643.82 176.751C1644.08 176.555 1644.27 176.284 1644.4 175.938C1644.53 175.591 1644.6 175.187 1644.6 174.727C1644.6 174.273 1644.54 173.875 1644.41 173.534C1644.27 173.193 1644.08 172.928 1643.83 172.737C1643.58 172.547 1643.26 172.452 1642.89 172.452C1642.51 172.452 1642.19 172.551 1641.93 172.75C1641.68 172.949 1641.49 173.22 1641.35 173.564C1641.23 173.908 1641.16 174.295 1641.16 174.727C1641.16 175.165 1641.23 175.558 1641.36 175.908C1641.49 176.257 1641.68 176.534 1641.94 176.739C1642.2 176.94 1642.51 177.041 1642.89 177.041ZM1649.58 178.145C1649.16 178.145 1648.79 178.068 1648.45 177.915C1648.12 177.759 1647.85 177.533 1647.66 177.237C1647.46 176.942 1647.37 176.58 1647.37 176.151C1647.37 175.781 1647.44 175.477 1647.58 175.239C1647.72 175 1647.91 174.811 1648.15 174.672C1648.4 174.533 1648.67 174.428 1648.96 174.357C1649.26 174.286 1649.57 174.232 1649.88 174.195C1650.27 174.149 1650.59 174.112 1650.83 174.084C1651.07 174.053 1651.25 174.003 1651.36 173.935C1651.47 173.866 1651.53 173.756 1651.53 173.602V173.572C1651.53 173.2 1651.42 172.912 1651.21 172.707C1651.01 172.503 1650.7 172.401 1650.29 172.401C1649.86 172.401 1649.52 172.496 1649.27 172.686C1649.03 172.874 1648.86 173.082 1648.76 173.312L1647.57 173.04C1647.71 172.642 1647.92 172.321 1648.19 172.077C1648.46 171.83 1648.78 171.651 1649.14 171.54C1649.5 171.426 1649.87 171.369 1650.27 171.369C1650.53 171.369 1650.81 171.401 1651.1 171.463C1651.39 171.523 1651.67 171.634 1651.93 171.795C1652.18 171.957 1652.4 172.189 1652.56 172.49C1652.73 172.788 1652.81 173.176 1652.81 173.653V178H1651.56V177.105H1651.51C1651.43 177.27 1651.31 177.432 1651.14 177.591C1650.98 177.75 1650.77 177.882 1650.51 177.987C1650.25 178.092 1649.94 178.145 1649.58 178.145ZM1649.85 177.122C1650.21 177.122 1650.51 177.053 1650.76 176.913C1651.01 176.774 1651.2 176.592 1651.33 176.368C1651.47 176.141 1651.53 175.898 1651.53 175.639V174.795C1651.49 174.841 1651.4 174.884 1651.27 174.923C1651.14 174.96 1651 174.993 1650.83 175.021C1650.67 175.047 1650.51 175.071 1650.35 175.094C1650.19 175.114 1650.06 175.131 1649.96 175.145C1649.71 175.176 1649.48 175.229 1649.28 175.303C1649.08 175.376 1648.92 175.483 1648.79 175.622C1648.67 175.759 1648.61 175.94 1648.61 176.168C1648.61 176.483 1648.73 176.722 1648.96 176.884C1649.2 177.043 1649.49 177.122 1649.85 177.122ZM1655.78 169.273V178H1654.5V169.273H1655.78ZM1660.31 178.132C1659.67 178.132 1659.11 177.994 1658.65 177.719C1658.19 177.44 1657.83 177.05 1657.57 176.547C1657.32 176.041 1657.2 175.449 1657.2 174.77C1657.2 174.099 1657.32 173.509 1657.57 172.997C1657.83 172.486 1658.18 172.087 1658.63 171.8C1659.09 171.513 1659.62 171.369 1660.22 171.369C1660.59 171.369 1660.95 171.43 1661.3 171.553C1661.65 171.675 1661.96 171.866 1662.23 172.128C1662.51 172.389 1662.72 172.729 1662.88 173.146C1663.04 173.561 1663.12 174.065 1663.12 174.659V175.111H1657.92V174.156H1661.87C1661.87 173.821 1661.81 173.524 1661.67 173.266C1661.53 173.004 1661.34 172.798 1661.09 172.648C1660.85 172.497 1660.56 172.422 1660.23 172.422C1659.88 172.422 1659.56 172.51 1659.3 172.686C1659.03 172.859 1658.83 173.087 1658.68 173.368C1658.54 173.646 1658.47 173.949 1658.47 174.276V175.021C1658.47 175.459 1658.55 175.831 1658.7 176.138C1658.86 176.445 1659.07 176.679 1659.35 176.841C1659.63 177 1659.95 177.08 1660.33 177.08C1660.57 177.08 1660.79 177.045 1660.99 176.977C1661.19 176.906 1661.36 176.801 1661.5 176.662C1661.65 176.523 1661.76 176.351 1661.84 176.146L1663.04 176.364C1662.94 176.719 1662.77 177.03 1662.52 177.297C1662.27 177.561 1661.96 177.767 1661.59 177.915C1661.22 178.06 1660.79 178.132 1660.31 178.132Z" fill="#101928"/>
</svg>
