<svg width="20" height="20" viewBox="0 0 20 20" fill="none" xmlns="http://www.w3.org/2000/svg">
  <path d="M17.5 4.16667H13.3333V2.91667C13.3333 2.14312 12.6902 1.5 11.9167 1.5H8.08333C7.30978 1.5 6.66667 2.14312 6.66667 2.91667V4.16667H2.5C2.04167 4.16667 1.66667 4.54167 1.66667 5C1.66667 5.45833 2.04167 5.83333 2.5 5.83333H3.33333V16.6667C3.33333 17.5833 4.08333 18.3333 5 18.3333H15C15.9167 18.3333 16.6667 17.5833 16.6667 16.6667V5.83333H17.5C17.9583 5.83333 18.3333 5.45833 18.3333 5C18.3333 4.54167 17.9583 4.16667 17.5 4.16667ZM8.33333 2.91667C8.33333 3.0625 8.4375 3.16667 8.58333 3.16667H11.4167C11.5625 3.16667 11.6667 3.0625 11.6667 2.91667V2.91667C11.6667 2.77083 11.5625 2.66667 11.4167 2.66667H8.58333C8.4375 2.66667 8.33333 2.77083 8.33333 2.91667V2.91667ZM15 16.6667H5V5.83333H15V16.6667Z" fill="currentColor"/>
  <path d="M8.33333 15H10V7.5H8.33333V15ZM11.6667 15H13.3333V7.5H11.6667V15Z" fill="currentColor"/>
</svg>