<svg width="48" height="48" viewBox="0 0 48 48" fill="none" xmlns="http://www.w3.org/2000/svg">
<rect width="48" height="48" rx="8" fill="#FFE2B9"/>
<path d="M17.0455 18.3636H18.4545V26.0682C18.4545 26.8636 18.267 27.5739 17.892 28.1989C17.5208 28.8201 16.9962 29.3106 16.3182 29.6705C15.6402 30.0265 14.8447 30.2045 13.9318 30.2045C13.0189 30.2045 12.2235 30.0265 11.5455 29.6705C10.8674 29.3106 10.3409 28.8201 9.96591 28.1989C9.5947 27.5739 9.40909 26.8636 9.40909 26.0682V18.3636H10.8182V25.9545C10.8182 26.5227 10.9432 27.0284 11.1932 27.4716C11.4432 27.911 11.7992 28.2576 12.2614 28.5114C12.7273 28.7614 13.2841 28.8864 13.9318 28.8864C14.5795 28.8864 15.1364 28.7614 15.6023 28.5114C16.0682 28.2576 16.4242 27.911 16.6705 27.4716C16.9205 27.0284 17.0455 26.5227 17.0455 25.9545V18.3636ZM27.6321 21.2727C27.5639 20.697 27.2874 20.25 26.8026 19.9318C26.3177 19.6136 25.723 19.4545 25.0185 19.4545C24.5033 19.4545 24.0526 19.5379 23.6662 19.7045C23.2836 19.8712 22.9844 20.1004 22.7685 20.392C22.5563 20.6837 22.4503 21.0152 22.4503 21.3864C22.4503 21.697 22.5241 21.964 22.6719 22.1875C22.8234 22.4072 23.0166 22.5909 23.2514 22.7386C23.4863 22.8826 23.7325 23.0019 23.9901 23.0966C24.2476 23.1875 24.4844 23.2614 24.7003 23.3182L25.8821 23.6364C26.1851 23.7159 26.5223 23.8258 26.8935 23.9659C27.2685 24.1061 27.6264 24.2973 27.9673 24.5398C28.312 24.7784 28.5961 25.0852 28.8196 25.4602C29.0431 25.8352 29.1548 26.2955 29.1548 26.8409C29.1548 27.4697 28.9901 28.0379 28.6605 28.5455C28.3348 29.053 27.8575 29.4564 27.2287 29.7557C26.6037 30.0549 25.8442 30.2045 24.9503 30.2045C24.117 30.2045 23.3954 30.0701 22.7855 29.8011C22.1795 29.5322 21.7022 29.1572 21.3537 28.6761C21.009 28.1951 20.8139 27.6364 20.7685 27H22.223C22.2609 27.4394 22.4086 27.803 22.6662 28.0909C22.9276 28.375 23.2571 28.5871 23.6548 28.7273C24.0563 28.8636 24.4882 28.9318 24.9503 28.9318C25.4882 28.9318 25.9711 28.8447 26.3991 28.6705C26.8272 28.4924 27.1662 28.2462 27.4162 27.9318C27.6662 27.6136 27.7912 27.2424 27.7912 26.8182C27.7912 26.4318 27.6832 26.1174 27.4673 25.875C27.2514 25.6326 26.9673 25.4356 26.6151 25.2841C26.2628 25.1326 25.8821 25 25.473 24.8864L24.0412 24.4773C23.1321 24.2159 22.4124 23.8428 21.8821 23.358C21.3518 22.8731 21.0866 22.2386 21.0866 21.4545C21.0866 20.803 21.2628 20.2348 21.6151 19.75C21.9711 19.2614 22.4484 18.8826 23.0469 18.6136C23.6491 18.3409 24.3215 18.2045 25.0639 18.2045C25.8139 18.2045 26.4806 18.339 27.0639 18.608C27.6473 18.8731 28.1094 19.2367 28.4503 19.6989C28.795 20.161 28.9768 20.6856 28.9957 21.2727H27.6321ZM35.0625 30H31.4716V18.3636H35.2216C36.3504 18.3636 37.3163 18.5966 38.1193 19.0625C38.9223 19.5246 39.5379 20.1894 39.9659 21.0568C40.3939 21.9205 40.608 22.9545 40.608 24.1591C40.608 25.3712 40.392 26.4148 39.9602 27.2898C39.5284 28.161 38.8996 28.8314 38.0739 29.3011C37.2481 29.767 36.2443 30 35.0625 30ZM32.8807 28.75H34.9716C35.9337 28.75 36.7311 28.5644 37.3636 28.1932C37.9962 27.822 38.4678 27.2936 38.7784 26.608C39.089 25.9223 39.2443 25.1061 39.2443 24.1591C39.2443 23.2197 39.0909 22.411 38.7841 21.733C38.4773 21.0511 38.0189 20.5284 37.4091 20.1648C36.7992 19.7973 36.0398 19.6136 35.1307 19.6136H32.8807V28.75Z" fill="#101928"/>
</svg>
