<svg width="17" height="17" viewBox="0 0 17 17" fill="none" xmlns="http://www.w3.org/2000/svg">
<path fill-rule="evenodd" clip-rule="evenodd" d="M9.49976 7.5H15.4998C16.052 7.5 16.4998 7.94772 16.4998 8.5C16.4998 9.05229 16.052 9.5 15.4998 9.5H9.49976V15.5C9.49976 16.0523 9.05204 16.5 8.49976 16.5C7.94747 16.5 7.49976 16.0523 7.49976 15.5V9.5H1.49976C0.947471 9.5 0.499756 9.05229 0.499756 8.5C0.499756 7.94772 0.947471 7.5 1.49976 7.5H7.49976V1.5C7.49976 0.947715 7.94747 0.5 8.49976 0.5C9.05204 0.5 9.49976 0.947715 9.49976 1.5V7.5Z" fill="white"/>
</svg>
